<svg width="750" height="500" viewBox="0 0 750 500" fill="none" xmlns="http://www.w3.org/2000/svg">
<path d="M387 40.0699C387 40.0699 386.1 163.57 319.78 152.5C255.12 141.7 278.73 27.6599 278.73 27.6599C278.73 27.6599 330.57 65.5499 387 40.0699Z" fill="#EBEBEB"/>
<path d="M320.92 81.9998C312.188 77.5399 303.828 72.3867 295.92 66.5898C294.709 68.7258 294.099 71.1505 294.158 73.6055C294.216 76.0604 294.939 78.4536 296.25 80.5298C298.86 84.6798 303.63 87.9598 308.51 87.5298C313.9 87.1098 317.25 85.2298 320.89 81.9598" fill="#E0E0E0"/>
<path d="M367.07 72.5398C358.536 77.3489 349.627 81.459 340.43 84.8298C341.54 87.0212 343.224 88.8705 345.302 90.1807C347.38 91.4909 349.774 92.2129 352.23 92.2698C357.13 92.3798 362.51 90.2698 364.88 85.9398C367.5 81.2098 367.79 77.3898 367.07 72.5398Z" fill="#E0E0E0"/>
<path d="M305.92 118.14C305.24 117.93 304.83 116.93 304.86 115.22C305.011 112.842 305.694 110.528 306.86 108.45C308.592 105.266 311.039 102.527 314.01 100.45C315.821 99.1507 317.812 98.1231 319.92 97.3999C322.265 96.5629 324.74 96.1465 327.23 96.1699C332.021 96.2475 336.656 97.8872 340.43 100.84C343.348 103.068 345.674 105.98 347.2 109.32C348.243 111.48 348.773 113.851 348.75 116.25C348.64 117.96 348.15 118.92 347.46 119.08C345.99 119.42 344.26 116.56 341.04 113.36C339.271 111.555 337.25 110.015 335.04 108.79C332.624 107.418 329.908 106.659 327.13 106.58C325.725 106.573 324.325 106.758 322.97 107.13C321.613 107.478 320.298 107.974 319.05 108.61C316.765 109.765 314.643 111.218 312.74 112.93C309.32 115.9 307.35 118.59 305.92 118.14Z" fill="#E0E0E0"/>
<path d="M601.21 79.8999C591.862 76.9634 582.763 73.285 574 68.8999C573.169 71.2111 572.979 73.7043 573.451 76.1147C573.923 78.5251 575.039 80.7627 576.68 82.5899C579.95 86.2299 585.21 88.6699 589.96 87.4599C595.2 86.1299 598.18 83.7199 601.21 79.8799" fill="#E0E0E0"/>
<path d="M645.11 62.7898C637.506 68.9701 629.416 74.5281 620.92 79.4098C622.388 81.3809 624.363 82.9174 626.634 83.8559C628.906 84.7944 631.389 85.0999 633.82 84.7398C638.66 84.0298 643.59 80.9898 645.21 76.3598C647 71.2598 646.63 67.4498 645.11 62.7898Z" fill="#E0E0E0"/>
<path d="M592.53 118.06C591.83 117.96 591.26 117.06 590.99 115.36C590.75 112.992 591.044 110.6 591.85 108.36C593.005 104.912 594.95 101.782 597.53 99.2199C599.091 97.6295 600.881 96.2813 602.84 95.2199C605.014 94.0045 607.383 93.1755 609.84 92.7699C614.576 92.0389 619.422 92.8746 623.64 95.1499C626.891 96.8563 629.673 99.3357 631.74 102.37C633.135 104.322 634.059 106.571 634.44 108.94C634.63 110.64 634.3 111.67 633.65 111.94C632.26 112.52 630.07 110 626.36 107.39C624.311 105.906 622.057 104.727 619.67 103.89C617.059 102.948 614.258 102.66 611.51 103.05C610.126 103.283 608.78 103.703 607.51 104.3C606.231 104.868 605.02 105.579 603.9 106.42C601.841 107.944 599.992 109.732 598.4 111.74C595.5 115.28 594 118.26 592.53 118.06Z" fill="#E0E0E0"/>
<path d="M697.71 346.29C697.71 346.29 675.05 464.29 613.55 441.97C553.6 420.23 596.33 315.3 596.33 315.3C596.33 315.3 639.22 360.69 697.71 346.29Z" fill="#EBEBEB"/>
<path d="M598 365.6C606.187 370.474 613.968 375.999 621.27 382.12C622.581 380.119 623.324 377.801 623.421 375.411C623.518 373.021 622.964 370.65 621.82 368.55C619.55 364.37 615.12 360.88 610.36 360.96C605.1 361.03 601.73 362.65 598 365.6Z" fill="#E0E0E0"/>
<path d="M646.69 389.92C655.706 386.83 664.956 384.469 674.35 382.86C673.67 380.567 672.381 378.501 670.62 376.883C668.859 375.264 666.692 374.154 664.35 373.67C659.69 372.67 654.16 373.81 651.13 377.49C647.79 381.55 646.84 385.16 646.67 389.92" fill="#E0E0E0"/>
<path d="M652.5 400.43C653.12 400.76 653.33 401.85 652.95 403.59C652.3 405.987 651.133 408.212 649.53 410.11C647.146 413.048 644.114 415.393 640.67 416.96C638.57 417.948 636.336 418.622 634.04 418.96C631.489 419.365 628.886 419.321 626.35 418.83C621.471 417.846 617.045 415.301 613.74 411.58C611.169 408.752 609.326 405.34 608.37 401.64C607.702 399.234 607.582 396.708 608.02 394.25C608.43 392.52 609.09 391.62 609.79 391.59C611.3 391.53 612.48 394.82 615.16 398.79C616.63 401.04 618.422 403.062 620.48 404.79C622.738 406.705 625.435 408.031 628.33 408.65C629.803 408.928 631.307 409.002 632.8 408.87C634.286 408.764 635.755 408.493 637.18 408.06C639.778 407.288 642.257 406.164 644.55 404.72C648.68 402.17 651.17 399.72 652.5 400.43Z" fill="#E0E0E0"/>
<path d="M54.11 144.3C62.2997 149.175 70.0848 154.699 77.39 160.82C78.6956 158.819 79.436 156.503 79.5328 154.116C79.6297 151.729 79.0793 149.36 77.94 147.26C75.66 143.08 71.23 139.59 66.47 139.66C61.21 139.74 57.85 141.35 54.11 144.3Z" fill="#EBEBEB"/>
<path d="M102.82 168.62C111.838 165.538 121.087 163.18 130.48 161.57C129.799 159.276 128.51 157.21 126.749 155.59C124.988 153.971 122.822 152.858 120.48 152.37C115.82 151.37 110.3 152.52 107.27 156.2C103.92 160.26 102.98 163.86 102.81 168.62" fill="#EBEBEB"/>
<path d="M108.62 179.13C109.25 179.47 109.45 180.56 109.08 182.29C108.43 184.687 107.263 186.912 105.66 188.81C103.276 191.754 100.239 194.103 96.79 195.67C94.6919 196.654 92.4619 197.327 90.17 197.67C87.615 198.07 85.0101 198.026 82.47 197.54C77.5941 196.556 73.1712 194.011 69.87 190.29C67.294 187.466 65.4502 184.053 64.5 180.35C63.822 177.945 63.7023 175.418 64.15 172.96C64.55 171.23 65.21 170.33 65.92 170.3C67.43 170.24 68.6 173.52 71.29 177.49C72.7474 179.746 74.5377 181.769 76.6 183.49C78.8556 185.408 81.5534 186.735 84.45 187.35C85.9258 187.631 87.4332 187.709 88.93 187.58C90.4156 187.474 91.8848 187.202 93.31 186.77C95.9037 185.988 98.382 184.864 100.68 183.43C104.8 180.87 107.29 178.43 108.62 179.13Z" fill="#EBEBEB"/>
<path d="M168.29 365C168.29 365 200.65 457.42 148.18 466.9C97.0399 476.13 84.1799 384.7 84.1799 384.7C84.1799 384.7 133 399.11 168.29 365Z" fill="#EBEBEB"/>
<path d="M124.27 408.12C117.999 412.703 111.372 416.776 104.45 420.3C105.534 421.919 107.035 423.215 108.796 424.05C110.557 424.884 112.51 425.226 114.45 425.04C118.32 424.67 122.35 422.46 123.81 418.87C125.275 415.464 125.442 411.64 124.28 408.12" fill="#E0E0E0"/>
<path d="M166.46 404.07C158.696 403.868 150.961 403.042 143.33 401.6C143.194 403.542 143.588 405.484 144.468 407.22C145.349 408.957 146.683 410.422 148.33 411.46C151.61 413.53 156.15 414.24 159.51 412.29C162.752 410.492 165.221 407.567 166.45 404.07" fill="#E0E0E0"/>
<path d="M129.15 448.81C128.45 448.81 127.72 448.18 127.15 446.81C126.441 444.839 126.215 442.726 126.49 440.65C126.84 437.477 127.948 434.435 129.72 431.78C130.786 430.124 132.097 428.64 133.61 427.38C135.285 425.944 137.201 424.816 139.27 424.05C143.261 422.607 147.616 422.523 151.66 423.81C154.755 424.756 157.557 426.477 159.8 428.81C161.305 430.286 162.425 432.109 163.06 434.12C163.44 435.59 163.25 436.56 162.66 436.96C161.42 437.78 159.01 436.16 155.48 434.77C153.562 433.969 151.543 433.435 149.48 433.18C147.271 432.884 145.023 433.113 142.92 433.85C140.81 434.682 138.913 435.977 137.37 437.64C135.905 439.174 134.635 440.884 133.59 442.73C131.6 446 130.64 448.71 129.15 448.81Z" fill="#E0E0E0"/>
<path d="M574.09 161.22L549.38 150.55L545.42 173.57L565.36 186.18L576.88 175.15L574.09 161.22Z" fill="#FFBE9D"/>
<path d="M433.55 233.48C431.83 226.69 434.09 219.63 435.29 212.73C437.04 202.66 436.5 192.36 436.12 182.16C435.74 171.96 435.52 161.6 437.88 151.66C440.24 141.72 445.5 132.1 454 126.47C462.5 120.84 474.6 120.06 482.73 126.25L478.73 152.44C482.458 189.344 481.942 226.554 477.19 263.34C466.144 265.152 454.924 265.658 443.76 264.85C441.47 264.69 438.81 264.23 437.76 262.2C436.47 259.72 438.42 256.9 439.23 254.2C440.29 250.69 439.23 246.9 437.8 243.54C436.37 240.18 434.45 237 433.55 233.48Z" fill="#263238"/>
<path d="M467.71 133C470.922 129.713 474.891 127.265 479.27 125.87C481.023 125.194 482.936 125.051 484.77 125.46C486.56 126 488.11 127.71 487.89 129.56L477.21 145.05C475.1 147.05 471.62 146.8 468.98 145.53C466.98 144.53 465.04 142.9 464.54 140.69C463.9 137.89 465.69 135.09 467.71 133Z" fill="#455A64"/>
<path d="M549.45 176.46C547.27 154.24 528.09 136.62 505.38 137.46C481.29 138.39 463.06 158.64 464.74 181.99L473.93 275.86C474.108 277.676 474.89 279.38 476.15 280.7C482.87 287.82 493.76 292.5 502.78 292.32C511.53 292.16 519.85 288.56 526.49 283.32C527.59 282.447 528.441 281.3 528.957 279.994C529.473 278.688 529.636 277.269 529.43 275.88L526.52 255C526.516 254.982 526.515 254.964 526.518 254.946C526.522 254.928 526.529 254.91 526.539 254.895C526.55 254.88 526.563 254.867 526.579 254.858C526.594 254.848 526.612 254.842 526.63 254.84C528.599 254.68 530.547 254.315 532.44 253.75C537.74 251.54 550.92 243.92 552.36 222.58C552.84 215.58 551.36 195.94 549.45 176.46Z" fill="#FFBE9D"/>
<path d="M523.68 211.71C523.68 211.5 525.92 210.91 529.61 210.11C530.55 209.93 531.43 209.67 531.53 209.02C531.519 208.05 531.208 207.107 530.64 206.32L527.18 199.48C522.35 189.73 518.76 181.68 519.18 181.48C519.6 181.28 523.82 189.05 528.65 198.8C529.82 201.2 530.94 203.49 532 205.69C532.46 206.69 533.18 207.86 532.83 209.3C532.72 209.641 532.534 209.952 532.287 210.21C532.039 210.468 531.736 210.666 531.4 210.79C530.888 210.981 530.354 211.105 529.81 211.16C526.05 211.69 523.72 211.92 523.68 211.71Z" fill="#263238"/>
<path d="M546 192.51C545.68 193.11 542.66 191.22 539 191.83C535.34 192.44 533 195.09 532.54 194.61C532.3 194.41 532.54 193.37 533.54 192.14C534.803 190.605 536.579 189.579 538.54 189.25C540.53 188.951 542.562 189.381 544.26 190.46C545.63 191.32 546.2 192.23 546 192.51Z" fill="#263238"/>
<path d="M509.38 194.83C508.94 195.39 506 193.11 501.98 193.22C497.96 193.33 495.1 195.66 494.64 195.12C494.42 194.88 494.85 193.88 496.09 192.8C497.728 191.419 499.792 190.642 501.934 190.6C504.077 190.558 506.169 191.254 507.86 192.57C509.13 193.6 509.6 194.58 509.38 194.83Z" fill="#263238"/>
<path d="M526.49 254.93C526.49 254.93 512.28 257.35 493.37 248.34C493.37 248.34 500.76 266.44 527.43 261.61L526.49 254.93Z" fill="#EB996E"/>
<path d="M523.57 220.42C522.32 220.027 520.992 219.953 519.707 220.204C518.421 220.456 517.219 221.025 516.21 221.86C515.47 222.447 514.854 223.175 514.399 224.003C513.943 224.83 513.658 225.741 513.56 226.68C513.468 227.577 513.659 228.48 514.105 229.264C514.552 230.047 515.232 230.672 516.05 231.05C517.9 231.75 520.13 230.73 521.53 229.13C522.825 227.438 523.777 225.508 524.33 223.45C524.549 222.906 524.665 222.326 524.67 221.74C524.671 221.46 524.59 221.186 524.435 220.953C524.28 220.719 524.059 220.537 523.8 220.43" fill="#EB996E"/>
<path d="M511.19 188.52C510.33 189.14 507.52 186.65 503.62 184.62C499.72 182.59 496.15 181.56 496.17 180.5C496.17 180 497.22 179.57 498.94 179.57C501.183 179.668 503.375 180.267 505.354 181.325C507.334 182.382 509.052 183.871 510.38 185.68C511.36 187.11 511.59 188.22 511.19 188.52Z" fill="#263238"/>
<path d="M542.45 178.35C542.34 179.48 539.39 180.66 536.45 182.86C533.51 185.06 531.45 187.42 530.31 187.17C529.8 187.02 529.68 186.07 530.31 184.62C531.198 182.699 532.578 181.046 534.31 179.83C535.996 178.558 537.992 177.76 540.09 177.52C541.61 177.41 542.47 177.82 542.45 178.35Z" fill="#263238"/>
<path d="M507.92 132.33C505.48 129.33 501.67 128.44 497.58 128.47C480.9 128.58 464.27 141.27 457.32 156.47C450.37 171.67 453.11 192.17 462.18 206.17L468.46 206.27C481.06 203.49 496.86 164.65 511.6 142.27C513.43 139.41 510 134.9 507.92 132.33Z" fill="#263238"/>
<path d="M540.79 138.08C532.79 131.41 520.18 123.71 506.89 131.33C505.44 135.62 510.45 140.1 514.43 142.55C520.26 146.13 525.21 148.39 529.07 151.01C536.89 156.3 546.99 165.49 549.51 177.06C549.66 177.79 550.24 177.81 550.96 177.58C551.89 177.28 553.33 172.16 553.44 165.65C553.7 151.74 548.84 144.75 540.79 138.08Z" fill="#263238"/>
<path d="M471.33 198.16C470.92 198.02 454.93 194.45 456.48 210.43C458.03 226.41 473.75 221.55 473.74 221.09C473.73 220.63 471.33 198.16 471.33 198.16Z" fill="#FFBE9D"/>
<path d="M468.27 215.51C468.19 215.51 468.01 215.73 467.56 215.99C466.926 216.341 466.179 216.431 465.48 216.24C463.73 215.78 462.05 213.24 461.7 210.37C461.523 209.005 461.657 207.617 462.09 206.31C462.196 205.798 462.425 205.32 462.758 204.918C463.091 204.515 463.517 204.2 464 204C464.31 203.885 464.651 203.882 464.963 203.992C465.275 204.101 465.54 204.316 465.71 204.6C465.97 205.03 465.9 205.36 465.99 205.38C466.08 205.4 466.3 205.07 466.11 204.43C465.982 204.045 465.729 203.714 465.39 203.49C464.918 203.199 464.35 203.106 463.81 203.23C463.165 203.421 462.581 203.776 462.113 204.26C461.645 204.743 461.31 205.339 461.14 205.99C460.592 207.44 460.41 209.003 460.61 210.54C461.02 213.75 462.96 216.6 465.34 217.04C465.78 217.122 466.233 217.104 466.666 216.988C467.099 216.873 467.5 216.661 467.84 216.37C468.28 215.9 468.33 215.53 468.27 215.51Z" fill="#EB996E"/>
<path d="M477.19 191.77C477.14 191.54 481.03 191.36 486.52 188.77C493.605 185.23 499.511 179.71 503.52 172.88C507.442 165.993 510.056 158.439 511.23 150.6C511.73 147.6 512.02 145.14 512.23 143.44C512.277 142.554 512.401 141.674 512.6 140.81C512.7 141.694 512.7 142.586 512.6 143.47C512.53 145.18 512.35 147.66 511.93 150.7C510.949 158.689 508.385 166.403 504.39 173.39C499.52 181.54 492.45 187 486.79 189.39C484.555 190.39 482.203 191.105 479.79 191.52C479.128 191.638 478.461 191.718 477.79 191.76C477.592 191.794 477.389 191.797 477.19 191.77Z" fill="#263238"/>
<path d="M558.16 200.15C557.542 200.386 556.858 200.386 556.24 200.15C555.547 199.826 554.979 199.285 554.62 198.61C554.386 198.169 554.247 197.685 554.21 197.187C554.174 196.69 554.242 196.19 554.41 195.72C554.821 194.538 555.448 193.443 556.26 192.49C557.239 191.362 558.103 190.139 558.84 188.84C559.231 188.091 559.469 187.272 559.54 186.43C559.588 185.539 559.416 184.65 559.04 183.84C558.212 182.238 557.045 180.835 555.62 179.73C554.251 178.699 553.044 177.469 552.04 176.08C551.244 174.735 550.874 173.18 550.98 171.62C551.11 168.62 552.11 165.88 552.16 163.47C552.352 161.564 551.917 159.647 550.92 158.01C550.632 157.58 550.269 157.204 549.85 156.9C549.56 156.7 549.4 156.61 549.39 156.63C549.872 157.097 550.305 157.614 550.68 158.17C551.547 159.782 551.897 161.622 551.68 163.44C551.57 165.75 550.52 168.44 550.34 171.59C550.202 173.295 550.597 175 551.47 176.47C552.503 177.923 553.751 179.211 555.17 180.29C556.516 181.326 557.624 182.639 558.42 184.14C558.74 184.834 558.893 185.594 558.867 186.358C558.841 187.122 558.637 187.869 558.27 188.54C557.566 189.806 556.742 191.001 555.81 192.11C554.979 193.137 554.348 194.311 553.95 195.57C553.781 196.107 553.724 196.672 553.784 197.232C553.845 197.791 554.02 198.332 554.3 198.82C554.73 199.549 555.392 200.112 556.18 200.42C556.681 200.601 557.229 200.601 557.73 200.42C557.893 200.366 558.041 200.274 558.16 200.15Z" fill="#263238"/>
<path d="M475.17 249.69C475.33 249.523 475.471 249.339 475.59 249.14C475.979 248.597 476.314 248.018 476.59 247.41C477.601 245.184 478.073 242.752 477.97 240.31C477.901 238.618 477.563 236.947 476.97 235.36C476.203 233.612 475.275 231.938 474.2 230.36C473.2 228.69 472.35 226.61 473.26 224.71C474.17 222.81 476.06 221.46 477.26 219.29C477.566 218.732 477.726 218.106 477.726 217.47C477.726 216.834 477.566 216.208 477.26 215.65C476.608 214.685 475.85 213.796 475 213C474.349 212.239 473.903 211.324 473.705 210.342C473.507 209.36 473.564 208.344 473.87 207.39C474.385 205.594 475.211 203.901 476.31 202.39C477.277 201.023 478.123 199.574 478.84 198.06C479.398 196.951 479.671 195.72 479.634 194.479C479.598 193.237 479.252 192.025 478.63 190.95C478.27 190.378 477.771 189.907 477.18 189.58C476.983 189.46 476.766 189.376 476.54 189.33C477.289 189.764 477.924 190.371 478.39 191.1C478.934 192.14 479.218 193.296 479.218 194.47C479.218 195.644 478.934 196.8 478.39 197.84C477.648 199.308 476.792 200.716 475.83 202.05C474.666 203.611 473.786 205.364 473.23 207.23C472.956 208.274 472.888 209.361 473.03 210.43C473.207 211.551 473.712 212.595 474.48 213.43C475.261 214.185 475.964 215.016 476.58 215.91C476.834 216.36 476.968 216.868 476.968 217.385C476.968 217.902 476.834 218.41 476.58 218.86C475.58 220.8 473.58 222.18 472.58 224.33C472.108 225.394 472.016 226.587 472.32 227.71C472.605 228.737 473.036 229.717 473.6 230.62C474.673 232.171 475.607 233.814 476.39 235.53C476.965 237.056 477.302 238.662 477.39 240.29C477.543 242.677 477.164 245.068 476.28 247.29C475.64 248.86 475.11 249.65 475.17 249.69Z" fill="#263238"/>
<path d="M424.05 248C423.97 248.21 424.3 248.69 425.33 249C426.092 249.156 426.879 249.147 427.638 248.975C428.397 248.802 429.11 248.47 429.73 248C431.241 246.951 432.329 245.398 432.8 243.62C432.979 242.94 433.086 242.243 433.12 241.54C433.094 238.482 432.27 235.483 430.73 232.84C429.32 230.12 427.67 227.47 427.33 224.95C426.99 222.43 427.83 219.57 429.48 216.36C431.13 213.15 433.48 209.63 435.16 205.2C436.791 200.808 437.826 196.217 438.24 191.55C439.17 182.17 438.51 173.55 438.82 166.08C438.943 159.553 440.163 153.092 442.43 146.97C443.984 142.9 446.368 139.199 449.43 136.1C450.56 135.04 451.43 134.17 452.12 133.62C452.81 133.07 453.05 132.62 452.94 132.35C452.83 132.08 452.33 132.1 451.43 132.29C450.116 132.608 448.856 133.116 447.69 133.8C443.406 136.448 439.944 140.236 437.69 144.74C434.419 151.236 432.484 158.323 432 165.58C431.31 173.58 431.73 182.18 430.87 190.7C430.519 194.745 429.672 198.731 428.35 202.57C427.15 206.14 425.04 209.5 423.35 213.32C422.46 215.273 421.789 217.319 421.35 219.42C420.89 221.599 420.89 223.851 421.35 226.03C421.826 227.951 422.606 229.785 423.66 231.46C424.57 232.96 425.48 234.23 426.26 235.4C427.637 237.21 428.584 239.31 429.03 241.54C429.069 241.966 429.069 242.394 429.03 242.82C429.008 243.187 428.941 243.55 428.83 243.9C428.621 244.573 428.282 245.199 427.83 245.74C426.13 247.85 424.21 247.44 424.05 248Z" fill="#263238"/>
<path d="M521.53 231.38C521.53 231.45 521.16 231.53 520.53 231.67C519.563 231.878 518.579 231.998 517.59 232.03C517.252 232.023 516.917 231.976 516.59 231.89C516.219 231.798 515.86 231.664 515.52 231.49C515.139 231.289 514.8 231.018 514.52 230.69C514.26 230.352 514.033 229.991 513.84 229.61C513.33 228.835 513.008 227.952 512.9 227.03C512.89 226.769 512.91 226.507 512.96 226.25L513.11 225.56C513.23 225.11 513.36 224.64 513.53 224.18C513.845 223.247 514.36 222.393 515.04 221.68C515.697 221.029 516.489 220.53 517.36 220.22C518.789 219.726 520.317 219.592 521.81 219.83C524.3 220.23 525.7 220.83 525.68 220.95C525.66 221.07 524.13 220.76 521.74 220.56C520.382 220.445 519.016 220.633 517.74 221.11C517.012 221.399 516.352 221.835 515.8 222.39C515.234 223.011 514.805 223.743 514.54 224.54C514.386 224.956 514.256 225.38 514.15 225.81L514 226.45C513.98 226.63 513.98 226.811 514 226.99C514.092 227.762 514.355 228.503 514.77 229.16C515.006 229.808 515.444 230.362 516.02 230.74C516.546 231.048 517.133 231.236 517.74 231.29C518.9 231.37 519.91 231.29 520.6 231.29C521.29 231.29 521.53 231.31 521.53 231.38Z" fill="#263238"/>
<path d="M543.84 263.31L521.77 271.09C521.77 271.09 524.31 292.56 524.42 291.23C524.53 289.9 543.84 263.31 543.84 263.31Z" fill="#FFBE9D"/>
<path d="M521.53 231.38C521.53 231.45 521.16 231.53 520.53 231.67C519.563 231.878 518.579 231.998 517.59 232.03C517.252 232.023 516.917 231.976 516.59 231.89C516.219 231.798 515.86 231.664 515.52 231.49C515.139 231.289 514.8 231.018 514.52 230.69C514.26 230.352 514.033 229.991 513.84 229.61C513.33 228.835 513.008 227.952 512.9 227.03C512.89 226.769 512.91 226.507 512.96 226.25L513.11 225.56C513.23 225.11 513.36 224.64 513.53 224.18C513.845 223.247 514.36 222.393 515.04 221.68C515.697 221.029 516.489 220.53 517.36 220.22C518.789 219.726 520.317 219.592 521.81 219.83C524.3 220.23 525.7 220.83 525.68 220.95C525.66 221.07 524.13 220.76 521.74 220.56C520.382 220.445 519.016 220.633 517.74 221.11C517.012 221.399 516.352 221.835 515.8 222.39C515.234 223.011 514.805 223.743 514.54 224.54C514.386 224.956 514.256 225.38 514.15 225.81L514 226.45C513.98 226.63 513.98 226.811 514 226.99C514.092 227.762 514.355 228.503 514.77 229.16C515.006 229.808 515.444 230.362 516.02 230.74C516.546 231.048 517.133 231.236 517.74 231.29C518.9 231.37 519.91 231.29 520.6 231.29C521.29 231.29 521.53 231.31 521.53 231.38Z" fill="#263238"/>
<path d="M565.36 186.18L600.15 208.19L616.35 179.47L574.09 161.22" fill="#FFBE9D"/>
<path d="M434.16 234.1C434.16 234.1 445.43 162.88 448.08 155.58C450.73 148.28 468.19 129.58 478.78 131.89C489.37 134.2 496.89 144.38 497.51 160.1C498.13 175.82 477.36 288.79 477.36 288.79C477.36 288.79 446.96 312.15 435.26 297.87C423.56 283.59 427.06 269.13 434.16 234.1Z" fill="#455A64"/>
<path d="M455.1 276.28C455.1 276.28 507.5 291.34 511.32 290.55C527.38 287.22 543.84 263.31 543.84 263.31L554.14 260.41C554.14 260.41 571.91 316.81 566.24 346.33C560.57 375.85 553.94 393.38 553.94 393.38L563.29 476H410.65L441.78 386.57L433.59 295.63L455.1 276.28Z" fill="#455A64"/>
<path d="M596.31 210L604.02 217L552.38 260.9L563.8 326.79C563.8 326.79 608.14 284.79 625.7 267.56C653.54 240.2 663.6 220.7 660.92 213.37C656.44 201.1 616.7 176.87 616.7 176.87L596.31 210Z" fill="#455A64"/>
<path d="M475.22 322.72C475.11 322.72 474.22 320.98 473.41 317.91C472.92 316.108 472.536 314.278 472.26 312.43C471.936 310.164 471.759 307.879 471.73 305.59C471.731 303.3 471.878 301.012 472.17 298.74C472.419 296.89 472.78 295.057 473.25 293.25C474.07 290.17 474.88 288.36 474.99 288.41C475.33 288.49 472.66 295.96 472.78 305.58C472.9 315.2 475.56 322.64 475.22 322.72Z" fill="#263238"/>
<path d="M527.26 341.17C527.443 341.896 527.53 342.642 527.52 343.39C527.598 345.421 527.508 347.454 527.25 349.47C526.415 356.185 523.942 362.59 520.047 368.124C516.153 373.657 510.958 378.148 504.92 381.2C503.108 382.123 501.221 382.893 499.28 383.5C498.583 383.768 497.853 383.94 497.11 384.01C497.04 383.82 500.11 383.01 504.57 380.55C510.38 377.391 515.383 372.934 519.19 367.526C522.997 362.118 525.506 355.905 526.52 349.37C527.32 344.35 527.06 341.17 527.26 341.17Z" fill="#263238"/>
<path d="M582.35 293.45C582.47 293.56 580.96 295.29 578.73 298.22C575.82 302.033 573.209 306.065 570.92 310.28C568.651 314.507 566.706 318.9 565.1 323.42C563.87 326.9 563.25 329.1 563.1 329.06C562.95 329.02 563.35 326.76 564.41 323.19C567.25 313.88 571.925 305.234 578.16 297.76C580.55 294.92 582.26 293.36 582.35 293.45Z" fill="#263238"/>
<path d="M566.23 342.51C565.812 342.649 565.379 342.736 564.94 342.77C564.09 342.89 562.84 343.12 561.21 343.27C556.621 343.778 552.007 344.015 547.39 343.98C540.542 343.907 533.704 343.44 526.91 342.58C519.23 341.71 510.85 340.28 502.06 339.07C486.997 337.19 471.753 337.304 456.72 339.41C450.95 340.22 446.33 341.15 443.14 341.83L439.48 342.64C439.057 342.764 438.62 342.838 438.18 342.86C438.578 342.679 438.994 342.538 439.42 342.44C440.25 342.2 441.47 341.83 443.05 341.44C446.22 340.63 450.84 339.59 456.61 338.68C463.382 337.635 470.211 337.01 477.06 336.81C480.93 336.71 484.99 336.75 489.2 336.92C493.41 337.09 497.75 337.49 502.2 338.03C511.04 339.25 519.38 340.7 527.03 341.63C533.79 342.524 540.593 343.061 547.41 343.24C553.23 343.35 557.94 343.13 561.19 342.87C562.81 342.78 564.07 342.61 564.93 342.56C565.361 342.506 565.796 342.49 566.23 342.51Z" fill="white"/>
<path d="M606.06 287.35C605.84 287.35 605.91 284.02 604.95 278.79C604.82 278.14 604.68 277.46 604.54 276.79C604.4 276.12 604.16 275.35 603.97 274.6C603.61 273.08 603.03 271.51 602.46 269.85C599.816 262.69 595.732 256.149 590.46 250.63C589.21 249.4 588.06 248.19 586.85 247.2C586.26 246.7 585.71 246.2 585.14 245.73L583.47 244.47C579.19 241.31 576.16 239.92 576.26 239.73C577.013 239.943 577.739 240.245 578.42 240.63L579.54 241.18C579.95 241.39 580.37 241.66 580.83 241.93C581.89 242.517 582.915 243.165 583.9 243.87L585.63 245.1C586.23 245.53 586.8 246.05 587.41 246.55C588.716 247.623 589.965 248.765 591.15 249.97C596.607 255.515 600.781 262.188 603.38 269.52C603.93 271.22 604.5 272.83 604.83 274.38C605 275.16 605.22 275.89 605.35 276.62C605.48 277.35 605.58 278.04 605.7 278.71C605.894 279.906 606.027 281.111 606.1 282.32C606.1 282.85 606.2 283.32 606.21 283.81V285C606.248 285.786 606.198 286.575 606.06 287.35Z" fill="white"/>
<path d="M492.77 199.09C492.199 199.508 491.573 199.845 490.91 200.09C490.166 200.467 489.402 200.801 488.62 201.09C487.72 201.42 486.7 201.84 485.52 202.16C484.34 202.48 483.08 202.9 481.67 203.16C480.26 203.42 478.77 203.74 477.18 204C470.232 204.983 463.162 204.644 456.34 203C454.78 202.59 453.34 202.22 451.94 201.74C450.54 201.26 449.33 200.82 448.2 200.35C447.07 199.88 446.09 199.41 445.2 199C444.45 198.65 443.718 198.259 443.01 197.83C442.373 197.526 441.781 197.135 441.25 196.67C441.34 196.5 443.95 197.98 448.45 199.67C449.58 200.08 450.82 200.54 452.18 200.91C453.54 201.28 454.99 201.69 456.53 202.06C459.892 202.788 463.306 203.249 466.74 203.44C470.175 203.572 473.615 203.438 477.03 203.04C478.6 202.81 480.1 202.62 481.47 202.31C482.84 202 484.14 201.72 485.3 201.42C490 200.14 492.69 198.91 492.77 199.09Z" fill="white"/>
<path d="M447.07 153.91C447.256 153.288 447.536 152.698 447.9 152.16C448.797 150.654 449.828 149.232 450.98 147.91C453.87 144.5 458.72 140.64 464.44 137.08C465.86 136.18 467.26 135.33 468.62 134.5C469.933 133.679 471.311 132.966 472.74 132.37C474.069 131.818 475.491 131.523 476.93 131.5C478.177 131.507 479.414 131.724 480.59 132.14C482.25 132.742 483.829 133.548 485.29 134.54C485.856 134.85 486.372 135.245 486.82 135.71C486.209 135.509 485.624 135.234 485.08 134.89C483.577 134.075 482 133.405 480.37 132.89C479.259 132.553 478.101 132.395 476.94 132.42C475.616 132.475 474.313 132.777 473.1 133.31C471.714 133.909 470.377 134.615 469.1 135.42C467.76 136.26 466.37 137.13 464.94 138.01C459.26 141.55 454.44 145.24 451.48 148.45C448.52 151.66 447.23 154 447.07 153.91Z" fill="#263238"/>
<path d="M178 176.86L164.17 200.86L161.08 217.93L134.69 260.2L131.12 265.92L158.48 285C158.48 285 175.67 246 177.58 242.29C179.49 238.58 187.26 236.19 187.26 236.19L199.61 214.44L178 176.86Z" fill="#FFBE9D"/>
<path d="M180.55 231.76C180.4 231.76 180.55 229.86 180.87 226.84C181.332 222.943 181.376 219.007 181 215.1C180.586 211.221 179.249 207.497 177.1 204.24C175.4 201.78 173.84 200.67 173.96 200.52C174.08 200.37 174.42 200.69 175.12 201.21C176.082 201.966 176.946 202.839 177.69 203.81C180.128 207.078 181.634 210.945 182.05 215C182.447 219.002 182.295 223.039 181.6 227C181.12 230 180.68 231.78 180.55 231.76Z" fill="#EB996E"/>
<path d="M210.3 271L325.68 291C325.68 291 228.28 301.23 228.24 299.89C228.2 298.55 210.3 271 210.3 271Z" fill="#FFBE9D"/>
<path d="M308.87 222.09C308.6 215.09 304.42 208.96 301.31 202.68C296.78 193.53 294.37 183.5 291.85 173.6C289.33 163.7 286.59 153.72 281.5 144.86C276.41 136 268.65 128.27 258.88 125.28C249.11 122.29 237.3 124.98 231.26 133.22L242.49 157.22C249.39 193.662 260.442 229.194 275.43 263.12C286.536 261.736 297.441 259.051 307.92 255.12C310.06 254.31 312.48 253.12 312.92 250.87C313.46 248.13 310.78 245.98 309.26 243.65C307.26 240.58 307.15 236.65 307.61 233.02C308.07 229.39 309 225.75 308.87 222.09Z" fill="#263238"/>
<path d="M247.63 135.48C243.614 133.237 239.109 132.014 234.51 131.92C232.64 131.764 230.766 132.172 229.13 133.09C227.56 134.09 226.57 136.19 227.3 137.9L241.93 149.72C244.53 151.07 247.79 149.81 249.93 147.85C251.61 146.33 252.93 144.21 252.81 141.95C252.66 139.06 250.15 136.89 247.63 135.48Z" fill="#455A64"/>
<path d="M181.26 200.32C177.05 178.39 190.44 156.06 212.46 150.46C235.83 144.52 259.06 158.76 264.06 181.62L281.89 274.25C282.24 276.04 285.72 283.8 284.89 285.43C280.46 294.16 267.58 295.82 258.89 298.22C250.46 300.54 241.45 299.45 233.62 296.35C232.319 295.821 231.179 294.962 230.313 293.857C229.446 292.752 228.883 291.44 228.68 290.05L225.56 269.2C225.558 269.182 225.551 269.164 225.542 269.148C225.533 269.132 225.52 269.118 225.505 269.106C225.49 269.095 225.473 269.087 225.455 269.083C225.437 269.078 225.418 269.077 225.4 269.08C223.466 269.487 221.496 269.691 219.52 269.69C213.81 269.07 199.01 265.5 191.52 245.45C189.1 238.8 185 219.54 181.26 200.32Z" fill="#FFBE9D"/>
<path d="M216.27 226.81C216.27 226.6 213.91 226.68 210.14 226.96C209.19 227.05 208.27 227.05 207.99 226.46C207.723 225.524 207.751 224.529 208.07 223.61C208.51 221.22 208.97 218.7 209.45 216.07C211.32 205.35 212.45 196.62 212.04 196.55C211.63 196.48 209.73 205.12 207.87 215.84C207.43 218.48 207.01 220.99 206.61 223.4C206.47 224.51 206.09 225.82 206.84 227.1C207.046 227.39 207.315 227.631 207.627 227.804C207.938 227.977 208.284 228.078 208.64 228.1C209.182 228.129 209.726 228.092 210.26 227.99C214 227.47 216.3 227 216.27 226.81Z" fill="#263238"/>
<path d="M202.39 211.79C201.94 211.27 199.39 213.79 195.68 213.98C191.97 214.17 189.16 212.09 188.77 212.67C188.58 212.93 189.06 213.88 190.28 214.86C191.86 216.103 193.843 216.718 195.849 216.589C197.855 216.46 199.742 215.595 201.15 214.16C202.26 213 202.61 212 202.39 211.79Z" fill="#263238"/>
<path d="M237.42 202.75C236.77 202.46 235.22 205.84 231.61 207.61C228 209.38 224.38 208.61 224.23 209.33C224.14 209.64 224.98 210.33 226.59 210.71C228.68 211.172 230.865 210.904 232.781 209.95C234.697 208.997 236.228 207.416 237.12 205.47C237.77 204 237.73 202.87 237.42 202.75Z" fill="#263238"/>
<path d="M225.84 269.05C225.84 269.05 240.16 267.33 255.73 253.33C255.73 253.33 253.79 272.79 226.83 275.72L225.84 269.05Z" fill="#EB996E"/>
<path d="M236.45 193.43C236.14 192.43 232.45 192.69 228.06 191.95C223.67 191.21 220.27 189.85 219.64 190.71C219.36 191.12 219.91 192.09 221.28 193.12C223.107 194.427 225.218 195.281 227.44 195.61C229.658 195.994 231.936 195.853 234.09 195.2C235.73 194.65 236.58 193.91 236.45 193.43Z" fill="#263238"/>
<path d="M197.6 195.53C196.52 195.19 194.28 197.44 191.1 199.27C187.92 201.1 184.92 202.11 184.72 203.22C184.65 203.74 185.48 204.22 187.05 204.22C189.174 204.162 191.245 203.541 193.05 202.42C194.885 201.379 196.405 199.862 197.45 198.03C198.14 196.68 198.1 195.72 197.6 195.53Z" fill="#263238"/>
<path d="M208.87 146.22C210.37 142.69 213.76 140.72 217.69 139.58C233.69 134.96 253.26 142.41 264.23 154.97C275.2 167.53 278.39 187.97 273.67 203.97L267.67 205.85C254.79 206.76 228.67 173.99 208.13 156.69C205.59 154.57 207.57 149.29 208.87 146.22Z" fill="#263238"/>
<path d="M179 161.06C184.82 152.38 194.68 141.43 209.59 144.97C212.21 148.67 208.67 154.39 205.59 157.86C201.02 162.96 196.91 166.53 193.94 170.13C187.94 177.42 180.87 189.13 181.74 200.91C181.8 201.65 181.25 201.83 180.5 201.82C179.5 201.82 176.69 197.3 174.73 191.08C170.48 177.82 173.16 169.73 179 161.06Z" fill="#263238"/>
<path d="M262.63 199C262.98 198.74 277.3 190.78 280.35 206.54C283.4 222.3 266.95 222.11 266.83 221.67C266.71 221.23 262.63 199 262.63 199Z" fill="#FFBE9D"/>
<path d="M270.49 214.73C270.55 214.67 270.8 214.87 271.31 215C272.017 215.153 272.756 215.023 273.37 214.64C274.92 213.71 275.81 210.79 275.37 207.94C275.152 206.582 274.632 205.291 273.85 204.16C273.608 203.694 273.255 203.294 272.823 202.996C272.391 202.698 271.892 202.51 271.37 202.45C271.039 202.424 270.71 202.516 270.44 202.71C270.171 202.904 269.98 203.188 269.9 203.51C269.77 203.99 269.9 204.29 269.85 204.33C269.8 204.37 269.46 204.13 269.47 203.46C269.477 203.052 269.626 202.66 269.89 202.35C270.265 201.94 270.785 201.692 271.34 201.66C272.012 201.66 272.673 201.835 273.258 202.166C273.844 202.497 274.333 202.974 274.68 203.55C275.611 204.783 276.229 206.225 276.48 207.75C276.99 210.95 275.94 214.24 273.79 215.34C273.39 215.543 272.95 215.654 272.502 215.664C272.054 215.674 271.609 215.584 271.2 215.4C270.59 215.11 270.44 214.77 270.49 214.73Z" fill="#EB996E"/>
<path d="M176.19 164.73C177.76 164.906 179.347 164.876 180.91 164.64C184.693 164.274 188.437 163.582 192.1 162.57C195.763 161.551 199.33 160.213 202.76 158.57C205.39 157.3 206.91 156.34 206.85 156.23C206.79 156.12 205.15 156.84 202.48 157.93C195.53 160.802 188.257 162.817 180.82 163.93C178 164.38 176.18 164.57 176.19 164.73Z" fill="#455A64"/>
<path d="M172.56 176.9C172.56 177.02 173.91 177.27 176.13 177.2C181.984 176.957 187.6 174.816 192.13 171.1C193.115 170.403 193.954 169.519 194.6 168.5C194.4 168.25 190.51 172.2 184.28 174.5C178.05 176.8 172.54 176.58 172.56 176.9Z" fill="#455A64"/>
<path d="M267.06 160.08C267 159.89 263.69 161.01 258.13 161.69C254.875 162.075 251.597 162.229 248.32 162.15C244.296 162.012 240.286 161.594 236.32 160.9C232.386 160.182 228.501 159.213 224.69 158C221.571 156.982 218.513 155.786 215.53 154.42C210.43 152.09 207.53 150.2 207.4 150.35C208.009 150.902 208.68 151.382 209.4 151.78C210.194 152.319 211.015 152.817 211.86 153.27C212.86 153.83 213.95 154.46 215.23 155.06C218.2 156.53 221.263 157.803 224.4 158.87C228.255 160.146 232.194 161.148 236.19 161.87C240.191 162.568 244.239 162.966 248.3 163.06C251.619 163.097 254.937 162.869 258.22 162.38C259.482 162.209 260.734 161.968 261.97 161.66C262.914 161.472 263.846 161.224 264.76 160.92C265.554 160.722 266.325 160.44 267.06 160.08Z" fill="#455A64"/>
<path d="M209.29 155.71C209.755 156.429 210.291 157.099 210.89 157.71C211.517 158.481 212.185 159.219 212.89 159.92C213.73 160.75 214.64 161.74 215.78 162.7C218.353 165.033 221.108 167.157 224.02 169.05C227.616 171.372 231.415 173.363 235.37 175C239.331 176.576 243.428 177.784 247.61 178.61C251.038 179.257 254.513 179.618 258 179.69C259.49 179.77 260.83 179.69 262 179.63C263.004 179.609 264.006 179.529 265 179.39C265.858 179.347 266.71 179.213 267.54 178.99C267.54 178.78 263.88 179.25 258.02 178.99C254.589 178.825 251.176 178.401 247.81 177.72C243.714 176.854 239.699 175.64 235.81 174.09C231.929 172.478 228.189 170.545 224.63 168.31C221.728 166.473 218.961 164.431 216.35 162.2C211.82 158.37 209.44 155.58 209.29 155.71Z" fill="#455A64"/>
<path d="M255.2 194.5C255.2 194.26 251.41 195.2 245.4 194.26C237.59 192.883 230.348 189.27 224.55 183.86C218.838 178.366 214.19 171.863 210.84 164.68C209.51 161.94 208.54 159.68 207.84 158.09C207.54 157.253 207.168 156.443 206.73 155.67C206.888 156.547 207.136 157.404 207.47 158.23C208.03 159.85 208.9 162.23 210.16 164.97C213.374 172.352 218.024 179.022 223.84 184.59C230.84 191.02 239.14 194.25 245.26 194.95C247.674 195.283 250.12 195.306 252.54 195.02C253.213 194.951 253.881 194.841 254.54 194.69C255 194.6 255.21 194.53 255.2 194.5Z" fill="#263238"/>
<path d="M179.94 225.5C180.597 225.548 181.248 225.345 181.76 224.93C182.335 224.426 182.732 223.749 182.89 223C182.983 222.509 182.975 222.004 182.867 221.515C182.758 221.027 182.552 220.566 182.26 220.16C181.532 219.146 180.624 218.275 179.58 217.59C178.321 216.784 177.143 215.86 176.06 214.83C175.475 214.219 175.016 213.499 174.71 212.71C174.412 211.871 174.326 210.971 174.46 210.09C174.792 208.317 175.512 206.641 176.57 205.18C177.587 203.805 178.393 202.284 178.96 200.67C179.351 199.151 179.264 197.548 178.71 196.08C177.71 193.2 176.01 190.9 175.27 188.6C174.545 186.826 174.419 184.863 174.91 183.01C175.072 182.518 175.312 182.056 175.62 181.64C175.85 181.37 175.97 181.24 175.99 181.26C175.658 181.843 175.39 182.46 175.19 183.1C174.83 184.89 175.029 186.747 175.76 188.42C176.52 190.61 178.28 192.85 179.36 195.86C179.973 197.456 180.078 199.202 179.66 200.86C179.082 202.548 178.253 204.14 177.2 205.58C176.21 206.955 175.527 208.527 175.2 210.19C175.091 210.946 175.16 211.717 175.404 212.442C175.647 213.166 176.057 213.823 176.6 214.36C177.63 215.379 178.759 216.294 179.97 217.09C181.057 217.842 181.996 218.788 182.74 219.88C183.053 220.346 183.267 220.872 183.367 221.424C183.466 221.977 183.451 222.544 183.32 223.09C183.115 223.912 182.64 224.641 181.97 225.16C181.55 225.491 181.024 225.658 180.49 225.63C180.298 225.646 180.105 225.6 179.94 225.5Z" fill="#263238"/>
<path d="M275.52 197.19C275.493 196.907 275.493 196.623 275.52 196.34C275.52 195.79 275.62 194.98 275.64 193.93C275.761 190.969 275.704 188.004 275.47 185.05C275.132 180.679 274.324 176.358 273.06 172.16C271.543 167.014 269.228 162.138 266.2 157.71C264.613 155.446 262.797 153.351 260.78 151.46C258.879 149.715 256.824 148.145 254.64 146.77C250.917 144.453 246.924 142.603 242.75 141.26C239.937 140.339 237.072 139.585 234.17 139C233.17 138.77 232.34 138.65 231.79 138.53C231.511 138.489 231.236 138.422 230.97 138.33C231.252 138.292 231.538 138.292 231.82 138.33C232.37 138.41 233.18 138.48 234.22 138.67C237.161 139.128 240.065 139.796 242.91 140.67C247.158 141.99 251.22 143.844 255 146.19C257.229 147.573 259.327 149.157 261.27 150.92C263.337 152.841 265.194 154.976 266.81 157.29C269.883 161.794 272.215 166.76 273.72 172C274.961 176.235 275.725 180.595 276 185C276.195 187.971 276.175 190.952 275.94 193.92C275.87 194.98 275.74 195.79 275.68 196.34C275.666 196.629 275.613 196.915 275.52 197.19Z" fill="#455A64"/>
<path d="M273.57 249.46C273.57 249.46 273.36 249.34 273.01 249.06C272.503 248.639 272.034 248.174 271.61 247.67C270.01 245.821 268.866 243.622 268.27 241.25C267.857 239.618 267.702 237.93 267.81 236.25C268.05 234.343 268.461 232.462 269.04 230.63C269.52 228.75 269.75 226.51 268.34 224.94C266.93 223.37 264.73 222.62 262.98 220.87C262.527 220.424 262.194 219.872 262.011 219.264C261.827 218.656 261.799 218.012 261.93 217.39C262.28 216.305 262.742 215.259 263.31 214.27C263.717 213.355 263.884 212.351 263.795 211.354C263.706 210.356 263.363 209.398 262.8 208.57C261.794 206.993 260.522 205.602 259.04 204.46C257.725 203.422 256.501 202.275 255.38 201.03C254.532 200.125 253.923 199.023 253.607 197.824C253.291 196.624 253.279 195.365 253.57 194.16C253.756 193.51 254.099 192.916 254.57 192.43C254.728 192.259 254.914 192.117 255.12 192.01C254.516 192.631 254.079 193.394 253.85 194.23C253.626 195.383 253.685 196.572 254.021 197.697C254.357 198.822 254.961 199.849 255.78 200.69C256.906 201.89 258.13 202.994 259.44 203.99C260.997 205.159 262.334 206.594 263.39 208.23C263.958 209.145 264.336 210.165 264.5 211.23C264.655 212.368 264.47 213.526 263.97 214.56C263.431 215.513 262.989 216.518 262.65 217.56C262.54 218.065 262.562 218.59 262.714 219.084C262.867 219.578 263.144 220.025 263.52 220.38C265.05 221.95 267.37 222.7 268.9 224.49C269.651 225.375 270.078 226.49 270.11 227.65C270.128 228.717 269.993 229.781 269.71 230.81C269.114 232.6 268.685 234.441 268.43 236.31C268.103 240.345 269.318 244.355 271.83 247.53C272.88 248.81 273.62 249.41 273.57 249.46Z" fill="#263238"/>
<path d="M322.1 233.3C322.24 233.48 322.05 234.04 321.1 234.61C320.41 234.971 319.651 235.181 318.873 235.226C318.095 235.271 317.317 235.15 316.59 234.87C314.852 234.274 313.373 233.098 312.4 231.54C312.036 230.937 311.737 230.297 311.51 229.63C310.667 226.697 310.605 223.594 311.33 220.63C311.91 217.63 312.74 214.63 312.33 212.11C311.92 209.59 310.33 207.11 307.83 204.47C305.33 201.83 302.07 199.16 299.22 195.39C296.411 191.638 294.114 187.529 292.39 183.17C288.84 174.44 287.03 166.02 284.61 158.91C282.637 152.686 279.632 146.838 275.72 141.61C273.089 138.15 269.769 135.273 265.97 133.16C264.59 132.47 263.48 131.89 262.69 131.54C261.9 131.19 261.5 130.81 261.53 130.54C261.56 130.27 262.05 130.13 262.97 130.06C264.315 129.986 265.663 130.114 266.97 130.44C271.82 131.772 276.204 134.428 279.63 138.11C284.622 143.437 288.495 149.71 291.02 156.56C293.95 164.06 296.02 172.41 299.23 180.33C300.743 184.11 302.707 187.692 305.08 191C307.25 194.07 310.23 196.69 312.97 199.88C314.399 201.488 315.637 203.257 316.66 205.15C317.709 207.112 318.339 209.271 318.51 211.49C318.599 213.466 318.373 215.445 317.84 217.35C317.39 219.05 316.84 220.52 316.46 221.86C315.655 223.986 315.344 226.266 315.55 228.53C315.616 228.956 315.723 229.375 315.87 229.78C315.988 230.134 316.153 230.47 316.36 230.78C316.756 231.364 317.258 231.87 317.84 232.27C320.07 233.79 321.79 232.85 322.1 233.3Z" fill="#263238"/>
<path d="M233.11 234.91C233.03 235.05 232.25 234.71 230.94 234.52C229.26 234.235 227.534 234.432 225.962 235.089C224.391 235.745 223.037 236.835 222.06 238.23C221.29 239.29 220.97 240.09 220.82 240.04C220.67 239.99 220.76 239.11 221.44 237.83C222.357 236.166 223.813 234.863 225.569 234.136C227.324 233.409 229.275 233.301 231.1 233.83C232.48 234.21 233.17 234.8 233.11 234.91Z" fill="#263238"/>
<path d="M239 207.77C239.12 207.83 239 208.39 238.52 209.17C237.862 210.168 236.974 210.993 235.929 211.575C234.884 212.156 233.715 212.477 232.52 212.51C231.61 212.51 231.07 212.3 231.08 212.17C231.08 211.87 233.25 211.91 235.44 210.66C237.63 209.41 238.75 207.62 239 207.77Z" fill="#EB996E"/>
<path d="M199.09 218.17C199.18 218.26 198.92 218.75 198.25 219.31C197.34 220.023 196.259 220.485 195.115 220.65C193.971 220.815 192.804 220.677 191.73 220.25C190.92 219.9 190.54 219.5 190.6 219.39C190.74 219.12 192.6 219.99 194.97 219.62C197.34 219.25 198.88 218 199.09 218.17Z" fill="#EB996E"/>
<path d="M189.48 239.45C189.34 239.45 188.93 237.45 188.28 234.14C187.63 230.83 186.74 226.31 185.64 221.32C184.54 216.33 183.41 211.84 182.64 208.59C181.87 205.34 181.34 203.32 181.48 203.27C181.62 203.22 182.35 205.18 183.35 208.39C184.35 211.6 185.58 216.08 186.7 221.1C187.82 226.12 188.6 230.69 189.06 234.02C189.52 237.35 189.62 239.43 189.48 239.45Z" fill="#EB996E"/>
<path d="M248.35 208.71C247.902 208.219 247.338 207.848 246.71 207.63C244.937 206.938 242.991 206.826 241.15 207.31L241.77 207.68C242.51 208.41 243.25 209.14 244 209.86C244.622 210.576 245.408 211.132 246.29 211.48C246.737 211.638 247.226 211.633 247.669 211.464C248.112 211.296 248.481 210.975 248.71 210.56C248.821 210.248 248.847 209.911 248.783 209.586C248.72 209.26 248.57 208.958 248.35 208.71Z" fill="#455A64"/>
<path d="M247.35 216.39C247.331 215.827 247.165 215.279 246.87 214.8C246.097 213.388 244.896 212.257 243.44 211.57L243.64 212.14C243.73 213.02 243.81 213.9 243.9 214.78C243.917 215.581 244.126 216.367 244.51 217.07C244.714 217.415 245.034 217.678 245.412 217.811C245.791 217.944 246.204 217.941 246.58 217.8C246.821 217.653 247.018 217.445 247.153 217.198C247.289 216.951 247.356 216.672 247.35 216.39Z" fill="#455A64"/>
<path d="M229 290.9C228.72 290.9 227.87 286.62 227.12 281.25C226.37 275.88 225.98 271.49 226.27 271.45C226.56 271.41 227.39 275.73 228.15 281.1C228.91 286.47 229.33 290.86 229 290.9Z" fill="#EB996E"/>
<path d="M319.92 476L315.52 403.49L335.96 324.49L325.68 291C325.68 291 245.78 298.29 241.79 298.7C229 300 210.3 271 210.3 271H199.91C199.91 271 189.7 269.62 179.73 278.48C169.76 287.34 152.42 302.22 152.42 302.22L165.42 276.79L126.88 259C126.88 259 103.75 300 97.4 314.43C93.2 323.95 86.64 340.73 101.63 356.8C110.8 366.63 137.87 370.06 146.63 367.19C152.63 365.19 171.63 354.76 183.21 348.29C183.3 349.82 183.44 351.29 183.64 352.73C187.78 382.51 193.49 400.36 193.49 400.36L183.07 476H319.92Z" fill="#455A64"/>
<path d="M134.53 339.76C134.27 339.63 140.93 325.46 149.4 308.11C157.87 290.76 164.94 276.79 165.2 276.92C165.46 277.05 158.81 291.21 150.34 308.57C141.87 325.93 134.79 339.88 134.53 339.76Z" fill="#263238"/>
<path d="M195.25 402.2C194.745 401.136 194.327 400.032 194 398.9C193.25 396.75 192.26 393.61 191.1 389.72C188.79 381.92 185.96 371.03 183.61 358.85C181.26 346.67 179.84 335.49 179.09 327.4C178.71 323.4 178.47 320.07 178.37 317.8C178.259 316.627 178.235 315.447 178.3 314.27C178.549 315.422 178.706 316.593 178.77 317.77C179 320.03 179.35 323.29 179.77 327.32C180.7 335.38 182.24 346.49 184.58 358.65C186.92 370.81 189.63 381.65 191.76 389.52C192.82 393.43 193.71 396.59 194.34 398.78C194.733 399.894 195.037 401.038 195.25 402.2Z" fill="#263238"/>
<path d="M325.68 291C325.68 291 345 304.68 349.68 322.69C354.36 340.7 378.9 476 378.9 476H336L305.28 365L325.68 291Z" fill="#455A64"/>
<path d="M322.6 370C322.137 370.164 321.663 370.291 321.18 370.38C320.24 370.58 318.87 370.93 317.07 371.23C312.001 372.16 306.882 372.798 301.74 373.14C294.112 373.658 286.458 373.658 278.83 373.14C269.487 372.519 260.192 371.313 251 369.53C231.44 365.71 214.23 360.24 201.86 356.19C195.67 354.14 190.69 352.42 187.26 351.19L183.31 349.77C182.845 349.622 182.393 349.434 181.96 349.21C182.444 349.281 182.92 349.401 183.38 349.57L187.38 350.81L202.08 355.47C214.49 359.34 231.7 364.69 251.18 368.47C260.328 370.255 269.574 371.49 278.87 372.17C286.458 372.725 294.073 372.799 301.67 372.39C308.15 372.01 313.38 371.39 316.97 370.81C318.78 370.57 320.16 370.28 321.11 370.15C321.6 370.046 322.099 369.996 322.6 370Z" fill="white"/>
<path d="M359.57 376.18C359.57 376.37 356.73 376.44 352.21 377.08C351.08 377.24 349.85 377.43 348.53 377.7C347.21 377.97 345.82 378.27 344.35 378.61C341.184 379.428 338.069 380.43 335.02 381.61C331.983 382.827 329.018 384.216 326.14 385.77C324.84 386.52 323.58 387.21 322.45 387.94C321.32 388.67 320.27 389.34 319.33 389.94C315.58 392.54 313.44 394.41 313.33 394.28C313.723 393.737 314.187 393.25 314.71 392.83C315.18 392.38 315.76 391.83 316.47 391.27C317.18 390.71 317.97 390.01 318.91 389.34C319.85 388.67 320.85 387.9 322 387.16C323.15 386.42 324.37 385.67 325.69 384.88C328.593 383.256 331.6 381.823 334.69 380.59C337.785 379.404 340.955 378.425 344.18 377.66C345.67 377.34 347.09 377.02 348.43 376.83C349.77 376.64 351.02 376.45 352.17 376.33C353.32 376.21 354.36 376.15 355.28 376.09C356.2 376.03 356.98 376.02 357.62 376.04C358.273 376.002 358.929 376.049 359.57 376.18Z" fill="white"/>
<path d="M169 354.05C168.82 354.05 168.49 351.49 167.49 347.43C166.908 345.061 166.201 342.724 165.37 340.43C164.344 337.623 163.148 334.882 161.79 332.22C160.394 329.575 158.844 327.014 157.15 324.55C155.751 322.55 154.249 320.624 152.65 318.78C149.92 315.62 148 313.86 148.12 313.78C148.661 314.073 149.156 314.443 149.59 314.88C150.05 315.25 150.59 315.73 151.19 316.31C151.79 316.89 152.49 317.55 153.19 318.31C154.915 320.101 156.522 322.001 158 324C159.771 326.466 161.368 329.052 162.78 331.74C164.158 334.446 165.351 337.242 166.35 340.11C167.144 342.453 167.789 344.845 168.28 347.27C168.52 348.27 168.64 349.27 168.77 350.08C168.889 350.785 168.972 351.496 169.02 352.21C169.103 352.821 169.096 353.441 169 354.05Z" fill="white"/>
<path d="M445.17 230.37C446.29 223.45 443.43 216.61 441.63 209.84C439.02 199.97 438.63 189.66 438.16 179.46C437.69 169.26 436.97 158.93 433.76 149.23C430.55 139.53 424.47 130.41 415.49 125.54C406.51 120.67 394.41 120.93 386.85 127.8L393.06 153.56C392.553 190.646 396.297 227.667 404.22 263.9C415.379 264.748 426.6 264.282 437.65 262.51C439.92 262.15 442.53 261.46 443.41 259.34C444.48 256.77 442.28 254.13 441.25 251.54C439.9 248.13 440.58 244.26 441.76 240.79C442.94 237.32 444.58 234 445.17 230.37Z" fill="#263238"/>
<path d="M402.43 133.28C398.948 130.277 394.778 128.181 390.29 127.18C388.488 126.652 386.568 126.677 384.78 127.25C383.05 127.94 381.65 129.77 382.02 131.6L394.02 146.1C396.3 147.94 399.74 147.36 402.26 145.87C404.21 144.71 405.96 142.87 406.26 140.66C406.64 137.79 404.62 135.17 402.43 133.28Z" fill="#0070CB"/>
<path d="M324.77 183.64C325.01 161.32 342.59 142.1 365.29 141.01C389.37 139.84 409.29 158.44 409.63 181.84L408.63 276.16C408.602 277.98 407.969 279.74 406.83 281.16C400.75 288.83 390.31 294.44 381.31 295.05C372.58 295.64 363.97 292.78 356.92 288.18C355.747 287.406 354.799 286.337 354.17 285.08C353.542 283.823 353.255 282.423 353.34 281.02L354.43 260C354.433 259.982 354.432 259.963 354.427 259.945C354.422 259.928 354.412 259.911 354.4 259.898C354.387 259.884 354.372 259.874 354.354 259.867C354.337 259.861 354.318 259.858 354.3 259.86C352.325 259.868 350.355 259.674 348.42 259.28C342.95 257.53 329.16 251.09 325.87 229.95C324.78 222.91 324.55 203.22 324.77 183.64Z" fill="#FFBE9D"/>
<path d="M353.49 216.52C353.49 216.31 351.2 215.92 347.49 215.45C346.54 215.35 345.64 215.16 345.49 214.52C345.42 213.552 345.647 212.586 346.14 211.75L349 204.64C353 194.51 355.84 186.18 355.42 186.03C355 185.88 351.42 193.96 347.49 204.1C346.54 206.59 345.62 208.97 344.75 211.25C344.39 212.31 343.75 213.52 344.24 214.92C344.378 215.252 344.59 215.549 344.861 215.787C345.131 216.024 345.452 216.196 345.8 216.29C346.326 216.428 346.866 216.502 347.41 216.51C351.13 216.71 353.48 216.73 353.49 216.52Z" fill="#263238"/>
<path d="M336 199.79C335.992 200.684 336.335 201.546 336.956 202.189C337.577 202.833 338.426 203.206 339.32 203.23C339.757 203.267 340.198 203.216 340.615 203.082C341.033 202.947 341.419 202.73 341.753 202.444C342.086 202.159 342.359 201.81 342.556 201.417C342.753 201.025 342.87 200.598 342.9 200.16C342.908 199.268 342.566 198.409 341.947 197.768C341.328 197.126 340.481 196.754 339.59 196.73C339.152 196.69 338.711 196.739 338.293 196.872C337.874 197.005 337.486 197.22 337.152 197.505C336.817 197.79 336.543 198.139 336.345 198.531C336.148 198.924 336.03 199.352 336 199.79Z" fill="#263238"/>
<path d="M331.43 188C331.81 188.57 334.66 186.43 338.37 186.71C342.08 186.99 344.59 189.44 345.05 188.92C345.27 188.7 344.93 187.68 343.84 186.55C342.443 185.117 340.567 184.249 338.57 184.11C336.562 183.978 334.574 184.582 332.98 185.81C331.73 186.8 331.25 187.76 331.43 188Z" fill="#263238"/>
<path d="M371.32 201.16C371.309 202.053 371.65 202.915 372.27 203.559C372.889 204.202 373.737 204.576 374.63 204.6C375.068 204.637 375.509 204.586 375.927 204.452C376.345 204.317 376.732 204.1 377.066 203.815C377.4 203.529 377.674 203.18 377.872 202.788C378.07 202.396 378.189 201.968 378.22 201.53C378.226 200.639 377.882 199.782 377.264 199.141C376.645 198.5 375.8 198.126 374.91 198.1C374.473 198.062 374.032 198.111 373.614 198.244C373.196 198.378 372.808 198.594 372.474 198.878C372.14 199.163 371.866 199.511 371.668 199.903C371.47 200.295 371.352 200.722 371.32 201.16Z" fill="#263238"/>
<path d="M366.58 188.43C367.07 188.95 369.79 186.43 373.81 186.18C377.83 185.93 380.87 188.02 381.29 187.44C381.49 187.18 380.98 186.22 379.64 185.25C377.888 184.019 375.767 183.426 373.63 183.569C371.494 183.713 369.471 184.585 367.9 186.04C366.72 187.19 366.34 188.2 366.58 188.43Z" fill="#263238"/>
<path d="M354.44 259.83C354.44 259.83 368.81 261 386.86 250.38C386.86 250.38 381.08 269.06 354.08 266.56L354.44 259.83Z" fill="#EB996E"/>
<path d="M355 225.35C355.718 224.475 356.642 223.793 357.69 223.365C358.737 222.938 359.875 222.778 361 222.9C361.815 222.971 362.608 223.205 363.331 223.588C364.055 223.971 364.693 224.495 365.21 225.13C365.706 225.739 365.998 226.488 366.047 227.272C366.095 228.055 365.897 228.835 365.48 229.5C364.48 230.88 362.37 231.2 360.59 230.71C358.842 230.097 357.231 229.145 355.85 227.91C355.434 227.617 355.075 227.251 354.79 226.83C354.65 226.629 354.575 226.39 354.575 226.145C354.575 225.9 354.65 225.661 354.79 225.46" fill="#EB996E"/>
<path d="M362 174.39C362.35 175.39 366.08 174.99 370.43 175.59C374.78 176.19 378.3 177.42 378.9 176.54C379.17 176.12 378.57 175.17 377.17 174.18C375.284 172.962 373.148 172.184 370.92 171.902C368.693 171.619 366.43 171.841 364.3 172.55C362.68 173.15 361.86 173.92 362 174.39Z" fill="#263238"/>
<path d="M330.89 179.64C331.69 180.45 334.72 179.5 338.39 179.35C342.06 179.2 345.17 179.71 345.87 178.82C346.17 178.39 345.66 177.57 344.29 176.82C342.381 175.923 340.278 175.513 338.172 175.629C336.065 175.744 334.02 176.38 332.22 177.48C331 178.38 330.54 179.24 330.89 179.64Z" fill="#263238"/>
<path d="M362.31 136.08C364.49 132.91 368.2 131.66 372.31 131.33C388.94 130 406.61 141.2 414.85 155.7C423.09 170.2 422.14 190.9 414.32 205.63L408.07 206.27C395.27 204.6 376.17 167.27 359.54 146.22C357.43 143.61 360.43 138.82 362.31 136.08Z" fill="#263238"/>
<path d="M330.06 144.65C337.49 137.31 349.34 128.55 363.25 134.99C365.07 139.14 360.47 143.99 356.71 146.82C351.22 150.9 346.48 153.58 342.86 156.52C335.53 162.46 326.26 172.52 324.76 184.25C324.67 184.98 324.09 185.05 323.36 184.88C322.41 184.67 320.53 179.7 319.85 173.21C318.39 159.39 322.63 152 330.06 144.65Z" fill="#263238"/>
<path d="M404.47 198.49C404.87 198.3 420.47 193.36 420.33 209.41C420.19 225.46 404.09 222 404.06 221.54C404.03 221.08 404.47 198.49 404.47 198.49Z" fill="#FFBE9D"/>
<path d="M409 215.5C409.07 215.45 409.27 215.7 409.75 215.92C410.408 216.214 411.154 216.239 411.83 215.99C413.54 215.38 414.99 212.7 415.1 209.81C415.151 208.438 414.895 207.071 414.35 205.81C414.206 205.306 413.941 204.846 413.579 204.467C413.216 204.089 412.767 203.805 412.27 203.64C411.949 203.555 411.609 203.583 411.306 203.719C411.004 203.856 410.758 204.093 410.61 204.39C410.4 204.84 410.49 205.16 410.41 205.19C410.33 205.22 410.07 204.91 410.2 204.25C410.294 203.854 410.52 203.501 410.84 203.25C411.286 202.922 411.842 202.782 412.39 202.86C413.048 202.998 413.66 203.302 414.168 203.743C414.676 204.184 415.062 204.747 415.29 205.38C415.963 206.774 416.283 208.313 416.22 209.86C416.08 213.09 414.4 216.11 412.07 216.75C411.637 216.872 411.182 216.895 410.739 216.817C410.296 216.739 409.876 216.562 409.51 216.3C409.05 215.89 409 215.53 409 215.5Z" fill="#EB996E"/>
<path d="M326.6 147.69C328.099 148.178 329.656 148.467 331.23 148.55C335.011 148.943 338.818 149.01 342.61 148.75C346.404 148.495 350.168 147.909 353.86 147C356.68 146.28 358.37 145.64 358.33 145.52C358.29 145.4 356.54 145.78 353.71 146.31C350.018 147.011 346.288 147.499 342.54 147.77C338.795 148.019 335.038 148.045 331.29 147.85C328.41 147.7 326.62 147.54 326.6 147.69Z" fill="#455A64"/>
<path d="M320.61 158.9C321.681 159.453 322.849 159.793 324.05 159.9C329.834 160.827 335.762 159.847 340.94 157.11C342.89 156.05 343.94 155.11 343.87 155.05C343.72 154.76 339.13 157.86 332.56 158.9C325.99 159.94 320.66 158.58 320.61 158.9Z" fill="#455A64"/>
<path d="M416.57 161.27C416.57 161.06 413.07 161.5 407.49 161.06C404.226 160.788 400.984 160.287 397.79 159.56C393.891 158.634 390.058 157.445 386.32 156C382.599 154.489 378.976 152.749 375.47 150.79C372.619 149.165 369.862 147.382 367.21 145.45C362.68 142.15 360.21 139.71 360.05 139.84C360.544 140.495 361.103 141.099 361.72 141.64C362.392 142.326 363.1 142.977 363.84 143.59C364.69 144.33 365.65 145.18 366.84 146.02C369.457 148.049 372.203 149.907 375.06 151.58C378.581 153.592 382.237 155.359 386 156.87C389.786 158.351 393.676 159.548 397.64 160.45C400.883 161.152 404.177 161.59 407.49 161.76C408.762 161.845 410.037 161.862 411.31 161.81C412.273 161.811 413.235 161.751 414.19 161.63C414.993 161.586 415.79 161.465 416.57 161.27Z" fill="#455A64"/>
<path d="M360.83 145.46C361.14 146.26 361.529 147.027 361.99 147.75C362.467 148.637 362.991 149.498 363.56 150.33C364.22 151.33 364.9 152.47 365.83 153.63C367.892 156.426 370.169 159.057 372.64 161.5C375.689 164.477 378.999 167.175 382.53 169.56C386.1 171.898 389.876 173.906 393.81 175.56C397.029 176.879 400.354 177.923 403.75 178.68C405.19 179.06 406.53 179.22 407.68 179.42C408.672 179.602 409.674 179.726 410.68 179.79C411.53 179.917 412.392 179.954 413.25 179.9C413.25 179.7 409.61 179.43 403.92 178C400.593 177.151 397.334 176.054 394.17 174.72C390.309 173.04 386.599 171.032 383.08 168.72C379.598 166.369 376.32 163.73 373.28 160.83C370.804 158.448 368.499 155.895 366.38 153.19C362.78 148.56 361 145.36 360.83 145.46Z" fill="#455A64"/>
<path d="M372.27 131.33C372.27 131.23 371.04 130.99 369.05 131.33C366.467 131.927 364.108 133.249 362.25 135.14C361.718 135.683 361.239 136.276 360.82 136.91C360.453 137.515 360.155 138.159 359.93 138.83C359.485 139.907 359.124 141.017 358.85 142.15C358.43 144.15 358.85 145.42 358.92 145.38C358.99 145.34 358.92 144.15 359.53 142.33C359.89 141.258 360.308 140.207 360.78 139.18C361.006 138.572 361.294 137.989 361.64 137.44C362.036 136.872 362.478 136.337 362.96 135.84C364.708 134.075 366.86 132.764 369.23 132.02C371.05 131.52 372.28 131.5 372.27 131.33Z" fill="#455A64"/>
<path d="M398.08 192.62C398.08 192.39 394.22 192.55 388.52 190.43C381.144 187.528 374.769 182.546 370.17 176.09C365.666 169.564 362.407 162.261 360.56 154.55C359.8 151.55 359.3 149.18 358.97 147.55C358.844 146.671 358.643 145.805 358.37 144.96C358.353 145.848 358.426 146.736 358.59 147.61C358.8 149.31 359.2 151.76 359.88 154.76C361.551 162.634 364.773 170.096 369.36 176.71C374.91 184.4 382.43 189.23 388.28 191.13C390.584 191.936 392.979 192.45 395.41 192.66C396.075 192.72 396.743 192.741 397.41 192.72C397.84 192.68 398.08 192.66 398.08 192.62Z" fill="#263238"/>
<path d="M318.14 208C318.778 208.182 319.461 208.114 320.05 207.81C320.709 207.426 321.228 206.841 321.53 206.14C321.73 205.681 321.833 205.186 321.833 204.685C321.833 204.184 321.73 203.689 321.53 203.23C321.016 202.092 320.297 201.058 319.41 200.18C318.34 199.138 317.372 197.996 316.52 196.77C316.067 196.058 315.76 195.262 315.62 194.43C315.489 193.548 315.582 192.647 315.89 191.81C316.555 190.144 317.58 188.645 318.89 187.42C320.162 186.271 321.257 184.939 322.14 183.47C322.818 182.059 323.051 180.476 322.81 178.93C322.42 175.93 321.19 173.31 320.92 170.93C320.565 169.049 320.836 167.103 321.69 165.39C321.952 164.935 322.29 164.529 322.69 164.19C322.97 163.97 323.12 163.86 323.13 163.88C322.694 164.388 322.309 164.937 321.98 165.52C321.266 167.206 321.092 169.071 321.48 170.86C321.79 173.15 323.06 175.7 323.48 178.86C323.774 180.559 323.529 182.307 322.78 183.86C321.874 185.398 320.741 186.79 319.42 187.99C318.169 189.139 317.18 190.545 316.52 192.11C316.262 192.829 316.176 193.599 316.268 194.358C316.36 195.116 316.628 195.843 317.05 196.48C317.868 197.677 318.795 198.795 319.82 199.82C320.736 200.737 321.475 201.815 322 203C322.214 203.519 322.318 204.076 322.306 204.637C322.294 205.198 322.166 205.751 321.93 206.26C321.564 207.022 320.956 207.641 320.2 208.02C319.719 208.256 319.171 208.316 318.65 208.19C318.467 208.169 318.292 208.104 318.14 208Z" fill="#263238"/>
<path d="M417.46 199.32C417.477 199.037 417.534 198.757 417.63 198.49C417.75 197.95 417.99 197.17 418.22 196.14C418.935 193.266 419.47 190.351 419.82 187.41C420.352 183.059 420.412 178.664 420 174.3C419.535 168.955 418.239 163.716 416.16 158.77C415.056 156.232 413.692 153.816 412.09 151.56C410.573 149.473 408.873 147.525 407.01 145.74C403.833 142.744 400.304 140.145 396.5 138C393.914 136.535 391.242 135.226 388.5 134.08C387.5 133.65 386.77 133.37 386.27 133.14C386.001 133.049 385.743 132.928 385.5 132.78C385.782 132.816 386.058 132.89 386.32 133C386.84 133.18 387.63 133.42 388.61 133.81C391.396 134.861 394.103 136.111 396.71 137.55C400.617 139.653 404.237 142.251 407.48 145.28C409.39 147.08 411.131 149.052 412.68 151.17C414.324 153.462 415.718 155.922 416.84 158.51C418.951 163.526 420.247 168.846 420.68 174.27C421.053 178.684 420.926 183.125 420.3 187.51C419.902 190.465 419.287 193.386 418.46 196.25C418.19 197.25 417.9 198.03 417.73 198.56C417.663 198.821 417.572 199.075 417.46 199.32Z" fill="#455A64"/>
<path d="M405.12 250.15C404.942 250.001 404.784 249.829 404.65 249.64C404.233 249.129 403.865 248.58 403.55 248C402.343 245.874 401.657 243.492 401.55 241.05C401.469 239.365 401.654 237.677 402.1 236.05C402.706 234.228 403.483 232.467 404.42 230.79C405.27 229.04 405.94 226.89 404.87 225.08C403.8 223.27 401.79 222.08 400.42 220.02C400.066 219.493 399.851 218.884 399.795 218.251C399.739 217.618 399.844 216.982 400.1 216.4C400.664 215.4 401.334 214.465 402.1 213.61C402.681 212.796 403.045 211.847 403.157 210.853C403.269 209.859 403.125 208.853 402.74 207.93C402.071 206.184 401.099 204.569 399.87 203.16C398.8 201.855 397.84 200.464 397 199C396.349 197.943 395.971 196.741 395.9 195.502C395.828 194.263 396.065 193.025 396.59 191.9C396.899 191.301 397.357 190.792 397.92 190.42C398.105 190.279 398.316 190.173 398.54 190.11C397.822 190.6 397.24 191.264 396.85 192.04C396.401 193.124 396.222 194.302 396.328 195.47C396.434 196.639 396.823 197.765 397.46 198.75C398.321 200.162 399.298 201.5 400.38 202.75C401.666 204.205 402.682 205.878 403.38 207.69C403.752 208.704 403.919 209.781 403.87 210.86C403.793 212.008 403.379 213.107 402.68 214.02C401.971 214.842 401.342 215.729 400.8 216.67C400.589 217.143 400.504 217.662 400.553 218.177C400.602 218.692 400.784 219.186 401.08 219.61C402.27 221.45 404.39 222.61 405.54 224.71C406.102 225.727 406.299 226.905 406.1 228.05C405.913 229.093 405.576 230.103 405.1 231.05C404.163 232.689 403.376 234.409 402.75 236.19C402.295 237.758 402.086 239.388 402.13 241.02C402.191 243.398 402.774 245.733 403.84 247.86C404.57 249.37 405.18 250.1 405.12 250.15Z" fill="#263238"/>
<path d="M455.89 244C456 244.2 455.7 244.72 454.71 245.09C453.961 245.31 453.173 245.366 452.401 245.256C451.628 245.145 450.888 244.871 450.23 244.45C449.243 243.877 448.393 243.096 447.74 242.16C447.345 241.601 447.025 240.993 446.79 240.35C446.553 239.686 446.389 238.999 446.3 238.3C446.059 235.253 446.618 232.195 447.92 229.43C449.09 226.6 450.5 223.81 450.62 221.28C450.74 218.75 449.62 215.96 447.74 212.9C445.86 209.84 443.15 206.55 441.11 202.28C439.103 198.042 437.671 193.556 436.85 188.94C435.12 179.68 435.02 171.07 434.07 163.62C433.38 157.129 431.601 150.8 428.81 144.9C426.919 140.984 424.24 137.501 420.94 134.67C419.72 133.72 418.75 132.93 418.05 132.43C417.35 131.93 417.05 131.48 417.11 131.24C417.17 131 417.7 130.94 418.62 131.05C419.954 131.254 421.251 131.652 422.47 132.23C426.95 134.492 430.713 137.954 433.34 142.23C437.174 148.443 439.717 155.363 440.82 162.58C442.2 170.52 442.52 179.1 444.13 187.51C444.828 191.51 446.013 195.409 447.66 199.12C449.17 202.57 451.56 205.73 453.61 209.4C454.694 211.258 455.553 213.239 456.17 215.3C456.814 217.43 457.005 219.672 456.73 221.88C456.42 223.835 455.802 225.728 454.9 227.49C454.13 229.06 453.33 230.4 452.65 231.63C451.437 233.554 450.678 235.729 450.43 237.99C450.409 238.421 450.429 238.853 450.49 239.28C450.543 239.64 450.641 239.993 450.78 240.33C451.044 240.984 451.435 241.578 451.93 242.08C453.81 244.07 455.69 243.49 455.89 244Z" fill="#263238"/>
<path d="M367.21 225.29C367.21 225.61 363.92 225.68 360.04 226.6C356.16 227.52 353.26 229.07 353.11 228.81C352.96 228.55 355.72 226.53 359.8 225.59C363.88 224.65 367.23 225 367.21 225.29Z" fill="#263238"/>
<path d="M332.13 276.82L363.66 274.19L408.63 276.16L438.68 281.65L390.93 309.45L355.41 304.89L332.13 276.82Z" fill="#FFBE9D"/>
<path d="M331.68 276.82C331.68 276.82 306.68 282.6 298.24 291.04C289.8 299.48 281.05 329.67 279.24 338.55C277.43 347.43 271.69 422.5 275.24 433.16C278.79 443.82 292.6 452.7 309 456.25C325.4 459.8 353 462.47 353 462.47L366.77 419L320.45 406.56L331.68 276.82Z" fill="#0070CB"/>
<path d="M386.19 410.06L424.8 411.61C424.8 411.61 435.68 399.52 438.4 383.8C441.12 368.08 439.91 356.89 439.91 356.89L450.8 284.94C450.8 284.94 466.21 284.34 472.56 303.08C478.91 321.82 473.19 376.9 472.56 391.36C472.05 403.1 465.81 430.69 456.77 446.86C452.91 453.77 446.19 457.16 442.03 457.4C428.12 458.17 388.22 451.82 388.22 451.82L386.22 411.31" fill="#0070CB"/>
<path d="M331.68 276.82C331.68 276.82 357.36 289.22 393.57 287.52C429.78 285.82 430.7 279.85 430.7 279.85L452.83 285.14L447.26 396.14L436.43 443.59L445.57 476.5L286 476L306.66 416.57L331.68 276.82Z" fill="#0070CB"/>
<path d="M392.48 407.62C393.101 407.436 393.737 407.305 394.38 407.23C395.62 407.03 397.46 406.77 399.82 406.51C404.53 405.95 411.35 405.68 419.5 404.51L419.14 404.9C419.68 394.22 419.69 380.9 420.21 366.51C420.55 357.45 421.21 348.81 422.21 341C423.117 334.083 424.501 327.237 426.35 320.51C427.611 315.98 429.168 311.537 431.01 307.21C431.65 305.68 432.22 304.51 432.61 303.73C432.783 303.32 432.998 302.928 433.25 302.56C433.144 302.994 432.993 303.417 432.8 303.82C432.47 304.63 431.97 305.82 431.38 307.36C429.696 311.724 428.254 316.177 427.06 320.7C425.319 327.418 424.02 334.243 423.17 341.13C422.17 348.9 421.55 357.5 421.17 366.55C420.65 380.92 420.56 394.24 419.91 404.95V405.29L419.58 405.34C411.34 406.47 404.53 406.62 399.81 407.03C397.45 407.21 395.61 407.4 394.36 407.52C393.737 407.603 393.108 407.636 392.48 407.62Z" fill="#263238"/>
<path d="M310.62 370.42C310.409 369.722 310.288 368.999 310.26 368.27C310.08 366.88 309.9 364.86 309.72 362.36C309.36 357.36 309.12 350.44 309.31 342.79C309.5 335.14 310.1 328.23 310.71 323.26C311.02 320.77 311.3 318.76 311.55 317.38C311.622 316.654 311.779 315.939 312.02 315.25C312.097 315.976 312.074 316.71 311.95 317.43C311.83 318.9 311.65 320.9 311.44 323.33C311.02 328.33 310.55 335.2 310.35 342.81C310.15 350.42 310.29 357.33 310.45 362.32C310.54 364.77 310.61 366.77 310.66 368.24C310.735 368.966 310.722 369.698 310.62 370.42Z" fill="#263238"/>
<path d="M385.84 448.68C385.524 448.832 385.187 448.936 384.84 448.99C384.2 449.16 383.25 449.39 382.03 449.68C379.59 450.23 376.03 451 371.63 451.8C360.135 453.901 348.535 455.377 336.88 456.22C330.05 456.7 323.55 457.04 317.59 457.03C312.33 457.098 307.085 456.449 302 455.1C300.042 454.539 298.14 453.795 296.32 452.88C294.962 452.16 293.668 451.328 292.45 450.39L291.16 449.31C290.82 448.97 290.54 448.66 290.31 448.43C289.85 447.94 289.63 447.68 289.66 447.65C289.948 447.823 290.213 448.031 290.45 448.27L291.37 449.07L292.69 450.07C293.926 450.935 295.226 451.704 296.58 452.37C298.388 453.199 300.265 453.868 302.19 454.37C307.258 455.601 312.466 456.166 317.68 456.05C323.57 456.05 330.08 455.64 336.89 455.16C350.5 454.16 362.75 452.49 371.58 451.06C376 450.35 379.58 449.69 382.03 449.26C383.26 449.04 384.22 448.87 384.87 448.77C385.188 448.699 385.514 448.668 385.84 448.68Z" fill="#263238"/>
<path d="M429.14 416.28C428.84 416.38 427.81 412.84 424.83 409.59C421.85 406.34 418.5 404.9 418.63 404.59C418.63 404.47 419.63 404.65 420.95 405.31C424.494 407.11 427.245 410.16 428.67 413.87C429.18 415.31 429.27 416.25 429.14 416.28Z" fill="#263238"/>
<g opacity="0.3">
<path d="M277.68 416.67C286.2 422.85 295.25 429.23 305.68 430.36C313.06 431.16 320.49 429.23 327.91 429.44C337.77 429.72 347.16 433.77 355.68 438.74C364.2 443.71 372.13 449.69 380.8 454.4C390.2 459.49 400.52 463.08 411.18 463.94C421.84 464.8 432.84 462.83 442.1 457.48C429.1 459.03 411.83 458.55 398.26 454.14C383.14 449.24 380.55 445.29 371.86 440.42C360.6 434.12 350.68 425.37 338.71 420.58C328.55 416.53 317.429 415.533 306.71 417.71C301.36 418.81 295.65 420.71 290.65 418.47C288.43 417.47 286.57 415.78 284.32 414.89C282.07 414 278.98 414.26 277.85 416.41" fill="black"/>
</g>
<path d="M397.73 385.4C397.185 385.598 396.61 385.699 396.03 385.7C395.367 385.787 394.699 385.827 394.03 385.82C393.137 385.869 392.243 385.869 391.35 385.82C390.266 385.777 389.184 385.677 388.11 385.52C386.95 385.39 385.73 385.11 384.44 384.85C378.84 383.531 373.58 381.051 369 377.57C368 376.75 367 375.99 366.14 375.17C365.331 374.447 364.56 373.683 363.83 372.88C363.13 372.17 362.6 371.44 362.1 370.83C361.669 370.312 361.272 369.768 360.91 369.2C360.55 368.746 360.26 368.24 360.05 367.7C360.21 367.59 361.6 369.6 364.36 372.37C365.06 373.05 365.82 373.8 366.71 374.53C367.6 375.26 368.55 376.02 369.57 376.8C371.844 378.423 374.253 379.848 376.77 381.06C379.306 382.228 381.939 383.172 384.64 383.88C385.89 384.17 387.08 384.48 388.21 384.63C389.34 384.78 390.4 384.96 391.37 385.06C395.28 385.42 397.72 385.21 397.73 385.4Z" fill="#263238"/>
<path d="M465.75 424.83C465.565 426.077 465.246 427.301 464.8 428.48C464.07 430.8 462.96 434.14 461.41 438.2C460.583 440.432 459.639 442.618 458.58 444.75C457.26 447.183 455.574 449.399 453.58 451.32C448.968 455.764 442.914 458.404 436.52 458.76C430.273 459.029 424.015 458.779 417.81 458.01C412.1 457.33 407 456.4 402.75 455.47C398.5 454.54 395.12 453.57 392.8 452.83C391.64 452.48 390.75 452.15 390.15 451.93C389.835 451.843 389.534 451.708 389.26 451.53C390.493 451.765 391.711 452.069 392.91 452.44C395.26 453.06 398.66 453.9 402.91 454.75C407.16 455.6 412.24 456.43 417.91 457.05C424.063 457.764 430.262 457.988 436.45 457.72C442.6 457.38 448.43 454.867 452.9 450.63C454.843 448.794 456.495 446.673 457.8 444.34C458.99 442.14 459.87 439.91 460.71 437.93C462.34 433.93 463.55 430.63 464.4 428.35C464.8 427.25 465.12 426.35 465.4 425.73C465.48 425.417 465.597 425.115 465.75 424.83Z" fill="#263238"/>
<path d="M290.1 353.74C290.1 353.74 312.65 371.22 313.41 373.24C314.17 375.26 321.77 387.18 328.1 392.24C334.43 397.3 392.48 409.17 392.48 409.17L389.15 450.68C389.15 450.68 341.53 421.88 327.34 422.68C313.15 423.48 302.01 426.23 295.93 424.2C289.85 422.17 274.58 412.55 274.58 412.55C274.58 412.55 271.95 407.23 274.82 404.69C274.82 404.69 273.08 399.12 273.48 396.59C273.48 396.59 271.18 390.78 273.42 388.48C273.42 388.48 272.87 379.87 277.68 379.87C282.49 379.87 291.62 381.39 295.93 381.14C297.1 381.129 298.249 380.82 299.267 380.243C300.285 379.665 301.139 378.839 301.75 377.84C301.75 377.84 301.75 375.56 298.21 373.03C294.67 370.5 281.23 360.07 290.1 353.74Z" fill="#FFBE9D"/>
<path d="M286.05 396.76C285.94 397.01 282.63 395.82 279.05 393.45C275.47 391.08 272.98 388.55 273.17 388.35C273.36 388.15 276.07 390.28 279.62 392.58C283.17 394.88 286.17 396.48 286.05 396.76Z" fill="#EB996E"/>
<path d="M287 405.78C286.94 406.03 283 404.95 278.88 402.01C274.76 399.07 272.48 395.66 272.7 395.52C272.92 395.38 275.53 398.35 279.48 401.16C283.43 403.97 287.14 405.49 287 405.78Z" fill="#EB996E"/>
<path d="M288.07 412.86C288.07 413.12 284.21 412.52 280.23 410C276.25 407.48 274.03 404.33 274.23 404.19C274.43 404.05 276.94 406.75 280.77 409.12C284.6 411.49 288.16 412.55 288.07 412.86Z" fill="#EB996E"/>
<path d="M309.09 337.32C309.09 337.66 302.63 336.21 294.73 337.19C286.83 338.17 280.93 340.99 280.8 340.68C280.75 340.57 282.14 339.68 284.59 338.68C291.046 336.111 298.063 335.28 304.94 336.27C307.56 336.68 309.11 337.2 309.09 337.32Z" fill="white"/>
<path d="M419.05 345C418.719 345.167 418.365 345.285 418 345.35L414.93 346.16C413.59 346.51 411.93 346.91 410.03 347.31C408.13 347.71 405.93 348.23 403.5 348.65C401.07 349.07 398.41 349.59 395.5 350.01C392.59 350.43 389.5 350.84 386.31 351.25C379.82 351.97 372.65 352.53 365.12 352.76C357.59 352.99 350.39 352.76 343.87 352.43C340.61 352.21 337.51 352.02 334.63 351.7C331.75 351.38 329.05 351.11 326.63 350.79C324.21 350.47 321.98 350.12 320.04 349.79C318.1 349.46 316.44 349.19 315.04 348.91L311.93 348.28C311.564 348.223 311.205 348.126 310.86 347.99C311.232 347.965 311.606 347.992 311.97 348.07L315.11 348.51C316.47 348.72 318.11 348.98 320.11 349.21C322.11 349.44 324.26 349.79 326.71 350.03C329.16 350.27 331.84 350.6 334.71 350.81C337.58 351.02 340.71 351.25 343.93 351.44C350.43 351.75 357.59 351.88 365.1 351.69C372.61 351.5 379.74 350.93 386.21 350.27C389.45 349.89 392.52 349.56 395.38 349.12C398.24 348.68 400.91 348.3 403.38 347.89C405.85 347.48 408 347.06 409.92 346.71C411.84 346.36 413.5 346.02 414.85 345.71L417.96 345.09C418.319 345.021 418.684 344.991 419.05 345Z" fill="white"/>
<path d="M471.47 341.91C471.36 342.08 469.12 340.28 464.88 338.65C459.322 336.622 453.404 335.771 447.5 336.15C441.583 336.603 435.721 337.607 429.99 339.15C425.55 340.25 422.8 340.94 422.76 340.79C423.342 340.465 423.964 340.216 424.61 340.05C425.83 339.64 427.61 339.05 429.8 338.44C435.541 336.684 441.462 335.583 447.45 335.16C453.492 334.754 459.548 335.725 465.16 338C466.841 338.711 468.443 339.596 469.94 340.64C470.514 340.98 471.03 341.408 471.47 341.91Z" fill="white"/>
<g opacity="0.3">
<path d="M360.83 368.65L361.15 369.55C362.53 378.28 368.41 386.32 376.58 389.72C384.75 393.12 394.94 391.43 401.18 385.17C386.08 388.45 369.29 381.58 360.83 368.65Z" fill="black"/>
</g>
<g opacity="0.3">
<path d="M440.58 416.91C439.24 413.3 435.78 410.97 432.38 409.16C427.974 406.817 423.34 404.93 418.55 403.53L418.67 404.88C424.014 408.694 428.503 413.582 431.85 419.23C433.14 421.42 434.8 424.03 437.33 423.93C438.081 423.857 438.795 423.573 439.392 423.111C439.988 422.65 440.442 422.029 440.7 421.32C441.191 419.883 441.148 418.318 440.58 416.91Z" fill="black"/>
</g>
<path d="M665.12 476.52C665.12 476.81 535.22 477.04 375.01 477.04C214.8 477.04 84.88 476.81 84.88 476.52C84.88 476.23 214.76 476 375 476C535.24 476 665.12 476.24 665.12 476.52Z" fill="#263238"/>
</svg>
