<svg width="134" height="32" viewBox="0 0 134 32" fill="none" xmlns="http://www.w3.org/2000/svg">
<path d="M16.9203 5.69015V3.85096L13.3633 1.72388L11.7322 2.69942L10.101 1.72388L6.54402 3.85096V5.69015L4.72211 6.77991V11.0003L6.54402 12.09V13.9292L10.101 16.0581L11.7322 15.0813L13.3633 16.0581L16.9203 13.9292V12.09L18.7423 11.0003V6.77991L16.9203 5.69015ZM11.5574 14.7736L10.101 15.646L6.89355 13.7247V11.9572L8.30139 11.1145L9.93883 12.0964V13.1273C9.70295 13.2025 9.5299 13.4251 9.5299 13.692C9.5299 14.0207 9.79148 14.2894 10.1136 14.2894C10.4357 14.2894 10.699 14.0207 10.699 13.692C10.699 13.4251 10.5242 13.2025 10.2884 13.1256V11.8919L8.64464 10.9082L10.2884 9.92449V6.57653L10.4357 6.42909C10.771 6.09226 10.7755 5.54038 10.4454 5.19713L10.1216 4.86146L9.79262 5.19189C9.45565 5.52872 9.4528 6.0806 9.78291 6.42268L9.93826 6.58294V9.72169L6.60742 11.7147L5.07107 10.7951V6.98388L6.60742 6.06428L8.23514 7.03808V8.78753L7.23281 9.38835L7.03063 9.3394C6.57201 9.22634 6.11167 9.51423 6.00087 9.98102L5.89179 10.4391L6.3407 10.5486C6.79932 10.6617 7.25965 10.3738 7.37045 9.90701L7.42356 9.68614L8.58296 8.99208V6.83528L6.89241 5.82244V4.0555L8.41619 3.14407L9.54532 3.82007C9.53561 3.86261 9.52933 3.9069 9.52933 3.95236C9.52933 4.28278 9.79091 4.54969 10.113 4.54969C10.4351 4.54969 10.6984 4.28278 10.6984 3.95236C10.6984 3.62368 10.4357 3.35677 10.113 3.35677C9.96225 3.35677 9.82575 3.41738 9.72351 3.51237L8.76115 2.93777L10.1005 2.13589L11.5568 3.00653V14.7736H11.5574ZM18.3927 10.7957L16.8564 11.7153L15.2287 10.7415V8.99208L16.1927 8.41456L16.504 8.44428C16.974 8.48682 17.3875 8.13367 17.4309 7.65406L17.4709 7.1861L17.0123 7.14356C16.5423 7.10102 16.127 7.45475 16.0854 7.93378L16.0728 8.07423L14.8814 8.78753V10.9443L16.572 11.9572V13.7247L15.0482 14.6379L13.919 13.9619C13.9288 13.9176 13.935 13.8733 13.935 13.8278C13.935 13.4992 13.6735 13.2322 13.3513 13.2322C13.0292 13.2322 12.7659 13.4992 12.7659 13.8278C12.7659 14.1565 13.0287 14.4234 13.3513 14.4234C13.5021 14.4234 13.6386 14.3628 13.7409 14.2678L14.7032 14.8436L13.3639 15.6455L11.9075 14.7731V3.00653L13.3639 2.13589L16.5714 4.0555V5.82302L15.1635 6.66569L13.5261 5.68549V4.654C13.762 4.57708 13.935 4.35446 13.935 4.08756C13.935 3.75888 13.6735 3.49197 13.3513 3.49197C13.0292 3.49197 12.7659 3.75888 12.7659 4.08756C12.7659 4.35446 12.9407 4.57708 13.1766 4.654V5.88771L14.8203 6.87141L13.1766 7.85511V11.1133L13.0561 11.2345C12.7191 11.5714 12.7145 12.1233 13.0464 12.4665L13.3685 12.8022L13.6974 12.4717C14.0344 12.1349 14.039 11.583 13.7072 11.2398L13.5261 11.0516V8.05849L16.857 6.06545L18.3933 6.98505V10.7957H18.3927ZM2.96988 24.497C2.97159 24.5145 2.97502 24.5314 2.97502 24.5495C2.97502 24.8945 2.70087 25.1736 2.36333 25.1736C2.0258 25.1736 1.75165 24.8939 1.75165 24.5495C1.75165 24.2045 2.0258 23.9253 2.36333 23.9253C2.55238 23.9253 2.71972 24.0151 2.83166 24.1526L9.46879 21.4364C9.59901 21.3827 9.7138 21.3023 9.81032 21.2044H1.57117C1.47066 21.2044 1.38841 21.1211 1.38841 21.0179C1.38841 20.9148 1.47008 20.8315 1.57117 20.8315H10.0456C10.0816 20.733 10.1045 20.6287 10.1102 20.5208L10.3192 16.3972C10.3243 16.2947 10.406 16.216 10.5111 16.2206C10.6116 16.2259 10.6893 16.3133 10.6842 16.4165L10.4751 20.5401C10.4471 21.0896 10.1062 21.5768 9.60529 21.7819L2.96988 24.497ZM19.5224 27.2383C19.5224 27.5833 19.2483 27.8625 18.9107 27.8625C18.5726 27.8625 18.2991 27.5827 18.2991 27.2383C18.2991 27.0915 18.351 26.958 18.4338 26.8514L17.1762 25.31C17.018 25.1247 16.8404 24.9551 16.6491 24.803L16.6428 27.1999C16.9215 27.2896 17.1054 27.5717 17.0648 27.8776C17.0197 28.2191 16.7113 28.4586 16.3761 28.4126C16.0414 28.3666 15.8066 28.0519 15.8518 27.7098C15.8849 27.4615 16.0574 27.2686 16.2773 27.1987L16.2841 24.5454C16.1185 24.4422 15.946 24.3507 15.7667 24.2744L11.9155 22.6368V23.3467V23.6777L14.1298 25.4766C14.4045 25.7004 14.5621 26.0338 14.5621 26.3927V28.4353C14.81 28.5152 14.9916 28.7488 14.9916 29.028C14.9916 29.373 14.7175 29.6521 14.38 29.6521C14.0424 29.6521 13.7683 29.3724 13.7683 29.028C13.7683 28.7483 13.9493 28.5146 14.1978 28.4353V26.3927C14.1978 26.1486 14.0904 25.9207 13.9031 25.7686L11.9161 24.1549V29.06C12.164 29.1399 12.3456 29.3736 12.3456 29.6527C12.3456 29.9977 12.0714 30.2768 11.7339 30.2768C11.3958 30.2768 11.1222 29.9971 11.1222 29.6527C11.1222 29.373 11.3033 29.1393 11.5517 29.06V24.1567L9.56702 25.7692C9.37969 25.9213 9.27232 26.1491 9.27232 26.3933V28.4359C9.52019 28.5157 9.70181 28.7494 9.70181 29.0286C9.70181 29.3736 9.42767 29.6527 9.09013 29.6527C8.75202 29.6527 8.47844 29.373 8.47844 29.0286C8.47844 28.7488 8.65949 28.5152 8.90794 28.4359V26.3933C8.90794 26.0349 9.06557 25.701 9.34028 25.4772L11.5528 23.68V23.3467V22.6368L7.70171 24.2744C7.52294 24.3507 7.34989 24.4422 7.18426 24.5454L7.19111 27.1987C7.411 27.2686 7.58348 27.4615 7.61661 27.7098C7.66173 28.0513 7.42699 28.366 7.09231 28.4126C6.75762 28.4586 6.44921 28.2197 6.40352 27.8776C6.36297 27.5723 6.54688 27.2896 6.82559 27.1999L6.81931 24.803C6.62741 24.9557 6.44921 25.1258 6.2893 25.3129L5.03452 26.8514C5.1179 26.958 5.16931 27.0915 5.16931 27.2383C5.16931 27.5833 4.89516 27.8625 4.55762 27.8625C4.21951 27.8625 3.94594 27.5827 3.94594 27.2383C3.94594 26.8933 4.22009 26.6142 4.55762 26.6142C4.61816 26.6142 4.67471 26.6258 4.73011 26.6422L6.01115 25.0716C6.43493 24.5757 6.96951 24.1823 7.56064 23.9312L11.5523 22.2336V15.7305C11.5523 15.628 11.6339 15.5441 11.735 15.5441C11.8356 15.5441 11.9178 15.6274 11.9178 15.7305V22.233L15.9094 23.9306C16.5006 24.1817 17.0357 24.5751 17.4561 25.0681L18.74 26.6422C18.7948 26.6258 18.8519 26.6142 18.9125 26.6142C19.2483 26.6136 19.5224 26.8933 19.5224 27.2383ZM22.0782 21.0179C22.0782 21.1205 21.9966 21.2044 21.8955 21.2044H13.6563C13.7523 21.3029 13.8671 21.3833 13.9979 21.4364L20.635 24.1526C20.7469 24.0151 20.9143 23.9253 21.1033 23.9253C21.4414 23.9253 21.715 24.2051 21.715 24.5495C21.715 24.8945 21.4409 25.1736 21.1033 25.1736C20.7652 25.1736 20.4916 24.8939 20.4916 24.5495C20.4916 24.5314 20.4951 24.5145 20.4968 24.497L13.8619 21.7819C13.3616 21.5768 13.0201 21.0896 12.9921 20.5401L12.7831 16.4165C12.7779 16.3139 12.8556 16.2259 12.9561 16.2206C13.0606 16.2154 13.1429 16.2947 13.148 16.3972L13.3571 20.5208C13.3628 20.6287 13.3856 20.733 13.4216 20.8315H21.896C21.9966 20.8315 22.0782 20.9148 22.0782 21.0179Z" fill="url(#paint0_linear_178_153)"/>
<path d="M30.5368 20.8082V11.6441C30.5368 10.5494 30.5368 9.72474 30.5154 8.93945H35.0513L37.3086 15.4221C37.965 17.3415 38.6018 19.302 39.0945 20.8511C39.6068 19.3038 40.2436 17.3218 40.9 15.4024L43.1377 8.94124H47.3659C47.3446 9.72474 47.3446 10.4886 47.3446 11.5422V20.7688C47.3446 21.9244 47.3446 22.7705 47.3659 23.597H44.8009C44.8223 21.9656 44.8223 19.6133 44.8223 17.9622C44.8223 16.5383 44.8632 13.3185 44.8845 11.213H44.5359C43.9613 12.8641 43.2836 14.9069 42.6059 16.9104L40.2668 23.5987H37.7604L35.3182 16.9283C34.5995 14.9051 33.8613 12.8408 33.3063 11.2112H32.9364C32.9773 13.0698 32.9986 15.8138 32.9986 18.125C32.9986 19.5703 32.9986 21.9441 33.02 23.5952H30.5154C30.5368 22.6256 30.5368 21.9441 30.5368 20.8082Z" fill="#00164C"/>
<path d="M53.38 8.27954V10.3241H50.8969V8.27954H53.38ZM50.9182 14.3686C50.9182 13.2131 50.9182 12.3258 50.8969 11.5817H53.38C53.3587 12.324 53.3587 13.2131 53.3587 14.3472V20.7869C53.3587 21.9425 53.3587 22.7474 53.38 23.5935H50.8969C50.9182 22.7671 50.9182 21.9425 50.9182 20.8066V14.3686Z" fill="#00164C"/>
<path d="M56.7669 14.1628C56.7669 13.1521 56.7669 12.4295 56.7456 11.5834H59.0438L59.0847 13.5439C59.8229 11.9125 61.1979 11.3347 63.272 11.3347C66.1447 11.3347 67.397 12.4706 67.397 15.5241C67.397 16.143 67.3756 16.9891 67.3756 18.7225V20.9102C67.3756 21.8189 67.3756 22.5827 67.397 23.5934H64.9334C64.9547 22.665 64.9547 22.1069 64.9547 20.9102V16.9498C64.9547 14.204 64.277 13.585 62.1424 13.585C60.0079 13.585 59.2074 14.204 59.2074 17.3827V20.9335C59.2074 22.0282 59.2074 22.708 59.2288 23.5952H56.7456C56.7669 22.6865 56.7669 21.9638 56.7669 20.8709V14.1628Z" fill="#00164C"/>
<path d="M69.9833 17.8979V17.2789C69.9833 12.6549 71.4811 11.3347 75.012 11.3347C76.9011 11.3347 78.1516 12.0163 78.8915 13.3167C78.8702 11.2113 78.8506 9.02358 78.8506 8.15601H81.3552C81.3338 8.87868 81.3338 9.7874 81.3338 10.943V20.8297C81.3338 21.9656 81.3338 22.7903 81.3552 23.5952H79.0765L79.0356 21.5309C78.317 23.0586 77.0042 23.8421 74.9106 23.8421C71.4828 23.8421 69.9833 22.5219 69.9833 17.8979ZM78.9129 17.6921V17.4864C78.9129 14.3077 78.0911 13.585 75.7929 13.585C73.2474 13.585 72.447 14.3489 72.447 17.5061V17.6707C72.447 20.8279 73.2474 21.5917 75.6897 21.5917C78.0911 21.5935 78.9129 20.8494 78.9129 17.6921Z" fill="#00164C"/>
<path d="M84.8648 20.8082V11.6441C84.8648 10.5494 84.8648 9.72474 84.8434 8.93945H89.3793L91.6366 15.4203C92.293 17.3397 92.9298 19.3002 93.4225 20.8493C93.9348 19.302 94.5717 17.32 95.228 15.4006L97.4657 8.93945H101.694C101.673 9.72295 101.673 10.4868 101.673 11.5404V20.7671C101.673 21.9226 101.673 22.7687 101.694 23.5952H99.1289C99.1503 21.9638 99.1503 19.6115 99.1503 17.9604C99.1503 16.5365 99.1912 13.3167 99.2125 11.2112H98.8639C98.2893 12.8623 97.6116 14.9051 96.9339 16.9086L94.5948 23.597H92.0902L89.6479 16.9301C88.9293 14.9069 88.1911 12.8426 87.6361 11.213H87.2661C87.307 13.0716 87.3284 15.8156 87.3284 18.1268C87.3284 19.5721 87.3284 21.9459 87.3497 23.597H84.8452C84.8648 22.6256 84.8648 21.9441 84.8648 20.8082Z" fill="#00164C"/>
<path d="M104.485 17.8979V17.2789C104.485 12.696 106.045 11.3347 110.17 11.3347C114.316 11.3347 115.876 12.6978 115.876 17.2789V17.8979C115.876 22.4808 114.316 23.8421 110.17 23.8421C106.047 23.8421 104.485 22.4808 104.485 17.8979ZM113.414 17.6707V17.5061C113.414 14.2863 112.635 13.5439 110.172 13.5439C107.729 13.5439 106.948 14.2863 106.948 17.5061V17.6707C106.948 20.8709 107.728 21.6329 110.172 21.6329C112.634 21.6347 113.414 20.8709 113.414 17.6707Z" fill="#00164C"/>
<path d="M118.566 10.943C118.566 9.80708 118.566 8.90015 118.544 8.15601H121.028C121.006 8.89836 121.006 9.7874 121.006 10.9215V20.7886C121.006 21.9441 121.006 22.7491 121.028 23.5952H118.544C118.566 22.7688 118.566 21.9441 118.566 20.8083V10.943Z" fill="#00164C"/>
<path d="M124.907 13.7086H123.018V11.5835H124.907C124.907 10.7159 124.886 9.91093 124.886 9.27233L127.35 9.20972C127.328 9.97354 127.328 10.5925 127.328 11.5835H130.53V13.7086H127.328V19.7565C127.328 21.2019 127.554 21.5114 129.278 21.5114C129.749 21.5114 129.996 21.4899 130.53 21.4702L130.551 23.5953C129.977 23.6579 129.484 23.6776 128.869 23.6776C125.585 23.6776 124.888 22.8512 124.888 20.252C124.888 19.2199 124.909 17.279 124.909 15.4222V13.7086H124.907Z" fill="#00164C"/>
<defs>
<linearGradient id="paint0_linear_178_153" x1="11.7968" y1="8.45659" x2="11.6985" y2="27.1384" gradientUnits="userSpaceOnUse">
<stop stop-color="#00CBD4"/>
<stop offset="0.0571" stop-color="#0BC0C6"/>
<stop offset="0.2938" stop-color="#359690"/>
<stop offset="0.5144" stop-color="#567566"/>
<stop offset="0.7125" stop-color="#6E5E47"/>
<stop offset="0.8811" stop-color="#7D4F35"/>
<stop offset="1" stop-color="#824A2E"/>
</linearGradient>
</defs>
</svg>
