<svg width="32" height="32" viewBox="0 0 32 32" fill="none" xmlns="http://www.w3.org/2000/svg">
<path d="M21.523 19.2948C20.972 19.2948 20.5237 18.8524 20.5237 18.309C20.5237 17.7657 20.972 17.3237 21.523 17.3237C22.0742 17.3237 22.5224 17.7656 22.5224 18.309C22.5224 18.8525 22.0742 19.2948 21.523 19.2948ZM10.477 19.2948C9.92592 19.2948 9.47767 18.8524 9.47767 18.309C9.47767 17.7657 9.92583 17.3237 10.477 17.3237C11.028 17.3237 11.4763 17.7656 11.4763 18.309C11.4763 18.8525 11.0281 19.2948 10.477 19.2948ZM21.8815 13.3588L23.8788 9.94776C23.9338 9.85363 23.9486 9.74183 23.9201 9.6369C23.8916 9.53197 23.822 9.44249 23.7267 9.38807C23.6312 9.33388 23.5178 9.31924 23.4114 9.34736C23.305 9.37547 23.2143 9.44405 23.1591 9.53805L21.1368 12.9922C19.5902 12.2963 17.8534 11.9086 16 11.9086C14.1466 11.9086 12.4098 12.2963 10.8633 12.9922L8.84092 9.53805C8.78572 9.44405 8.69496 9.37547 8.58856 9.34736C8.48216 9.31924 8.36879 9.33388 8.27332 9.38807C8.17791 9.44243 8.1083 9.53192 8.07978 9.63687C8.05126 9.74182 8.06616 9.85364 8.12122 9.94776L10.1185 13.3588C6.68885 15.1981 4.34316 18.6218 4 22.6667H28C27.6566 18.6219 25.3109 15.1981 21.8815 13.3587" fill="#3DDB85"/>
</svg>
