<svg width="32" height="32" viewBox="0 0 32 32" fill="none" xmlns="http://www.w3.org/2000/svg">
<path d="M22.9901 15.4171C23.0238 19.0491 26.1763 20.2577 26.2112 20.2731C26.1846 20.3583 25.7075 21.9954 24.5504 23.6865C23.55 25.1486 22.5119 26.6052 20.8764 26.6354C19.2694 26.665 18.7527 25.6825 16.9154 25.6825C15.0787 25.6825 14.5046 26.6053 12.9834 26.665C11.4047 26.7248 10.2026 25.0841 9.19401 23.6274C7.13301 20.6477 5.55798 15.2076 7.67285 11.5354C8.72347 9.71173 10.601 8.55693 12.6389 8.52732C14.1891 8.49775 15.6522 9.57022 16.5999 9.57022C17.547 9.57022 19.325 8.28048 21.1942 8.46989C21.9768 8.50246 24.1734 8.78599 25.5838 10.8505C25.4701 10.921 22.9629 12.3806 22.9901 15.4171ZM19.9699 6.49859C20.808 5.48409 21.3721 4.07182 21.2182 2.66663C20.0102 2.71518 18.5494 3.47165 17.6828 4.48558C16.9063 5.38347 16.2262 6.82059 16.4097 8.19798C17.7562 8.30216 19.1318 7.51372 19.9699 6.49859Z" fill="white"/>
</svg>
