<svg width="32" height="32" viewBox="0 0 32 32" fill="none" xmlns="http://www.w3.org/2000/svg">
<path d="M18.7815 11.3261L6.12478 4.09226C5.96574 3.99991 5.76566 4.00504 5.61174 4.09739C5.4527 4.18974 5.35522 4.35391 5.35522 4.53861C5.35522 4.53861 5.36036 5.20556 5.36549 6.30346L14.5848 15.5228L18.7815 11.3261Z" fill="url(#paint0_linear_79_1575)"/>
<path d="M5.36566 6.30359C5.38105 10.2642 5.42723 19.8785 5.44775 24.6651L14.5901 15.5228L5.36566 6.30359Z" fill="url(#paint1_linear_79_1575)"/>
<path d="M26.0255 15.4664L18.7814 11.3262L14.5796 15.5228L19.3201 20.2632L26.0306 16.3539C26.1897 16.2616 26.2872 16.0923 26.2872 15.9127C26.2872 15.728 26.1845 15.5587 26.0255 15.4664Z" fill="url(#paint2_linear_79_1575)"/>
<path d="M5.44263 24.6651C5.45289 26.3735 5.45802 27.4662 5.45802 27.4662C5.45802 27.6509 5.5555 27.8202 5.71454 27.9074C5.87358 27.9998 6.06854 27.9998 6.22758 27.9074L19.3255 20.2684L14.585 15.528L5.44263 24.6651Z" fill="url(#paint3_linear_79_1575)"/>
<defs>
<linearGradient id="paint0_linear_79_1575" x1="5.35522" y1="9.77643" x2="18.7838" y2="9.77643" gradientUnits="userSpaceOnUse">
<stop stop-color="#63BE6B"/>
<stop offset="0.506" stop-color="#5BBC6A"/>
<stop offset="1" stop-color="#4AB96A"/>
</linearGradient>
<linearGradient id="paint1_linear_79_1575" x1="5.3632" y1="15.4866" x2="14.5848" y2="15.4866" gradientUnits="userSpaceOnUse">
<stop stop-color="#3EC6F2"/>
<stop offset="1" stop-color="#45AFE3"/>
</linearGradient>
<linearGradient id="paint2_linear_79_1575" x1="14.5845" y1="15.798" x2="26.2859" y2="15.798" gradientUnits="userSpaceOnUse">
<stop stop-color="#FAA51A"/>
<stop offset="0.387" stop-color="#FAB716"/>
<stop offset="0.741" stop-color="#FAC412"/>
<stop offset="1" stop-color="#FAC80F"/>
</linearGradient>
<linearGradient id="paint3_linear_79_1575" x1="5.44488" y1="21.7521" x2="19.3253" y2="21.7521" gradientUnits="userSpaceOnUse">
<stop stop-color="#EC3B50"/>
<stop offset="1" stop-color="#E7515B"/>
</linearGradient>
</defs>
</svg>
