<svg width="648" height="460" viewBox="0 0 648 460" fill="none" xmlns="http://www.w3.org/2000/svg">
<rect x="142" y="48" width="324" height="324" rx="8" fill="#E1F7E1"/>
<rect x="182" y="88" width="324" height="324" rx="8" fill="#0C270D"/>
<path d="M397.253 147.668H439.859C439.859 147.668 436.094 140.812 425.123 141.836C414.651 142.788 414.107 138.46 408.794 137.948C403.48 137.436 399.028 141.454 397.253 147.668Z" fill="#E0E0E0"/>
<path d="M285.887 260.303C285.887 260.303 281.617 262.61 287.831 271.527C294.046 280.443 298.089 284.72 298.089 284.72C298.089 284.72 299.269 286.826 297.441 287.429C295.614 288.031 291.395 287.947 290.877 290.351C290.339 292.852 292.38 294.887 296.152 296.345C299.923 297.803 308.075 301.386 308.807 301.71C309.539 302.034 310.343 302.974 309.164 303.583C307.984 304.192 298.841 306.441 300.163 310.711C301.485 314.982 312.682 317.399 313.9 317.684C315.119 317.969 315.462 318.422 315.456 319.07C315.449 319.718 312.306 320.185 309.727 320.93C307.148 321.675 304.297 322.997 305.269 325.401C306.241 327.805 313.278 332.167 328.817 331.551L335.997 330.799L339.056 324.222C344.739 309.752 342.944 301.672 341 299.961C339.056 298.25 336.866 300.518 335.317 302.708C333.768 304.899 332.291 307.711 331.675 307.504C331.059 307.296 330.748 306.823 330.878 305.56C331.008 304.296 332.414 292.95 328.811 290.293C325.208 287.636 320.076 295.529 319.091 296.442C318.106 297.356 317.503 296.28 317.439 295.49C317.374 294.699 316.693 285.828 316.531 281.772C316.369 277.715 315.145 275.136 312.611 274.825C310.077 274.514 308.865 278.532 307.693 280.061C306.52 281.59 304.919 279.782 304.919 279.782C304.919 279.782 302.204 274.559 295.847 265.759C289.49 256.96 285.803 260.368 285.803 260.368" fill="#EBEBEB"/>
<path d="M336.6 332.439C331.941 325.959 323.86 314.295 316.868 304.322C309.876 294.349 303.545 285.329 298.919 278.823C296.605 275.583 294.739 272.952 293.437 271.131L291.946 269.032L291.564 268.487C291.48 268.364 291.441 268.293 291.441 268.293C291.441 268.293 291.493 268.351 291.583 268.475L291.985 269.006L293.508 271.079C294.804 272.874 296.748 275.492 299.048 278.732C303.707 285.212 310.064 294.22 317.05 304.192C324.035 314.165 332.103 325.842 336.73 332.341" fill="#E0E0E0"/>
<path d="M296.774 290.714C296.948 290.721 297.122 290.745 297.292 290.785C297.623 290.843 298.096 290.941 298.685 291.07C299.858 291.323 301.465 291.718 303.221 292.185L307.757 293.397L309.131 293.759C309.303 293.789 309.47 293.839 309.63 293.909C309.455 293.906 309.282 293.885 309.112 293.844C308.781 293.785 308.308 293.688 307.719 293.552C306.552 293.286 304.945 292.904 303.183 292.405L298.647 291.226L297.273 290.869C297.1 290.84 296.932 290.788 296.774 290.714Z" fill="#E0E0E0"/>
<path d="M310.058 293.416C309.993 293.416 310.66 290.046 311.542 285.925C312.423 281.804 313.194 278.467 313.252 278.48C313.311 278.493 312.65 281.843 311.762 285.971C310.874 290.098 310.116 293.416 310.058 293.416Z" fill="#E0E0E0"/>
<path d="M320.102 309.182C320.158 309.013 320.234 308.852 320.329 308.702L321.015 307.406C321.592 306.331 322.389 304.814 323.199 303.155C324.009 301.497 324.709 299.915 325.195 298.82L325.778 297.492C325.834 297.321 325.915 297.16 326.018 297.012C325.982 297.188 325.93 297.359 325.863 297.524C325.746 297.848 325.571 298.308 325.344 298.879C324.891 300.019 324.223 301.574 323.4 303.259C322.577 304.944 321.761 306.421 321.152 307.484C320.841 308.009 320.581 308.437 320.4 308.722C320.315 308.884 320.216 309.038 320.102 309.182Z" fill="#E0E0E0"/>
<path d="M307.557 309.415C307.715 309.371 307.879 309.352 308.043 309.357L309.384 309.279C310.511 309.221 312.073 309.162 313.797 309.104C315.52 309.046 317.082 309.013 318.216 309H319.557C319.721 308.986 319.886 308.986 320.05 309C319.89 309.044 319.724 309.066 319.557 309.065L318.223 309.143C317.089 309.195 315.527 309.26 313.803 309.311C312.08 309.363 310.518 309.402 309.384 309.415H308.049C307.885 309.434 307.72 309.434 307.557 309.415Z" fill="#E0E0E0"/>
<path d="M314.652 324.52C314.865 324.473 315.082 324.449 315.3 324.449L317.017 324.345C318.462 324.267 320.465 324.17 322.674 324.079C324.884 323.989 326.886 323.924 328.331 323.885L330.049 323.846C330.264 323.829 330.481 323.829 330.697 323.846C330.483 323.888 330.266 323.911 330.049 323.917L328.331 324.021C326.886 324.099 324.884 324.196 322.674 324.287C320.465 324.378 318.462 324.442 317.017 324.481L315.3 324.52C315.084 324.538 314.868 324.538 314.652 324.52Z" fill="#E0E0E0"/>
<path d="M330.269 323.742C330.342 323.53 330.433 323.324 330.541 323.127L331.358 321.474C332.044 320.081 332.978 318.157 333.95 315.999C334.922 313.841 335.764 311.871 336.36 310.432L337.066 308.735C337.144 308.525 337.237 308.321 337.345 308.126C337.3 308.348 337.233 308.565 337.144 308.774C337.002 309.188 336.788 309.778 336.496 310.497C335.939 311.949 335.122 313.938 334.144 316.096C333.165 318.254 332.2 320.178 331.481 321.552C331.118 322.239 330.833 322.796 330.599 323.172C330.504 323.37 330.393 323.561 330.269 323.742Z" fill="#E0E0E0"/>
<path d="M390.526 228.111C382.815 219.46 383.554 206.973 386.476 196.287C386.962 194.499 387.215 192.555 388.42 191.181C389.626 189.807 391.907 189.198 393.339 190.339C394.525 191.285 394.738 192.976 395.179 194.441C395.765 196.388 396.888 198.131 398.419 199.469C399.423 200.337 400.752 201.031 402.035 200.681C403.791 200.188 404.478 198.089 404.893 196.294C405.657 192.954 406.426 189.615 407.199 186.276C407.52 184.464 408.126 182.714 408.994 181.092C409.953 179.524 411.586 178.241 413.375 178.169C415.163 178.098 417.062 179.575 417.004 181.409C416.896 182.166 416.738 182.915 416.531 183.651C416.433 184.019 416.446 184.407 416.567 184.767C416.688 185.128 416.912 185.445 417.211 185.68C417.859 186.062 418.708 185.725 419.369 185.323C421.643 183.956 423.451 181.928 425.169 179.886C426.886 177.845 428.583 175.752 430.728 174.178C432.873 172.603 435.556 171.586 438.154 172.052C440.753 172.519 443.105 174.748 443.157 177.411C443.209 180.074 441.135 182.303 439.049 183.962C435.966 186.425 432.543 188.431 428.888 189.918C428.197 190.11 427.586 190.519 427.145 191.084C426.497 192.186 427.32 193.637 428.402 194.324C429.633 195.082 431.111 195.289 432.471 195.782C433.832 196.274 435.193 197.253 435.407 198.691C435.705 200.694 433.722 202.249 431.921 203.15C428.313 204.943 424.425 206.104 420.425 206.584C418.993 206.753 417.509 206.85 416.226 207.517C414.943 208.185 413.926 209.649 414.282 211.062C414.639 212.474 416.174 213.271 417.613 213.336C419.051 213.401 420.464 212.954 421.896 212.772C424.572 212.423 427.728 213.343 428.778 215.844C429.09 216.694 429.199 217.605 429.098 218.505C428.997 219.405 428.688 220.268 428.195 221.028C427.208 222.527 425.93 223.811 424.436 224.806C419.431 228.562 413.519 230.923 407.303 231.649C401.134 232.297 395.717 231.558 390.539 228.143" fill="#F5F5F5"/>
<path d="M392.095 229.147C393.494 224.974 392.03 227.067 394.913 222.019C398.093 216.571 401.583 211.309 405.366 206.26C406.359 204.912 407.342 203.584 408.314 202.275C409.286 200.979 410.258 199.683 411.269 198.458C413.236 196.142 415.327 193.936 417.535 191.849C419.628 189.84 421.689 188.012 423.633 186.315C425.577 184.617 427.417 183.075 429.154 181.746C431.888 179.627 434.785 177.727 437.817 176.063C438.887 175.474 439.761 175.046 440.312 174.767L440.96 174.45L441.187 174.353C441.12 174.403 441.049 174.446 440.973 174.482L440.325 174.832C439.755 175.137 438.919 175.584 437.863 176.186C434.866 177.893 432.003 179.823 429.296 181.96C427.573 183.301 425.745 184.85 423.814 186.548C421.883 188.246 419.835 190.086 417.749 192.095C415.557 194.181 413.479 196.383 411.522 198.691C410.511 199.897 409.578 201.186 408.586 202.495L405.638 206.48C401.868 211.512 398.38 216.75 395.192 222.168C392.302 227.203 393.753 225.078 392.328 229.225" fill="#E0E0E0"/>
<path d="M411.392 198.471C411.366 198.204 411.366 197.935 411.392 197.668C411.392 197.149 411.476 196.372 411.561 195.484C411.729 193.637 412.053 191.103 412.416 188.31C412.779 185.518 413.064 182.984 413.2 181.144C413.271 180.223 413.323 179.485 413.356 178.966C413.353 178.698 413.381 178.431 413.44 178.169C413.482 178.435 413.497 178.704 413.485 178.973C413.485 179.485 413.485 180.269 413.44 181.156C413.362 183.01 413.116 185.556 412.746 188.356C412.377 191.155 412.053 193.605 411.8 195.484C411.69 196.346 411.599 197.071 411.528 197.655C411.513 197.931 411.468 198.205 411.392 198.471Z" fill="#E0E0E0"/>
<path d="M435.368 199.618C435.052 199.616 434.737 199.581 434.428 199.514C433.826 199.424 432.951 199.294 431.869 199.164C429.711 198.892 426.685 198.627 423.393 198.471C420.101 198.316 417.062 198.316 414.878 198.374C413.79 198.374 412.934 198.439 412.286 198.465C411.969 198.491 411.651 198.491 411.334 198.465C411.644 198.388 411.961 198.34 412.28 198.322C412.889 198.257 413.77 198.18 414.872 198.128C417.056 198.005 420.056 197.972 423.412 198.128C426.256 198.251 429.091 198.517 431.908 198.925C432.983 199.087 433.852 199.255 434.454 199.378C434.766 199.429 435.072 199.509 435.368 199.618Z" fill="#E0E0E0"/>
<path d="M395.296 221.657C395.248 221.556 395.218 221.449 395.205 221.339C395.153 221.086 395.088 220.782 395.004 220.412C394.842 219.609 394.628 218.468 394.389 216.991C393.903 214.094 393.358 210.07 392.814 205.619C392.27 201.167 391.764 197.143 391.343 194.24C391.136 192.827 390.961 191.648 390.831 190.805C390.779 190.429 390.734 190.118 390.695 189.866C390.685 189.756 390.685 189.645 390.695 189.535C390.742 189.636 390.774 189.743 390.792 189.853L390.987 190.779C391.155 191.583 391.362 192.723 391.602 194.201C392.088 197.097 392.633 201.121 393.177 205.573C393.721 210.025 394.227 214.049 394.648 216.952C394.862 218.365 395.03 219.544 395.16 220.393C395.218 220.762 395.257 221.073 395.296 221.326C395.31 221.436 395.31 221.547 395.296 221.657Z" fill="#E0E0E0"/>
<path d="M428.195 219.045C428.088 219.079 427.976 219.097 427.864 219.097L426.905 219.188L423.38 219.473C420.406 219.712 416.297 220.121 411.761 220.522C407.225 220.924 403.104 221.294 400.097 221.475C398.607 221.566 397.402 221.624 396.566 221.65H395.607C395.495 221.667 395.381 221.667 395.27 221.65C395.377 221.619 395.488 221.601 395.6 221.598L396.559 221.507L400.084 221.222C403.059 220.983 407.167 220.574 411.703 220.173C416.239 219.771 420.354 219.401 423.367 219.226C424.864 219.136 426.069 219.071 426.905 219.045H427.864C427.974 219.032 428.085 219.032 428.195 219.045Z" fill="#E0E0E0"/>
<path d="M453.713 284.992C453.69 285.097 453.656 285.199 453.609 285.297L453.253 286.158C452.922 286.936 452.456 288.031 451.873 289.398L446.877 300.952L446.844 301.017H446.773L431.078 303.609L425.817 304.471L425.577 304.51L425.635 304.277C426.931 299.229 428.091 294.557 429.095 290.636L429.167 290.785L419.946 286.664L417.399 285.504L416.751 285.193C416.673 285.16 416.6 285.119 416.531 285.07L416.764 285.154L417.444 285.433L420.036 286.528L429.303 290.545L429.407 290.591V290.694C428.422 294.647 427.262 299.3 426.005 304.354L425.823 304.16L431.085 303.292L446.786 300.738L446.676 300.823L451.775 289.321C452.391 287.947 452.884 286.858 453.233 286.081L453.622 285.232C453.648 285.15 453.678 285.07 453.713 284.992Z" fill="#E0E0E0"/>
<path d="M427.657 302.65L427.223 303.778L427.91 304.776L426.704 304.717L425.972 305.676L425.655 304.51L424.514 304.108L425.525 303.447L425.557 302.242L426.497 303L427.657 302.65Z" fill="#E0E0E0"/>
<path d="M416.881 284.344L416.667 284.908L417.004 285.4L416.408 285.368L416.045 285.847L415.883 285.271L415.319 285.07L415.818 284.739L415.837 284.137L416.304 284.513L416.881 284.344Z" fill="#E0E0E0"/>
<path d="M447.317 300.259L447.103 300.823L447.44 301.315L446.844 301.289L446.481 301.769L446.319 301.185L445.755 300.991L446.254 300.661L446.267 300.058L446.74 300.434L447.317 300.259Z" fill="#E0E0E0"/>
<path d="M429.75 290.157L429.536 290.714L429.88 291.213L429.277 291.18L428.914 291.66L428.758 291.077L428.188 290.882L428.694 290.552L428.707 289.949L429.173 290.325L429.75 290.157Z" fill="#E0E0E0"/>
<path d="M454.445 284.428L454.231 284.992L454.575 285.485L453.972 285.459L453.609 285.938L453.454 285.355L452.884 285.154L453.389 284.83L453.402 284.227L453.868 284.603L454.445 284.428Z" fill="#E0E0E0"/>
<path d="M258.036 331.59H291.966C291.966 331.59 288.965 326.127 280.23 326.924C271.891 327.682 271.469 324.235 267.225 323.814C262.981 323.393 259.455 326.639 258.036 331.59Z" fill="#E0E0E0"/>
<path d="M264.776 198.024H298.698C298.698 198.024 295.698 192.568 286.963 193.358C278.63 194.123 278.202 190.676 273.964 190.254C269.726 189.833 266.188 193.08 264.776 198.024Z" fill="#F5F5F5"/>
<path d="M437.066 221.618H464.93C464.93 221.618 462.467 217.133 455.294 217.781C448.438 218.429 448.088 215.578 444.609 215.228C441.129 214.878 438.226 217.555 437.066 221.618Z" fill="#F5F5F5"/>
<path d="M381.409 276.626C382.796 266.187 375.454 257.569 366.278 252.391C357.103 247.214 346.456 245.464 336.321 242.6C326.763 239.885 317.257 235.919 310.181 228.946C303.105 221.974 298.854 211.496 301.394 201.892C302.042 199.482 303.176 197.058 305.25 195.665C307.323 194.272 310.479 194.311 312.028 196.268C315.32 200.441 308.904 207.932 312.922 211.392C313.842 212.196 315.112 212.487 316.065 213.245C318.598 215.274 317.782 219.207 318.138 222.434C318.845 228.817 324.832 233.249 330.71 235.835C338.583 239.295 347.11 240.921 355.457 242.963C363.803 245.004 372.233 247.602 379.186 252.683C386.139 257.763 392.185 265.643 392.146 274.255C392.146 276.659 391.829 279.614 390.319 281.48C388.809 283.346 386.891 283.741 384.714 282.717C382.537 281.694 381.02 280.125 381.422 276.639" fill="#2F8F2F"/>
<g opacity="0.8">
<path d="M381.409 276.626C382.796 266.187 375.454 257.569 366.278 252.391C357.103 247.214 346.456 245.464 336.321 242.6C326.763 239.885 317.257 235.919 310.181 228.946C303.105 221.974 298.854 211.496 301.394 201.892C302.042 199.482 303.176 197.058 305.25 195.665C307.323 194.272 310.479 194.311 312.028 196.268C315.32 200.441 308.904 207.932 312.922 211.392C313.842 212.196 315.112 212.487 316.065 213.245C318.598 215.274 317.782 219.207 318.138 222.434C318.845 228.817 324.832 233.249 330.71 235.835C338.583 239.295 347.11 240.921 355.457 242.963C363.803 245.004 372.233 247.602 379.186 252.683C386.139 257.763 392.185 265.643 392.146 274.255C392.146 276.659 391.829 279.614 390.319 281.48C388.809 283.346 386.891 283.741 384.714 282.717C382.537 281.694 381.02 280.125 381.422 276.639" fill="white"/>
</g>
<path d="M337.021 193.624C336.691 189.736 339.574 186.386 342.853 184.584C346.132 182.783 349.89 182.044 353.266 180.444C361.658 176.465 366.991 167.101 367.386 157.504C367.782 147.908 363.615 138.304 357.109 131.254C354.459 128.39 351.206 125.383 351.167 121.476C351.128 117.393 355.055 114.179 359.034 114.231C363.012 114.283 366.628 116.933 368.993 120.257C371.359 123.582 372.661 127.528 373.938 131.416C373.03 129.783 374.89 127.768 376.692 127.943C378.493 128.118 379.932 129.614 381.014 131.105C385.808 137.614 388.107 145.627 387.494 153.688C386.844 161.598 383.262 168.98 377.45 174.385C371.054 180.217 362.598 182.945 354.394 185.537L337.28 190.935" fill="#2F8F2F"/>
<g opacity="0.8">
<path d="M337.021 193.624C336.691 189.736 339.574 186.386 342.853 184.584C346.132 182.783 349.89 182.044 353.266 180.444C361.658 176.465 366.991 167.101 367.386 157.504C367.782 147.908 363.615 138.304 357.109 131.254C354.459 128.39 351.206 125.383 351.167 121.476C351.128 117.393 355.055 114.179 359.034 114.231C363.012 114.283 366.628 116.933 368.993 120.257C371.359 123.582 372.661 127.528 373.938 131.416C373.03 129.783 374.89 127.768 376.692 127.943C378.493 128.118 379.932 129.614 381.014 131.105C385.808 137.614 388.107 145.627 387.494 153.688C386.844 161.598 383.262 168.98 377.45 174.385C371.054 180.217 362.598 182.945 354.394 185.537L337.28 190.935" fill="white"/>
</g>
<path d="M332.258 112.313C331.39 112.671 330.694 113.35 330.315 114.209C329.936 115.068 329.904 116.04 330.224 116.922C330.544 117.805 331.193 118.529 332.035 118.945C332.877 119.361 333.847 119.435 334.742 119.153C335.637 118.871 336.389 118.253 336.84 117.43C337.292 116.607 337.408 115.641 337.164 114.735C336.921 113.828 336.337 113.051 335.533 112.564C334.73 112.078 333.771 111.921 332.854 112.125" fill="#2F8F2F"/>
<g opacity="0.8">
<path d="M332.258 112.313C331.39 112.671 330.694 113.35 330.315 114.209C329.936 115.068 329.904 116.04 330.224 116.922C330.544 117.805 331.193 118.529 332.035 118.945C332.877 119.361 333.847 119.435 334.742 119.153C335.637 118.871 336.389 118.253 336.84 117.43C337.292 116.607 337.408 115.641 337.164 114.735C336.921 113.828 336.337 113.051 335.533 112.564C334.73 112.078 333.771 111.921 332.854 112.125" fill="white"/>
</g>
<path d="M353.364 362C351.264 357.652 353.098 352.228 356.442 348.742C359.785 345.256 364.347 343.267 368.754 341.323C378.512 337.02 388.842 331.901 393.799 322.466C395.471 319.284 396.423 315.785 397.363 312.312C399.184 305.598 400.894 297.971 397.233 292.055C396.177 290.351 394.596 288.815 392.626 288.491C390.377 288.089 388.09 289.327 386.69 291.135C385.392 293.024 384.613 295.22 384.429 297.505C383.884 301.801 384.338 306.175 383.884 310.465C383.431 314.755 381.869 319.336 378.344 321.785C374.022 324.799 367.859 324.125 363.667 327.306C360.278 329.898 358.988 334.331 356.344 337.674C354.115 340.467 350.998 342.372 348.147 344.524C345.296 346.675 342.535 349.293 341.563 352.734C341.053 354.532 341.073 356.44 341.62 358.228C342.166 360.016 343.217 361.608 344.646 362.813C346.075 364.019 347.821 364.787 349.675 365.026C351.529 365.264 353.413 364.963 355.1 364.158" fill="#2F8F2F"/>
<g opacity="0.8">
<path d="M353.364 362C351.264 357.652 353.098 352.228 356.442 348.742C359.785 345.256 364.347 343.267 368.754 341.323C378.512 337.02 388.842 331.901 393.799 322.466C395.471 319.284 396.423 315.785 397.363 312.312C399.184 305.598 400.894 297.971 397.233 292.055C396.177 290.351 394.596 288.815 392.626 288.491C390.377 288.089 388.09 289.327 386.69 291.135C385.392 293.024 384.613 295.22 384.429 297.505C383.884 301.801 384.338 306.175 383.884 310.465C383.431 314.755 381.869 319.336 378.344 321.785C374.022 324.799 367.859 324.125 363.667 327.306C360.278 329.898 358.988 334.331 356.344 337.674C354.115 340.467 350.998 342.372 348.147 344.524C345.296 346.675 342.535 349.293 341.563 352.734C341.053 354.532 341.073 356.44 341.62 358.228C342.166 360.016 343.217 361.608 344.646 362.813C346.075 364.019 347.821 364.787 349.675 365.026C351.529 365.264 353.413 364.963 355.1 364.158" fill="white"/>
</g>
<path d="M288.486 142.341C286.76 141.06 285.366 139.386 284.417 137.458C283.468 135.53 282.993 133.403 283.031 131.254C283.069 129.106 283.619 126.997 284.635 125.104C285.652 123.21 287.105 121.587 288.875 120.368C290.87 119 293.229 118.158 295.005 116.48C296.579 115.015 297.597 112.987 299.366 111.756C300.47 110.973 301.795 110.563 303.148 110.586C304.502 110.61 305.812 111.065 306.888 111.885C307.965 112.705 308.751 113.848 309.132 115.147C309.514 116.445 309.47 117.832 309.008 119.104C308.198 121.378 306.157 123.044 305.301 125.299C304.381 127.735 304.977 130.483 304.653 133.036C304.441 134.626 303.874 136.147 302.994 137.487C302.114 138.828 300.943 139.953 299.569 140.78C298.195 141.606 296.652 142.113 295.056 142.262C293.459 142.411 291.849 142.199 290.346 141.641" fill="#2F8F2F"/>
<g opacity="0.8">
<path d="M288.486 142.341C286.76 141.06 285.366 139.386 284.417 137.458C283.468 135.53 282.993 133.403 283.031 131.254C283.069 129.106 283.619 126.997 284.635 125.104C285.652 123.21 287.105 121.587 288.875 120.368C290.87 119 293.229 118.158 295.005 116.48C296.579 115.015 297.597 112.987 299.366 111.756C300.47 110.973 301.795 110.563 303.148 110.586C304.502 110.61 305.812 111.065 306.888 111.885C307.965 112.705 308.751 113.848 309.132 115.147C309.514 116.445 309.47 117.832 309.008 119.104C308.198 121.378 306.157 123.044 305.301 125.299C304.381 127.735 304.977 130.483 304.653 133.036C304.441 134.626 303.874 136.147 302.994 137.487C302.114 138.828 300.943 139.953 299.569 140.78C298.195 141.606 296.652 142.113 295.056 142.262C293.459 142.411 291.849 142.199 290.346 141.641" fill="white"/>
</g>
<path d="M288.732 128.448H296.696V144.862C296.696 145.322 296.605 145.778 296.429 146.204C296.253 146.629 295.995 147.015 295.669 147.341C295.344 147.666 294.957 147.925 294.532 148.101C294.107 148.277 293.651 148.368 293.19 148.368H292.244C291.314 148.368 290.423 147.998 289.765 147.341C289.108 146.683 288.739 145.792 288.739 144.862V128.448H288.732Z" fill="#2F8F2F"/>
<path d="M288.732 128.448L292.711 121.145L296.696 128.448H288.732Z" fill="#FFBE9D"/>
<path d="M291.136 124.035C291.136 124.035 292.348 125.856 294.292 124.035L292.717 121.145L291.136 124.035Z" fill="#2F8F2F"/>
<path d="M296.806 144.065C295.463 144.227 294.108 144.281 292.756 144.227C291.406 144.281 290.054 144.227 288.713 144.065C290.054 143.902 291.406 143.848 292.756 143.903C294.108 143.848 295.463 143.903 296.806 144.065Z" fill="#263238"/>
<path d="M296.696 142.84C295.381 143.002 294.054 143.057 292.73 143.002C291.406 143.057 290.08 143.002 288.764 142.84C290.08 142.686 291.406 142.634 292.73 142.685C294.054 142.634 295.38 142.686 296.696 142.84Z" fill="#263238"/>
<path d="M291.071 128.565C291.156 128.565 291.233 131.74 291.233 135.66C291.233 139.581 291.156 142.788 291.071 142.788C290.987 142.788 290.909 139.607 290.909 135.66C290.909 131.714 290.981 128.565 291.071 128.565Z" fill="#FAFAFA"/>
<path d="M294.292 128.565C294.383 128.565 294.454 131.74 294.454 135.66C294.454 139.581 294.383 142.788 294.292 142.788C294.201 142.788 294.13 139.607 294.13 135.66C294.13 131.714 294.201 128.565 294.292 128.565Z" fill="#FAFAFA"/>
<path d="M357.926 352.851L394.103 354.399L394.978 356.505L371.261 394.997L328.454 393.746L357.926 352.851Z" fill="#263238"/>
<path d="M326.834 389.994L369.894 392.456L392.393 357.549L376.594 358.832L336.619 372.906L326.834 389.994Z" fill="#E0E0E0"/>
<path d="M320.782 387.408L360.31 388.056C358.671 382.996 362.539 375.874 367.859 373.476C371.384 371.889 378.013 369.828 381.435 368.072C387.915 364.735 393.812 358.423 393.3 353L377.048 352.462L356.312 351.658C354.575 356.803 350.869 360.167 345.231 362.195C340.19 364.009 334.448 364.003 329.524 366.083C321.605 369.401 317.801 380.151 320.75 387.428" fill="#EBEBEB"/>
<path d="M320.782 387.408C320.782 387.408 320.743 387.324 320.685 387.149L320.413 386.391C320.269 385.968 320.157 385.535 320.076 385.095C319.944 384.502 319.853 383.9 319.804 383.294C319.678 381.611 319.782 379.919 320.115 378.265C320.575 376.038 321.436 373.912 322.655 371.992C322.998 371.437 323.377 370.905 323.789 370.398C324.003 370.146 324.21 369.867 324.437 369.621L325.169 368.876C325.414 368.62 325.678 368.384 325.96 368.169C326.238 367.942 326.51 367.703 326.809 367.489C327.426 367.055 328.076 366.669 328.753 366.335C331.494 364.955 334.766 364.391 338.174 363.743C339.885 363.432 341.648 363.095 343.41 362.622C345.224 362.125 346.974 361.421 348.627 360.523C349.48 360.061 350.293 359.528 351.057 358.929C351.844 358.324 352.567 357.64 353.215 356.888C354.557 355.336 355.578 353.535 356.221 351.587L356.26 351.477H356.37L373.639 352.125C379.633 352.358 385.835 352.52 392.185 352.734L393.339 352.773H393.481V352.915C393.568 354.157 393.391 355.402 392.963 356.57C392.758 357.147 392.516 357.71 392.237 358.255C391.951 358.791 391.635 359.31 391.291 359.81C389.925 361.772 388.274 363.519 386.392 364.994C384.573 366.442 382.587 367.667 380.476 368.642C378.389 369.582 376.277 370.347 374.21 371.111C372.143 371.876 370.095 372.602 368.157 373.444C367.203 373.867 366.308 374.411 365.494 375.064C365.073 375.362 364.723 375.744 364.341 376.075C363.958 376.405 363.628 376.807 363.323 377.215C362.061 378.739 361.12 380.503 360.556 382.399C359.985 384.195 359.951 386.119 360.459 387.933L360.517 388.108H360.336L331.571 387.603L323.594 387.441L321.508 387.382H320.789C320.789 387.382 321.035 387.382 321.508 387.382H323.601L331.578 387.473L360.336 387.875L360.213 388.043C359.681 386.18 359.71 384.201 360.297 382.354C360.861 380.414 361.816 378.61 363.103 377.053C363.408 376.639 363.79 376.282 364.133 375.893C364.477 375.505 364.885 375.161 365.313 374.85C366.142 374.181 367.058 373.625 368.034 373.198C369.978 372.342 372.039 371.61 374.106 370.846C376.173 370.081 378.279 369.31 380.346 368.377C382.429 367.411 384.387 366.197 386.178 364.761C388.035 363.309 389.664 361.588 391.012 359.655C391.351 359.17 391.664 358.668 391.952 358.151C392.223 357.621 392.459 357.073 392.658 356.512C393.071 355.387 393.243 354.188 393.164 352.993L393.319 353.136L392.159 353.103C385.809 352.889 379.608 352.721 373.62 352.455L356.344 351.807L356.493 351.704C355.832 353.686 354.789 355.52 353.422 357.101C352.76 357.866 352.022 358.561 351.219 359.175C350.442 359.784 349.614 360.324 348.743 360.789C347.074 361.696 345.303 362.405 343.469 362.901C341.687 363.387 339.918 363.711 338.207 364.016C334.798 364.625 331.539 365.195 328.837 366.543C328.175 366.868 327.541 367.245 326.938 367.67C326.64 367.878 326.374 368.117 326.096 368.318C325.816 368.531 325.554 368.765 325.312 369.018L324.56 369.763C324.327 370.01 324.126 370.282 323.912 370.534C323.499 371.031 323.12 371.555 322.778 372.103C321.558 374 320.695 376.103 320.231 378.31C319.883 379.949 319.763 381.628 319.875 383.3C319.914 383.904 319.996 384.503 320.121 385.095C320.193 385.534 320.297 385.967 320.432 386.391C320.542 386.728 320.62 386.981 320.678 387.162C320.737 387.344 320.782 387.408 320.782 387.408Z" fill="#263238"/>
<path d="M367.451 352.3C367.451 352.3 367.503 352.047 367.542 351.594C367.589 350.955 367.483 350.315 367.231 349.727C366.878 348.85 366.213 348.135 365.365 347.718C364.844 347.476 364.281 347.341 363.707 347.321C363.134 347.301 362.562 347.397 362.027 347.603C361.491 347.808 361.002 348.119 360.589 348.518C360.176 348.916 359.848 349.394 359.623 349.922C359.226 350.782 359.093 351.74 359.241 352.676C359.335 353.305 359.555 353.909 359.889 354.451C360.135 354.84 360.317 355.021 360.297 355.041C360.096 354.903 359.925 354.727 359.792 354.522C359.39 353.989 359.118 353.371 358.995 352.715C358.802 351.732 358.918 350.713 359.325 349.799C359.562 349.231 359.912 348.717 360.353 348.289C360.795 347.861 361.319 347.527 361.893 347.307C362.468 347.088 363.081 346.988 363.696 347.013C364.31 347.038 364.913 347.187 365.468 347.453C366.37 347.91 367.065 348.693 367.412 349.643C367.654 350.261 367.73 350.931 367.633 351.587C367.606 351.766 367.563 351.942 367.503 352.112C367.49 352.248 367.464 352.3 367.451 352.3Z" fill="#263238"/>
<path d="M373.652 352.3C373.62 352.3 373.704 352.047 373.743 351.593C373.788 350.956 373.681 350.316 373.432 349.727C373.076 348.85 372.409 348.135 371.559 347.718C371.039 347.477 370.476 347.343 369.902 347.323C369.329 347.304 368.758 347.4 368.223 347.605C367.687 347.811 367.198 348.122 366.785 348.519C366.372 348.917 366.043 349.394 365.818 349.922C365.423 350.782 365.292 351.741 365.442 352.676C365.533 353.306 365.754 353.91 366.09 354.451C366.336 354.84 366.518 355.021 366.498 355.041C366.293 354.906 366.118 354.73 365.987 354.522C365.588 353.988 365.315 353.37 365.19 352.715C365.003 351.731 365.12 350.714 365.526 349.799C365.763 349.232 366.113 348.719 366.554 348.291C366.995 347.864 367.518 347.53 368.092 347.311C368.666 347.091 369.278 346.991 369.892 347.015C370.506 347.04 371.108 347.189 371.663 347.453C372.565 347.91 373.26 348.693 373.607 349.643C373.847 350.261 373.925 350.93 373.834 351.587C373.809 351.767 373.764 351.943 373.698 352.112C373.696 352.177 373.681 352.241 373.652 352.3Z" fill="#263238"/>
<path d="M378.344 352.624C378.344 352.624 378.383 352.365 378.396 351.911C378.406 351.271 378.264 350.638 377.981 350.064C377.576 349.211 376.87 348.537 375.998 348.172C375.466 347.962 374.898 347.859 374.326 347.87C373.755 347.881 373.191 348.006 372.668 348.237C371.615 348.719 370.796 349.601 370.393 350.686C370.046 351.568 369.967 352.533 370.166 353.46C370.303 354.086 370.568 354.677 370.944 355.196C371.21 355.566 371.404 355.741 371.385 355.76C371.173 355.638 370.99 355.472 370.847 355.274C370.416 354.763 370.108 354.16 369.946 353.512C369.703 352.541 369.762 351.519 370.114 350.583C370.319 350.003 370.639 349.47 371.056 349.018C371.472 348.565 371.976 348.202 372.538 347.951C373.099 347.699 373.705 347.564 374.32 347.554C374.935 347.545 375.546 347.66 376.115 347.893C377.042 348.298 377.781 349.039 378.182 349.967C378.464 350.574 378.58 351.245 378.519 351.911C378.505 352.092 378.471 352.27 378.415 352.442C378.396 352.566 378.344 352.624 378.344 352.624Z" fill="#263238"/>
<path d="M383.405 352.909C383.405 352.909 383.405 352.65 383.405 352.196C383.384 351.557 383.208 350.932 382.893 350.375C382.445 349.542 381.704 348.905 380.813 348.587C380.27 348.403 379.696 348.331 379.124 348.374C378.553 348.416 377.995 348.574 377.486 348.836C376.976 349.098 376.525 349.46 376.158 349.901C375.791 350.341 375.516 350.851 375.35 351.399C375.049 352.297 375.022 353.265 375.272 354.179C375.443 354.798 375.739 355.376 376.141 355.877C376.426 356.227 376.627 356.389 376.607 356.415C376.39 356.301 376.198 356.144 376.044 355.954C375.588 355.467 375.249 354.882 375.052 354.244C374.753 353.288 374.753 352.264 375.052 351.308C375.227 350.719 375.519 350.171 375.909 349.697C376.3 349.223 376.782 348.832 377.327 348.548C377.875 348.267 378.475 348.101 379.09 348.06C379.705 348.018 380.322 348.103 380.904 348.308C381.847 348.66 382.624 349.354 383.081 350.252C383.395 350.85 383.545 351.521 383.515 352.196C383.509 352.375 383.485 352.553 383.444 352.727C383.437 352.851 383.418 352.909 383.405 352.909Z" fill="#263238"/>
<path d="M388.459 352.792C388.459 352.792 388.459 352.533 388.459 352.08C388.42 351.44 388.226 350.82 387.895 350.272C387.424 349.453 386.667 348.837 385.77 348.541C385.222 348.372 384.645 348.315 384.074 348.373C383.503 348.431 382.95 348.604 382.447 348.881C381.944 349.158 381.503 349.534 381.148 349.985C380.794 350.437 380.535 350.955 380.385 351.509C380.152 352.268 380.114 353.074 380.273 353.852C380.433 354.63 380.786 355.355 381.299 355.961C381.597 356.304 381.804 356.46 381.785 356.479C381.563 356.379 381.366 356.231 381.208 356.045C380.741 355.568 380.387 354.992 380.171 354.36C379.848 353.412 379.823 352.388 380.1 351.425C380.259 350.831 380.536 350.276 380.913 349.79C381.29 349.305 381.761 348.9 382.297 348.6C382.837 348.305 383.431 348.123 384.044 348.065C384.657 348.007 385.275 348.074 385.861 348.263C386.817 348.591 387.615 349.266 388.096 350.155C388.427 350.749 388.595 351.419 388.582 352.099C388.582 352.28 388.563 352.46 388.524 352.637C388.492 352.728 388.472 352.792 388.459 352.792Z" fill="#263238"/>
<path d="M392.723 353.356C392.723 353.356 392.723 353.097 392.723 352.643C392.709 352.003 392.54 351.376 392.231 350.816C391.791 349.982 391.06 349.338 390.177 349.008C389.636 348.817 389.062 348.737 388.49 348.773C387.918 348.809 387.359 348.959 386.846 349.215C386.333 349.472 385.877 349.829 385.505 350.265C385.133 350.702 384.853 351.208 384.681 351.755C384.42 352.505 384.351 353.307 384.478 354.09C384.606 354.874 384.928 355.612 385.414 356.24C385.699 356.596 385.893 356.758 385.88 356.784C385.664 356.669 385.474 356.51 385.323 356.317C384.87 355.826 384.537 355.236 384.351 354.594C384.065 353.634 384.081 352.609 384.396 351.658C384.578 351.071 384.876 350.527 385.272 350.057C385.669 349.587 386.155 349.202 386.703 348.924C387.255 348.65 387.857 348.492 388.472 348.458C389.087 348.425 389.702 348.517 390.28 348.729C391.223 349.092 391.993 349.802 392.432 350.712C392.74 351.312 392.883 351.983 392.846 352.656C392.839 352.836 392.813 353.014 392.769 353.188C392.756 353.298 392.736 353.363 392.723 353.356Z" fill="#263238"/>
<path d="M411.392 220.613C409.602 220.559 407.811 220.642 406.033 220.859C400.64 221.554 395.686 224.196 392.106 228.288C388.525 232.381 386.564 237.642 386.593 243.079C386.574 246.657 387.038 250.221 387.973 253.674C391.09 264.729 392.049 274.468 391.693 279.218L402.126 284.824C402.126 284.824 406.953 277.883 411.619 274.89C416.284 271.896 431.811 263.874 437.96 255.676C441.919 250.376 442.684 239.476 433.236 229.977C427.425 224.17 419.605 220.818 411.392 220.613Z" fill="#2F8F2F"/>
<path d="M386.703 291.284L396.125 296.377L389.995 304.166L383.709 301.315L386.703 291.284Z" fill="#455A64"/>
<path d="M387.163 291.602C387.079 291.569 388.012 288.77 389.25 285.355C390.488 281.94 391.557 279.186 391.641 279.218C391.725 279.251 390.792 282.044 389.554 285.465C388.317 288.886 387.248 291.628 387.163 291.602Z" fill="#263238"/>
<path d="M395.536 296.008C395.458 295.963 396.935 293.319 398.827 290.105C400.72 286.891 402.32 284.344 402.404 284.344C402.489 284.344 401.005 287.033 399.106 290.247C397.207 293.461 395.607 296.04 395.536 296.008Z" fill="#263238"/>
<g opacity="0.4">
<path d="M414.502 220.911C414.081 220.911 408.897 227.002 406.603 231.111C398.886 244.933 398.536 258.379 396.397 274.06C396.093 276.302 394.978 281.13 394.998 281.02C396.138 281.914 399.974 283.696 399.974 283.696C399.974 283.696 403.597 279.328 405.035 277.132C410.789 268.338 417.043 261.476 421.974 252.19C426.905 242.904 431.649 234.694 427.087 225.195C427.087 225.195 419.168 220.646 414.502 220.911Z" fill="black"/>
</g>
<path d="M437.96 257.063C437.905 256.968 437.86 256.868 437.824 256.765C437.74 256.571 437.636 256.266 437.461 255.89C436.973 254.803 436.362 253.774 435.64 252.825C434.532 251.36 433.18 250.097 431.642 249.093C429.671 247.787 427.424 246.955 425.078 246.663H425L424.961 246.611C423.702 244.881 422.295 243.264 420.756 241.777C419.071 240.151 417.129 238.815 415.008 237.824C412.877 236.86 410.547 236.416 408.21 236.528C406.081 236.611 404.02 237.299 402.268 238.511L402.171 238.576L402.087 238.498C400.305 236.935 398.09 235.952 395.736 235.679C393.908 235.471 392.056 235.707 390.338 236.366C389.226 236.792 388.182 237.379 387.241 238.109C386.917 238.368 386.671 238.576 386.515 238.718C386.438 238.796 386.354 238.865 386.263 238.926C386.331 238.842 386.405 238.761 386.483 238.686C386.632 238.53 386.865 238.31 387.183 238.038C388.111 237.266 389.157 236.647 390.28 236.204C392.02 235.506 393.904 235.244 395.769 235.439C398.179 235.699 400.452 236.692 402.281 238.284H402.1C403.895 237.032 406.011 236.319 408.197 236.23C410.581 236.108 412.959 236.552 415.137 237.526C417.292 238.534 419.263 239.894 420.969 241.55C422.521 243.051 423.935 244.689 425.194 246.442L425.097 246.384C427.484 246.687 429.767 247.548 431.759 248.898C433.308 249.932 434.666 251.228 435.77 252.728C436.483 253.698 437.075 254.751 437.532 255.864C437.694 256.247 437.785 256.558 437.856 256.759C437.897 256.858 437.932 256.96 437.96 257.063Z" fill="#263238"/>
<path d="M418.559 270.833C418.399 270.031 418.093 269.264 417.658 268.572C417.148 267.779 416.463 267.114 415.656 266.628C414.623 265.989 413.411 265.702 412.202 265.811H412.072V265.682C411.819 264.13 411.174 262.67 410.197 261.438C409.221 260.206 407.946 259.245 406.493 258.644C405.206 258.141 403.822 257.931 402.443 258.029C401.176 258.121 399.943 258.476 398.821 259.072L398.724 259.124L398.646 259.04C397.676 258.023 396.407 257.342 395.024 257.096C393.949 256.887 392.842 256.922 391.784 257.199C390.844 257.461 389.964 257.901 389.192 258.495C389.192 258.495 389.23 258.437 389.328 258.353C389.425 258.269 389.567 258.132 389.768 257.983C390.36 257.565 391.017 257.247 391.712 257.044C392.797 256.731 393.939 256.674 395.049 256.875C396.497 257.114 397.827 257.817 398.84 258.878L398.665 258.845C399.817 258.233 401.084 257.867 402.385 257.77C403.811 257.67 405.242 257.891 406.571 258.418C408.17 259.063 409.555 260.146 410.569 261.541C411.481 262.766 412.077 264.197 412.306 265.708L412.157 265.591C413.422 265.492 414.684 265.808 415.753 266.492C416.575 267.002 417.267 267.696 417.775 268.52C418.1 269.047 418.332 269.625 418.462 270.231C418.494 270.389 418.518 270.549 418.533 270.71C418.545 270.75 418.554 270.792 418.559 270.833Z" fill="#263238"/>
<path d="M394.304 298.833C394.304 298.833 394.201 298.704 393.961 298.6C393.599 298.491 393.212 298.504 392.859 298.639C392.588 298.724 392.307 298.774 392.023 298.788C391.848 298.786 391.675 298.749 391.515 298.679C391.355 298.609 391.21 298.507 391.09 298.38C390.591 297.855 390.403 297.084 389.93 296.585C389.822 296.462 389.688 296.365 389.538 296.301C389.388 296.237 389.225 296.208 389.062 296.215C388.728 296.252 388.398 296.319 388.077 296.416C387.757 296.508 387.42 296.525 387.092 296.468C386.747 296.383 386.434 296.202 386.187 295.946C385.941 295.691 385.771 295.371 385.699 295.023C385.655 294.879 385.655 294.726 385.699 294.582C385.699 294.582 385.699 294.738 385.809 294.997C385.931 295.355 386.156 295.669 386.457 295.898C386.654 296.055 386.888 296.16 387.137 296.202C387.427 296.242 387.721 296.215 387.999 296.125C388.338 296.016 388.688 295.942 389.042 295.904C389.251 295.892 389.459 295.927 389.652 296.007C389.845 296.087 390.018 296.209 390.157 296.364C390.708 297.012 390.876 297.725 391.297 298.172C391.484 298.38 391.745 298.506 392.023 298.522C392.284 298.519 392.543 298.482 392.794 298.412C393.194 298.288 393.626 298.315 394.006 298.49C394.278 298.645 394.317 298.833 394.304 298.833Z" fill="#263238"/>
<path d="M395.386 297.304C393.808 296.647 392.273 295.89 390.792 295.036C389.258 294.276 387.771 293.424 386.34 292.483C387.919 293.143 389.456 293.901 390.941 294.751C392.473 295.511 393.958 296.364 395.386 297.304Z" fill="#263238"/>
<path d="M393.514 299.695C393.514 299.695 393.384 299.76 393.157 299.864C393.041 299.915 392.911 299.993 392.73 300.071C392.522 300.143 392.301 300.172 392.082 300.155C391.513 300.124 390.968 299.913 390.526 299.553C390.268 299.333 390.066 299.056 389.937 298.743C389.831 298.436 389.676 298.149 389.477 297.894C389.243 297.697 388.97 297.551 388.677 297.467C388.383 297.382 388.075 297.359 387.772 297.401C387.221 297.466 386.662 297.413 386.133 297.246C385.77 297.107 385.474 296.836 385.304 296.488C385.2 296.235 385.239 296.073 385.252 296.079C385.265 296.086 385.291 296.222 385.42 296.429C385.608 296.717 385.89 296.93 386.217 297.032C386.721 297.158 387.246 297.183 387.759 297.103C388.105 297.052 388.458 297.077 388.794 297.175C389.129 297.274 389.44 297.444 389.703 297.673C389.923 297.957 390.094 298.274 390.209 298.613C390.318 298.888 390.489 299.134 390.708 299.332C391.1 299.661 391.58 299.868 392.088 299.928C392.435 299.96 392.784 299.897 393.099 299.747C393.365 299.676 393.514 299.676 393.514 299.695Z" fill="#263238"/>
<path d="M322.37 239.178L338.667 236.761L330.891 225.745L326.718 225.992C325.339 226.071 324.009 226.532 322.877 227.324C321.745 228.116 320.856 229.207 320.309 230.476C319.717 231.851 319.553 233.373 319.836 234.843L322.37 239.178Z" fill="#2F8F2F"/>
<path opacity="0.4" d="M322.37 239.178L338.667 236.761L330.891 225.745L326.718 225.992C325.339 226.071 324.009 226.532 322.877 227.324C321.745 228.116 320.856 229.207 320.309 230.476C319.717 231.851 319.553 233.373 319.836 234.843L322.37 239.178Z" fill="black"/>
<path d="M392.367 257.232C392.535 257.698 392.717 258.249 392.905 258.91C393.06 259.479 393.119 260.071 393.08 260.66C393.054 261.39 392.93 262.114 392.71 262.811C392.445 263.459 393.067 264.055 393.591 263.744C394.116 263.433 394.887 261.748 394.887 259.584C394.887 257.42 397.052 260.012 397.875 260.945C398.698 261.878 401.38 264.645 401.866 264.619C402.579 264.58 402.67 263.809 401.828 262.895C400.985 261.982 398.646 259.072 399.158 258.657C399.67 258.243 403.791 263.057 403.791 263.057C403.791 263.057 404.504 264.23 405.087 263.777C406.189 262.954 401.426 258.165 400.959 257.724C400.642 257.413 401.18 256.947 401.51 257.297C401.841 257.646 405.515 262.189 406.642 261.359C407.504 260.711 402.754 257.387 402.521 256.026C402.288 254.666 405.865 258.923 406.662 258.288C406.966 258.048 407.154 257.828 404.718 255.696C403.551 254.646 399.106 251.536 399.106 251.536L385.731 213.245L375.402 219.162L392.367 257.232Z" fill="#FFBE9D"/>
<path d="M312.747 184.811L297.804 166.978C297.616 166.363 297.371 165.766 297.072 165.196C296.725 164.485 296.232 163.855 295.624 163.348C295.017 162.841 294.309 162.468 293.547 162.254C292.601 162.047 291.512 162.151 290.767 161.529C290.436 161.25 290.216 160.881 289.866 160.595C289.516 160.31 288.939 160.284 288.713 160.654C288.654 160.798 288.63 160.953 288.641 161.108C288.652 161.263 288.699 161.414 288.777 161.548C289.339 162.867 290.232 164.019 291.369 164.892C289.97 165.319 287.967 165.967 287.967 165.967C287.967 165.967 284.812 162.539 283.192 162.546C281.572 162.552 284.488 165.611 284.488 165.611C284.488 165.611 281.896 163.213 281.092 163.887C280.289 164.561 282.349 166.343 282.349 166.343C281.73 165.922 280.991 165.715 280.243 165.754C279.511 165.877 278.882 166.738 279.278 167.367C279.446 167.594 279.669 167.774 279.926 167.892L283.904 170.108C284.541 170.532 285.27 170.799 286.03 170.886C288.052 170.95 289.587 169.7 291.603 169.752C291.603 169.752 302.871 193.475 304.012 194.7C305.152 195.924 329.932 197.59 329.932 197.59L344.259 185.245L312.747 184.811Z" fill="#FFBE9D"/>
<path d="M357.64 314.042L372.901 320.684L364.736 339.716C362.961 338.828 363.544 327.404 363.544 327.404L353.59 323.548L357.64 314.042Z" fill="#2F8F2F"/>
<g opacity="0.6">
<path d="M365.235 321.176C365.369 321.016 365.558 320.911 365.764 320.881C365.971 320.851 366.182 320.899 366.356 321.014C366.519 321.144 366.627 321.33 366.657 321.536C366.687 321.742 366.637 321.952 366.518 322.122C366.376 322.291 366.177 322.4 365.959 322.43C365.742 322.46 365.52 322.408 365.339 322.284C365.18 322.133 365.086 321.926 365.078 321.707C365.07 321.488 365.147 321.275 365.293 321.112" fill="white"/>
</g>
<path opacity="0.6" d="M372.901 320.684L371.333 320.075L364.088 338.549C364.088 338.549 364.088 339.56 364.736 339.716L372.901 320.684Z" fill="white"/>
<path d="M363.304 327.682C363.401 327.715 363.641 327.268 364.14 326.944C364.639 326.62 365.125 326.535 365.125 326.438C365.125 326.341 364.529 326.244 363.939 326.652C363.349 327.06 363.213 327.663 363.304 327.682Z" fill="#263238"/>
<path d="M363.271 330.028C363.356 330.093 363.686 329.756 364.218 329.607C364.749 329.458 365.196 329.548 365.235 329.458C365.274 329.367 364.768 329.075 364.114 329.27C363.459 329.464 363.187 329.989 363.271 330.028Z" fill="#263238"/>
<path d="M365.177 332.192C365.235 332.115 364.82 331.784 364.211 331.804C363.602 331.823 363.213 332.173 363.272 332.244C363.33 332.315 363.719 332.166 364.224 332.16C364.73 332.153 365.125 332.296 365.177 332.192Z" fill="#263238"/>
<path d="M361.133 326.548C361.237 326.548 361.289 326.062 361.554 325.557C361.82 325.051 362.157 324.708 362.099 324.624C362.04 324.539 361.535 324.792 361.237 325.395C360.939 325.997 361.042 326.561 361.133 326.548Z" fill="#263238"/>
<path d="M359.072 325.123C359.111 325.123 359.325 324.799 359.474 324.17C359.563 323.801 359.605 323.422 359.597 323.043C359.594 322.826 359.577 322.609 359.545 322.395C359.531 322.262 359.496 322.133 359.442 322.012C359.403 321.923 359.335 321.85 359.249 321.804C359.163 321.758 359.065 321.743 358.969 321.76C358.884 321.776 358.804 321.813 358.736 321.867C358.669 321.922 358.615 321.991 358.58 322.071C358.528 322.193 358.493 322.321 358.476 322.453C358.372 323.058 358.424 323.68 358.625 324.261C358.839 324.876 359.124 325.175 359.157 325.149C359.189 325.123 359.008 324.779 358.859 324.19C358.778 323.843 358.741 323.489 358.748 323.133C358.753 322.916 358.775 322.699 358.813 322.485C358.846 322.265 358.917 322.09 359.034 322.077C359.15 322.064 359.085 322.077 359.131 322.142C359.165 322.234 359.189 322.33 359.202 322.427C359.239 322.641 359.263 322.858 359.273 323.075C359.293 323.432 359.278 323.79 359.228 324.144C359.154 324.466 359.102 324.793 359.072 325.123Z" fill="#263238"/>
<path d="M359.254 325.064C359.254 325.064 359.034 324.708 358.444 324.416C358.098 324.247 357.725 324.14 357.342 324.099C357.127 324.075 356.91 324.075 356.694 324.099C356.546 324.097 356.4 324.133 356.27 324.204C356.139 324.274 356.029 324.376 355.949 324.501C355.916 324.586 355.907 324.68 355.924 324.77C355.942 324.861 355.984 324.945 356.046 325.012C356.138 325.108 356.243 325.191 356.357 325.259C356.558 325.384 356.776 325.478 357.005 325.537C357.384 325.631 357.78 325.631 358.159 325.537C358.807 325.375 359.092 325.038 359.066 325.019C358.754 325.128 358.436 325.218 358.113 325.291C357.771 325.34 357.421 325.314 357.09 325.213C356.897 325.152 356.714 325.065 356.545 324.954C356.357 324.838 356.228 324.695 356.28 324.63C356.335 324.565 356.405 324.513 356.484 324.478C356.562 324.444 356.647 324.427 356.733 324.429C356.949 324.408 357.166 324.408 357.381 324.429C357.733 324.454 358.08 324.528 358.411 324.65C358.904 324.857 359.221 325.103 359.254 325.064Z" fill="#263238"/>
<path d="M345.886 340.182L352.197 353.408L354.174 365.344C354.207 365.547 354.282 365.741 354.394 365.914C354.506 366.086 354.652 366.234 354.823 366.348C354.995 366.462 355.188 366.539 355.391 366.575C355.593 366.61 355.801 366.604 356.001 366.556C356.234 366.502 356.451 366.392 356.632 366.237C356.814 366.081 356.955 365.884 357.044 365.662C358.204 362.791 362.423 352.196 361.904 351.256C361.308 350.168 356.169 336.864 356.169 336.864L345.886 340.182Z" fill="#2F8F2F"/>
<path opacity="0.6" d="M356.001 366.523L361.496 350.323L361.755 350.887C361.975 351.376 362.014 351.927 361.865 352.442C361.464 353.823 360.278 357.626 357.083 365.61C356.993 365.84 356.846 366.044 356.658 366.203C356.469 366.363 356.243 366.473 356.001 366.523Z" fill="white"/>
<g opacity="0.6">
<path d="M356.817 347.245C356.707 347.439 356.672 347.667 356.72 347.885C356.768 348.103 356.895 348.295 357.077 348.425C357.267 348.543 357.496 348.583 357.715 348.537C357.935 348.491 358.128 348.363 358.256 348.179C358.37 347.971 358.404 347.73 358.351 347.499C358.299 347.269 358.163 347.065 357.971 346.928C357.76 346.826 357.517 346.81 357.294 346.883C357.072 346.957 356.887 347.115 356.779 347.323" fill="white"/>
</g>
<path d="M356.429 359.311C355.938 358.996 355.372 358.818 354.789 358.798C354.206 358.777 353.629 358.914 353.117 359.195C353.117 359.195 353.215 358.987 353.506 358.806C353.896 358.571 354.347 358.456 354.802 358.475C355.255 358.489 355.693 358.633 356.066 358.89C356.351 359.097 356.455 359.285 356.429 359.311Z" fill="#263238"/>
<path d="M356.312 361.527C355.834 361.483 355.353 361.47 354.873 361.488C354.406 361.6 353.945 361.738 353.493 361.903C353.422 361.851 353.94 361.255 354.828 361.164C355.086 361.102 355.356 361.102 355.614 361.165C355.873 361.228 356.112 361.352 356.312 361.527Z" fill="#263238"/>
<path d="M357.167 356.22C356.435 356.093 355.694 356.021 354.951 356.006C354.211 356.089 353.478 356.233 352.761 356.434C353.398 355.981 354.152 355.72 354.933 355.682C355.714 355.644 356.489 355.831 357.167 356.22Z" fill="#263238"/>
<path d="M355.586 352.041C355.586 352.138 354.711 352.157 353.733 352.559C352.754 352.961 352.1 353.525 352.035 353.453C352.406 352.881 352.965 352.457 353.616 352.254C354.227 351.953 354.925 351.877 355.586 352.041Z" fill="#263238"/>
<path d="M353.83 348.107C353.163 348.183 352.509 348.349 351.886 348.6C351.308 348.937 350.78 349.354 350.318 349.837C350.286 349.837 350.35 349.585 350.584 349.274C350.889 348.862 351.289 348.531 351.75 348.308C352.206 348.08 352.711 347.964 353.221 347.971C353.61 347.984 353.837 348.075 353.83 348.107Z" fill="#263238"/>
<path d="M351.575 347.848C351.463 347.698 351.379 347.529 351.329 347.349C351.169 346.865 351.105 346.354 351.141 345.846C351.133 345.471 351.25 345.104 351.471 344.802C351.551 344.715 351.656 344.652 351.771 344.623C351.886 344.595 352.007 344.601 352.119 344.64C352.338 344.747 352.51 344.929 352.605 345.152C352.777 345.615 352.782 346.124 352.619 346.59C352.455 347.056 352.134 347.451 351.711 347.705C351.288 347.949 350.803 348.061 350.316 348.029C349.83 347.997 349.363 347.821 348.977 347.524C348.878 347.447 348.798 347.348 348.742 347.236C348.686 347.124 348.655 347.001 348.653 346.876C348.659 346.752 348.705 346.633 348.783 346.537C348.861 346.44 348.967 346.371 349.087 346.338C349.449 346.265 349.824 346.287 350.175 346.403C350.671 346.533 351.139 346.752 351.556 347.051C351.847 347.252 351.977 347.401 351.964 347.42C351.394 347.068 350.774 346.805 350.124 346.643C349.814 346.551 349.486 346.54 349.171 346.61C349.105 346.627 349.046 346.664 349.003 346.717C348.96 346.769 348.935 346.834 348.931 346.902C348.943 346.981 348.97 347.058 349.011 347.127C349.052 347.196 349.107 347.256 349.171 347.304C349.512 347.551 349.916 347.696 350.337 347.72C350.757 347.744 351.176 347.647 351.543 347.44C351.91 347.226 352.192 346.892 352.341 346.494C352.49 346.096 352.496 345.658 352.359 345.256C352.301 345.097 352.185 344.965 352.035 344.887C351.973 344.858 351.904 344.851 351.838 344.865C351.771 344.879 351.711 344.914 351.666 344.964C351.476 345.219 351.371 345.528 351.368 345.846C351.319 346.52 351.389 347.198 351.575 347.848Z" fill="#263238"/>
<path d="M367.153 315.655L349.845 303.991L355.573 247.752L339.179 238.181L324.191 234.707C324.191 234.707 317.931 247.732 315.119 256.091C309.196 273.827 305.042 280.184 305.995 293.027C306.293 297.097 321.313 307.283 330.8 312.927C330.907 314.057 331.075 315.18 331.306 316.29C334.546 330.948 344.447 350.44 344.447 350.44L359.481 343.448L354.634 326.827L359.688 329.775L367.153 315.655ZM329.951 279.367L331.973 270.354C331.545 276.089 331.157 282.07 330.878 287.804C329.901 285.113 329.583 282.226 329.951 279.387V279.367Z" fill="#263238"/>
<path d="M344.473 350.44C344.427 350.364 344.388 350.284 344.356 350.2L344.039 349.494L342.879 346.753C341.881 344.362 340.449 340.921 338.732 336.612C337.015 332.302 334.98 327.196 332.9 321.429C332.388 319.984 331.889 318.5 331.416 316.964C331.209 316.187 330.943 315.422 330.807 314.599C330.768 314.398 330.723 314.191 330.69 313.99L330.619 313.374L330.483 312.143C330.301 310.484 330.157 308.795 330.049 307.076C329.997 306.22 329.951 305.352 329.913 304.484C329.874 303.616 329.848 302.728 329.913 301.84C330.172 294.777 330.761 288.076 331.254 281.979C331.746 275.881 332.219 270.399 332.608 265.779C332.997 261.159 333.256 257.439 333.386 254.854C333.47 253.558 333.515 252.56 333.541 251.886L333.587 251.108C333.575 251.022 333.575 250.935 333.587 250.849C333.594 250.935 333.594 251.022 333.587 251.108C333.587 251.302 333.587 251.555 333.587 251.886C333.587 252.566 333.554 253.57 333.496 254.86C333.386 257.452 333.159 261.184 332.816 265.798C332.472 270.412 332.012 275.901 331.52 281.998C331.027 288.096 330.463 294.796 330.224 301.84C330.172 302.721 330.224 303.59 330.224 304.464C330.224 305.339 330.301 306.195 330.36 307.056C330.463 308.784 330.604 310.467 330.781 312.104L330.917 313.342L330.988 313.951C331.021 314.152 331.066 314.346 331.105 314.547C331.234 315.338 331.494 316.109 331.701 316.88C332.161 318.403 332.66 319.887 333.165 321.332C335.2 327.093 337.215 332.218 338.9 336.527C340.585 340.837 341.991 344.303 342.957 346.701C343.43 347.893 343.806 348.82 344.065 349.468C344.181 349.773 344.279 350.012 344.343 350.187C344.408 350.362 344.473 350.44 344.473 350.44Z" fill="#455A64"/>
<path d="M332.9 248.944C332.9 248.944 332.751 248.853 332.511 248.626C332.201 248.278 331.954 247.879 331.779 247.447C331.266 246.017 331.015 244.507 331.04 242.989C331.02 241.474 331.092 239.959 331.254 238.453C331.284 237.83 331.371 237.212 331.513 236.606C331.566 237.227 331.566 237.851 331.513 238.472C331.455 239.619 331.364 241.207 331.39 242.956C331.38 244.443 331.598 245.923 332.038 247.343C332.19 247.76 332.397 248.154 332.654 248.516C332.809 248.782 332.919 248.931 332.9 248.944Z" fill="#455A64"/>
<path d="M326.433 235.563C326.586 236.07 326.63 236.605 326.562 237.131C326.476 238.421 326.047 239.665 325.319 240.733C324.591 241.802 323.591 242.657 322.422 243.209C321.955 243.463 321.441 243.618 320.912 243.663C320.912 243.611 321.476 243.455 322.318 243.015C323.414 242.431 324.353 241.591 325.053 240.565C325.752 239.539 326.193 238.358 326.336 237.124C326.446 236.165 326.374 235.563 326.433 235.563Z" fill="#455A64"/>
<path d="M353.325 268.261C353.325 268.261 353.325 268.319 353.325 268.429C353.325 268.539 353.325 268.727 353.286 268.928C353.234 269.395 353.169 270.043 353.091 270.872C352.904 272.563 352.644 274.968 352.32 277.922C351.672 283.903 350.713 292.114 349.689 301.192C349.324 305.466 349.611 309.77 350.538 313.958C350.944 315.782 351.466 317.578 352.1 319.336C352.683 320.995 353.221 322.544 353.72 323.963C354.698 326.775 355.489 329.063 356.046 330.67C356.306 331.447 356.513 332.056 356.694 332.497L356.85 332.977C356.871 333.028 356.885 333.083 356.889 333.138C356.889 333.138 356.889 333.093 356.817 332.983C356.746 332.873 356.707 332.711 356.636 332.516C356.468 332.082 356.247 331.48 355.988 330.708L353.564 324.041C353.059 322.628 352.502 321.079 351.906 319.427C351.256 317.66 350.722 315.852 350.305 314.016C349.351 309.802 349.051 305.465 349.417 301.16C350.428 292.055 351.439 283.852 352.145 277.896C352.515 274.942 352.793 272.538 353.02 270.853C353.124 270.036 353.208 269.401 353.273 268.909C353.273 268.708 353.325 268.546 353.344 268.416C353.33 268.366 353.324 268.313 353.325 268.261Z" fill="#455A64"/>
<path d="M324.191 234.61L326.847 227.825L332.906 236.859L324.826 234.843" fill="#FFBE9D"/>
<path d="M387.578 214.217L380.392 198.102C379.53 195.51 377.916 195.108 376.568 193.605L358.561 183.45C345.432 178.072 338.285 196.099 338.285 196.099L326.355 223.315C312.326 227.962 322.26 238.738 322.26 238.738C322.26 238.738 318.443 232.102 322.201 229.711C326.128 227.203 330.483 233.806 334.669 240.079C339.613 247.479 355.67 252.287 355.67 252.287C357.55 250.305 357.025 243.377 358.496 239.658C358.962 238.485 370.082 212.727 370.082 212.727L374.391 223.166C374.391 223.166 379.912 216.686 382.595 215.662C384.212 215.04 385.879 214.557 387.578 214.217Z" fill="#2F8F2F"/>
<path d="M355.664 225.674C355.499 225.824 355.316 225.952 355.12 226.057C354.596 226.36 354.048 226.618 353.48 226.828C351.593 227.539 349.554 227.75 347.56 227.443C345.567 227.135 343.687 226.318 342.101 225.072C341.623 224.702 341.178 224.29 340.773 223.84C340.612 223.688 340.477 223.51 340.371 223.315C340.417 223.27 341.019 224.002 342.237 224.89C343.821 226.058 345.664 226.825 347.608 227.125C349.552 227.425 351.541 227.25 353.403 226.614C354.841 226.134 355.664 225.622 355.664 225.674Z" fill="#263238"/>
<path d="M325.856 200.104L336.969 201.154L354.75 182.362L344.292 181.999L325.675 183.839C326.654 189.212 326.715 194.711 325.856 200.104Z" fill="#2F8F2F"/>
<path d="M341.259 190.216C341.232 190.337 341.186 190.452 341.123 190.559L340.676 191.518C340.274 192.386 339.71 193.585 339.03 195.037C337.65 198.017 335.79 202.165 333.846 206.765C331.902 211.366 330.049 215.533 328.662 218.52C327.981 220.017 327.418 221.216 327.016 222.045L326.543 222.991C326.493 223.106 326.43 223.215 326.355 223.315C326.388 223.195 326.431 223.078 326.485 222.965L326.899 221.993L328.454 218.429C329.75 215.377 331.558 211.224 333.528 206.636C335.498 202.048 337.416 197.901 338.822 194.939C339.542 193.462 340.118 192.276 340.566 191.46C340.773 191.084 340.935 190.773 341.065 190.527C341.118 190.416 341.183 190.312 341.259 190.216Z" fill="#263238"/>
<path d="M375.182 195.678C375.214 195.737 374.534 196.093 373.581 196.896C373.035 197.365 372.534 197.883 372.084 198.445C371.537 199.139 371.063 199.888 370.672 200.681C370.296 201.479 370 202.312 369.79 203.169C369.627 203.873 369.532 204.592 369.505 205.314C369.46 206.545 369.602 207.31 369.538 207.316C369.469 207.149 369.426 206.972 369.408 206.791C369.359 206.578 369.329 206.362 369.317 206.143C369.284 205.86 369.269 205.574 369.272 205.288C369.267 204.548 369.343 203.809 369.499 203.085C369.693 202.191 369.987 201.322 370.374 200.493C370.779 199.681 371.273 198.916 371.845 198.212C372.318 197.646 372.85 197.131 373.432 196.676C373.652 196.496 373.883 196.332 374.125 196.184C374.3 196.059 374.484 195.948 374.676 195.853C374.834 195.769 375.005 195.709 375.182 195.678Z" fill="#263238"/>
<path d="M378.286 169.868L367.859 189.36C367.038 190.893 365.666 192.058 364.02 192.621C362.374 193.183 360.576 193.102 358.988 192.393C358.132 192.006 357.365 191.447 356.733 190.752C356.101 190.057 355.619 189.24 355.315 188.351C355.012 187.462 354.894 186.52 354.968 185.583C355.042 184.647 355.308 183.736 355.748 182.906L357.543 179.524C357.543 179.524 353.007 176.588 355.133 171.689C357.025 167.322 363.971 154.984 365.442 152.379L374.229 156.312C375.399 156.922 376.434 157.76 377.275 158.777C378.115 159.795 378.742 160.97 379.121 162.233C379.499 163.497 379.62 164.824 379.476 166.135C379.333 167.447 378.928 168.716 378.286 169.868Z" fill="#FFBE9D"/>
<path d="M357.543 179.452C359.775 180.5 362.267 180.861 364.704 180.489C364.704 180.489 361.632 183.321 356.967 180.709L357.543 179.452Z" fill="#EB996E"/>
<path d="M360.893 163.868C360.81 164.049 360.801 164.255 360.868 164.442C360.934 164.63 361.071 164.784 361.25 164.872C361.335 164.919 361.429 164.947 361.525 164.957C361.622 164.967 361.72 164.957 361.812 164.929C361.905 164.901 361.992 164.854 362.066 164.792C362.141 164.73 362.203 164.654 362.248 164.568C362.331 164.387 362.34 164.181 362.273 163.993C362.207 163.806 362.07 163.651 361.891 163.563C361.806 163.517 361.712 163.488 361.616 163.479C361.519 163.469 361.421 163.478 361.329 163.507C361.236 163.535 361.149 163.582 361.075 163.644C361 163.706 360.938 163.782 360.893 163.868Z" fill="#263238"/>
<path d="M360.932 163.252C360.978 163.382 361.677 163.252 362.429 163.563C363.181 163.874 363.557 164.516 363.68 164.464C363.803 164.412 363.719 164.237 363.563 163.959C363.338 163.59 363.006 163.298 362.611 163.123C362.22 162.948 361.785 162.9 361.366 162.987C361.062 163.058 360.906 163.168 360.932 163.252Z" fill="#263238"/>
<path d="M367.898 167.315C367.814 167.496 367.803 167.703 367.87 167.891C367.937 168.079 368.075 168.233 368.255 168.32C368.34 168.366 368.434 168.394 368.531 168.403C368.628 168.413 368.726 168.403 368.819 168.374C368.912 168.345 368.998 168.297 369.072 168.235C369.147 168.172 369.208 168.095 369.253 168.009C369.334 167.828 369.342 167.624 369.275 167.438C369.209 167.252 369.073 167.099 368.896 167.011C368.811 166.964 368.717 166.934 368.62 166.924C368.524 166.914 368.426 166.923 368.333 166.951C368.24 166.98 368.153 167.027 368.078 167.089C368.004 167.152 367.943 167.229 367.898 167.315Z" fill="#263238"/>
<path d="M368.229 166.68C368.274 166.81 368.974 166.68 369.726 166.991C370.477 167.302 370.853 167.95 370.976 167.898C371.099 167.847 371.022 167.672 370.86 167.387C370.634 167.02 370.302 166.73 369.907 166.557C369.518 166.379 369.081 166.331 368.663 166.421C368.358 166.492 368.203 166.622 368.229 166.68Z" fill="#263238"/>
<path d="M363.025 171.015C362.685 170.719 362.311 170.464 361.911 170.257C361.729 170.147 361.561 170.03 361.587 169.888C361.613 169.745 361.781 169.557 361.969 169.376L363.187 168.171C364.263 167.171 365.258 166.088 366.162 164.931C365.002 165.836 363.918 166.835 362.922 167.918L361.723 169.143C361.5 169.32 361.346 169.57 361.289 169.849C361.288 169.929 361.304 170.007 361.336 170.08C361.369 170.153 361.417 170.218 361.477 170.27C361.57 170.345 361.672 170.408 361.781 170.458C362.168 170.7 362.587 170.888 363.025 171.015Z" fill="#263238"/>
<path d="M364.995 172.519C364.879 172.46 364.516 173.27 363.563 173.536C362.611 173.802 361.781 173.329 361.723 173.439C361.664 173.549 361.846 173.679 362.209 173.854C362.681 174.074 363.216 174.12 363.719 173.983C364.203 173.855 364.618 173.54 364.872 173.108C365.053 172.784 365.053 172.545 364.995 172.519Z" fill="#263238"/>
<path d="M369.35 163.66C369.35 163.9 370.121 164.134 370.95 164.632C371.78 165.131 372.389 165.689 372.583 165.559C372.674 165.494 372.635 165.248 372.441 164.911C372.164 164.5 371.799 164.157 371.371 163.906C370.944 163.656 370.466 163.506 369.972 163.466C369.596 163.466 369.356 163.55 369.35 163.66Z" fill="#263238"/>
<path d="M362.176 161.224C362.235 161.457 362.824 161.509 363.472 161.775C364.12 162.041 364.568 162.423 364.768 162.28C364.969 162.138 364.859 162.008 364.697 161.749C364.484 161.413 364.168 161.154 363.796 161.01C363.429 160.851 363.021 160.813 362.63 160.9C362.306 160.952 362.144 161.094 362.176 161.224Z" fill="#263238"/>
<path d="M375.007 172.791C375.11 172.791 378.798 173.296 377.203 176.582C375.609 179.867 372.667 177.586 372.667 177.489C372.667 177.392 375.007 172.791 375.007 172.791Z" fill="#FFBE9D"/>
<path d="M374.287 176.731C374.287 176.731 374.326 176.795 374.398 176.893C374.508 177.016 374.661 177.092 374.825 177.107C375.107 177.078 375.376 176.975 375.604 176.807C375.831 176.64 376.01 176.414 376.121 176.154C376.266 175.877 376.348 175.572 376.361 175.26C376.379 175.142 376.369 175.022 376.331 174.909C376.292 174.796 376.227 174.694 376.141 174.612C376.083 174.563 376.009 174.537 375.933 174.537C375.858 174.537 375.784 174.563 375.726 174.612C375.642 174.683 375.629 174.754 375.609 174.754C375.59 174.754 375.564 174.664 375.655 174.54C375.714 174.468 375.796 174.418 375.888 174.398C376.012 174.375 376.139 174.4 376.244 174.469C376.365 174.562 376.461 174.683 376.522 174.823C376.583 174.962 376.608 175.115 376.594 175.266C376.595 175.618 376.511 175.965 376.348 176.277C376.222 176.577 376.011 176.834 375.74 177.015C375.469 177.196 375.151 177.293 374.825 177.294C374.725 177.274 374.63 177.233 374.546 177.174C374.462 177.115 374.392 177.039 374.339 176.951C374.255 176.815 374.275 176.731 374.287 176.731Z" fill="#EB996E"/>
<path d="M376.912 173.536C376.607 173.382 376.266 173.311 375.925 173.33C375.584 173.35 375.254 173.459 374.968 173.646C374.54 174.022 374.249 174.54 373.821 174.942C373.624 175.151 373.363 175.289 373.079 175.333C372.795 175.378 372.504 175.327 372.253 175.188C372.105 175.057 371.995 174.889 371.934 174.701C371.873 174.513 371.862 174.312 371.903 174.119C371.99 173.732 372.15 173.364 372.376 173.037C373.264 171.573 374.281 170.173 375.046 168.637C375.878 167.12 376.241 165.39 376.089 163.667C376.001 162.81 375.684 161.992 375.171 161.3C374.658 160.608 373.968 160.067 373.173 159.734C372.104 159.358 370.911 159.468 369.816 159.157C369.168 158.962 368.572 158.623 368.074 158.165C367.576 157.707 367.188 157.143 366.939 156.513C366.81 156.259 366.667 156.013 366.511 155.774C366.55 155.697 366.939 155.036 367.321 154.906C370.212 153.928 374.119 155.049 376.51 156.934C377.731 157.883 378.73 159.086 379.437 160.461C380.144 161.835 380.543 163.347 380.605 164.892C380.638 167.937 378.72 171.294 376.938 173.562" fill="#263238"/>
<path d="M376.944 173.18C377.858 171.624 379.335 170.503 380.463 169.104C381.59 167.704 382.407 165.728 381.565 164.121C381.292 163.57 380.852 163.11 380.625 162.539C380.445 161.947 380.337 161.336 380.301 160.719C380.155 159.775 379.796 158.876 379.253 158.091C378.71 157.305 377.996 156.653 377.165 156.183C376.011 155.535 374.683 155.275 373.51 154.66C371.663 153.688 370.309 151.886 368.326 151.115C368.014 150.963 367.673 150.878 367.325 150.867C366.978 150.856 366.632 150.918 366.311 151.05C366.157 151.125 366.021 151.232 365.911 151.363C365.801 151.494 365.719 151.646 365.672 151.811C365.625 151.975 365.613 152.148 365.637 152.317C365.661 152.486 365.721 152.649 365.812 152.794C365.773 152.644 365.703 152.505 365.605 152.386C365.507 152.267 365.385 152.171 365.246 152.104C365.107 152.037 364.955 152.002 364.801 152C364.647 151.998 364.494 152.03 364.354 152.094C364.078 152.244 363.853 152.472 363.706 152.75C363.56 153.028 363.499 153.343 363.531 153.655C363.607 154.279 363.851 154.87 364.237 155.366C365.439 157.069 367.207 158.289 369.227 158.807L373.704 158.457L377.372 161.172L380.081 165.494L375.162 171.884L376.944 173.18Z" fill="#263238"/>
<path d="M348.957 147.681C348.775 144.857 347.838 142.135 346.244 139.797C344.65 137.46 342.458 135.593 339.896 134.392C337.334 133.191 334.497 132.701 331.681 132.971C328.864 133.242 326.173 134.264 323.886 135.93C321.6 137.597 319.803 139.847 318.683 142.445C317.564 145.043 317.162 147.895 317.521 150.701C317.88 153.508 318.986 156.166 320.723 158.399C322.461 160.632 324.766 162.357 327.398 163.395C327.521 165.261 327.657 167.374 327.657 167.374L341.473 166.479C341.473 166.479 341.414 164.244 341.311 162.248C343.801 160.757 345.833 158.609 347.182 156.039C348.531 153.469 349.145 150.577 348.957 147.681Z" fill="#2F8F2F"/>
<path d="M336.47 166.739C336.47 166.739 336.47 166.667 336.47 166.544C336.47 166.421 336.47 166.214 336.47 165.967C336.47 165.468 336.542 164.723 336.619 163.771C336.697 162.818 336.807 161.645 337.021 160.304C337.258 158.776 337.642 157.274 338.168 155.82C338.478 154.973 338.862 154.156 339.315 153.377C339.562 152.951 339.912 152.595 340.332 152.34C340.56 152.213 340.815 152.143 341.075 152.135C341.336 152.127 341.594 152.182 341.829 152.295C342.078 152.414 342.271 152.626 342.367 152.884C342.474 153.146 342.474 153.439 342.367 153.701C342.136 154.204 341.728 154.606 341.22 154.828C340.685 155.038 340.114 155.139 339.54 155.126C338.965 155.113 338.399 154.986 337.874 154.753C337.349 154.52 336.876 154.185 336.481 153.767C336.087 153.35 335.779 152.858 335.576 152.321C335.336 151.748 335.262 151.119 335.362 150.506C335.416 150.18 335.583 149.883 335.832 149.667C336.082 149.45 336.399 149.328 336.729 149.32C336.9 149.326 337.067 149.375 337.213 149.464C337.36 149.552 337.481 149.677 337.565 149.826C337.74 150.113 337.806 150.453 337.753 150.785C337.601 151.424 337.249 151.998 336.749 152.424C336.272 152.882 335.705 153.235 335.083 153.458C334.461 153.681 333.799 153.771 333.14 153.72C332.479 153.658 331.844 153.437 331.287 153.076C330.731 152.715 330.27 152.224 329.945 151.647C329.778 151.362 329.671 151.046 329.632 150.718C329.593 150.39 329.622 150.058 329.718 149.742C329.765 149.579 329.847 149.43 329.958 149.303C330.069 149.176 330.207 149.074 330.362 149.006C330.516 148.939 330.684 148.905 330.852 148.909C331.021 148.913 331.187 148.954 331.338 149.029C331.636 149.167 331.885 149.393 332.051 149.677C332.206 149.953 332.307 150.257 332.349 150.571C332.432 151.178 332.39 151.795 332.226 152.385C331.921 153.542 331.187 154.539 330.172 155.172C329.203 155.766 328.054 155.996 326.932 155.82C326.386 155.769 325.872 155.541 325.467 155.172C325.269 154.979 325.143 154.724 325.109 154.45C325.074 154.175 325.135 153.898 325.279 153.662C325.447 153.445 325.694 153.303 325.966 153.267C326.225 153.233 326.488 153.267 326.731 153.364C327.178 153.582 327.54 153.942 327.761 154.388C328.215 155.217 328.584 156.027 328.96 156.798C330.424 159.896 331.487 162.455 332.2 164.231C332.556 165.119 332.848 165.812 333.003 166.278C333.088 166.512 333.152 166.693 333.204 166.816C333.228 166.878 333.248 166.94 333.263 167.004L333.185 166.823L332.965 166.298L332.129 164.257C331.39 162.494 330.308 159.941 328.83 156.857C328.454 156.092 328.072 155.269 327.625 154.459C327.417 154.046 327.081 153.711 326.666 153.506C326.457 153.408 326.221 153.378 325.994 153.423C325.767 153.467 325.559 153.583 325.402 153.753C325.285 153.958 325.239 154.197 325.272 154.432C325.305 154.666 325.414 154.883 325.584 155.049C325.962 155.393 326.442 155.605 326.951 155.651C328.034 155.812 329.139 155.583 330.068 155.003C331.031 154.386 331.725 153.428 332.012 152.321C332.17 151.754 332.21 151.16 332.129 150.577C332.11 150.288 332.017 150.008 331.859 149.764C331.702 149.52 331.484 149.32 331.228 149.184C331.099 149.125 330.959 149.094 330.816 149.094C330.674 149.094 330.534 149.125 330.405 149.184C330.274 149.247 330.158 149.337 330.065 149.449C329.972 149.561 329.905 149.692 329.867 149.832C329.78 150.123 329.754 150.428 329.791 150.729C329.828 151.031 329.926 151.321 330.081 151.582C330.396 152.126 330.837 152.586 331.367 152.924C331.897 153.262 332.501 153.469 333.127 153.526C333.758 153.573 334.392 153.485 334.987 153.27C335.582 153.054 336.125 152.715 336.58 152.275C337.044 151.88 337.372 151.35 337.52 150.759C337.565 150.47 337.508 150.174 337.358 149.923C337.289 149.802 337.19 149.701 337.071 149.629C336.952 149.556 336.817 149.515 336.678 149.508C336.392 149.51 336.117 149.619 335.906 149.813C335.695 150.006 335.554 150.263 335.505 150.545C335.409 151.123 335.479 151.716 335.706 152.256C335.899 152.776 336.195 153.251 336.575 153.656C336.955 154.06 337.412 154.384 337.919 154.609C338.426 154.834 338.973 154.956 339.527 154.967C340.082 154.978 340.633 154.878 341.149 154.673C341.618 154.468 341.995 154.099 342.212 153.636C342.304 153.418 342.31 153.172 342.228 152.949C342.147 152.727 341.983 152.544 341.771 152.437C341.559 152.335 341.325 152.285 341.089 152.291C340.853 152.298 340.623 152.362 340.417 152.476C340.024 152.717 339.697 153.051 339.464 153.448C339.014 154.217 338.633 155.023 338.324 155.859C337.791 157.299 337.401 158.788 337.157 160.304C336.93 161.645 336.807 162.812 336.716 163.764C336.626 164.717 336.58 165.449 336.535 165.961C336.535 166.201 336.496 166.395 336.49 166.531C336.483 166.667 336.47 166.739 336.47 166.739Z" fill="#263238"/>
<path d="M340.572 169.104L328.714 169.875C328.477 169.889 328.244 169.809 328.066 169.653C327.887 169.496 327.778 169.276 327.761 169.039C327.747 168.803 327.827 168.571 327.984 168.393C328.14 168.216 328.361 168.108 328.597 168.093L340.462 167.328C340.579 167.32 340.696 167.335 340.806 167.373C340.917 167.41 341.019 167.469 341.107 167.546C341.195 167.623 341.267 167.717 341.319 167.822C341.37 167.927 341.401 168.041 341.408 168.158C341.422 168.394 341.342 168.626 341.186 168.803C341.029 168.981 340.808 169.089 340.572 169.104Z" fill="#263238"/>
<path d="M340.624 169.881L328.759 170.652C328.524 170.668 328.304 170.776 328.148 170.954C327.993 171.131 327.914 171.363 327.93 171.598C327.945 171.834 328.053 172.054 328.231 172.209C328.408 172.365 328.64 172.443 328.876 172.428L330.172 172.344L332.116 175.525C332.226 175.703 332.383 175.847 332.569 175.943C332.755 176.039 332.963 176.083 333.172 176.07L337.41 175.798C337.62 175.781 337.821 175.709 337.993 175.588C338.165 175.467 338.302 175.302 338.388 175.111L339.853 171.722L340.741 171.663C340.968 171.636 341.176 171.523 341.322 171.347C341.468 171.171 341.541 170.945 341.526 170.717C341.511 170.489 341.409 170.275 341.241 170.12C341.074 169.964 340.853 169.879 340.624 169.881Z" fill="#263238"/>
<g opacity="0.2">
<path d="M322.415 139.309C323.289 138.379 324.312 137.602 325.441 137.008C326.18 136.604 326.975 136.311 327.8 136.14C328.396 136.043 328.74 136.075 328.778 136.198C328.863 136.483 327.696 136.982 326.186 138.142C324.17 139.61 322.618 141.627 321.716 143.952C320.814 146.278 320.6 148.814 321.1 151.258C321.443 153.169 321.968 154.323 321.748 154.498C321.631 154.569 321.359 154.362 320.99 153.889C320.482 153.205 320.084 152.446 319.81 151.64C319.39 150.44 319.171 149.179 319.162 147.908C319.132 146.326 319.407 144.752 319.972 143.274" fill="white"/>
</g>
<g opacity="0.2">
<path d="M332.628 136.639C331.63 136.691 330.729 136.477 330.593 135.952C330.535 135.693 330.703 135.401 331.047 135.161C331.491 134.891 331.995 134.733 332.514 134.702C333.034 134.67 333.553 134.766 334.027 134.98C334.403 135.181 334.598 135.453 334.572 135.719" fill="white"/>
</g>
<path d="M338.168 175.402C337.885 175.353 337.606 175.286 337.332 175.201C336.666 175.061 335.982 175.019 335.304 175.078C334.635 175.15 333.981 175.318 333.36 175.577C332.88 175.785 332.595 175.953 332.582 175.927C332.792 175.727 333.035 175.567 333.302 175.454C333.932 175.147 334.612 174.956 335.31 174.89C336.009 174.823 336.714 174.884 337.39 175.072C337.666 175.137 337.929 175.249 338.168 175.402Z" fill="#455A64"/>
<path d="M339.885 171.76C339.885 171.812 337.747 171.994 335.096 172.169C332.446 172.344 330.308 172.434 330.301 172.376C330.295 172.318 332.44 172.143 335.084 171.974C337.727 171.806 339.879 171.709 339.885 171.76Z" fill="#455A64"/>
<path d="M339.231 173.218C338.85 173.313 338.462 173.376 338.071 173.406C337.351 173.504 336.354 173.607 335.245 173.698C334.137 173.789 333.139 173.834 332.414 173.853C332.024 173.889 331.631 173.889 331.241 173.853C331.625 173.775 332.015 173.732 332.407 173.724L335.233 173.51L338.058 173.277C338.446 173.224 338.839 173.205 339.231 173.218Z" fill="#455A64"/>
<path d="M253.798 252.592L256.39 256.72C256.39 256.72 267.406 246.604 278.286 249.462C278.267 249.449 268.469 241.142 253.798 252.592Z" fill="#2F8F2F"/>
<path d="M278.267 249.449C278.267 249.449 286.334 240.688 298.167 242.684L301.407 243.17L300.383 241.31C300.383 241.31 279.783 234.26 278.267 249.449Z" fill="#2F8F2F"/>
<path d="M261.237 219.907C261.237 219.907 245.076 217.127 234.488 222.862L251.336 254.536C251.336 254.536 265.113 241.258 278.293 249.436L261.237 219.907Z" fill="#F5F5F5"/>
<path d="M261.237 219.907C261.271 219.948 261.301 219.991 261.328 220.036L261.568 220.438L262.501 222.013L266 228.013L278.39 249.397C278.405 249.424 278.412 249.456 278.407 249.487C278.403 249.518 278.389 249.547 278.367 249.569C278.345 249.591 278.316 249.605 278.285 249.609C278.254 249.613 278.223 249.607 278.196 249.592C276.296 248.417 274.192 247.61 271.994 247.214C270.84 247.027 269.671 246.944 268.502 246.967C267.299 247.02 266.102 247.172 264.925 247.421C259.946 248.644 255.352 251.095 251.563 254.549L251.42 254.679C251.406 254.694 251.388 254.706 251.369 254.715C251.349 254.723 251.328 254.728 251.307 254.728C251.286 254.728 251.265 254.723 251.245 254.715C251.226 254.706 251.208 254.694 251.193 254.679V254.646L234.365 222.927C234.356 222.912 234.35 222.895 234.348 222.878C234.346 222.861 234.347 222.844 234.352 222.828C234.357 222.811 234.365 222.796 234.376 222.783C234.387 222.77 234.401 222.759 234.417 222.752C237.794 221.067 241.438 219.981 245.186 219.544C248.047 219.192 250.931 219.066 253.811 219.168C256.196 219.252 258.056 219.44 259.313 219.596C259.961 219.674 260.427 219.745 260.751 219.803L261.121 219.868H261.237H261.114L260.745 219.823C260.421 219.784 259.941 219.719 259.306 219.654C258.01 219.525 256.183 219.363 253.805 219.304C250.936 219.225 248.065 219.37 245.219 219.738C241.501 220.195 237.891 221.292 234.546 222.978L234.598 222.803L251.446 254.478L251.193 254.432L251.336 254.303C253.301 252.547 255.462 251.025 257.777 249.767C259.998 248.543 262.38 247.64 264.853 247.084C266.05 246.828 267.266 246.676 268.489 246.63C269.678 246.603 270.866 246.688 272.04 246.883C274.272 247.294 276.408 248.118 278.338 249.313L278.137 249.507L265.884 228.123L262.436 222.071L261.535 220.464C261.438 220.283 261.361 220.147 261.309 220.043C261.282 219.999 261.258 219.954 261.237 219.907Z" fill="#263238"/>
<path d="M286.639 213.407C286.639 213.407 274.418 205.631 261.445 219.887L278.474 249.43C278.474 249.43 281.948 237.442 302.282 241.608L286.639 213.407Z" fill="#F5F5F5"/>
<path d="M286.639 213.407C286.672 213.445 286.701 213.486 286.723 213.531C286.775 213.628 286.853 213.751 286.944 213.913L287.805 215.416L291.045 221.145L302.405 241.576C302.414 241.592 302.42 241.609 302.422 241.627C302.425 241.645 302.423 241.663 302.419 241.681C302.414 241.698 302.405 241.715 302.394 241.729C302.383 241.743 302.369 241.755 302.353 241.764C302.322 241.776 302.287 241.776 302.256 241.764L299.23 241.265C298.713 241.177 298.191 241.119 297.668 241.09L296.074 240.96C295.533 240.915 294.99 240.902 294.447 240.921L292.808 240.928C292.251 240.928 291.7 241.038 291.143 241.09C290.58 241.136 290.022 241.221 289.471 241.343L287.805 241.719L286.166 242.295C285.627 242.513 285.099 242.757 284.585 243.027C284.318 243.149 284.062 243.294 283.82 243.462L283.075 243.941C282.583 244.272 282.142 244.673 281.682 245.043C281.248 245.45 280.839 245.882 280.457 246.339C279.673 247.26 279.058 248.313 278.643 249.449C278.628 249.49 278.598 249.522 278.559 249.541C278.52 249.559 278.476 249.561 278.435 249.546C278.399 249.534 278.369 249.508 278.351 249.475L277.664 248.289C271.644 237.824 266 228.072 261.341 219.926C261.325 219.902 261.317 219.874 261.317 219.845C261.317 219.817 261.325 219.788 261.341 219.764C263.913 216.852 267.05 214.493 270.562 212.831C273.287 211.587 276.274 211.026 279.265 211.198C281.175 211.312 283.054 211.732 284.831 212.442C285.296 212.633 285.75 212.849 286.192 213.09L286.529 213.284L286.633 213.362L286.516 213.304L286.172 213.129C285.868 212.98 285.414 212.759 284.805 212.526C282.532 211.661 280.108 211.26 277.677 211.348C275.246 211.436 272.858 212.011 270.653 213.038C267.181 214.705 264.082 217.057 261.542 219.952V219.797L277.904 248.179L278.617 249.352L278.319 249.391C278.747 248.209 279.381 247.112 280.191 246.151C280.587 245.682 281.006 245.234 281.449 244.809C281.928 244.427 282.375 244.012 282.881 243.682L283.639 243.189C283.887 243.02 284.149 242.873 284.423 242.749C284.967 242.496 285.479 242.192 286.036 241.997L287.702 241.42L289.399 241.038C289.958 240.912 290.526 240.828 291.097 240.785C291.661 240.734 292.218 240.63 292.776 240.623H294.441C294.988 240.597 295.535 240.61 296.08 240.662L297.687 240.798C298.215 240.824 298.741 240.882 299.262 240.973L302.308 241.485L302.159 241.693C297.512 233.269 293.631 226.212 290.896 221.242C289.542 218.773 288.473 216.816 287.741 215.468L286.911 213.939C286.827 213.77 286.756 213.641 286.704 213.543C286.652 213.446 286.639 213.407 286.639 213.407Z" fill="#263238"/>
<path d="M239.024 207.634L257.252 242.723C257.252 242.723 272.059 242.075 278.332 249.294L261.445 219.907C261.445 219.907 251.543 207.634 239.024 207.634Z" fill="#F5F5F5"/>
<path d="M239.024 207.634H239.49L240.89 207.692C241.046 207.692 241.214 207.692 241.383 207.692L241.92 207.783L243.139 207.984C243.611 208.062 244.076 208.174 244.532 208.321C245.06 208.447 245.581 208.601 246.094 208.781C250.448 210.232 256.293 213.744 261.542 219.797L278.455 249.164C278.476 249.201 278.482 249.245 278.471 249.286C278.46 249.327 278.433 249.363 278.396 249.384C278.369 249.406 278.335 249.418 278.299 249.418C278.264 249.418 278.23 249.406 278.202 249.384L277.489 248.672C276.134 247.371 274.553 246.327 272.824 245.594C271.149 244.845 269.4 244.271 267.607 243.883C264.205 243.128 260.724 242.784 257.239 242.859C257.212 242.859 257.185 242.852 257.161 242.839C257.137 242.825 257.117 242.805 257.103 242.781C251.79 232.478 247.254 223.672 244.033 217.438C242.465 214.36 241.208 211.898 240.32 210.2C239.899 209.377 239.568 208.735 239.341 208.256L239.095 207.77L239.017 207.608C239.056 207.662 239.089 207.721 239.115 207.783L239.387 208.282L240.411 210.226L244.208 217.496L257.362 242.652L257.226 242.574C260.734 242.489 264.239 242.828 267.666 243.585C269.478 243.978 271.245 244.556 272.94 245.308C274.704 246.061 276.315 247.128 277.697 248.458L278.435 249.183L278.17 249.371C271.903 238.453 266.104 228.331 261.322 219.978C258.979 217.244 256.299 214.818 253.345 212.759C251.09 211.167 248.632 209.885 246.035 208.949C245.525 208.765 245.006 208.607 244.48 208.476C244.029 208.325 243.568 208.208 243.1 208.126L241.888 207.906L241.363 207.809L240.884 207.77L239.024 207.634Z" fill="#263238"/>
<path d="M295.918 307.154L296.307 307.802C296.747 308.531 297.385 309.12 298.148 309.499L298.796 309.836L298.148 310.225C297.42 310.667 296.832 311.305 296.45 312.066L296.113 312.746L295.724 312.098C295.285 311.368 294.646 310.779 293.884 310.4L293.203 310.063L293.851 309.674C294.583 309.237 295.172 308.598 295.549 307.834L295.918 307.154Z" fill="#2F8F2F"/>
<path d="M259.993 173.491L260.382 174.139C260.822 174.866 261.46 175.453 262.222 175.83L262.87 176.167L262.222 176.562C261.49 176.998 260.9 177.637 260.525 178.403L260.188 179.051L259.799 178.403C259.359 177.671 258.718 177.082 257.952 176.705L257.272 176.368L257.92 175.979C258.648 175.535 259.236 174.895 259.617 174.132L259.993 173.491Z" fill="#2F8F2F"/>
<path d="M426.257 196.553L426.646 197.201C427.086 197.932 427.727 198.522 428.493 198.899L429.173 199.236L428.525 199.624C427.797 200.066 427.21 200.707 426.834 201.471L426.497 202.119L426.102 201.471C425.664 200.742 425.025 200.155 424.261 199.78L423.574 199.456L424.222 199.061C424.955 198.625 425.545 197.986 425.92 197.22L426.257 196.553Z" fill="#2F8F2F"/>
<path d="M406.623 315.545L407.012 316.193C407.453 316.921 408.094 317.508 408.858 317.884L409.539 318.221L408.891 318.617C408.161 319.056 407.572 319.695 407.193 320.457L406.863 321.137L406.467 320.489C406.03 319.758 405.391 319.169 404.627 318.792L403.947 318.455L404.595 318.066C405.326 317.626 405.915 316.985 406.292 316.219L406.623 315.545Z" fill="#2F8F2F"/>
<path d="M410.362 340.552L410.55 340.629C410.756 340.71 410.98 340.732 411.198 340.694L411.399 340.655L411.321 340.843C411.24 341.049 411.218 341.273 411.256 341.491L411.295 341.692L411.107 341.614C410.901 341.534 410.677 341.512 410.459 341.549L410.258 341.588L410.336 341.4C410.416 341.194 410.439 340.97 410.401 340.752L410.362 340.552Z" fill="#2F8F2F"/>
<path d="M421.669 171.469L421.851 171.547C422.057 171.626 422.281 171.648 422.499 171.611L422.693 171.573L422.622 171.76C422.539 171.966 422.516 172.191 422.557 172.408L422.596 172.609L422.408 172.532C422.202 172.452 421.978 172.43 421.76 172.467L421.566 172.506L421.637 172.318C421.72 172.112 421.743 171.887 421.702 171.67L421.669 171.469Z" fill="#2F8F2F"/>
<path d="M267.296 156.04L267.484 156.111C267.69 156.195 267.914 156.217 268.132 156.176H268.333L268.255 156.358C268.176 156.564 268.154 156.788 268.191 157.006L268.229 157.2L268.042 157.129C267.836 157.045 267.611 157.023 267.394 157.064H267.193L267.27 156.882C267.35 156.676 267.372 156.452 267.335 156.234L267.296 156.04Z" fill="#2F8F2F"/>
<path d="M286.328 287.688L286.516 287.759C286.72 287.845 286.946 287.868 287.164 287.824L287.365 287.791L287.287 287.979C287.207 288.185 287.184 288.409 287.222 288.627L287.261 288.822L287.073 288.75C286.868 288.667 286.643 288.645 286.425 288.686L286.224 288.725L286.302 288.537C286.382 288.33 286.404 288.107 286.367 287.889L286.328 287.688Z" fill="#2F8F2F"/>
<path d="M307.006 338.575L306.824 338.763L306.286 339.301L304.193 341.368L296.417 348.865V348.788C296.826 356.92 297.344 367.936 297.888 380.248V380.52L297.655 380.371L294.849 378.492L277.068 366.588H277.029V366.549C274.372 358.624 272.137 351.937 270.549 347.22C269.772 344.874 269.163 343.02 268.735 341.737L268.268 340.279C268.216 340.124 268.178 340.001 268.152 339.91C268.152 339.819 268.113 339.78 268.119 339.78L268.171 339.897L268.307 340.266C268.424 340.61 268.592 341.089 268.813 341.712L270.692 347.174C272.299 351.885 274.58 358.553 277.263 366.465L277.211 366.4L295.011 378.285L297.817 380.157L297.597 380.28C297.072 367.968 296.599 356.952 296.249 348.807V348.762H296.281L304.109 341.336L306.241 339.333L306.798 338.821C306.934 338.627 307.006 338.575 307.006 338.575Z" fill="#2F8F2F"/>
<path d="M298.724 376.522L298.666 378.356L300.15 379.444L298.387 379.956L297.811 381.699L296.774 380.183L294.94 380.177L296.067 378.725L295.504 376.976L297.234 377.598L298.724 376.522Z" fill="#2F8F2F"/>
<path d="M277.301 364.074L277.34 365.26L278.338 365.908L277.217 366.303L276.913 367.457L276.187 366.517L275.001 366.582L275.668 365.597L275.241 364.489L276.381 364.826L277.301 364.074Z" fill="#2F8F2F"/>
<path d="M268.074 337.551L268.968 338.705L270.426 338.614L269.61 339.826L270.141 341.18L268.741 340.778L267.614 341.705L267.562 340.247L266.337 339.463L267.705 338.964L268.074 337.551Z" fill="#2F8F2F"/>
<path d="M306.105 336.404L307.006 337.551L308.457 337.467L307.641 338.672L308.172 340.033L306.772 339.625L305.645 340.551L305.6 339.093L304.368 338.309L305.742 337.81L306.105 336.404Z" fill="#2F8F2F"/>
<path d="M296.126 347.511L296.696 348.25L297.623 348.192L297.104 348.963L297.441 349.831L296.547 349.572L295.828 350.161L295.795 349.235L295.011 348.729L295.886 348.412L296.126 347.511Z" fill="#2F8F2F"/>
<path d="M261.827 298.503C268.963 298.503 274.748 292.718 274.748 285.582C274.748 278.446 268.963 272.661 261.827 272.661C254.691 272.661 248.906 278.446 248.906 285.582C248.906 292.718 254.691 298.503 261.827 298.503Z" fill="#2F8F2F"/>
<g opacity="0.3">
<path d="M260.149 289.612C260.15 290.031 260.027 290.44 259.795 290.788C259.564 291.137 259.234 291.408 258.848 291.569C258.461 291.73 258.036 291.772 257.626 291.691C257.215 291.61 256.838 291.408 256.543 291.112C256.247 290.817 256.045 290.44 255.964 290.029C255.883 289.619 255.925 289.194 256.086 288.807C256.247 288.421 256.518 288.091 256.867 287.86C257.215 287.628 257.624 287.505 258.043 287.506C258.601 287.508 259.135 287.73 259.53 288.125C259.925 288.52 260.147 289.054 260.149 289.612Z" fill="white"/>
</g>
<g opacity="0.3">
<path d="M257.168 283.534C257.169 283.778 257.098 284.016 256.964 284.22C256.829 284.423 256.637 284.582 256.413 284.676C256.188 284.77 255.94 284.796 255.701 284.749C255.461 284.702 255.241 284.585 255.069 284.413C254.896 284.241 254.778 284.022 254.73 283.783C254.682 283.544 254.706 283.296 254.799 283.071C254.892 282.845 255.05 282.653 255.252 282.517C255.455 282.382 255.693 282.309 255.937 282.309C256.262 282.309 256.574 282.438 256.805 282.668C257.036 282.897 257.166 283.209 257.168 283.534Z" fill="white"/>
</g>
<path d="M249.288 288.724C249.347 288.951 238.227 299.617 241.098 301.892C243.968 304.166 256.002 298.334 266.298 290.033C276.595 281.732 285.965 271.65 283.393 268.98C280.82 266.31 267.977 274.209 267.977 274.209L269.512 275.194C269.512 275.194 277.288 270.211 279.738 272.142C282.187 274.073 275.202 281.629 265.307 288.848C255.412 296.066 245.867 301.121 244.396 299.144C242.925 297.168 249.904 290.578 249.904 290.578L249.288 288.724Z" fill="#2F8F2F"/>
<g opacity="0.3">
<path d="M249.288 288.724C249.347 288.951 238.227 299.617 241.098 301.892C243.968 304.166 256.002 298.334 266.298 290.033C276.595 281.732 285.965 271.65 283.393 268.98C280.82 266.31 267.977 274.209 267.977 274.209L269.512 275.194C269.512 275.194 277.288 270.211 279.738 272.142C282.187 274.073 275.202 281.629 265.307 288.848C255.412 296.066 245.867 301.121 244.396 299.144C242.925 297.168 249.904 290.578 249.904 290.578L249.288 288.724Z" fill="black"/>
</g>
<g opacity="0.3">
<path d="M254.706 276.477C254.809 276.6 253.934 277.346 252.943 278.836C251.628 280.751 250.902 283.009 250.856 285.332C250.81 287.655 251.445 289.94 252.684 291.906C253.617 293.442 254.459 294.219 254.349 294.336C254.239 294.453 253.248 293.831 252.094 292.301C251.428 291.407 250.899 290.417 250.526 289.366C249.58 286.749 249.638 283.875 250.688 281.298C251.101 280.26 251.669 279.29 252.373 278.421C253.585 276.944 254.647 276.386 254.706 276.477Z" fill="white"/>
</g>
<path d="M411.627 172.202C415.872 168.123 416.006 161.375 411.927 157.13C407.848 152.885 401.1 152.751 396.855 156.83C392.61 160.91 392.476 167.658 396.555 171.902C400.634 176.147 407.382 176.281 411.627 172.202Z" fill="#2F8F2F"/>
<g opacity="0.4">
<path d="M407.718 160.446C407.726 160.103 407.835 159.77 408.032 159.488C408.229 159.207 408.506 158.991 408.826 158.867C409.146 158.742 409.496 158.716 409.831 158.79C410.166 158.865 410.472 159.037 410.709 159.285C410.947 159.534 411.105 159.847 411.165 160.185C411.224 160.523 411.182 160.871 411.043 161.186C410.905 161.5 410.676 161.766 410.387 161.951C410.097 162.135 409.759 162.229 409.416 162.222C409.187 162.218 408.962 162.168 408.753 162.077C408.544 161.985 408.355 161.853 408.197 161.688C408.039 161.523 407.916 161.328 407.833 161.115C407.751 160.902 407.712 160.675 407.718 160.446Z" fill="black"/>
</g>
<g opacity="0.4">
<path d="M411.191 164.503C411.195 164.301 411.259 164.106 411.374 163.94C411.489 163.775 411.651 163.648 411.839 163.575C412.026 163.502 412.232 163.486 412.428 163.529C412.625 163.573 412.804 163.674 412.944 163.819C413.083 163.965 413.176 164.149 413.21 164.347C413.245 164.546 413.22 164.75 413.139 164.934C413.057 165.118 412.923 165.274 412.753 165.382C412.582 165.49 412.384 165.545 412.183 165.54C412.049 165.537 411.918 165.508 411.796 165.455C411.674 165.401 411.563 165.324 411.471 165.228C411.379 165.131 411.307 165.018 411.259 164.893C411.211 164.769 411.188 164.636 411.191 164.503Z" fill="black"/>
</g>
<g opacity="0.4">
<path d="M409.837 167.613C409.886 167.613 409.934 167.623 409.979 167.642C410.024 167.661 410.064 167.689 410.098 167.724C410.132 167.759 410.158 167.801 410.176 167.846C410.193 167.892 410.201 167.94 410.2 167.989C410.196 168.088 410.155 168.182 410.083 168.251C410.012 168.32 409.917 168.359 409.817 168.358C409.719 168.355 409.626 168.313 409.558 168.242C409.49 168.17 409.453 168.075 409.455 167.976C409.455 167.927 409.466 167.879 409.486 167.834C409.505 167.789 409.534 167.748 409.57 167.714C409.605 167.681 409.647 167.654 409.693 167.637C409.739 167.62 409.788 167.612 409.837 167.613Z" fill="black"/>
</g>
</svg>
