<svg width="500" height="500" viewBox="0 0 500 500" fill="none" xmlns="http://www.w3.org/2000/svg">
<path d="M443.92 314.381H263.174C259.942 314.381 257.312 311.751 257.312 308.519V45.2448C257.312 42.0128 259.942 39.3828 263.174 39.3828H443.92C447.152 39.3828 449.782 42.0118 449.782 45.2448V308.518C449.782 311.75 447.152 314.38 443.92 314.38V314.381ZM263.174 39.6328C260.079 39.6328 257.562 42.1508 257.562 45.2448V308.518C257.562 311.613 260.08 314.13 263.174 314.13H443.92C447.015 314.13 449.532 311.613 449.532 308.518V45.2448C449.532 42.1508 447.014 39.6328 443.92 39.6328H263.174Z" fill="#E0E0E0"/>
<path d="M235.493 314.381H54.746C51.514 314.381 48.884 311.751 48.884 308.519V45.2448C48.884 42.0128 51.513 39.3828 54.746 39.3828H235.493C238.725 39.3828 241.355 42.0118 241.355 45.2448V308.518C241.355 311.75 238.725 314.38 235.493 314.38V314.381ZM54.746 39.6328C51.652 39.6328 49.134 42.1508 49.134 45.2448V308.518C49.134 311.613 51.652 314.13 54.746 314.13H235.493C238.588 314.13 241.105 311.613 241.105 308.518V45.2448C241.105 42.1508 238.587 39.6328 235.493 39.6328H54.746Z" fill="#E0E0E0"/>
<path d="M500 375.45H0V375.7H500V375.45Z" fill="#E0E0E0"/>
<path d="M67.732 389.715H51.672V389.965H67.732V389.715Z" fill="#E0E0E0"/>
<path d="M223.882 387.005H170.352V387.255H223.882V387.005Z" fill="#E0E0E0"/>
<path d="M104.982 399.005H68.7321V399.255H104.982V399.005Z" fill="#E0E0E0"/>
<path d="M421.542 386.875H378.352V387.125H421.542V386.875Z" fill="#E0E0E0"/>
<path d="M436.782 386.875H430.452V387.125H436.782V386.875Z" fill="#E0E0E0"/>
<path d="M370.102 393.105H316.212V393.355H370.102V393.105Z" fill="#E0E0E0"/>
<path d="M261.779 396.67L253.793 273.975L254.063 273.956L263.132 396.576C262.681 396.61 262.231 396.641 261.779 396.67ZM236.997 396.585L235.818 396.494L245.623 273.932L246.066 273.966L236.997 396.586V396.585ZM288.093 392.908L261.267 272.916L261.849 272.785L289.099 392.681L288.093 392.908ZM211.047 392.714L209.89 392.447L237.829 272.709L238.257 272.807L211.047 392.714ZM313.103 385.37L268.94 270.621L269.262 270.496L314.299 384.904C313.902 385.061 313.503 385.216 313.103 385.37ZM185.902 384.984L184.799 384.548L230.338 270.338L230.753 270.502L185.902 384.984ZM336.935 374.067L275.933 267.313L276.343 267.078L337.934 373.494L336.935 374.067ZM162.168 373.552C161.803 373.342 161.438 373.129 161.075 372.915L223.4 266.928L223.716 267.112L162.168 373.552ZM358.57 359.505L282.606 262.824L282.842 262.637L359.607 358.684C359.263 358.959 358.917 359.233 358.57 359.505ZM140.545 358.804C140.163 358.5 139.782 358.194 139.403 357.886L217.005 262.515L217.132 262.617L140.545 358.805V358.804ZM377.981 341.739L288.372 257.549L288.656 257.245L378.808 340.854L377.981 341.739ZM121.292 340.959L120.521 340.124L211.021 256.893L211.353 257.253L121.292 340.959ZM394.395 321.475L293.446 251.281L293.596 251.064L395.169 320.351C394.913 320.727 394.655 321.101 394.395 321.476V321.475ZM104.938 320.506C104.695 320.151 104.453 319.794 104.214 319.438L206.209 250.774L206.396 251.049L104.939 320.505L104.938 320.506ZM407.813 298.646L297.337 244.676L297.588 244.16L408.275 297.695L407.813 298.646ZM91.768 297.783C91.579 297.393 91.392 297.002 91.207 296.611L202.322 243.968L202.461 244.258L91.768 297.783ZM417.535 274.381L300.327 237.235L300.416 236.948L417.933 273.107C417.802 273.531 417.67 273.956 417.535 274.381ZM82.119 273.273C81.996 272.875 81.875 272.478 81.755 272.08L199.494 236.649L199.605 237.012L82.119 273.273ZM423.582 248.621L302.083 229.762L302.151 229.312L423.759 247.462L423.582 248.621ZM76.271 247.67C76.208 247.254 76.147 246.838 76.088 246.421L197.799 228.982L197.852 229.342L76.271 247.67ZM425.685 222.727L302.736 221.636V221.129H425.691V221.369C425.691 221.822 425.689 222.275 425.685 222.727ZM197.261 221.488H74.308L74.311 220.355L197.264 220.993V221.488H197.261ZM302.179 213.624L302.141 213.365L423.694 194.86C423.763 195.31 423.829 195.76 423.894 196.21L302.179 213.624ZM197.843 213.441L76.206 195.495C76.269 195.07 76.333 194.645 76.399 194.22L197.894 213.107L197.843 213.441ZM300.538 206.196L300.366 205.635L417.835 169.323L418.141 170.318L300.538 206.196ZM199.555 205.876L82.023 169.768L82.384 168.607L199.68 205.476L199.556 205.876H199.555ZM297.716 198.847L297.505 198.406L408.162 144.809L408.653 145.83L297.716 198.847ZM202.394 198.611L91.636 145.223L92.133 144.198L202.609 198.168L202.394 198.611ZM293.852 192.05L293.537 191.587L394.993 122.131L395.593 123.011L293.852 192.05ZM206.364 191.729L104.735 122.528C104.973 122.179 105.212 121.83 105.452 121.483L206.57 191.432L206.365 191.73L206.364 191.729ZM288.765 185.612L288.61 185.445L378.581 101.642C378.899 101.983 379.215 102.326 379.529 102.669L288.765 185.612ZM211.304 185.535L121.069 102.018C121.355 101.709 121.643 101.401 121.931 101.093L211.551 185.271L211.304 185.535ZM283.044 180.263L282.773 180.046L359.36 83.8579C359.694 84.1229 360.027 84.3909 360.36 84.6599L283.045 180.263H283.044ZM217.118 180.13L140.243 84.1719C140.587 83.8959 140.932 83.6219 141.279 83.3489L217.355 179.942L217.118 180.13ZM276.602 175.811L276.247 175.605L337.658 69.0859L338.712 69.6979L276.602 175.811ZM223.62 175.68L161.893 69.3429C162.257 69.1319 162.622 68.9219 162.988 68.7129L223.931 175.501L223.62 175.68ZM269.486 172.331L269.164 172.203L313.954 57.6969C314.354 57.8539 314.753 58.0109 315.15 58.1699L269.486 172.331ZM230.703 172.254L185.509 57.9079C185.913 57.7479 186.317 57.5909 186.722 57.4349L231.005 172.137L230.703 172.255V172.254ZM262.053 170L261.73 169.926L288.729 49.9729C289.151 50.0679 289.572 50.1639 289.992 50.2619L262.053 170ZM238.119 169.96L210.697 50.1029C211.124 50.0049 211.552 49.9089 211.981 49.8139L238.423 169.891L238.119 169.959V169.96ZM254.248 168.796L253.902 168.77L262.791 46.1379C263.217 46.1689 263.643 46.2009 264.067 46.2349L254.248 168.796ZM245.913 168.783L236.65 46.1779C237.074 46.1459 237.5 46.1159 237.925 46.0869L246.26 168.758L245.913 168.783Z" fill="#F5F5F5"/>
<path d="M91.792 274.818C93.101 314.051 117.406 351.673 152.634 368.995C154.792 347.794 148.459 324.277 136.216 309.838C123.974 295.398 107.754 284.998 91.792 274.819V274.818Z" fill="#EBEBEB"/>
<path d="M161.655 357.186C164.216 372.814 172.057 387.528 183.599 398.371C190.536 385.523 188.997 365.824 185.838 351.569C182.679 337.313 176.097 324.076 169.303 311.151C161.826 325.111 159.093 341.559 161.655 357.186Z" fill="#EBEBEB"/>
<path d="M205.904 430.969C205.781 430.969 205.659 430.924 205.563 430.834C169.465 397.133 139.856 357.702 117.559 313.638C117.434 313.392 117.533 313.091 117.78 312.966C118.027 312.842 118.327 312.941 118.452 313.187C140.696 357.146 170.235 396.483 206.246 430.104C206.448 430.292 206.458 430.609 206.27 430.81C206.172 430.915 206.038 430.969 205.904 430.969Z" fill="#E0E0E0"/>
<path d="M187.539 411.984C187.334 411.984 187.142 411.857 187.068 411.653C178.3 387.182 172.496 361.323 169.323 332.596C169.293 332.322 169.49 332.075 169.765 332.044C170.047 332.014 170.286 332.212 170.317 332.486C173.481 361.133 179.268 386.919 188.009 411.314C188.102 411.574 187.967 411.861 187.707 411.954C187.651 411.974 187.595 411.983 187.539 411.983V411.984Z" fill="#E0E0E0"/>
<path d="M152.072 393.949C164.86 397.24 176.497 404.847 184.642 415.241C173.455 420.046 157.21 417.301 145.606 413.615C134.002 409.93 123.498 403.478 113.27 396.873C125.421 391.703 139.284 390.658 152.072 393.949Z" fill="#EBEBEB"/>
<path d="M121.914 358.015C133.73 361.056 144.482 368.084 152.007 377.688C141.671 382.127 126.661 379.591 115.939 376.186C105.217 372.781 95.512 366.82 86.062 360.717C97.289 355.94 110.099 354.974 121.914 358.015Z" fill="#EBEBEB"/>
<path d="M193.842 419.341C193.772 419.341 193.7 419.326 193.633 419.295C174.456 410.419 155.108 404.279 130.898 399.386C130.627 399.331 130.452 399.068 130.507 398.797C130.562 398.526 130.821 398.35 131.096 398.405C155.386 403.315 174.803 409.477 194.053 418.386C194.303 418.502 194.413 418.799 194.297 419.05C194.213 419.233 194.032 419.34 193.843 419.34L193.842 419.341Z" fill="#E0E0E0"/>
<path d="M160.449 381.35C160.392 381.35 160.333 381.34 160.277 381.32C146.896 376.403 133.175 371.91 119.497 367.967C119.232 367.891 119.079 367.613 119.155 367.348C119.232 367.084 119.507 366.929 119.774 367.006C133.475 370.955 147.218 375.455 160.622 380.38C160.881 380.476 161.014 380.763 160.919 381.023C160.845 381.225 160.652 381.35 160.449 381.35Z" fill="#E0E0E0"/>
<path d="M407.048 315.399C404.664 345.979 384.384 374.503 356.285 386.8C355.337 370.176 361.097 352.038 371.155 341.192C381.213 330.346 394.235 322.79 407.048 315.399Z" fill="#EBEBEB"/>
<path d="M349.653 377.269C347.111 389.379 340.48 400.593 331.093 408.655C326.124 398.385 328.01 383.062 330.971 372.044C333.932 361.026 339.53 350.921 345.282 341.068C350.634 352.225 352.196 365.159 349.653 377.269Z" fill="#EBEBEB"/>
<path d="M312.567 433.437C312.426 433.437 312.286 433.377 312.187 433.261C312.007 433.051 312.033 432.736 312.243 432.557C341.511 407.571 365.927 377.901 384.811 344.37C384.947 344.128 385.254 344.044 385.492 344.18C385.733 344.316 385.818 344.62 385.682 344.861C366.74 378.494 342.249 408.255 312.891 433.317C312.797 433.398 312.682 433.437 312.567 433.437Z" fill="#E0E0E0"/>
<path d="M327.562 419.255C327.499 419.255 327.435 419.243 327.373 419.218C327.117 419.114 326.995 418.822 327.1 418.566C334.767 399.836 340.178 379.917 343.641 357.671C343.683 357.399 343.944 357.212 344.212 357.254C344.484 357.297 344.671 357.552 344.629 357.825C341.153 380.148 335.722 400.14 328.025 418.944C327.946 419.137 327.758 419.255 327.562 419.255Z" fill="#E0E0E0"/>
<path d="M355.857 406.299C345.76 408.424 336.412 413.958 329.694 421.788C338.26 425.927 351.036 424.348 360.222 421.875C369.408 419.401 377.831 414.73 386.045 409.929C376.74 405.471 365.954 404.174 355.858 406.299H355.857Z" fill="#EBEBEB"/>
<path d="M380.646 379.296C371.317 381.259 362.68 386.372 356.472 393.607C364.386 397.431 376.191 395.973 384.678 393.687C393.166 391.402 400.948 387.085 408.537 382.65C399.939 378.531 389.974 377.333 380.645 379.296H380.646Z" fill="#EBEBEB"/>
<path d="M322.387 424.778C322.191 424.778 322.003 424.661 321.924 424.467C321.82 424.212 321.942 423.92 322.197 423.815C337.539 417.527 352.917 413.388 372.058 410.397C372.329 410.359 372.586 410.541 372.629 410.814C372.672 411.086 372.484 411.342 372.212 411.385C353.15 414.364 337.842 418.483 322.575 424.74C322.513 424.765 322.449 424.777 322.386 424.777L322.387 424.778Z" fill="#E0E0E0"/>
<path d="M349.772 396.282C349.56 396.282 349.363 396.146 349.295 395.933C349.211 395.67 349.357 395.389 349.62 395.305C360.247 391.928 371.134 388.892 381.977 386.282C382.247 386.22 382.516 386.384 382.581 386.651C382.645 386.92 382.48 387.19 382.212 387.255C371.391 389.859 360.527 392.889 349.923 396.259C349.873 396.275 349.821 396.282 349.772 396.282Z" fill="#E0E0E0"/>
<path d="M266.768 466.956C343.842 466.956 406.323 462.688 406.323 457.422C406.323 452.157 343.842 447.888 266.768 447.888C189.694 447.888 127.213 452.157 127.213 457.422C127.213 462.688 189.694 466.956 266.768 466.956Z" fill="#F5F5F5"/>
<path d="M318.058 328.489C321.763 312.023 342.206 215.139 342.471 200.541C342.595 193.717 336.582 181.122 329.584 172.066C322.586 163.01 302.827 149.426 292.948 154.777C292.948 154.777 280.187 130.079 256.312 140.37C256.312 140.37 249.314 124.316 235.73 123.493C222.146 122.67 220.499 129.668 220.499 129.668C220.499 129.668 218.551 105.504 201.262 106.739C201.262 106.739 191.404 106.575 183.04 115.672C183.04 115.672 178.478 85.2593 158.394 87.6363C156.981 87.8033 155.928 89.0213 155.973 90.4433C156.198 97.5623 156.277 119.416 149.806 136.089C147.964 140.834 147.168 145.921 147.702 150.983C149.711 170.029 154.66 215.013 157.562 224.686C161.267 237.035 195.389 314.906 201.564 325.197C207.739 335.488 196.607 456.074 196.607 456.074L321.814 456.285C321.814 456.285 314.354 344.956 318.059 328.491L318.058 328.489Z" fill="#FDBBB5"/>
<path opacity="0.3" d="M183.04 115.671C183.525 114.234 173.52 179.201 175.685 191.11C177.85 203.018 174.164 217.579 174.164 217.579C174.164 217.579 174.763 201.793 172.242 191.075C169.721 180.357 175.548 137.874 183.04 115.671Z" fill="#D7504D"/>
<path opacity="0.3" d="M220.922 150.726C220.922 150.726 219.928 131.024 220.499 129.666C220.499 129.666 223.393 136.024 222.785 143.638C222.4 148.465 220.922 150.726 220.922 150.726Z" fill="#D7504D"/>
<path opacity="0.3" d="M261.164 155.838C261.164 155.838 256.138 141.021 256.313 139.79C256.313 139.79 260.749 143.725 262.216 149.777C263.146 153.614 261.164 155.838 261.164 155.838Z" fill="#D7504D"/>
<path d="M213.402 151.681C217.984 151.048 222.664 151.058 227.243 151.709C228.187 151.843 228.595 150.398 227.642 150.263C222.772 149.571 217.876 149.562 213.003 150.235C212.051 150.366 212.456 151.812 213.402 151.681Z" fill="#EE7C74"/>
<path d="M255.589 140.568C256.475 143.335 257.36 146.102 258.242 148.871C258.781 150.563 259.321 152.255 259.853 153.949C260.039 154.541 260.182 155.159 260.542 155.674C261.069 156.427 261.886 156.96 262.695 157.368C264.127 158.091 265.718 158.587 267.294 158.887C268.237 159.066 268.642 157.621 267.693 157.441C266.453 157.206 265.206 156.845 264.046 156.35C263.28 156.023 262.399 155.606 261.864 154.943C261.525 154.523 261.423 153.943 261.264 153.437C260.192 150.026 259.1 146.621 258.011 143.215C257.687 142.2 257.362 141.186 257.037 140.171C256.744 139.255 255.295 139.647 255.591 140.57L255.589 140.568Z" fill="#EE7C74"/>
<path d="M292.225 154.145C294.171 159.257 297.719 164.262 302.225 167.384C304.17 168.732 306.378 169.693 308.711 170.111C309.655 170.28 310.06 168.835 309.11 168.665C302.159 167.421 297.288 161.346 294.368 155.307C294.171 154.9 293.983 154.49 293.805 154.075C293.828 154.129 293.781 154.016 293.719 153.865C293.703 153.826 293.687 153.786 293.672 153.746C293.332 152.853 291.881 153.24 292.226 154.145H292.225Z" fill="#EE7C74"/>
<path opacity="0.3" d="M154.451 117.058C154.451 117.058 159.625 117.665 163.352 110.859C167.079 104.053 163.352 87.7291 163.352 87.7291C163.352 87.7291 160.702 87.1201 158.088 87.4831C156.804 87.6611 155.696 88.7301 155.75 90.0241C156.034 96.7901 155.6 107.822 154.451 117.058Z" fill="white"/>
<path opacity="0.1" d="M202.05 184.955C211.088 184.955 218.414 178.437 218.414 170.396C218.414 162.355 211.088 155.837 202.05 155.837C193.012 155.837 185.686 162.355 185.686 170.396C185.686 178.437 193.012 184.955 202.05 184.955Z" fill="#D7504D"/>
<path opacity="0.1" d="M245.023 184.955C252.373 184.955 258.331 178.997 258.331 171.647C258.331 164.298 252.373 158.339 245.023 158.339C237.673 158.339 231.715 164.298 231.715 171.647C231.715 178.997 237.673 184.955 245.023 184.955Z" fill="#D7504D"/>
<path opacity="0.1" d="M297.247 179.572C298.429 172.318 293.507 165.479 286.253 164.297C278.999 163.115 272.16 168.037 270.977 175.291C269.795 182.545 274.718 189.384 281.972 190.566C289.226 191.749 296.065 186.826 297.247 179.572Z" fill="#D7504D"/>
<path opacity="0.1" d="M323.558 199.056C330.217 199.056 335.615 193.658 335.615 186.999C335.615 180.34 330.217 174.942 323.558 174.942C316.899 174.942 311.501 180.34 311.501 186.999C311.501 193.658 316.899 199.056 323.558 199.056Z" fill="#D7504D"/>
<path d="M220.111 129.717C220.192 136.329 220.047 142.94 219.677 149.542C219.623 150.506 221.123 150.503 221.177 149.542C221.547 142.94 221.692 136.329 221.611 129.717C221.599 128.752 220.099 128.75 220.111 129.717Z" fill="#EE7C74"/>
<path d="M189.542 457.858L198.044 361.747C198.044 361.747 243.308 374.439 322.759 361.747L330.96 457.858C284.007 464.079 236.847 463.389 189.541 457.858H189.542Z" fill="#0070CB"/>
<path opacity="0.3" d="M220.474 410.266C225.492 410.266 229.559 406.199 229.559 401.181C229.559 396.164 225.492 392.096 220.474 392.096C215.457 392.096 211.389 396.164 211.389 401.181C211.389 406.199 215.457 410.266 220.474 410.266Z" fill="black"/>
<path d="M220.668 406.821C225.686 406.821 229.753 402.753 229.753 397.736C229.753 392.718 225.686 388.651 220.668 388.651C215.651 388.651 211.583 392.718 211.583 397.736C211.583 402.753 215.651 406.821 220.668 406.821Z" fill="white"/>
<path d="M185.754 431.355C187.126 418.804 188.497 406.253 189.869 393.701C190.026 392.264 187.775 392.275 187.619 393.701C186.247 406.252 184.876 418.803 183.504 431.355C183.347 432.792 185.598 432.781 185.754 431.355Z" fill="#0070CB"/>
<path d="M190.335 387.039C190.446 385.455 190.556 383.871 190.667 382.287C190.708 381.699 190.12 381.136 189.542 381.162C188.897 381.191 188.461 381.657 188.417 382.287C188.306 383.871 188.196 385.455 188.085 387.039C188.044 387.627 188.632 388.19 189.21 388.164C189.855 388.135 190.291 387.669 190.335 387.039Z" fill="#0070CB"/>
<path d="M451.93 246.168C451.752 246.053 451.571 245.94 451.387 245.83L436.51 236.933C432.414 234.484 427.609 233.775 422.981 234.94C418.353 236.104 414.455 239.001 412.005 243.097C411.867 243.328 411.754 243.57 411.627 243.806L404.876 241.34C405.349 238.573 405.169 235.715 404.298 232.962C403.414 230.169 401.895 227.689 399.874 225.682C398.603 224.42 397.132 223.344 395.497 222.495L380.113 214.506C372.146 210.369 362.481 212.857 357.39 219.944C355.45 219.119 352.721 217.853 346.729 214.742L343.736 220.506C349.698 223.602 352.572 224.945 354.609 225.819C353.75 229.059 353.809 232.479 354.845 235.752C356.285 240.302 359.41 244.019 363.646 246.219L379.03 254.208C383.265 256.407 388.104 256.825 392.654 255.385C396.89 254.044 400.388 251.23 402.627 247.431L409.622 249.986C409.341 252.175 409.458 254.419 410.012 256.624C411.176 261.253 414.068 265.157 418.169 267.6L433.046 276.497C441.501 281.553 452.494 278.789 457.55 270.333C462.497 262.061 459.958 251.361 451.929 246.166L451.93 246.168ZM382.023 248.444L366.639 240.455C365.598 239.914 364.663 239.23 363.854 238.427C362.567 237.149 361.601 235.571 361.038 233.794C360.479 232.027 360.366 230.192 360.676 228.417C361.994 229.034 363.672 229.853 365.974 231.026C367.563 231.835 369.511 231.212 370.332 229.63C371.164 228.028 370.525 226.055 368.917 225.236C366.635 224.074 364.934 223.241 363.579 222.605C366.976 218.975 372.497 217.87 377.12 220.271L392.504 228.26C395.201 229.659 397.188 232.026 398.106 234.922C398.535 236.278 398.694 237.674 398.61 239.052L391.357 236.403C389.672 235.788 387.808 236.654 387.192 238.339C386.577 240.024 387.444 241.888 389.128 242.504L396.366 245.148C393.096 249.534 387.032 251.048 382.022 248.446L382.023 248.444ZM451.977 267.001C448.758 272.382 441.762 274.142 436.381 270.924L421.503 262.027C421.385 261.956 421.268 261.884 421.153 261.809C418.731 260.242 417.019 257.853 416.312 255.041C416.084 254.135 415.982 253.219 415.978 252.309L424.007 255.242C425.692 255.857 427.556 254.99 428.172 253.306C428.787 251.621 427.921 249.757 426.236 249.141L417.823 246.068C419.39 243.657 421.763 241.944 424.567 241.239C427.513 240.498 430.571 240.948 433.178 242.508L448.055 251.405C453.449 254.64 455.197 261.62 451.978 267.002L451.977 267.001Z" fill="#0070CB"/>
<g opacity="0.5">
<path d="M428.17 253.306C427.555 254.991 425.69 255.858 424.005 255.242L389.127 242.501C387.442 241.886 386.576 240.021 387.191 238.336C387.806 236.651 389.671 235.784 391.356 236.4L426.234 249.141C427.919 249.756 428.785 251.621 428.17 253.306Z" fill="white"/>
<path d="M451.93 246.166C459.959 251.361 462.498 262.061 457.551 270.333C452.494 278.788 441.502 281.553 433.047 276.497L418.17 267.6C414.069 265.158 411.177 261.253 410.013 256.624C408.849 251.996 409.556 247.191 412.006 243.095C414.455 238.999 418.353 236.102 422.982 234.938C427.61 233.774 432.415 234.482 436.511 236.931L451.388 245.828C451.572 245.938 451.753 246.05 451.931 246.166H451.93ZM421.152 261.807C421.267 261.882 421.384 261.954 421.502 262.025L436.379 270.922C441.76 274.14 448.757 272.38 451.975 266.999C455.194 261.617 453.445 254.637 448.052 251.402L433.175 242.505C430.568 240.946 427.51 240.495 424.564 241.236C421.619 241.977 419.138 243.82 417.579 246.427C416.02 249.034 415.569 252.092 416.31 255.038C417.017 257.85 418.729 260.239 421.151 261.806L421.152 261.807Z" fill="white"/>
<path d="M399.874 225.681C401.895 227.688 403.414 230.167 404.298 232.961C405.738 237.511 405.319 242.349 403.12 246.585C400.921 250.82 397.204 253.946 392.654 255.386C388.104 256.826 383.265 256.408 379.03 254.209L363.646 246.22C359.41 244.021 356.285 240.304 354.845 235.754C353.405 231.204 353.823 226.365 356.023 222.13C360.564 213.387 371.371 209.967 380.114 214.507L395.498 222.496C397.133 223.345 398.604 224.421 399.875 225.683L399.874 225.681ZM363.853 238.426C364.662 239.229 365.597 239.914 366.638 240.454L382.022 248.443C387.587 251.333 394.465 249.156 397.355 243.591C398.755 240.895 399.021 237.816 398.105 234.92C397.188 232.025 395.2 229.657 392.503 228.258L377.119 220.269C371.554 217.38 364.676 219.556 361.785 225.121C360.386 227.817 360.119 230.896 361.036 233.792C361.599 235.57 362.566 237.148 363.852 238.425L363.853 238.426Z" fill="white"/>
<path d="M370.331 229.629C369.51 231.211 367.561 231.834 365.973 231.025C360.422 228.198 358.463 227.402 356.562 226.629C354.227 225.68 351.811 224.698 343.736 220.505L346.729 214.741C354.536 218.795 356.809 219.718 359.007 220.611C361.034 221.435 363.121 222.283 368.917 225.234C370.525 226.053 371.163 228.026 370.332 229.628L370.331 229.629Z" fill="white"/>
</g>
<path opacity="0.2" d="M360.67 228.414L354.595 225.814L354.386 226.693L360.54 229.449L360.67 228.414Z" fill="black"/>
<path opacity="0.2" d="M363.563 222.596L357.369 219.935L357.918 219.062L364.219 221.935L363.563 222.596Z" fill="black"/>
<path opacity="0.2" d="M415.969 252.306L409.609 249.983L409.538 250.622L415.979 252.821L415.969 252.306Z" fill="black"/>
<path opacity="0.2" d="M417.807 246.063L411.605 243.797L411.928 243.225L418.234 245.449L417.807 246.063Z" fill="black"/>
<path opacity="0.2" d="M402.646 247.439L396.38 245.15L395.95 245.681L402.222 248.118L402.646 247.439Z" fill="black"/>
<path opacity="0.2" d="M404.887 241.343L398.619 239.053L398.639 238.176L405.024 240.387L404.887 241.343Z" fill="black"/>
<path d="M43.651 239.841C48.322 247.652 58.477 250.206 66.287 245.535L80.03 237.316C83.818 235.06 86.49 231.453 87.565 227.177C88.077 225.14 88.185 223.068 87.926 221.045L94.388 218.684C96.456 222.193 99.687 224.793 103.6 226.031C107.803 227.361 112.273 226.975 116.185 224.943L130.396 217.563C134.309 215.531 137.196 212.097 138.526 207.894C139.483 204.87 139.537 201.711 138.744 198.718C140.626 197.911 143.281 196.669 148.788 193.81L146.023 188.485C140.488 191.359 137.967 192.528 136.175 193.29C131.472 186.744 122.544 184.445 115.184 188.267L100.973 195.647C99.463 196.431 98.104 197.425 96.93 198.591C95.063 200.445 93.66 202.735 92.843 205.315C92.038 207.859 91.872 210.498 92.309 213.055L86.073 215.333C85.955 215.115 85.851 214.892 85.723 214.678C83.46 210.894 79.86 208.219 75.584 207.143C71.309 206.067 66.87 206.722 63.087 208.984L49.344 217.203C49.174 217.305 49.006 217.409 48.842 217.515C41.425 222.314 39.08 232.198 43.65 239.839L43.651 239.841ZM100.17 216.572L106.857 214.129C108.413 213.56 109.214 211.838 108.645 210.282C108.077 208.726 106.354 207.925 104.798 208.493L98.098 210.94C98.02 209.667 98.167 208.378 98.563 207.125C99.41 204.45 101.246 202.263 103.737 200.971L117.948 193.591C122.218 191.374 127.319 192.394 130.457 195.747C129.206 196.335 127.634 197.105 125.526 198.178C124.04 198.935 123.451 200.757 124.219 202.237C124.978 203.698 126.777 204.274 128.245 203.527C130.371 202.444 131.921 201.687 133.139 201.117C133.425 202.756 133.321 204.451 132.805 206.083C132.285 207.725 131.392 209.183 130.204 210.363C129.457 211.105 128.593 211.737 127.631 212.237L113.42 219.617C108.792 222.02 103.191 220.621 100.17 216.57V216.572ZM52.424 222.354L66.167 214.135C68.575 212.695 71.4 212.278 74.121 212.963C76.711 213.614 78.903 215.197 80.351 217.424L72.579 220.263C71.023 220.832 70.222 222.554 70.79 224.11C71.358 225.666 73.081 226.467 74.637 225.899L82.054 223.19C82.049 224.031 81.956 224.877 81.745 225.714C81.092 228.312 79.51 230.518 77.273 231.966C77.166 232.035 77.059 232.102 76.949 232.167L63.206 240.386C58.235 243.359 51.772 241.733 48.799 236.762C45.825 231.791 47.442 225.343 52.424 222.354Z" fill="#0070CB"/>
<g opacity="0.5">
<path d="M70.7909 224.11C71.3599 225.666 73.0819 226.467 74.6379 225.899L106.857 214.13C108.413 213.561 109.214 211.839 108.646 210.283C108.078 208.727 106.355 207.926 104.799 208.494L72.5799 220.263C71.0239 220.832 70.2229 222.554 70.7909 224.11Z" fill="white"/>
<path d="M49.3449 217.203L63.0879 208.984C66.872 206.721 71.3099 206.067 75.5849 207.143C79.8599 208.218 83.4609 210.894 85.7239 214.678C87.9869 218.461 88.6409 222.9 87.5649 227.175C86.4899 231.451 83.8189 235.058 80.0299 237.314L66.287 245.533C58.477 250.204 48.3219 247.65 43.6509 239.839C39.0809 232.198 41.4259 222.314 48.8429 217.515C49.0069 217.409 49.1749 217.305 49.3449 217.203ZM81.7459 225.712C82.431 222.991 82.0139 220.166 80.5739 217.758C79.1339 215.35 76.8419 213.647 74.1209 212.962C71.3999 212.277 68.5749 212.694 66.1669 214.134L52.4239 222.353C47.4409 225.341 45.8259 231.789 48.7999 236.761C51.7729 241.732 58.2359 243.358 63.2069 240.385L76.9499 232.166C77.0589 232.1 77.167 232.034 77.2739 231.965C79.5109 230.518 81.0929 228.31 81.7459 225.712Z" fill="white"/>
<path d="M100.973 195.648L115.184 188.268C123.26 184.074 133.243 187.233 137.438 195.31C139.47 199.223 139.856 203.692 138.526 207.895C137.196 212.098 134.309 215.532 130.396 217.564L116.185 224.944C112.273 226.976 107.803 227.362 103.6 226.032C99.3969 224.702 95.9629 221.815 93.9319 217.902C91.8999 213.99 91.5139 209.52 92.8439 205.317C93.6599 202.737 95.0639 200.447 96.9309 198.593C98.1049 197.427 99.4639 196.433 100.974 195.649L100.973 195.648ZM132.806 206.086C133.652 203.41 133.406 200.566 132.114 198.076C129.444 192.935 123.09 190.925 117.949 193.594L103.738 200.974C101.247 202.266 99.4109 204.453 98.5639 207.128C97.7179 209.803 97.9639 212.648 99.2569 215.138C101.926 220.279 108.28 222.29 113.421 219.62L127.632 212.24C128.594 211.741 129.458 211.108 130.205 210.366C131.393 209.186 132.287 207.728 132.807 206.086H132.806Z" fill="white"/>
<path d="M124.221 202.239C124.98 203.7 126.779 204.276 128.247 203.529C133.375 200.917 135.184 200.182 136.941 199.468C139.098 198.591 141.329 197.685 148.789 193.811L146.024 188.486C138.812 192.231 136.712 193.084 134.682 193.909C132.809 194.67 130.882 195.453 125.528 198.18C124.042 198.937 123.453 200.759 124.221 202.239Z" fill="white"/>
</g>
<path opacity="0.2" d="M133.145 201.117L138.757 198.715L138.95 199.527L133.265 202.073L133.145 201.117Z" fill="black"/>
<path opacity="0.2" d="M130.473 195.743L136.194 193.284L135.687 192.478L129.866 195.132L130.473 195.743Z" fill="black"/>
<path opacity="0.2" d="M82.062 223.187L87.937 221.041L88.002 221.632L82.053 223.663L82.062 223.187Z" fill="black"/>
<path opacity="0.2" d="M80.364 217.42L86.093 215.327L85.795 214.799L79.97 216.853L80.364 217.42Z" fill="black"/>
<path opacity="0.2" d="M94.37 218.691L100.158 216.577L100.555 217.067L94.761 219.319L94.37 218.691Z" fill="black"/>
<path opacity="0.2" d="M92.3 213.06L98.089 210.945L98.071 210.134L92.173 212.177L92.3 213.06Z" fill="black"/>
<path d="M132.97 145.727C116.461 140.115 99.794 134.998 83.215 129.6C78.226 127.976 73.248 126.321 68.281 124.633C67.365 124.322 66.972 125.77 67.882 126.079C84.391 131.691 101.058 136.808 117.637 142.206C122.626 143.83 127.604 145.485 132.571 147.173C133.487 147.484 133.88 146.036 132.97 145.727Z" fill="#263238"/>
<path d="M115.707 114.587C123.702 118.956 131.696 123.325 139.69 127.695C140.537 128.158 141.295 126.863 140.447 126.4C132.453 122.031 124.458 117.662 116.464 113.292C115.617 112.829 114.859 114.124 115.707 114.587Z" fill="#263238"/>
<path d="M110.159 249.031L140.247 228.518L144.502 225.617C145.295 225.076 144.545 223.776 143.745 224.322L113.657 244.835L109.402 247.736C108.609 248.277 109.359 249.577 110.159 249.031Z" fill="#263238"/>
<path d="M150.21 236.031C146.995 242.303 143.779 248.576 140.564 254.848C140.124 255.705 141.418 256.465 141.859 255.605C145.075 249.333 148.29 243.06 151.505 236.788C151.945 235.931 150.651 235.171 150.21 236.031Z" fill="#263238"/>
<path d="M131.999 162.727C121.745 163.535 111.491 164.343 101.237 165.151C100.281 165.226 100.273 166.727 101.237 166.651C111.491 165.843 121.745 165.035 131.999 164.227C132.955 164.152 132.963 162.651 131.999 162.727Z" fill="#263238"/>
<path d="M368.724 268.918C362.323 262.435 355.922 255.952 349.52 249.47C348.841 248.782 347.78 249.843 348.459 250.531C354.86 257.014 361.261 263.497 367.663 269.979C368.342 270.667 369.403 269.606 368.724 268.918Z" fill="#263238"/>
<path d="M337.085 124.975C334.664 133.758 332.244 142.541 329.823 151.324C329.566 152.256 331.013 152.654 331.269 151.723C333.69 142.94 336.11 134.157 338.531 125.374C338.788 124.442 337.341 124.044 337.085 124.975Z" fill="#263238"/>
<path d="M409.4 164.328L391.363 169.078L362.607 176.652L355.997 178.393C355.064 178.639 355.46 180.086 356.396 179.839L374.433 175.089L403.189 167.515L409.799 165.774C410.732 165.528 410.336 164.081 409.4 164.328Z" fill="#263238"/>
<path d="M344.758 165.581C349.952 160.816 355.146 156.052 360.34 151.287C361.053 150.633 359.99 149.574 359.279 150.226C354.085 154.991 348.891 159.755 343.697 164.52C342.984 165.174 344.047 166.233 344.758 165.581Z" fill="#263238"/>
<path d="M360.553 195.985C370.98 196.593 381.407 197.201 391.834 197.808L398.604 198.203C399.568 198.259 399.565 196.759 398.604 196.703C388.177 196.095 377.75 195.487 367.323 194.88L360.553 194.485C359.589 194.429 359.592 195.929 360.553 195.985Z" fill="#263238"/>
<path d="M366.674 145.289C367.549 144.633 368.424 143.977 369.299 143.321C369.461 143.199 369.588 143.076 369.644 142.873C369.693 142.693 369.671 142.454 369.568 142.295C369.465 142.135 369.311 141.994 369.12 141.95C368.936 141.908 368.7 141.907 368.542 142.026C367.667 142.682 366.792 143.338 365.917 143.994C365.755 144.116 365.628 144.239 365.572 144.442C365.523 144.622 365.545 144.861 365.648 145.02C365.751 145.18 365.905 145.321 366.096 145.365C366.28 145.407 366.516 145.408 366.674 145.289Z" fill="#263238"/>
</svg>
