<svg width="501" height="500" viewBox="0 0 501 500" fill="none" xmlns="http://www.w3.org/2000/svg">
<path d="M311.36 250.21L193.24 249.07L157.5 248.9H147.76H145.23C144.944 248.882 144.656 248.882 144.37 248.9C144.654 248.946 144.942 248.966 145.23 248.96L147.76 249.02L157.49 249.14L193.29 249.34L311.41 249.41C357.52 249.41 399.27 249.47 429.49 249.69C444.6 249.8 456.83 249.94 465.28 250.11C469.51 250.19 472.79 250.27 475.01 250.36C476.149 250.335 477.288 250.422 478.41 250.62C477.286 250.801 476.148 250.874 475.01 250.84C472.79 250.9 469.5 250.96 465.28 250.99C456.82 251.07 444.59 251.09 429.48 250.99C399.21 251.05 357.5 250.69 311.36 250.21Z" fill="#EBEBEB"/>
<path d="M310.44 260.62L193.94 241.13L158.6 235.4L148.98 233.91L146.48 233.56C146.197 233.503 145.909 233.473 145.62 233.47C145.894 233.558 146.175 233.621 146.46 233.66L148.95 234.12L158.54 235.75L193.87 241.51L310.55 259.93C356.1 267.08 397.33 273.63 427.15 278.54C442.06 281 454.15 283.04 462.44 284.54C466.61 285.28 469.83 285.87 472.02 286.3C473.145 286.462 474.253 286.726 475.33 287.09C474.193 287.098 473.058 286.997 471.94 286.79C469.73 286.5 466.48 286.05 462.3 285.43C453.94 284.19 441.85 282.31 426.93 279.92C397.09 275.11 355.91 268.26 310.44 260.62Z" fill="#EBEBEB"/>
<path d="M307.9 270.75L195.9 233.16L161.9 221.93L152.64 218.93L150.22 218.18C149.945 218.089 149.664 218.016 149.38 217.96C149.636 218.094 149.904 218.204 150.18 218.29L152.57 219.13L161.79 222.26L195.79 233.51L308.11 270.07C351.96 284.3 391.65 297.26 420.33 306.81C434.66 311.58 446.25 315.5 454.24 318.27C458.24 319.65 461.32 320.75 463.41 321.52C464.499 321.851 465.554 322.286 466.56 322.82C465.436 322.648 464.331 322.371 463.26 321.99C461.12 321.36 457.98 320.4 453.95 319.13C445.89 316.59 434.25 312.83 419.89 308.13C391.18 298.72 351.6 285.46 307.9 270.75Z" fill="#EBEBEB"/>
<path d="M303.8 280.35L199.13 225.61L167.33 209.18L158.65 204.77L156.38 203.66C156.128 203.519 155.864 203.401 155.59 203.31C155.827 203.472 156.074 203.619 156.33 203.75L158.55 204.96L167.16 209.49L198.95 226L304.12 279.79C345.18 300.79 382.34 319.79 409.12 333.73C422.53 340.73 433.36 346.39 440.81 350.38C444.54 352.38 447.42 353.95 449.36 355.04C450.38 355.538 451.351 356.13 452.26 356.81C451.18 356.464 450.135 356.015 449.14 355.47C447.14 354.47 444.14 353.07 440.4 351.18C432.84 347.4 421.93 341.86 408.5 334.94C381.65 321.07 344.64 301.75 303.8 280.35Z" fill="#EBEBEB"/>
<path d="M298.25 289.19L203.42 218.76L174.57 197.56L166.69 191.85L164.62 190.39C164.389 190.22 164.149 190.063 163.9 189.92C164.1 190.129 164.321 190.317 164.56 190.48L166.56 192.02L174.36 197.84L203.18 219.07L298.65 288.63C335.93 315.75 369.65 340.37 393.96 358.33C406.11 367.33 415.96 374.63 422.65 379.73C426.02 382.28 428.65 384.29 430.37 385.67C431.305 386.314 432.173 387.051 432.96 387.87C431.944 387.36 430.98 386.754 430.08 386.06C428.25 384.8 425.56 382.91 422.08 380.45C415.2 375.54 405.3 368.36 393.08 359.45C368.77 341.58 335.24 316.71 298.25 289.19Z" fill="#EBEBEB"/>
<path d="M291.38 297.06L208.66 212.74L183.5 187.31L176.6 180.44L174.78 178.68C174.583 178.469 174.369 178.275 174.14 178.1C174.311 178.333 174.501 178.55 174.71 178.75L176.45 180.58L183.25 187.58L208.39 213C229.78 234.4 259.28 263.94 291.88 296.57C324.48 329.2 353.97 358.72 375.18 380.24C385.79 391.01 394.34 399.75 400.18 405.85C403.11 408.85 405.37 411.27 406.88 412.91C407.701 413.697 408.444 414.561 409.1 415.49C408.175 414.828 407.318 414.078 406.54 413.25C404.92 411.72 402.54 409.44 399.54 406.47C393.54 400.55 384.84 391.92 374.19 381.2C352.9 359.77 323.64 330 291.38 297.06Z" fill="#EBEBEB"/>
<path d="M283.38 303.76L214.78 207.59L193.85 178.59L188.1 170.73L186.58 168.73C186.419 168.489 186.235 168.264 186.03 168.06C186.171 168.313 186.328 168.557 186.5 168.79L187.94 170.87L193.56 178.81L214.5 207.82L283.98 303.35C311.12 340.62 335.65 374.35 353.25 398.97C362.06 411.25 369.14 421.22 373.98 428.15C376.41 431.61 378.27 434.32 379.51 436.15C380.193 437.055 380.789 438.022 381.29 439.04C380.479 438.243 379.749 437.369 379.11 436.43C377.75 434.67 375.78 432.05 373.26 428.65C368.26 421.86 361 411.99 352.15 399.74C334.4 375.28 310.13 341.31 283.38 303.76Z" fill="#EBEBEB"/>
<path d="M274.43 309.13C253.85 267.85 235.22 230.5 221.71 203.42L205.58 171.47L201.13 162.81L199.94 160.57C199.815 160.313 199.671 160.066 199.51 159.83C199.598 160.104 199.712 160.368 199.85 160.62L200.94 162.91C201.94 164.91 203.4 167.91 205.26 171.63L221.37 203.63L275.05 308.86C296.05 349.91 314.98 387.11 328.53 414.13C335.31 427.63 340.75 438.59 344.44 446.19C346.29 449.99 347.71 452.95 348.64 454.97C349.184 455.969 349.623 457.021 349.95 458.11C349.281 457.193 348.699 456.215 348.21 455.19C347.14 453.24 345.6 450.34 343.64 446.59C339.73 439.1 334.14 428.22 327.31 414.74C313.64 387.75 294.97 350.4 274.43 309.13Z" fill="#EBEBEB"/>
<path d="M264.75 313C250.91 269 238.4 229.18 229.32 200.31C224.72 185.94 221 174.31 218.41 166.22C217.1 162.22 216.08 159.12 215.41 156.97C215.06 155.97 214.79 155.15 214.59 154.58C214.508 154.302 214.404 154.031 214.28 153.77C214.322 154.056 214.392 154.337 214.49 154.61L215.21 157.04L218.1 166.33L228.98 200.43L265.44 312.79C279.71 356.63 292.56 396.35 301.7 425.16C306.26 439.56 309.91 451.24 312.36 459.33C313.59 463.33 314.52 466.52 315.13 468.66C315.5 469.735 315.768 470.844 315.93 471.97C315.402 470.961 314.977 469.903 314.66 468.81C313.91 466.72 312.85 463.61 311.5 459.6C308.82 451.6 305.02 439.96 300.39 425.6C291.1 396.84 278.5 357 264.75 313Z" fill="#EBEBEB"/>
<path d="M254.57 315.36L237.31 198.5C235.03 183.58 233.19 171.5 231.91 163.12C231.24 158.97 230.72 155.74 230.37 153.51L229.94 151.01C229.901 150.725 229.838 150.444 229.75 150.17C229.759 150.458 229.786 150.745 229.83 151.03C229.91 151.62 230.02 152.46 230.16 153.54C230.49 155.77 230.95 159.01 231.55 163.17C232.83 171.56 234.66 183.64 236.93 198.56C241.63 228.45 248.1 269.69 255.26 315.25C262.42 360.81 268.89 402 273.38 431.93C275.62 446.87 277.38 458.98 278.54 467.35C279.11 471.54 279.54 474.79 279.8 477C279.997 478.122 280.088 479.261 280.07 480.4C279.716 479.319 279.465 478.208 279.32 477.08C278.91 474.89 278.32 471.66 277.65 467.49C276.26 459.15 274.33 447.07 272.03 432.14C267.4 402.27 261.27 361 254.57 315.36Z" fill="#EBEBEB"/>
<path d="M244.15 316.07C244.57 269.94 244.94 228.2 245.22 197.95C245.28 182.85 245.33 170.64 245.37 162.15C245.37 157.95 245.37 154.68 245.37 152.42C245.37 151.33 245.37 150.49 245.37 149.89C245.381 149.599 245.365 149.307 245.32 149.02C245.288 149.308 245.272 149.599 245.27 149.89C245.27 150.49 245.27 151.33 245.21 152.42C245.21 154.68 245.14 157.95 245.09 162.15C245.09 170.63 244.99 182.85 244.92 197.95V316.07C244.92 362.17 244.92 403.92 244.71 434.14C244.61 449.26 244.48 461.49 244.32 469.94C244.24 474.16 244.16 477.44 244.07 479.67C244.094 480.805 244.01 481.94 243.82 483.06C243.632 481.94 243.555 480.804 243.59 479.67C243.53 477.44 243.47 474.16 243.43 469.93C243.35 461.479 243.33 449.25 243.36 434.14C243.36 403.91 243.7 362.17 244.15 316.07Z" fill="#EBEBEB"/>
<path d="M233.74 315.15C241.32 269.65 248.18 228.48 253.16 198.64C255.56 183.74 257.51 171.64 258.87 163.3C259.51 159.14 260 155.91 260.35 153.68C260.5 152.6 260.62 151.77 260.7 151.17C260.757 150.886 260.787 150.598 260.79 150.31C260.698 150.582 260.634 150.864 260.6 151.15L260.14 153.65C259.77 155.87 259.22 159.1 258.51 163.24C257.15 171.62 255.2 183.68 252.78 198.57C248.08 228.46 241.6 269.7 234.43 315.27C227.26 360.84 220.79 402.05 215.89 431.88C213.44 446.79 211.41 458.88 209.94 467.17C209.2 471.33 208.61 474.56 208.18 476.75C208.024 477.875 207.763 478.983 207.4 480.06C207.385 478.922 207.486 477.787 207.7 476.67C207.98 474.46 208.43 471.21 209.05 467.03C210.28 458.67 212.15 446.58 214.54 431.66C219.3 401.81 226.13 360.62 233.74 315.15Z" fill="#EBEBEB"/>
<path d="M223.61 312.62L261.13 200.62C265.86 186.28 269.68 174.68 272.33 166.62C273.62 162.62 274.62 159.5 275.33 157.35L276.08 154.93C276.177 154.66 276.247 154.382 276.29 154.1C276.166 154.359 276.059 154.626 275.97 154.9L275.13 157.29C274.41 159.43 273.36 162.52 272.01 166.5C269.35 174.56 265.52 186.16 260.78 200.5L224.27 312.84C210.07 356.7 197.14 396.4 187.6 425.08C182.84 439.42 178.93 451.01 176.16 459C174.78 463 173.69 466.09 172.92 468.17C172.592 469.26 172.156 470.315 171.62 471.32C171.806 470.187 172.101 469.076 172.5 468C173.12 465.86 174.08 462.72 175.35 458.69C177.88 450.63 181.64 438.99 186.35 424.62C195.69 395.92 208.93 356.32 223.61 312.62Z" fill="#EBEBEB"/>
<path d="M214 308.53C235.35 267.64 254.68 230.64 268.68 203.82L285.09 172L289.49 163.31L290.61 161.04C290.742 160.784 290.859 160.52 290.96 160.25C290.789 160.483 290.639 160.731 290.51 160.99L289.31 163.22C288.26 165.22 286.73 168.11 284.78 171.83L268.34 203.63L214.62 308.83C193.68 349.91 174.62 387.08 160.74 413.9C153.74 427.31 148.09 438.14 144.11 445.6C142.11 449.33 140.55 452.21 139.46 454.15C138.96 455.172 138.367 456.146 137.69 457.06C138.032 455.975 138.481 454.926 139.03 453.93C140.03 451.93 141.43 448.93 143.31 445.19C147.09 437.62 152.63 426.72 159.53 413.28C173.34 386.4 192.63 349.38 214 308.53Z" fill="#EBEBEB"/>
<path d="M205.16 303L275.5 208.1L296.69 179.25C299.15 175.84 301.06 173.19 302.39 171.36L303.85 169.29C304.02 169.059 304.177 168.819 304.32 168.57C304.111 168.77 303.923 168.991 303.76 169.23C303.4 169.71 302.89 170.37 302.22 171.23L296.4 179.03L275.2 207.87C257.39 232.33 232.83 266.08 205.69 303.38C178.55 340.68 154 374.38 136.05 398.73C127.05 410.89 119.77 420.73 114.67 427.44C112.12 430.81 110.12 433.44 108.74 435.16C108.088 436.09 107.352 436.957 106.54 437.75C107.045 436.732 107.652 435.767 108.35 434.87C109.61 433.04 111.49 430.35 113.95 426.87C118.85 419.99 126.03 410.08 134.95 397.87C152.82 373.54 177.67 340 205.16 303Z" fill="#EBEBEB"/>
<path d="M197.29 296.12L281.56 213.34L306.98 188.13L313.84 181.23L315.6 179.41C315.81 179.214 316 179 316.17 178.77C315.943 178.943 315.729 179.134 315.53 179.34L313.69 181.09L306.69 187.88L281.26 213.08L197.74 296.61C165.17 329.24 135.63 358.74 114.12 379.97C103.36 390.59 94.62 399.14 88.53 404.97C85.53 407.91 83.11 410.17 81.47 411.68C80.683 412.5 79.8191 413.244 78.89 413.9C79.5551 412.978 80.3051 412.121 81.13 411.34C82.66 409.72 84.94 407.34 87.9 404.34C93.82 398.34 102.45 389.64 113.16 378.97C134.62 357.68 164.38 328.4 197.29 296.12Z" fill="#EBEBEB"/>
<path d="M190.59 288.12L286.71 219.46L315.71 198.46L323.56 192.71L325.56 191.19C325.794 191.024 326.015 190.84 326.22 190.64C325.964 190.772 325.72 190.926 325.49 191.1L323.5 192.59L315.5 198.22L286.5 219.15L191.01 288.68C153.76 315.85 120.01 340.4 95.44 358.02C83.17 366.84 73.2 373.93 66.27 378.77C62.81 381.19 60.11 383.06 58.27 384.3C57.364 384.989 56.3927 385.589 55.37 386.09C56.1662 385.279 57.0405 384.549 57.98 383.91C59.74 382.54 62.37 380.57 65.76 378.04C72.54 373.04 82.42 365.78 94.65 356.92C119.1 339.18 153.05 314.89 190.59 288.12Z" fill="#EBEBEB"/>
<path d="M185.21 279.17L290.88 226.39L322.83 210.24L331.48 205.78L333.72 204.59C333.977 204.465 334.224 204.321 334.46 204.16C334.187 204.251 333.923 204.364 333.67 204.5L331.39 205.6L322.67 209.92L290.67 226.05L185.5 279.8C144.5 300.8 107.27 319.8 80.27 333.34C66.77 340.13 55.81 345.57 48.21 349.27C44.41 351.13 41.45 352.54 39.43 353.48C38.4288 354.019 37.3771 354.457 36.29 354.79C37.2152 354.108 38.1991 353.509 39.23 353C41.23 351.93 44.08 350.39 47.83 348.43C55.32 344.51 66.2 338.92 79.67 332.08C106.62 318.43 143.95 299.74 185.21 279.17Z" fill="#EBEBEB"/>
<path d="M181.3 269.49L293.97 234L328.05 223.08L337.3 220.08L339.69 219.26C339.969 219.179 340.24 219.071 340.5 218.94C340.216 218.996 339.935 219.07 339.66 219.16L337.24 219.88L327.94 222.77L293.85 233.67L181.5 270.16C137.67 284.45 97.96 297.33 69.16 306.48C54.75 311.06 43.08 314.71 34.99 317.17C30.99 318.4 27.8 319.34 25.66 319.94C24.5883 320.324 23.4787 320.592 22.35 320.74C23.3593 320.225 24.4137 319.803 25.5 319.48C27.6 318.73 30.7 317.66 34.71 316.31C42.71 313.62 54.34 309.81 68.71 305.17C97.5 295.89 137.32 283.32 181.3 269.49Z" fill="#EBEBEB"/>
<path d="M178.97 259.32L295.81 242L331.2 236.57L340.8 235.02L343.3 234.59C343.584 234.551 343.865 234.49 344.14 234.41C343.852 234.404 343.564 234.428 343.28 234.48L340.77 234.82L331.14 236.21L295.76 241.62L179.07 260C133.5 267.22 92.29 273.69 62.41 278.2C47.47 280.45 35.41 282.2 26.99 283.38C22.8 283.96 19.55 284.38 17.34 284.65C16.2178 284.848 15.0793 284.938 13.94 284.92C15.0211 284.568 16.1325 284.317 17.26 284.17C19.45 283.76 22.68 283.17 26.85 282.49C35.19 281.09 47.27 279.16 62.2 276.85C92.07 272.21 133.36 266.05 178.97 259.32Z" fill="#EBEBEB"/>
<path d="M178.25 248.9L296.37 249.9L332.17 250.03H341.9H344.43C344.72 250.051 345.01 250.051 345.3 250.03C345.012 249.984 344.721 249.964 344.43 249.97L341.9 249.92L332.17 249.81L296.37 249.66L178.25 249.73C132.15 249.79 90.4 249.78 60.18 249.59C45.06 249.5 32.83 249.38 24.38 249.22C20.16 249.15 16.87 249.07 14.65 248.98C13.5146 249.004 12.3795 248.921 11.26 248.73C12.3805 248.548 13.5153 248.471 14.65 248.5C16.88 248.44 20.16 248.38 24.39 248.34C32.84 248.25 45.07 248.22 60.18 248.24C90.4 248.16 132.15 248.48 178.25 248.9Z" fill="#EBEBEB"/>
<path d="M179.16 238.49L295.69 257.83L331.03 263.52L340.65 264.99L343.16 265.35C343.444 265.402 343.732 265.429 344.02 265.43C343.742 265.345 343.458 265.282 343.17 265.24L340.68 264.79L331.09 263.16L295.75 257.45L179.05 239.18C133.49 232.08 92.25 225.59 62.43 220.71C47.51 218.28 35.43 216.25 27.12 214.78C22.96 214.05 19.73 213.46 17.55 213.03C16.4241 212.878 15.3156 212.617 14.24 212.25C15.3772 212.236 16.513 212.336 17.63 212.55C19.84 212.83 23.09 213.28 27.27 213.89C35.63 215.12 47.72 216.99 62.64 219.36C92.5 224.11 133.68 230.91 179.16 238.49Z" fill="#EBEBEB"/>
<path d="M181.69 228.35L293.69 265.81L327.69 276.99L336.96 279.99L339.38 280.73C339.65 280.826 339.928 280.9 340.21 280.95C339.956 280.815 339.687 280.708 339.41 280.63L337.02 279.79L327.8 276.67L293.8 265.46L181.5 229C137.63 214.82 97.92 201.92 69.24 192.4C54.89 187.65 43.3 183.74 35.31 180.98C31.31 179.6 28.22 178.51 26.13 177.74C25.0422 177.409 23.9877 176.977 22.98 176.45C24.1045 176.613 25.21 176.888 26.28 177.27C28.42 177.9 31.56 178.86 35.59 180.12C43.66 182.65 55.3 186.39 69.67 191.12C98.37 200.49 137.97 213.7 181.69 228.35Z" fill="#EBEBEB"/>
<path d="M185.77 218.75L290.5 273.36L322.32 289.75L331 294.14L333.28 295.26C333.536 295.392 333.8 295.509 334.07 295.61C333.832 295.441 333.581 295.291 333.32 295.16L331.1 293.96L322.5 289.43L290.69 273L185.5 219.36C144.41 198.45 107.23 179.46 80.4 165.55C66.98 158.55 56.14 152.92 48.69 148.94C44.96 146.94 42.07 145.38 40.13 144.3C39.11 143.797 38.1363 143.204 37.22 142.53C38.3072 142.867 39.3563 143.316 40.35 143.87C42.35 144.82 45.35 146.26 49.1 148.15C56.66 151.91 67.57 157.44 81.02 164.34C107.87 178.13 144.91 197.4 185.77 218.75Z" fill="#EBEBEB"/>
<path d="M191.32 209.9L286.24 280.21L315.1 301.38L323 307.07L325.06 308.53C325.29 308.707 325.534 308.864 325.79 309C325.585 308.8 325.364 308.616 325.13 308.45L323.13 306.91L315.32 301.09L286.5 279.91L190.95 210.46C153.63 183.39 119.88 158.82 95.55 140.88C83.38 131.88 73.55 124.62 66.83 119.52C63.46 116.97 60.83 114.97 59.1 113.59C58.1647 112.945 57.297 112.208 56.51 111.39C57.5255 111.9 58.4899 112.506 59.39 113.2C61.23 114.46 63.92 116.34 67.39 118.8C74.27 123.7 84.18 130.87 96.39 139.8C120.72 157.61 154.29 182.43 191.32 209.9Z" fill="#EBEBEB"/>
<path d="M198.17 202L281 286.21L306.22 311.61L313.13 318.47L314.95 320.23C315.149 320.442 315.367 320.636 315.6 320.81C315.432 320.575 315.241 320.357 315.03 320.16L313.28 318.33L306.47 311.33L281.27 286L197.68 202.54C165.03 170 135.5 140.45 114.27 119C103.64 108.25 95.09 99.51 89.27 93.42C86.33 90.42 84.07 88 82.56 86.37C81.7356 85.5865 80.9919 84.7221 80.34 83.79C81.2427 84.4481 82.083 85.1879 82.85 86C84.47 87.53 86.85 89.81 89.85 92.76C95.85 98.68 104.56 107.3 115.23 118.01C136.57 139.39 165.87 169.13 198.17 202Z" fill="#EBEBEB"/>
<path d="M206.17 195.32L274.89 291.39L295.89 320.39L301.65 328.23L303.17 330.23C303.335 330.468 303.519 330.692 303.72 330.9C303.591 330.643 303.437 330.398 303.26 330.17L301.82 328.09L296.18 320.16L275.23 291.16C257.41 266.71 232.82 232.98 205.64 195.71C178.46 158.44 153.88 124.71 136.24 100.19C127.38 87.9304 120.29 78.0004 115.44 71.0004C113.01 67.5404 111.14 64.8404 109.9 63.0004C109.219 62.0916 108.62 61.1245 108.11 60.1104C108.923 60.9076 109.656 61.7817 110.3 62.7204C111.66 64.4704 113.64 67.0903 116.16 70.4903C121.16 77.2703 128.43 87.1304 137.31 99.3704C155.06 123.86 179.37 157.8 206.17 195.32Z" fill="#EBEBEB"/>
<path d="M215.11 189.93C235.75 231.19 254.42 268.52 267.96 295.57L284.13 327.51L288.6 336.16L289.78 338.39C289.907 338.651 290.054 338.901 290.22 339.14C290.132 338.866 290.018 338.602 289.88 338.35C289.62 337.8 289.25 337.05 288.78 336.06L284.5 327.35C280.68 319.77 275.16 308.87 268.35 295.35L214.5 190.25C193.5 149.25 174.5 112.04 160.88 85.0497C154.09 71.5497 148.64 60.5996 144.88 53.0496C143.03 49.2496 141.61 46.2896 140.67 44.2696C140.129 43.2729 139.69 42.2243 139.36 41.1396C140.044 42.0357 140.643 42.9931 141.15 43.9996C142.22 45.9996 143.76 48.8496 145.72 52.5996C149.65 60.0796 155.24 70.9596 162.1 84.4296C175.8 111.36 194.5 148.69 215.11 189.93Z" fill="#EBEBEB"/>
<path d="M224.78 186C238.68 230 251.25 269.79 260.36 298.64C264.97 313.01 268.71 324.64 271.31 332.72C272.62 336.72 273.65 339.82 274.31 341.97C274.67 342.97 274.94 343.79 275.13 344.36C275.208 344.637 275.315 344.905 275.45 345.16C275.4 344.878 275.329 344.601 275.24 344.33C275.06 343.75 274.82 342.95 274.51 341.9L271.61 332.61C269.02 324.53 265.29 312.9 260.69 298.52C251.31 269.76 238.38 230.07 224.08 186.21C209.78 142.35 196.85 102.69 187.69 73.8896C183.1 59.4896 179.44 47.8196 176.97 39.7296C175.74 35.7296 174.8 32.5396 174.2 30.3996C173.825 29.328 173.554 28.2229 173.39 27.0996C173.917 28.1049 174.342 29.1601 174.66 30.2496C175.42 32.3496 176.48 35.4496 177.83 39.4596C180.53 47.4596 184.35 59.0896 188.99 73.4596C198.33 102.25 210.94 142.05 224.78 186Z" fill="#EBEBEB"/>
<path d="M234.96 183.68C241.76 229.3 247.91 270.59 252.37 300.51C254.66 315.43 256.53 327.51 257.82 335.89L259.37 345.5C259.56 346.58 259.7 347.4 259.8 348C259.84 348.285 259.904 348.566 259.99 348.84C259.981 348.552 259.954 348.265 259.91 347.98C259.83 347.38 259.72 346.55 259.57 345.47C259.25 343.23 258.78 340 258.17 335.84C256.88 327.45 255.03 315.37 252.75 300.46C248.01 270.57 241.49 229.34 234.27 183.79C227.05 138.24 220.5 96.9999 216.01 67.1299C213.74 52.1899 212.01 40.1299 210.8 31.7199C210.22 27.5299 209.8 24.2799 209.53 22.0599C209.327 20.9417 209.233 19.8063 209.25 18.6699C209.611 19.7492 209.866 20.8611 210.01 21.9899C210.42 24.1799 211.01 27.4099 211.69 31.5799C213.09 39.9199 215.03 51.9899 217.36 66.9199C222.02 96.7899 228.2 138.07 234.96 183.68Z" fill="#EBEBEB"/>
<path d="M245.38 183C245.02 229.12 244.7 270.86 244.46 301.12C244.46 316.21 244.38 328.43 244.36 336.92C244.36 341.12 244.36 344.39 244.36 346.65C244.36 347.74 244.36 348.58 244.36 349.18C244.342 349.466 244.342 349.754 244.36 350.04C244.406 349.756 244.426 349.468 244.42 349.18C244.42 348.58 244.42 347.74 244.47 346.65C244.47 344.39 244.53 341.12 244.58 336.92C244.58 328.43 244.65 316.21 244.71 301.12C244.71 270.86 244.62 229.12 244.56 183C244.5 136.88 244.45 95.14 244.62 64.92C244.7 49.81 244.82 37.58 244.97 29.13C245.04 24.9 245.12 21.62 245.2 19.39C245.176 18.2546 245.26 17.1196 245.45 16C245.638 17.123 245.715 18.2619 245.68 19.4C245.75 21.62 245.81 24.9 245.85 29.13C245.94 37.58 245.99 49.81 245.97 64.93C246.06 95.11 245.77 136.86 245.38 183Z" fill="#EBEBEB"/>
<path d="M255.79 183.86C248.26 229.37 241.5 270.55 236.5 300.4C234.11 315.3 232.18 327.4 230.84 335.75C230.2 339.9 229.71 343.13 229.37 345.37C229.22 346.45 229.1 347.28 229.02 347.87C228.97 348.154 228.94 348.441 228.93 348.73C229.024 348.458 229.088 348.176 229.12 347.89C229.233 347.303 229.383 346.473 229.57 345.4C229.95 343.17 230.49 339.95 231.19 335.8C232.54 327.43 234.48 315.36 236.88 300.46C241.54 270.57 247.97 229.32 255.08 183.75C262.19 138.18 268.63 96.9399 273.5 67.1099C275.93 52.1999 277.95 40.1099 279.41 31.8099C280.14 27.6499 280.73 24.4199 281.15 22.2299C281.306 21.1047 281.567 19.9965 281.93 18.9199C281.946 20.0567 281.849 21.1923 281.64 22.3099C281.36 24.5199 280.91 27.7699 280.3 31.9499C279.08 40.3199 277.22 52.3999 274.85 67.3299C270.12 97.1799 263.34 138.38 255.79 183.86Z" fill="#EBEBEB"/>
<path d="M265.93 186.38C251.33 230.13 238.12 269.73 228.55 298.43C223.84 312.77 220.03 324.38 217.39 332.43C216.11 336.43 215.11 339.55 214.39 341.7C214.07 342.75 213.83 343.55 213.65 344.12C213.559 344.395 213.486 344.676 213.43 344.96C213.563 344.705 213.67 344.437 213.75 344.16L214.59 341.77L217.7 332.55L228.89 298.55L265.23 186.16C279.38 142.28 292.23 102.57 301.76 73.8704C306.5 59.5304 310.4 47.9303 313.15 39.9403C314.53 35.9403 315.62 32.8504 316.39 30.7604C316.713 29.6697 317.145 28.6143 317.68 27.6104C317.515 28.7354 317.237 29.841 316.85 30.9104C316.23 33.0504 315.28 36.1904 314.01 40.2204C311.49 48.2904 307.76 59.9403 303.07 74.3103C293.73 103 280.55 142.66 265.93 186.38Z" fill="#EBEBEB"/>
<path d="M275.5 190.46L220.99 295.24L204.62 327.07L200.23 335.76L199.12 338C198.985 338.254 198.868 338.518 198.77 338.79C198.942 338.559 199.09 338.311 199.21 338.05L200.42 335.82C201.42 333.82 202.98 330.92 204.94 327.2L221.33 295.38C235.06 268.38 253.99 231.22 274.92 190.11C295.85 149 314.77 111.85 328.66 84.9996C335.61 71.5796 341.28 60.7396 345.25 53.2796C347.25 49.5496 348.81 46.6596 349.89 44.7196C350.382 43.6935 350.975 42.7187 351.66 41.8096C351.316 42.913 350.867 43.9812 350.32 44.9996C349.37 46.9996 347.93 49.9996 346.05 53.7496C342.29 61.3196 336.76 72.2296 329.87 85.6796C316.1 112.53 296.85 149.58 275.5 190.46Z" fill="#EBEBEB"/>
<path d="M284.39 196L214.13 291L192.99 319.88L187.3 327.78L185.84 329.85C185.67 330.08 185.513 330.321 185.37 330.57C185.577 330.371 185.761 330.149 185.92 329.91L187.46 327.91L193.27 320.1C198.27 313.26 205.52 303.41 214.44 291.23L283.82 195.64C310.87 158.3 335.42 124.53 353.34 100.2C362.34 88.0196 369.59 78.1996 374.69 71.4596C377.23 68.0896 379.23 65.4596 380.61 63.7296C381.254 62.7944 381.991 61.9266 382.81 61.1396C382.299 62.1482 381.693 63.1059 381 63.9996C379.74 65.8396 377.86 68.5296 375.41 71.9996C370.51 78.8896 363.35 88.7996 354.41 101C336.63 125.37 311.83 159 284.39 196Z" fill="#EBEBEB"/>
<path d="M292.26 202.85L208.1 285.73L182.71 311C179.71 314 177.45 316.31 175.86 317.91C175.11 318.7 174.52 319.3 174.1 319.73C173.892 319.93 173.701 320.147 173.53 320.38C173.76 320.205 173.977 320.015 174.18 319.81L176.01 318.06L183.01 311.25L208.36 286L291.77 202.35C324.3 169.68 353.77 140.14 375.29 118.89C386.03 108.26 394.76 99.6896 400.85 93.8196C403.85 90.8896 406.26 88.6196 407.85 87.1096C408.658 86.2844 409.546 85.5408 410.5 84.8896C409.839 85.8142 409.089 86.6717 408.26 87.4496C406.74 89.0696 404.46 91.4496 401.51 94.4496C395.59 100.45 386.98 109.17 376.28 119.84C354.86 141.21 325.14 170.52 292.26 202.85Z" fill="#EBEBEB"/>
<path d="M298.98 210.84L202.98 279.62L173.98 300.62L166.13 306.39L164.13 307.91C163.892 308.074 163.668 308.258 163.46 308.46C163.715 308.326 163.959 308.172 164.19 308L166.27 306.55L174.2 300.91L203.2 279.91C227.63 262.06 261.35 237.45 298.6 210.25C335.85 183.05 369.55 158.45 394.08 140.79C406.32 132 416.28 124.88 423.2 120C426.66 117.57 429.36 115.7 431.2 114.46C432.106 113.77 433.077 113.171 434.1 112.67C433.304 113.481 432.43 114.211 431.49 114.85C429.73 116.22 427.11 118.2 423.72 120.72C416.94 125.72 407.08 133.01 394.85 141.89C370.4 159.68 336.5 184 298.98 210.84Z" fill="#EBEBEB"/>
<path d="M304.37 219.78L198.76 272.69L166.84 288.89L158.19 293.36L155.96 294.55C155.699 294.674 155.449 294.818 155.21 294.98C155.483 294.892 155.748 294.778 156 294.64L158.28 293.54L167 289.21L198.93 273L304.05 219.11C345.05 198.05 382.23 179.04 409.22 165.43C422.71 158.63 433.66 153.17 441.22 149.43C445.02 147.57 447.98 146.15 450 145.21C451.001 144.672 452.053 144.233 453.14 143.9C452.22 144.568 451.243 145.153 450.22 145.65C448.27 146.72 445.37 148.27 441.63 150.23C434.15 154.16 423.27 159.77 409.81 166.62C382.91 180.42 345.6 199.15 304.37 219.78Z" fill="#EBEBEB"/>
<path d="M308.29 229.45L195.67 265.09L161.6 276.09L152.35 279.14L149.96 279.96C149.683 280.037 149.414 280.145 149.16 280.28C149.441 280.222 149.718 280.148 149.99 280.06L152.42 279.34L161.71 276.43L195.79 265.43L308.07 228.76C351.89 214.41 391.58 201.48 420.38 192.29C434.77 187.69 446.44 184.03 454.52 181.55C458.57 180.32 461.71 179.38 463.85 178.77C464.922 178.386 466.031 178.118 467.16 177.97C466.148 178.489 465.09 178.915 464 179.24C461.91 179.99 458.8 181.06 454.8 182.41C446.8 185.12 435.17 188.94 420.8 193.6C392.04 202.94 352.25 215.57 308.29 229.45Z" fill="#EBEBEB"/>
<path d="M310.63 239.62L193.81 257.11L158.44 262.58L148.83 264.14L146.33 264.57C146.045 264.61 145.764 264.673 145.49 264.76C145.778 264.751 146.065 264.724 146.35 264.68L148.86 264.34L158.49 262.93L193.87 257.48L310.5 238.93C356.02 231.66 397.26 225.14 427.14 220.59C442.08 218.32 454.14 216.54 462.55 215.37C466.74 214.78 469.99 214.37 472.2 214.09C473.318 213.887 474.454 213.793 475.59 213.81C474.513 214.166 473.405 214.42 472.28 214.57C470.09 214.98 466.86 215.57 462.69 216.26C454.35 217.66 442.28 219.61 427.35 221.95C397.5 226.62 356.23 232.84 310.63 239.62Z" fill="#EBEBEB"/>
<path d="M357.95 72.3604L359 74.1003C360.176 76.0595 361.891 77.639 363.94 78.6504L365.77 79.5504L364.02 80.5504C362.072 81.753 360.505 83.4832 359.5 85.5404L358.6 87.3704L357.5 85.6204C356.324 83.667 354.613 82.0915 352.57 81.0804L350.74 80.1703L352.48 79.1703C354.438 77.9978 356.018 76.2864 357.03 74.2403L357.95 72.3604Z" fill="#E0E0E0"/>
<path d="M355.78 276.89L356.42 277.96C357.135 279.153 358.176 280.118 359.42 280.74L360.54 281.29L359.47 281.94C358.274 282.652 357.309 283.693 356.69 284.94L356.14 286.05L355.5 285C354.786 283.803 353.745 282.835 352.5 282.21L351.39 281.66L352.45 281.02C353.647 280.306 354.614 279.265 355.24 278.02L355.78 276.89Z" fill="#E0E0E0"/>
<path d="M459.92 389.62L460.56 390.68C461.272 391.876 462.313 392.842 463.56 393.46L464.67 394.02L463.61 394.66C462.416 395.375 461.452 396.416 460.83 397.66L460.27 398.78L459.63 397.71C458.915 396.517 457.874 395.552 456.63 394.93L455.52 394.37L456.58 393.73C457.774 393.015 458.738 391.975 459.36 390.73L459.92 389.62Z" fill="#E0E0E0"/>
<path d="M56.55 335L57.19 336.06C57.9047 337.254 58.9455 338.218 60.19 338.84L61.3 339.4L60.24 340.04C59.0439 340.752 58.0786 341.793 57.46 343.04L56.9 344.15L56.26 343.09C55.5453 341.896 54.5045 340.932 53.26 340.31L52.14 339.75L53.21 339.11C54.4036 338.395 55.3681 337.354 55.99 336.11L56.55 335Z" fill="#E0E0E0"/>
<path d="M182.14 36.9102L182.78 37.9802C183.497 39.1716 184.537 40.1355 185.78 40.7602L186.89 41.3102L185.83 41.9502C184.636 42.6648 183.672 43.7057 183.05 44.9502L182.5 46.0902L181.87 45.0002C181.153 43.8087 180.113 42.8448 178.87 42.2202L177.76 41.6702L178.82 41.0302C180.014 40.3155 180.978 39.2746 181.6 38.0302L182.14 36.9102Z" fill="#E0E0E0"/>
<path d="M79.5 47.3896L80.14 48.4596C80.8546 49.6532 81.8955 50.6178 83.14 51.2397L84.26 51.7996L83.19 52.4396C81.9985 53.1569 81.0346 54.1971 80.41 55.4396L79.86 56.5496L79.22 55.4897C78.5084 54.2936 77.4667 53.3283 76.22 52.7096L75.1 52.1497L76.17 51.5096C77.3636 50.795 78.3281 49.7541 78.95 48.5096L79.5 47.3896Z" fill="#E0E0E0"/>
<path d="M127.38 151.56L128.02 152.62C128.734 153.816 129.775 154.784 131.02 155.41L132.14 155.96L131.07 156.6C129.876 157.314 128.912 158.355 128.29 159.6L127.73 160.72L127.09 159.65C126.375 158.456 125.334 157.491 124.09 156.87L122.98 156.32L124.04 155.67C125.236 154.958 126.201 153.916 126.82 152.67L127.38 151.56Z" fill="#E0E0E0"/>
<path d="M365.08 180.68L365.73 181.74C366.441 182.938 367.483 183.907 368.73 184.53L369.84 185.08L368.78 185.72C367.583 186.434 366.615 187.475 365.99 188.72L365.44 189.84L364.8 188.77C364.085 187.576 363.044 186.612 361.8 185.99L360.68 185.44L361.75 184.79C362.946 184.078 363.911 183.036 364.53 181.79L365.08 180.68Z" fill="#E0E0E0"/>
<path d="M355.78 392.19L356.42 393.26C357.135 394.454 358.176 395.419 359.42 396.04L360.54 396.59L359.47 397.24C358.274 397.952 357.309 398.994 356.69 400.24L356.14 401.35L355.49 400.29C354.776 399.094 353.735 398.126 352.49 397.5L351.38 396.95L352.44 396.31C353.637 395.596 354.605 394.556 355.23 393.31L355.78 392.19Z" fill="#E0E0E0"/>
<path d="M170.89 80.4004L172.18 82.5504C173.635 84.9653 175.752 86.9123 178.28 88.1604L180.5 89.2804L178.35 90.5704C175.93 92.0196 173.982 94.1382 172.74 96.6704L171.62 98.9204L170.33 96.7604C168.872 94.3476 166.756 92.4013 164.23 91.1504L162.01 90.0004L164.16 88.7004C166.58 87.2527 168.531 85.1383 169.78 82.6104L170.89 80.4004Z" fill="#E0E0E0"/>
<path d="M450.5 69.6904L451.79 71.8404C453.241 74.2576 455.354 76.208 457.88 77.4604L460.14 78.5704L457.98 79.8604C455.567 81.318 453.621 83.4343 452.37 85.9604L451.26 88.2104L449.96 86.0604C448.514 83.6415 446.399 81.6931 443.87 80.4504L441.62 79.3304L443.74 78.0004C446.155 76.5455 448.102 74.4284 449.35 71.9004L450.5 69.6904Z" fill="#E0E0E0"/>
<path d="M331.78 36.1299L332.53 37.3699C333.369 38.7771 334.599 39.9098 336.07 40.6299L337.38 41.2799L336.13 42.0299C334.723 42.8685 333.59 44.0985 332.87 45.5699L332.22 46.8799L331.5 45.6299C330.661 44.2227 329.431 43.09 327.96 42.3699L326.66 41.7199L327.9 40.9699C329.307 40.1313 330.44 38.9012 331.16 37.4299L331.78 36.1299Z" fill="#E0E0E0"/>
<path d="M75.5 290.28L76.63 292.16C77.9015 294.276 79.7554 295.98 81.97 297.07L83.97 298.07L82.08 299.2C79.9666 300.474 78.2627 302.328 77.17 304.54L76.17 306.54L75.04 304.65C73.7685 302.535 71.9146 300.83 69.7 299.74L67.7 298.74L69.59 297.6C71.7059 296.325 73.4103 294.468 74.5 292.25L75.5 290.28Z" fill="#E0E0E0"/>
<path d="M404.67 399.54L405.8 401.43C407.071 403.546 408.925 405.25 411.14 406.34L413.14 407.34L411.25 408.47C409.134 409.742 407.43 411.595 406.34 413.81L405.34 415.81L404.21 413.92C402.938 411.804 401.085 410.1 398.87 409.01L396.87 408.01L398.76 406.88C400.876 405.609 402.58 403.755 403.67 401.54L404.67 399.54Z" fill="#E0E0E0"/>
<path d="M478.06 478.22C478.06 478.36 376.17 478.48 250.51 478.48C124.85 478.48 22.94 478.36 22.94 478.22C22.94 478.08 124.81 478 250.5 478C376.19 478 478.06 478.07 478.06 478.22Z" fill="#263238"/>
<path d="M325.63 435.8L324.43 433.98L178.74 429.02L160.11 478.17L334.5 477.96L325.63 435.8Z" fill="#3DAA3D"/>
<path opacity="0.3" d="M325.63 435.8L324.43 433.98L178.74 429.02L160.11 478.17L334.5 477.96L325.63 435.8Z" fill="black"/>
<path d="M395.5 301.43C395.431 300.375 395.111 299.352 394.566 298.446C394.022 297.539 393.269 296.776 392.37 296.22C364.48 277.77 343.47 236.87 341.37 202.22C341.317 200.22 341.257 198.22 341.19 196.22C339.58 146.72 332.29 86.6797 325.74 70.6697C313.65 41.1097 272.74 38.3297 272.74 38.3297C218.39 34.4397 208.74 76.2097 203.2 114.25C199.79 137.9 186.64 222.4 186.64 222.4L196.64 226.26C208.41 261.14 234.91 289.34 269.36 302.26C279.36 306.04 287.86 307.55 291.84 304.31C307.733 320.441 327.385 332.372 349.03 339.03C357.81 341.7 367.03 343.48 376.15 342.63C382.08 342.07 388.33 340.11 391.87 335.32C393.402 333.24 394.311 330.768 394.493 328.191C394.675 325.614 394.121 323.039 392.897 320.765C391.672 318.49 389.827 316.61 387.575 315.344C385.324 314.077 382.76 313.476 380.18 313.61C382.19 307 395.74 309 395.5 301.43Z" fill="#3DAA3D"/>
<g opacity="0.3">
<path d="M395.5 301.43C395.431 300.375 395.111 299.352 394.566 298.446C394.022 297.539 393.269 296.776 392.37 296.22C364.48 277.77 343.47 236.87 341.37 202.22C341.317 200.22 341.257 198.22 341.19 196.22C339.58 146.72 332.29 86.6797 325.74 70.6697C313.65 41.1097 272.74 38.3297 272.74 38.3297C218.39 34.4397 208.74 76.2097 203.2 114.25C199.79 137.9 186.64 222.4 186.64 222.4L196.64 226.26C208.41 261.14 234.91 289.34 269.36 302.26C279.36 306.04 287.86 307.55 291.84 304.31C307.733 320.441 327.385 332.372 349.03 339.03C357.81 341.7 367.03 343.48 376.15 342.63C382.08 342.07 388.33 340.11 391.87 335.32C393.402 333.24 394.311 330.768 394.493 328.191C394.675 325.614 394.121 323.039 392.897 320.765C391.672 318.49 389.827 316.61 387.575 315.344C385.324 314.077 382.76 313.476 380.18 313.61C382.19 307 395.74 309 395.5 301.43Z" fill="black"/>
</g>
<path d="M279.94 53.7197L276.5 50.4697L239.79 65.2797C237.226 65.4235 234.808 66.5228 233.015 68.361C231.221 70.1992 230.181 72.6427 230.1 75.2097L230.43 194.94C230.38 203.06 232.01 210.09 236.91 216.56L242.07 223.37C253.84 238.91 278.07 237.63 287.36 220.51C287.924 219.539 288.36 218.501 288.66 217.42C288.887 216.536 289.067 215.642 289.2 214.74C290.3 205.11 290.36 196.74 290.36 196.74C291.01 186.17 291.23 181.83 291.23 181.93C291.23 182.03 313.74 179.34 319.82 150.45C322.82 136.08 322.28 116.32 321.43 96.8697C320.25 69.9997 301.58 53.6897 279.94 53.7197Z" fill="#3DAA3D"/>
<g opacity="0.3">
<path d="M272.4 113C272.364 113.975 271.946 114.897 271.238 115.568C270.529 116.24 269.586 116.606 268.61 116.59C268.133 116.605 267.658 116.523 267.212 116.351C266.767 116.179 266.361 115.919 266.018 115.587C265.675 115.256 265.402 114.858 265.215 114.419C265.028 113.98 264.931 113.507 264.93 113.03C264.972 112.056 265.39 111.137 266.098 110.467C266.805 109.797 267.746 109.429 268.72 109.44C269.197 109.427 269.672 109.509 270.116 109.681C270.561 109.854 270.966 110.114 271.309 110.445C271.652 110.777 271.925 111.174 272.112 111.613C272.3 112.051 272.398 112.523 272.4 113Z" fill="black"/>
</g>
<g opacity="0.3">
<path d="M310.39 114C310.348 114.973 309.929 115.891 309.222 116.559C308.514 117.228 307.573 117.594 306.6 117.58C306.123 117.595 305.648 117.514 305.202 117.341C304.757 117.169 304.351 116.91 304.008 116.578C303.665 116.246 303.392 115.848 303.205 115.409C303.018 114.97 302.921 114.497 302.92 114.02C302.957 113.047 303.372 112.126 304.079 111.455C304.785 110.784 305.726 110.416 306.7 110.43C307.178 110.417 307.654 110.499 308.1 110.672C308.546 110.845 308.953 111.106 309.296 111.439C309.64 111.771 309.914 112.169 310.102 112.609C310.29 113.049 310.388 113.522 310.39 114Z" fill="black"/>
</g>
<g opacity="0.3">
<path d="M317.58 104.569C317.1 105.029 314.37 102.799 310.35 102.569C306.33 102.339 303.29 104.239 302.88 103.719C302.67 103.499 303.19 102.639 304.52 101.719C306.315 100.604 308.41 100.07 310.52 100.189C312.612 100.286 314.619 101.046 316.25 102.359C317.5 103.459 317.82 104.359 317.58 104.569Z" fill="black"/>
</g>
<g opacity="0.3">
<path d="M276.8 105C276.27 105.41 273.8 102.9 269.8 102.3C265.8 101.7 262.6 103.24 262.24 102.68C262.06 102.44 262.66 101.68 264.08 100.91C265.983 99.9792 268.128 99.6613 270.22 99.9999C272.288 100.316 274.203 101.278 275.69 102.75C276.77 103.87 277.06 104.81 276.8 105Z" fill="black"/>
</g>
<g opacity="0.3">
<path d="M290.84 134.24C290.84 134.01 293.35 133.71 297.43 133.39C298.43 133.39 299.43 133.18 299.65 132.49C299.87 131.8 299.55 130.63 299.11 129.41L296.47 121.41C292.81 110.07 290.22 100.77 290.68 100.63C291.14 100.49 294.47 109.56 298.13 120.89C299.01 123.69 299.85 126.35 300.64 128.89C300.97 130.07 301.58 131.43 300.97 132.94C300.805 133.295 300.56 133.608 300.255 133.854C299.95 134.101 299.593 134.273 299.21 134.36C298.636 134.487 298.047 134.538 297.46 134.51C293.37 134.58 290.84 134.47 290.84 134.24Z" fill="black"/>
</g>
<g opacity="0.2">
<path d="M291.23 181.94C277.507 181.46 264.186 177.181 252.75 169.58C252.75 169.58 261.55 190.23 290.83 188.97L291.23 181.94Z" fill="black"/>
</g>
<path d="M288.65 143.84C287.934 142.841 286.975 142.042 285.864 141.517C284.753 140.992 283.526 140.759 282.3 140.84C281.409 140.874 280.534 141.088 279.728 141.47C278.922 141.851 278.201 142.392 277.61 143.06C277.04 143.702 276.681 144.504 276.581 145.357C276.481 146.21 276.645 147.073 277.05 147.83C278.05 149.41 280.31 149.88 282.25 149.43C284.182 148.853 285.981 147.898 287.54 146.62C288.007 146.318 288.417 145.936 288.75 145.49C288.906 145.274 288.996 145.017 289.009 144.75C289.021 144.484 288.956 144.22 288.82 143.99" fill="#3DAA3D"/>
<g opacity="0.2">
<path d="M288.65 143.84C287.934 142.841 286.975 142.042 285.864 141.517C284.753 140.992 283.526 140.759 282.3 140.84C281.409 140.874 280.534 141.088 279.728 141.47C278.922 141.851 278.201 142.392 277.61 143.06C277.04 143.702 276.681 144.504 276.581 145.357C276.481 146.21 276.645 147.073 277.05 147.83C278.05 149.41 280.31 149.88 282.25 149.43C284.182 148.853 285.981 147.898 287.54 146.62C288.007 146.318 288.417 145.936 288.75 145.49C288.906 145.274 288.996 145.017 289.009 144.75C289.021 144.484 288.956 144.22 288.82 143.99" fill="black"/>
</g>
<g opacity="0.3">
<path d="M279.95 90.4598C279.16 91.3198 275.66 89.2798 271.09 87.9698C266.52 86.6598 262.5 86.3598 262.31 85.2098C262.23 84.6698 263.24 83.9798 265.07 83.5998C267.468 83.2007 269.926 83.3536 272.257 84.0467C274.587 84.7398 276.729 85.9549 278.52 87.5998C279.84 88.9198 280.31 90.0498 279.95 90.4598Z" fill="black"/>
</g>
<g opacity="0.3">
<path d="M314.95 94.9995C314.32 95.9995 311.48 95.2395 308.15 95.4595C304.82 95.6795 302.06 96.5495 301.34 95.6495C301.02 95.2095 301.39 94.2695 302.55 93.3095C304.121 92.1341 306.008 91.4547 307.968 91.3585C309.927 91.2623 311.871 91.7536 313.55 92.7695C314.77 93.6095 315.23 94.5195 314.95 94.9995Z" fill="black"/>
</g>
<path d="M230.84 126.31C230.84 126.31 251.42 132.71 263.07 81.9097C267.07 64.5397 283.16 50.4697 283.16 50.4697L276.62 48.4697C276.62 48.4697 236.03 59.9097 235.35 60.4697C234.67 61.0297 225.11 81.4697 225.11 81.4697L230.84 126.31Z" fill="#3DAA3D"/>
<path d="M235.91 124.42C236.01 122.25 233.76 117.01 231.64 116.57C225.96 115.39 215.64 115.33 214.81 129.85C213.68 149.7 233.81 146.74 233.91 146.17C234.01 145.6 235.55 131.91 235.91 124.42Z" fill="#3DAA3D"/>
<g opacity="0.3">
<path d="M228.27 138.31C228.19 138.24 227.91 138.53 227.27 138.76C226.431 139.069 225.505 139.037 224.69 138.67C222.63 137.78 221.06 134.35 221.16 130.77C221.206 129.064 221.633 127.39 222.41 125.87C222.632 125.262 222.998 124.717 223.477 124.281C223.956 123.846 224.534 123.533 225.16 123.37C225.565 123.283 225.987 123.342 226.353 123.536C226.719 123.73 227.005 124.046 227.16 124.43C227.39 125 227.24 125.43 227.35 125.43C227.46 125.43 227.79 125.12 227.68 124.29C227.596 123.792 227.345 123.338 226.97 123C226.448 122.558 225.772 122.339 225.09 122.39C223.55 122.39 222.09 123.74 221.3 125.26C220.353 126.931 219.834 128.81 219.79 130.73C219.69 134.73 221.52 138.59 224.34 139.58C224.865 139.767 225.425 139.833 225.979 139.774C226.533 139.715 227.066 139.533 227.54 139.24C228.21 138.78 228.34 138.34 228.27 138.31Z" fill="black"/>
</g>
<g opacity="0.3">
<path d="M230.84 126.31C230.84 126.31 251.42 132.71 263.07 81.9097C267.07 64.5397 283.16 50.4697 283.16 50.4697L276.62 48.4697C276.62 48.4697 236.03 59.9097 235.35 60.4697C234.67 61.0297 225.11 81.4697 225.11 81.4697L230.84 126.31Z" fill="black"/>
</g>
<path d="M278.87 136.43C279.53 136.43 279.32 140.79 282.87 144.07C286.42 147.35 291.11 147.07 291.12 147.72C291.12 147.99 290.04 148.51 288.12 148.47C285.562 148.378 283.119 147.386 281.22 145.67C279.401 144.02 278.294 141.73 278.13 139.28C278.04 137.44 278.58 136.39 278.87 136.43Z" fill="#3DAA3D"/>
<g opacity="0.3">
<path d="M278.87 136.43C279.53 136.43 279.32 140.79 282.87 144.07C286.42 147.35 291.11 147.07 291.12 147.72C291.12 147.99 290.04 148.51 288.12 148.47C285.562 148.378 283.119 147.386 281.22 145.67C279.401 144.02 278.294 141.73 278.13 139.28C278.04 137.44 278.58 136.39 278.87 136.43Z" fill="black"/>
</g>
<path d="M434.79 137.71C434.79 137.71 461.32 191.09 465.79 202.31C469.69 212.02 491.25 257.51 484.58 270.13C477.91 282.75 472 282.13 462.71 282.6C453.42 283.07 392.99 280.6 377.32 279.97C357.39 279.14 335.46 273.48 335.46 273.48L345.74 218.79L425.63 233.65L412.13 146.86L434.79 137.71Z" fill="#3DAA3D"/>
<path d="M434.94 138.109C434.94 138.109 430.34 129.929 427.49 127.969C424.64 126.009 401.49 105.709 401.49 105.709C401.49 105.709 392.41 96.0893 389.91 96.6293C387.41 97.1693 363.72 112.999 363.5 115.509C363.28 118.019 364.57 119.419 366 119.779C367.43 120.139 365.28 121.779 369 125.479C369 125.479 365.44 125.299 365.62 128.689C365.8 132.079 365.62 136.689 367.94 136.879C370.26 137.069 377.55 139.199 377.94 135.279L378.65 133.669C382.398 136.313 386.397 138.58 390.59 140.439C396.29 142.759 405.37 142.579 405.37 142.579C406.977 144.84 409.409 146.377 412.14 146.859C416.44 147.389 434.94 138.109 434.94 138.109Z" fill="#3DAA3D"/>
<g opacity="0.3">
<path d="M399.44 123.479C399.36 123.419 398.58 124.319 398.2 126.159C397.79 128.546 398.162 131.001 399.26 133.159C400.352 135.274 401.796 137.188 403.53 138.819C404.82 140.069 405.69 140.759 405.78 140.669C405.87 140.579 405.16 139.729 404 138.379C402.468 136.676 401.155 134.788 400.09 132.759C399.077 130.74 398.644 128.48 398.84 126.229C399.03 124.529 399.58 123.549 399.44 123.479Z" fill="black"/>
</g>
<g opacity="0.3">
<path d="M388.5 128.18C388.45 128.18 388.5 128.38 388.69 128.57C389.006 128.805 389.399 128.912 389.79 128.87C390.385 128.794 390.958 128.597 391.474 128.29C391.99 127.984 392.438 127.576 392.79 127.09C393.523 126.152 393.912 124.99 393.89 123.8C393.84 122.9 393.54 122.4 393.44 122.44C393.34 122.48 393.35 122.99 393.24 123.77C393.081 124.773 392.676 125.722 392.06 126.53C391.464 127.332 390.632 127.926 389.68 128.23C389.02 128.43 388.64 128.11 388.5 128.18Z" fill="black"/>
</g>
<g opacity="0.3">
<path d="M397.42 105.519C397.052 105.379 396.657 105.322 396.265 105.353C395.872 105.384 395.491 105.502 395.15 105.699C394.32 106.091 393.593 106.674 393.03 107.399C392.35 108.219 391.76 109.239 391.03 110.309C389.369 112.838 387.573 115.275 385.65 117.609C384.57 118.929 383.39 120.279 382.12 121.609C381.389 122.304 380.792 123.128 380.36 124.039C380.158 124.561 380.084 125.124 380.143 125.68C380.202 126.237 380.393 126.771 380.7 127.239C381.255 128.093 381.929 128.864 382.7 129.529C383.42 130.179 384.14 130.809 384.87 131.399C386.27 132.57 387.762 133.626 389.33 134.559C390.119 135.012 391.01 135.256 391.92 135.269C392.778 135.242 393.615 134.994 394.35 134.549C395.638 133.808 396.71 132.743 397.46 131.459C397.778 130.915 397.969 130.305 398.017 129.676C398.066 129.048 397.971 128.416 397.74 127.829C397.565 127.381 397.274 126.988 396.896 126.691C396.518 126.393 396.067 126.203 395.59 126.139C394.999 126.049 394.397 126.193 393.91 126.539C393.59 126.789 393.51 126.989 393.52 126.999C393.796 126.773 394.118 126.61 394.463 126.522C394.809 126.434 395.17 126.423 395.52 126.489C395.918 126.571 396.288 126.756 396.592 127.027C396.896 127.297 397.123 127.643 397.25 128.029C397.422 128.543 397.478 129.088 397.414 129.626C397.35 130.164 397.168 130.681 396.88 131.139C396.149 132.284 395.141 133.226 393.95 133.879C393.326 134.25 392.616 134.45 391.89 134.459C391.121 134.43 390.372 134.21 389.71 133.819C388.203 132.89 386.769 131.847 385.42 130.699C384.71 130.119 384 129.499 383.29 128.849C382.604 128.25 382.001 127.56 381.5 126.799C381.264 126.451 381.116 126.051 381.067 125.633C381.018 125.216 381.071 124.792 381.22 124.399C381.611 123.595 382.143 122.867 382.79 122.249C384.057 120.869 385.233 119.503 386.32 118.149C388.233 115.766 389.993 113.264 391.59 110.659C392.28 109.549 392.83 108.519 393.43 107.719C393.923 107.024 394.561 106.444 395.3 106.019C395.958 105.69 396.684 105.519 397.42 105.519Z" fill="black"/>
</g>
<g opacity="0.3">
<path d="M393.23 122.54C393.12 122.6 393.23 123.02 393.62 123.54C394.166 124.25 394.906 124.789 395.75 125.09C396.591 125.401 397.503 125.467 398.38 125.28C399.05 125.11 399.38 124.84 399.38 124.74C399.38 124.64 397.79 124.87 396.1 124.23C394.41 123.59 393.5 122.4 393.23 122.54Z" fill="black"/>
</g>
<g opacity="0.3">
<path d="M388.09 102.31C387.583 102.724 387.126 103.198 386.73 103.72C385.9 104.66 384.73 106.04 383.29 107.72L378.29 113.8L375.35 117.41C374.224 118.683 373.22 120.059 372.35 121.52C371.867 122.29 371.581 123.167 371.516 124.073C371.452 124.98 371.611 125.889 371.98 126.72C372.832 128.101 373.984 129.273 375.35 130.15C377.74 131.93 379.75 133.64 381.73 134.86C382.635 135.43 383.664 135.773 384.73 135.86C385.539 135.89 386.341 135.7 387.05 135.31C388.21 134.62 388.35 133.77 388.31 133.79C387.925 134.288 387.438 134.697 386.88 134.99C386.217 135.294 385.486 135.418 384.76 135.35C383.801 135.23 382.883 134.888 382.08 134.35C380.27 133.14 378.23 131.35 375.89 129.53C374.649 128.706 373.596 127.629 372.8 126.37C372.503 125.665 372.383 124.898 372.451 124.136C372.519 123.374 372.773 122.641 373.19 122C374.028 120.585 374.988 119.246 376.06 118L378.96 114.36L383.82 108.15C385.2 106.38 386.3 104.93 387.04 103.92C387.457 103.43 387.81 102.889 388.09 102.31Z" fill="black"/>
</g>
<g opacity="0.3">
<path d="M380.37 104.14C380.14 103.98 377.23 108.47 372.37 112.78C371.172 113.788 370.059 114.892 369.04 116.08C368.201 117.091 367.581 118.266 367.22 119.53C366.64 121.76 367.39 123.13 367.47 123.06C367.4 121.933 367.529 120.802 367.85 119.72C368.259 118.576 368.888 117.523 369.7 116.62C370.724 115.496 371.823 114.444 372.99 113.47C375.103 111.589 377.002 109.479 378.65 107.18C379.39 106.271 379.972 105.243 380.37 104.14Z" fill="black"/>
</g>
<g opacity="0.3">
<path d="M369.18 129.529C369.18 129.849 371.8 129.529 374.61 130.479C375.799 130.901 376.862 131.617 377.7 132.559C378.34 133.289 378.59 133.879 378.7 133.829C378.81 133.779 378.78 133.109 378.21 132.169C377.421 130.979 376.261 130.082 374.91 129.619C373.597 129.165 372.203 128.998 370.82 129.129C369.79 129.219 369.17 129.409 369.18 129.529Z" fill="black"/>
</g>
<path opacity="0.3" d="M425.88 233.099C426.107 234.181 426.523 235.213 427.11 236.149C428.334 238.495 429.81 240.702 431.51 242.729C433.21 244.763 435.12 246.61 437.21 248.239C438.03 248.977 438.97 249.569 439.99 249.989C440.16 249.759 436.11 246.829 432.22 242.139C428.33 237.449 426.13 232.999 425.88 233.099Z" fill="black"/>
<path opacity="0.2" d="M367.11 279.169L376.16 224.439L382.35 225.589L375.21 279.859L367.11 279.169Z" fill="black"/>
<path d="M64.2 116.399C64.2 116.399 37.67 169.789 33.2 180.999C29.3 190.709 7.74003 236.199 14.41 248.819C21.08 261.439 27 260.819 36.28 261.289C45.56 261.759 106 259.289 121.67 258.659C141.61 257.829 163.53 252.169 163.53 252.169L153.25 197.479L73.33 212.339L86.82 125.549L64.2 116.399Z" fill="#3DAA3D"/>
<path d="M64.05 116.8C64.05 116.8 68.6601 108.63 71.5101 106.67C74.3601 104.71 97.5 84.3998 97.5 84.3998C97.5 84.3998 106.58 74.7798 109.08 75.3198C111.58 75.8598 135.27 91.6998 135.5 94.1998C135.73 96.6998 134.43 98.1198 133.01 98.4698C131.59 98.8198 133.72 100.47 130.01 104.17C130.01 104.17 132.52 104.1 133.39 107.38C134.26 110.66 134.39 113.7 131.08 115.57C128.56 116.99 122.56 118.41 120.46 112.57L120.39 112.42C116.645 115.059 112.649 117.324 108.46 119.18C102.76 121.5 93.67 121.32 93.67 121.32C92.063 123.58 89.6312 125.117 86.9001 125.6C82.5501 126.08 64.05 116.8 64.05 116.8Z" fill="#3DAA3D"/>
<g opacity="0.3">
<path d="M99.55 102.17C99.63 102.11 100.42 103.01 100.8 104.85C101.201 107.238 100.826 109.691 99.73 111.85C98.6527 113.973 97.2223 115.897 95.5 117.54C94.8599 118.282 94.0992 118.911 93.25 119.4C93.16 119.3 93.87 118.4 95.03 117.1C96.5617 115.396 97.8752 113.508 98.94 111.48C99.9363 109.474 100.355 107.23 100.15 105C99.97 103.22 99.41 102.24 99.55 102.17Z" fill="black"/>
</g>
<g opacity="0.3">
<path d="M110.5 106.869C110.5 106.869 110.5 107.069 110.3 107.259C109.984 107.494 109.592 107.604 109.2 107.569C108.606 107.49 108.034 107.291 107.518 106.985C107.003 106.68 106.554 106.273 106.2 105.789C105.461 104.85 105.069 103.684 105.09 102.489C105.15 101.589 105.44 101.099 105.55 101.129C105.66 101.159 105.63 101.679 105.74 102.459C105.899 103.463 106.304 104.411 106.92 105.219C107.516 106.021 108.348 106.616 109.3 106.919C109.97 107.129 110.35 106.799 110.5 106.869Z" fill="black"/>
</g>
<g opacity="0.3">
<path d="M101.58 84.2096C101.946 84.0684 102.339 84.0113 102.731 84.0425C103.122 84.0736 103.501 84.1922 103.84 84.3896C104.672 84.779 105.399 85.3619 105.96 86.0896C106.64 86.9096 107.24 87.9396 107.96 89.0096C109.626 91.5346 111.421 93.9712 113.34 96.3096C114.42 97.6296 115.61 98.9696 116.87 100.31C117.605 101.001 118.202 101.826 118.63 102.74C118.832 103.263 118.906 103.827 118.847 104.386C118.788 104.944 118.597 105.48 118.29 105.95C117.735 106.801 117.062 107.568 116.29 108.23C115.57 108.88 114.84 109.51 114.11 110.1C112.71 111.27 111.218 112.327 109.65 113.26C108.864 113.711 107.976 113.955 107.07 113.97C106.212 113.942 105.375 113.694 104.64 113.25C103.347 112.511 102.271 111.446 101.52 110.16C101.202 109.617 101.012 109.009 100.963 108.382C100.915 107.755 101.009 107.125 101.24 106.54C101.414 106.09 101.705 105.695 102.083 105.396C102.461 105.098 102.913 104.905 103.39 104.84C103.981 104.75 104.583 104.893 105.07 105.24C105.39 105.49 105.48 105.69 105.46 105.7C105.182 105.478 104.86 105.318 104.514 105.232C104.169 105.146 103.81 105.135 103.46 105.2C103.061 105.276 102.69 105.459 102.386 105.728C102.082 105.997 101.855 106.343 101.73 106.73C101.553 107.242 101.494 107.788 101.558 108.327C101.622 108.866 101.807 109.383 102.1 109.84C102.822 110.988 103.828 111.932 105.02 112.58C105.645 112.948 106.354 113.151 107.08 113.17C107.849 113.133 108.597 112.91 109.26 112.52C110.765 111.59 112.199 110.551 113.55 109.41C114.257 108.816 114.967 108.196 115.68 107.55C116.378 106.953 116.99 106.263 117.5 105.5C117.738 105.151 117.888 104.749 117.937 104.329C117.986 103.909 117.932 103.484 117.78 103.09C117.389 102.285 116.857 101.557 116.21 100.94C114.943 99.5596 113.767 98.1929 112.68 96.8396C110.777 94.4529 109.017 91.9552 107.41 89.3596C106.72 88.2396 106.17 87.2096 105.57 86.3596C105.082 85.6601 104.443 85.0792 103.7 84.6596C103.038 84.3475 102.312 84.1935 101.58 84.2096Z" fill="black"/>
</g>
<g opacity="0.3">
<path d="M105.77 101.23C105.87 101.29 105.77 101.71 105.38 102.23C104.823 102.931 104.082 103.464 103.24 103.77C102.398 104.075 101.487 104.141 100.61 103.96C99.94 103.79 99.61 103.53 99.61 103.42C99.61 103.31 101.21 103.55 102.89 102.91C104.57 102.27 105.5 101.1 105.77 101.23Z" fill="black"/>
</g>
<g opacity="0.3">
<path d="M110.9 81C111.41 81.4114 111.867 81.8851 112.26 82.41C113.09 83.35 114.26 84.74 115.71 86.41L120.71 92.49L123.65 96.1C124.773 97.3756 125.777 98.7514 126.65 100.21C127.133 100.98 127.419 101.857 127.484 102.764C127.548 103.671 127.389 104.579 127.02 105.41C126.168 106.791 125.016 107.963 123.65 108.84C121.26 110.62 119.25 112.33 117.27 113.55C116.365 114.12 115.336 114.464 114.27 114.55C113.464 114.584 112.664 114.394 111.96 114C110.79 113.31 110.65 112.47 110.69 112.49C111.078 112.985 111.565 113.394 112.12 113.69C112.785 113.986 113.515 114.106 114.24 114.04C115.199 113.92 116.117 113.578 116.92 113.04C118.73 111.84 120.77 110.04 123.11 108.23C124.352 107.403 125.405 106.322 126.2 105.06C126.499 104.356 126.62 103.59 126.554 102.828C126.487 102.066 126.236 101.332 125.82 100.69C124.978 99.2755 124.014 97.9371 122.94 96.69L120.04 93.04L115.18 86.84C113.8 85.06 112.7 83.61 111.96 82.6C111.544 82.1111 111.188 81.5739 110.9 81Z" fill="black"/>
</g>
<g opacity="0.3">
<path d="M118.62 82.8293C118.85 82.6693 121.76 87.1593 126.62 91.4693C127.815 92.4799 128.929 93.5834 129.95 94.7693C130.793 95.7783 131.413 96.954 131.77 98.2193C132.35 100.449 131.6 101.819 131.53 101.749C131.588 100.623 131.459 99.4943 131.15 98.4094C130.735 97.2713 130.107 96.2227 129.3 95.3193C128.274 94.195 127.175 93.1394 126.01 92.1594C123.891 90.2809 121.989 88.1711 120.34 85.8694C119.598 84.9614 119.016 83.9333 118.62 82.8293Z" fill="black"/>
</g>
<g opacity="0.3">
<path d="M130.33 108.58C130.33 108.91 127.72 108.58 124.9 109.58C123.714 110.001 122.651 110.713 121.81 111.65C121.17 112.38 120.93 112.97 120.81 112.93C120.69 112.89 120.73 112.2 121.31 111.27C122.101 110.078 123.26 109.179 124.61 108.71C125.925 108.264 127.317 108.097 128.7 108.22C129.72 108.27 130.34 108.46 130.33 108.58Z" fill="black"/>
</g>
<path opacity="0.3" d="M73.12 211.789C72.8876 212.869 72.4715 213.901 71.89 214.839C69.4153 219.541 65.969 223.662 61.78 226.929C60.9601 227.667 60.0198 228.259 59 228.679C58.83 228.449 62.88 225.529 66.77 220.829C70.66 216.129 72.86 211.669 73.12 211.789Z" fill="black"/>
<path opacity="0.2" d="M138.06 257.22L127.72 202.22L121.82 203.32L128.88 258.17L138.06 257.22Z" fill="black"/>
<path d="M176.44 396.55C176.44 396.55 163.44 308.35 163.49 295.55C163.49 290.55 160.81 257.39 160.81 257.39L138.44 259.39L127.1 199.15C127.1 199.15 171.56 191.15 183.51 190.54C195.46 189.93 235.67 196.07 235.67 196.07L307.2 207.36C307.2 207.36 327.01 210.53 326.81 210.36L376.37 223.18L367.04 279.59L337.5 278.43L337.69 314.1C337.3 316.8 339.62 330.29 321.88 351.88L318.88 389.45L332.18 457.8H167.99L176.44 396.55Z" fill="#3DAA3D"/>
<g opacity="0.3">
<path d="M290.44 204.72C290.59 204.81 290.2 205.83 289.02 207.37C287.314 209.514 285.262 211.36 282.95 212.83C279.516 215.043 275.691 216.581 271.68 217.36C270.55 217.53 269.39 217.77 268.2 217.9C267.01 218.03 265.78 218.12 264.54 218.16C263.3 218.2 262.03 218.16 260.74 218.16L256.84 217.77C251.866 217.071 247.095 215.33 242.84 212.66C239.403 210.465 236.396 207.659 233.97 204.38C232.329 202.204 230.983 199.82 229.97 197.29C229.28 195.49 229.13 194.42 229.3 194.37C229.47 194.32 229.94 195.24 230.89 196.85C232.194 199.112 233.7 201.25 235.39 203.24C237.869 206.157 240.808 208.65 244.09 210.62C248.115 212.987 252.566 214.54 257.19 215.19C261.836 215.863 266.559 215.812 271.19 215.04C274.966 214.414 278.608 213.149 281.96 211.3C284.229 210.039 286.335 208.504 288.23 206.73C289.62 205.42 290.29 204.63 290.44 204.72Z" fill="black"/>
</g>
<g opacity="0.3">
<path d="M290.42 298.71C290.7 298.62 292.07 302.06 292.37 307.97C292.53 311.43 292.258 314.897 291.56 318.29C289.877 326.7 285.695 334.406 279.56 340.4C277.092 342.836 274.331 344.955 271.34 346.71C266.22 349.71 262.59 350.39 262.51 350.11C262.43 349.83 265.69 348.39 270.35 345.16C276.424 341.017 281.421 335.483 284.925 329.02C288.43 322.557 290.341 315.35 290.5 308C290.71 302.31 290 298.79 290.42 298.71Z" fill="black"/>
</g>
<path d="M76.5 381.87C76.561 380.958 76.8387 380.074 77.31 379.291C77.7814 378.509 78.4327 377.85 79.21 377.37C103.27 361.45 121.4 326.15 123.21 296.27C123.21 294.57 123.31 292.84 123.37 291.1C124.76 248.38 131.05 196.56 136.7 182.75C147.14 157.22 182.5 154.82 182.5 154.82C229.41 151.47 237.78 187.51 242.5 220.34C245.44 240.75 256.79 313.67 256.79 313.67L248.15 317C238 347.09 215.15 371.43 185.4 382.63C176.76 385.88 169.4 387.19 166 384.39C152.286 398.324 135.325 408.633 116.64 414.39C109.07 416.7 101.13 418.24 93.24 417.5C88.13 417.02 82.73 415.33 79.67 411.19C78.3449 409.396 77.5573 407.262 77.399 405.037C77.2408 402.813 77.7184 400.589 78.7761 398.625C79.8339 396.662 81.4282 395.04 83.373 393.948C85.3178 392.856 87.5329 392.34 89.76 392.46C87.99 386.67 76.29 388.36 76.5 381.87Z" fill="#263238"/>
<path d="M176.23 168.09L179.17 165.29L210.88 178.07C213.092 178.196 215.177 179.146 216.724 180.732C218.271 182.318 219.169 184.426 219.24 186.64L218.96 290C218.96 297 217.59 303.08 213.36 308.66L208.91 314.54C198.75 327.95 177.91 326.85 169.83 312.07C169.334 311.236 168.957 310.338 168.71 309.4C168.506 308.64 168.346 307.868 168.23 307.09C167.29 298.78 167.23 291.57 167.23 291.57C166.66 282.44 166.47 278.7 166.47 278.78C166.47 278.86 147.05 276.55 141.8 251.62C139.19 239.22 139.68 222.16 140.42 205.38C141.44 182.1 157.56 168.07 176.23 168.09Z" fill="#FFBF9D"/>
<path d="M182.73 219.26C182.764 220.1 183.125 220.893 183.736 221.471C184.347 222.048 185.159 222.363 186 222.35C186.412 222.363 186.822 222.294 187.207 222.146C187.592 221.997 187.943 221.774 188.239 221.487C188.536 221.201 188.772 220.858 188.933 220.479C189.095 220.1 189.179 219.692 189.18 219.28C189.146 218.439 188.786 217.644 188.175 217.065C187.564 216.486 186.751 216.169 185.91 216.18C185.498 216.169 185.088 216.241 184.704 216.391C184.32 216.54 183.969 216.765 183.673 217.052C183.377 217.339 183.141 217.682 182.979 218.061C182.817 218.44 182.733 218.848 182.73 219.26Z" fill="#263238"/>
<path d="M149.95 220.14C149.984 220.98 150.345 221.773 150.956 222.35C151.567 222.928 152.379 223.243 153.22 223.23C153.632 223.243 154.042 223.174 154.427 223.025C154.812 222.877 155.163 222.653 155.459 222.367C155.756 222.081 155.992 221.738 156.153 221.359C156.315 220.98 156.399 220.572 156.4 220.16C156.364 219.32 156.002 218.527 155.392 217.948C154.782 217.37 153.971 217.051 153.13 217.06C152.718 217.049 152.308 217.121 151.924 217.27C151.54 217.42 151.189 217.645 150.893 217.932C150.597 218.219 150.361 218.562 150.199 218.941C150.037 219.32 149.952 219.727 149.95 220.14Z" fill="#263238"/>
<path d="M143.74 212C144.16 212.4 146.51 210.47 149.98 210.3C153.45 210.13 156.08 211.75 156.43 211.3C156.61 211.1 156.16 210.37 155.02 209.61C153.465 208.652 151.653 208.195 149.83 208.3C148.006 208.372 146.254 209.028 144.83 210.17C143.86 211 143.5 211.8 143.74 212Z" fill="#263238"/>
<path d="M178.94 212.34C179.4 212.69 181.54 210.53 184.94 210.01C188.34 209.49 191.16 210.82 191.46 210.34C191.62 210.13 191.1 209.44 189.88 208.81C188.237 208.007 186.385 207.735 184.58 208.03C182.795 208.299 181.142 209.129 179.86 210.4C178.96 211.37 178.72 212.18 178.94 212.34Z" fill="#263238"/>
<path d="M166.82 237.58C166.82 237.39 164.65 237.12 161.14 236.85C160.25 236.85 159.4 236.67 159.22 236.07C159.098 235.16 159.259 234.235 159.68 233.42C160.41 231.23 161.16 228.94 161.96 226.54C165.12 216.76 167.35 208.73 166.96 208.61C166.57 208.49 163.68 216.31 160.53 226.1C159.77 228.506 159.047 230.81 158.36 233.01C157.86 234.108 157.76 235.346 158.08 236.51C158.224 236.815 158.436 237.084 158.699 237.295C158.962 237.507 159.271 237.655 159.6 237.73C160.096 237.837 160.603 237.88 161.11 237.86C164.64 237.87 166.82 237.78 166.82 237.58Z" fill="#263238"/>
<path d="M166.5 278.74C178.343 278.33 189.84 274.64 199.71 268.08C199.71 268.08 192.12 285.9 166.85 284.81L166.5 278.74Z" fill="#FF9A6C"/>
<path d="M168.71 245.869C169.326 245.005 170.153 244.312 171.112 243.857C172.071 243.402 173.131 243.2 174.19 243.269C174.959 243.297 175.715 243.48 176.411 243.808C177.107 244.137 177.73 244.603 178.24 245.179C178.733 245.734 179.043 246.427 179.129 247.164C179.214 247.901 179.072 248.646 178.72 249.299C177.85 250.669 175.91 251.069 174.23 250.679C172.566 250.18 171.016 249.358 169.67 248.259C169.281 247.986 168.943 247.648 168.67 247.259C168.535 247.074 168.457 246.853 168.446 246.623C168.435 246.394 168.492 246.166 168.61 245.969" fill="#FF9A6C"/>
<path d="M177.15 239.469C176.58 239.469 176.76 243.229 173.68 246.059C170.6 248.889 166.56 248.679 166.56 249.209C166.56 249.449 167.49 249.899 169.18 249.859C171.402 249.789 173.527 248.936 175.18 247.449C176.75 246.024 177.707 244.046 177.85 241.929C177.87 240.349 177.4 239.439 177.15 239.469Z" fill="#263238"/>
<path d="M175.62 198.82C176.1 199.7 179.46 198.73 183.56 198.6C187.66 198.47 191.09 199.06 191.49 198.15C191.67 197.71 190.97 196.92 189.49 196.21C187.567 195.37 185.477 194.98 183.38 195.07C181.283 195.16 179.234 195.728 177.39 196.73C176.04 197.55 175.4 198.4 175.62 198.82Z" fill="#263238"/>
<path d="M144.24 197.08C144.89 197.83 147.24 196.9 150.11 196.71C152.98 196.52 155.44 196.98 155.96 196.12C156.19 195.71 155.76 194.94 154.66 194.25C153.187 193.428 151.504 193.063 149.823 193.2C148.142 193.337 146.54 193.97 145.22 195.02C144.24 195.88 143.95 196.7 144.24 197.08Z" fill="#263238"/>
<path d="M218.6 230.74C218.6 230.74 200.84 236.27 190.79 192.42C187.35 177.42 173.45 165.29 173.45 165.29L179.09 163.6C179.09 163.6 214.09 173.47 214.71 173.91C215.33 174.35 223.5 192 223.5 192L218.6 230.74Z" fill="#263238"/>
<path d="M214.22 229.1C214.14 227.23 216.08 222.71 217.91 222.33C222.81 221.33 231.72 221.26 232.44 233.79C233.44 250.92 216.01 248.37 215.95 247.88C215.89 247.39 214.5 235.57 214.22 229.1Z" fill="#FFBF9D"/>
<path d="M220.82 241.09C220.89 241.03 221.13 241.28 221.64 241.48C222.369 241.744 223.172 241.715 223.88 241.4C225.65 240.64 227.01 237.68 226.88 234.59C226.836 233.118 226.467 231.673 225.8 230.36C225.617 229.843 225.312 229.376 224.912 229.001C224.512 228.625 224.028 228.35 223.5 228.2C223.152 228.127 222.79 228.177 222.475 228.344C222.161 228.51 221.915 228.781 221.78 229.11C221.58 229.61 221.71 229.94 221.62 229.98C221.53 230.02 221.23 229.71 221.33 228.98C221.401 228.549 221.616 228.154 221.94 227.86C222.396 227.482 222.979 227.292 223.57 227.33C224.281 227.432 224.954 227.713 225.526 228.147C226.098 228.581 226.55 229.153 226.84 229.81C227.648 231.255 228.094 232.875 228.14 234.53C228.23 237.99 226.65 241.32 224.21 242.17C223.757 242.333 223.274 242.39 222.795 242.338C222.317 242.286 221.857 242.126 221.45 241.87C220.87 241.5 220.76 241.12 220.82 241.09Z" fill="#FF9A6C"/>
<path d="M206.55 222.35C205.687 222.226 204.833 222.052 203.99 221.829C201.71 221.137 199.622 219.925 197.89 218.289C196.688 217.179 195.62 215.93 194.71 214.57C193.683 212.993 192.815 211.318 192.12 209.57C190.637 205.495 189.405 201.334 188.43 197.109C187.23 192.649 185.92 188.429 184.49 184.679C183.248 181.344 181.753 178.108 180.02 174.999C178.856 172.91 177.546 170.905 176.1 168.999C175.6 168.319 175.16 167.829 174.87 167.479C174.737 167.298 174.586 167.131 174.42 166.979C174.532 167.176 174.659 167.363 174.8 167.539C175.06 167.899 175.48 168.409 175.96 169.109C177.343 171.05 178.605 173.074 179.74 175.169C181.416 178.288 182.873 181.519 184.1 184.839C185.5 188.589 186.79 192.789 187.99 197.249C188.97 201.491 190.219 205.667 191.73 209.749C192.448 211.52 193.339 213.215 194.39 214.809C195.331 216.185 196.432 217.444 197.67 218.559C199.455 220.2 201.604 221.393 203.94 222.039C204.791 222.266 205.67 222.371 206.55 222.35Z" fill="#263238"/>
<path d="M229.97 295.439C230.048 295.167 230.108 294.89 230.15 294.609C230.26 294.009 230.4 293.199 230.58 292.179C230.95 289.979 231.47 286.849 232.12 282.879L231.71 282.819C231.62 283.439 231.53 284.129 231.43 284.819V284.759C231.32 284.989 231.19 285.249 231.07 285.529L231.5 285.679C234.112 276.662 235.948 267.439 236.99 258.109C237.655 252.185 238.005 246.23 238.04 240.269C237.98 234.009 238.04 227.359 236.35 220.719C235.664 217.998 234.614 215.381 233.23 212.939C231.868 210.594 230.281 208.387 228.49 206.349C225.01 202.349 221.26 198.859 217.83 195.429L199.5 177.349L187.01 165.199L183.6 161.929L182.7 161.089C182.607 160.985 182.499 160.894 182.38 160.819C182.455 160.941 182.546 161.052 182.65 161.149L183.49 162.039C184.29 162.849 185.4 163.979 186.8 165.419L199.07 177.749C204.29 182.939 210.47 189.109 217.34 195.959C220.76 199.409 224.5 202.889 227.93 206.859C231.581 210.866 234.215 215.691 235.61 220.929C237.25 227.429 237.23 234.049 237.3 240.289C237.276 246.223 236.942 252.151 236.3 258.049C235.302 267.353 233.549 276.56 231.06 285.579L231.49 285.739C231.61 285.459 231.73 285.199 231.83 284.959C231.92 284.249 232.01 283.559 232.08 282.959L231.67 282.899C231.1 286.899 230.67 290.029 230.32 292.229C230.19 293.229 230.08 294.079 230 294.679C229.967 294.931 229.957 295.186 229.97 295.439Z" fill="#455A64"/>
<path d="M243.5 216.25C243.435 215.994 243.334 215.748 243.2 215.52C242.93 214.99 242.6 214.32 242.2 213.52C241.33 211.78 239.96 209.31 238.2 206.32C236.44 203.33 234.12 199.85 231.42 196.11C228.72 192.37 225.53 188.42 221.98 184.45C218.43 180.48 214.79 176.93 211.38 173.82C207.97 170.71 204.74 168.09 201.95 165.99C199.16 163.89 196.86 162.26 195.22 161.22L193.32 160.01C193.109 159.852 192.876 159.724 192.63 159.63C192.808 159.825 193.009 159.996 193.23 160.14C193.72 160.5 194.32 160.93 195.04 161.47C196.63 162.59 198.88 164.28 201.61 166.47C204.34 168.66 207.5 171.29 210.89 174.39C214.28 177.49 217.76 181 221.32 185C224.88 189 228.01 192.89 230.76 196.57C233.51 200.25 235.81 203.69 237.65 206.64C239.49 209.59 240.94 212 241.88 213.7L243.01 215.64C243.15 215.861 243.314 216.066 243.5 216.25Z" fill="#455A64"/>
<path d="M220.62 354.319C221.068 353.789 221.463 353.216 221.8 352.609C222.52 351.489 223.55 349.859 224.87 347.879C228.267 342.709 231.939 337.725 235.87 332.949C239.761 328.148 244.167 323.789 249.01 319.949C251.084 318.445 253.237 317.053 255.46 315.779C254.792 315.974 254.146 316.236 253.53 316.559C252.791 316.9 252.076 317.291 251.39 317.729C250.457 318.268 249.556 318.859 248.69 319.499C243.698 323.263 239.191 327.63 235.27 332.499C231.298 337.292 227.653 342.347 224.36 347.629C223.1 349.629 222.14 351.329 221.5 352.499C221.151 353.077 220.856 353.687 220.62 354.319Z" fill="#263238"/>
<path d="M234.81 439.36L263.2 312.94L234.2 297.45C233.6 296.58 218.93 289.96 218.93 289.96C215.053 296.211 209.95 301.613 203.93 305.84C186.37 316.44 168.75 307.78 167.25 291.53L151.17 296.05L120.17 301.4C120.17 301.4 94.88 367.3 98.23 393.08C101.58 418.86 96.91 463.47 96.91 463.47L94.3 478.22L120.69 478.76H125.03L183.89 478.43L235.26 478.22C229.18 460.8 234.81 439.36 234.81 439.36Z" fill="#455A64"/>
<path d="M76.84 450.06C71.8357 450.301 66.8621 449.155 62.4669 446.75C58.0717 444.346 54.4256 440.774 51.93 436.43C50.262 433.563 49.3565 430.316 49.3 427C49.3 413.27 57.85 393.58 60.69 386.49C64.78 376.27 103.77 305.49 108.46 306.49C113.15 307.49 115.7 307.86 115.7 307.86L93.5 408.56L164.11 420.14L156.36 447.14L76.84 450.06Z" fill="#FFBF9D"/>
<path d="M75.01 343.489L110.89 362.489L122.75 301.359C122.75 301.359 107.55 302.729 102.53 309.109C97.51 315.489 75.01 343.489 75.01 343.489Z" fill="#455A64"/>
<path d="M118.5 412.66L108.83 391.66L104.61 376.14L91.76 366.14C91.76 366.14 87.5 366.64 88.82 369.95C90.14 373.26 96.6 379.21 96.6 379.21L100.4 389.82L94.22 379.04L85.22 374.58L76.29 375.24C76.29 375.24 74.64 379.24 78.78 379.37H83.24L90.02 384.83L94.26 395.08L87.87 385.16L78.44 381.81L72.44 383.34C72.44 383.34 70.79 385.99 73.76 386.34C76.73 386.69 78.76 386.67 78.76 386.67L84.21 389.84L89.01 399.9L80.57 393L69.66 391.7C69.66 391.7 67.84 394.33 70.66 395.32C73.5398 396.508 76.3568 397.843 79.1 399.32L85.17 407.71L118.5 412.66Z" fill="#FFBF9D"/>
<path d="M118.5 412.659L85.12 407.819H85.05V407.759L78.95 399.379L79.02 399.429C77.11 398.429 75.12 397.429 73.02 396.489C72.49 396.259 71.96 396.019 71.42 395.809C70.8452 395.622 70.2921 395.374 69.77 395.069C69.4943 394.883 69.2695 394.631 69.1158 394.336C68.9621 394.041 68.8845 393.712 68.89 393.379C68.9228 392.728 69.1338 392.099 69.5 391.559L69.56 391.459H69.7L80.61 392.749H80.68L89.12 399.689L88.76 399.969L83.95 389.969L84.05 390.069L78.59 386.899H78.72C77.27 386.899 75.78 386.779 74.25 386.619C73.8272 386.643 73.4044 386.573 73.0119 386.414C72.6194 386.255 72.267 386.011 71.98 385.699C71.7373 385.309 71.6583 384.838 71.76 384.389C71.8497 383.974 72.005 383.576 72.22 383.209V383.119H72.32L78.32 381.579H78.4H78.47L87.94 384.999H88.02V385.069L94.5 394.999L94.05 395.239L91.77 389.749C91.12 388.149 90.46 386.569 89.77 384.989L89.85 385.089L83.07 379.629L83.23 379.689H80.59C79.709 379.729 78.8263 379.699 77.95 379.599C77.4727 379.544 77.0207 379.355 76.6458 379.054C76.2709 378.753 75.9882 378.353 75.83 377.899C75.6066 377 75.6803 376.053 76.04 375.199V375.059H76.21L85.14 374.399H85.21H85.27L94.27 378.869H94.33V378.939L100.51 389.719L100.07 389.919L96.4 379.319L96.46 379.419C94.195 377.331 92.1016 375.064 90.2 372.639C89.7475 372.042 89.3365 371.414 88.97 370.759C88.5694 370.094 88.3713 369.326 88.4 368.549C88.4501 368.16 88.5924 367.788 88.815 367.465C89.0376 367.141 89.3341 366.875 89.68 366.689C90.3195 366.318 91.0265 366.076 91.76 365.979H91.84H91.91L104.74 375.979H104.79V376.039L108.98 391.569L118.5 412.659L108.7 391.729L104.5 376.189L104.57 376.289L91.71 366.349H91.86C91.1878 366.443 90.5396 366.663 89.95 366.999C89.6594 367.153 89.4097 367.374 89.2218 367.643C89.0339 367.913 88.9133 368.224 88.87 368.549C88.8 369.889 89.77 371.169 90.6 372.339C92.4912 374.735 94.5712 376.976 96.82 379.039V379.089L100.63 389.699L100.2 389.899L94.01 379.129L94.12 379.219L85.12 374.759H85.25L76.32 375.419L76.54 375.269C76.2299 376.01 76.1633 376.829 76.35 377.609C76.4747 377.977 76.7037 378.301 77.0092 378.54C77.3146 378.78 77.6832 378.926 78.07 378.959C78.9203 379.047 79.7758 379.074 80.63 379.039H83.34L83.41 379.099L90.19 384.559H90.25V384.619L92.25 389.379C93.02 391.259 93.8 393.129 94.52 394.869L94.06 395.109L87.67 385.189L87.8 385.289L78.38 381.939H78.5L72.5 383.469L72.66 383.359C72.445 383.641 72.3085 383.974 72.2646 384.326C72.2207 384.677 72.2709 385.034 72.41 385.359C72.6056 385.628 72.8945 385.813 73.22 385.879C73.577 385.973 73.9419 386.033 74.31 386.059C75.82 386.209 77.31 386.309 78.73 386.329H78.79H78.85L84.3 389.499H84.37V389.569L89.16 399.629L89.61 400.579L88.8 399.909L80.37 392.909H80.49L69.58 391.599L69.77 391.509C69.4567 391.981 69.2707 392.525 69.23 393.089C69.2201 393.357 69.2793 393.623 69.4019 393.861C69.5245 394.099 69.7063 394.302 69.93 394.449C70.4312 394.727 70.9567 394.958 71.5 395.139C72.05 395.359 72.58 395.599 73.11 395.829C75.21 396.829 77.21 397.829 79.11 398.829L85.17 407.229L85.06 407.159L118.5 412.659Z" fill="#FF9A6C"/>
<g opacity="0.3">
<path d="M235.39 447.34C235.39 447.34 227.19 464.52 216.54 469.55C206.65 474.22 200.37 475.23 188.6 474.37C182.85 473.96 164.11 470.32 157.33 468.37L111.66 448.77L207.66 463.9L235.39 447.34Z" fill="black"/>
</g>
<path d="M258.82 319.21C258.82 319.21 276 313.12 276.33 351.63C276.66 390.14 231.5 454.77 223.76 461.13C216.02 467.49 207.26 471.77 184.05 468.33C154.94 464.02 113.14 448.78 113.14 448.78L138.71 425L190.61 422.66L232.8 335.93C232.8 335.93 244.42 317.53 258.82 319.21Z" fill="#FFBF9D"/>
<path d="M156.36 447.12C156.36 447.12 169.23 455.22 183.76 454.8C198.29 454.38 211.15 459.08 213.02 457.8C214.89 456.52 215.1 454.21 213.02 453.17C210.94 452.13 202.15 450.89 202.15 450.89L194.55 447.77C194.55 447.77 220.5 450 222.57 449C224.64 448 226.72 446.51 225.89 444.23C225.694 443.598 225.311 443.041 224.792 442.632C224.272 442.223 223.64 441.981 222.98 441.94C222.98 441.94 228.59 442.15 228.38 439.87C228.217 438.903 227.856 437.979 227.321 437.157C226.786 436.335 226.088 435.631 225.27 435.09C224.44 434.68 213.55 430.25 213.55 430.25L199.55 427.47L212.99 426.93L224.73 430.21C224.73 430.21 229.42 430.74 228.38 426.79C227.34 422.84 213.01 418.49 213.01 418.49L194.75 417.23C194.75 417.23 208.86 415.17 210.31 410.81C211.76 406.45 209.31 403.96 209.31 403.96C209.31 403.96 199.31 407.91 194.57 408.74C189.83 409.57 183.99 411.43 176.31 414.55C172.151 416.194 168.085 418.064 164.13 420.15" fill="#FFBF9D"/>
<path d="M164.11 420.14L164.85 419.72C165.34 419.45 166.08 419.06 167.06 418.57C169.06 417.57 171.94 416.22 175.78 414.63C180.438 412.659 185.21 410.969 190.07 409.57C191.49 409.19 192.99 408.84 194.55 408.57C196.137 408.256 197.703 407.845 199.24 407.34C202.43 406.34 205.76 405.14 209.24 403.79H209.36L209.44 403.88C210.069 404.636 210.525 405.519 210.779 406.469C211.033 407.418 211.078 408.412 210.91 409.38L210.76 410.12L210.56 410.85C210.389 411.35 210.113 411.807 209.75 412.19C209.011 412.926 208.152 413.532 207.21 413.98C205.289 414.904 203.279 415.628 201.21 416.14C199.089 416.707 196.939 417.161 194.77 417.5V417.06L213.04 418.3H213.09C216.861 419.445 220.525 420.917 224.04 422.7C224.938 423.177 225.8 423.718 226.62 424.32C227.04 424.635 227.432 424.986 227.79 425.37C228.174 425.762 228.461 426.238 228.63 426.76C228.779 427.29 228.813 427.846 228.73 428.39C228.689 428.675 228.592 428.949 228.444 429.196C228.296 429.443 228.101 429.659 227.87 429.83C226.926 430.403 225.816 430.639 224.72 430.5L212.97 427.23H213.05L199.61 427.77V427.26L209.61 429.26L213.61 430.05H213.66L225.33 434.88C226.258 435.439 227.037 436.215 227.6 437.14C228.224 438.019 228.572 439.063 228.6 440.14C228.554 440.435 228.434 440.713 228.25 440.947C228.066 441.182 227.825 441.365 227.55 441.48C227.074 441.718 226.565 441.883 226.04 441.97C225.025 442.159 223.992 442.24 222.96 442.21V441.7C223.423 441.723 223.877 441.841 224.293 442.046C224.709 442.25 225.079 442.538 225.38 442.89C225.983 443.578 226.311 444.465 226.3 445.38C226.255 445.83 226.122 446.267 225.907 446.665C225.693 447.063 225.401 447.415 225.05 447.7C224.405 448.259 223.689 448.729 222.92 449.1C222.723 449.22 222.506 449.304 222.28 449.35C222.07 449.399 221.856 449.429 221.64 449.44C221.22 449.49 220.8 449.5 220.39 449.51C219.56 449.51 218.74 449.51 217.92 449.51C216.28 449.51 214.66 449.41 213.06 449.33C206.66 449 200.5 448.49 194.5 448L194.61 447.55L202.2 450.67C205 451.09 207.72 451.54 210.37 452.14C211.03 452.3 211.69 452.46 212.37 452.68C213.05 452.862 213.669 453.225 214.16 453.73C214.4 453.999 214.577 454.318 214.677 454.664C214.778 455.01 214.799 455.375 214.74 455.73C214.607 456.418 214.257 457.046 213.74 457.52C213.621 457.638 213.494 457.748 213.36 457.85C213.219 457.967 213.06 458.062 212.89 458.13C212.565 458.222 212.228 458.262 211.89 458.25C211.25 458.24 210.612 458.183 209.98 458.08C208.73 457.91 207.52 457.67 206.32 457.45C203.93 457 201.6 456.56 199.32 456.2C195.107 455.497 190.85 455.092 186.58 454.99C185.58 454.99 184.58 454.99 183.67 454.99C182.76 454.99 181.78 454.99 180.87 454.99C179.96 454.99 179.07 454.87 178.2 454.78L175.69 454.43C170.658 453.533 165.769 451.969 161.15 449.78C159.55 449.02 158.36 448.38 157.57 447.93C156.78 447.48 156.39 447.2 156.39 447.2C156.496 447.251 156.6 447.308 156.7 447.37L157.6 447.86C158.41 448.29 159.6 448.92 161.21 449.65C165.833 451.782 170.714 453.301 175.73 454.17L178.23 454.5C179.09 454.59 179.98 454.63 180.88 454.7C181.78 454.77 182.71 454.7 183.66 454.7C184.61 454.7 185.59 454.7 186.58 454.7C190.869 454.782 195.147 455.173 199.38 455.87C201.65 456.22 203.98 456.65 206.38 457.1C207.58 457.32 208.79 457.55 210.02 457.72C210.636 457.813 211.257 457.866 211.88 457.88C212.177 457.885 212.473 457.848 212.76 457.77C213.019 457.644 213.253 457.471 213.45 457.26C213.892 456.842 214.193 456.297 214.31 455.7C214.356 455.406 214.336 455.105 214.252 454.82C214.167 454.534 214.019 454.271 213.82 454.05C213.377 453.601 212.821 453.279 212.21 453.12C211.59 452.91 210.94 452.76 210.29 452.6C207.67 452.01 204.94 451.6 202.16 451.16H202.1L194.5 448L193.1 447.43L194.61 447.55C200.54 448.05 206.73 448.55 213.14 448.86C214.74 448.94 216.36 449.01 217.99 449.04C218.8 449.04 219.62 449.04 220.43 449.04C220.84 449.04 221.25 449.04 221.65 448.98C221.845 448.961 222.038 448.931 222.23 448.89C222.411 448.855 222.584 448.787 222.74 448.69C223.459 448.331 224.131 447.884 224.74 447.36C225.046 447.116 225.299 446.813 225.487 446.47C225.674 446.126 225.79 445.749 225.83 445.36C225.827 444.572 225.54 443.812 225.02 443.22C224.769 442.93 224.463 442.692 224.12 442.52C223.777 442.349 223.403 442.247 223.02 442.22V441.71C224.025 441.736 225.03 441.659 226.02 441.48C226.496 441.403 226.958 441.255 227.39 441.04C227.589 440.962 227.764 440.834 227.9 440.67C228.037 440.506 228.129 440.31 228.17 440.1C228.109 439.121 227.761 438.183 227.17 437.4C226.65 436.556 225.941 435.845 225.1 435.32L213.5 430.49L209.5 429.7L199.5 427.7L197.35 427.27L199.54 427.18L212.98 426.65H213.06L224.81 430C225.781 430.134 226.769 429.933 227.61 429.43C227.953 429.118 228.192 428.708 228.294 428.255C228.396 427.802 228.356 427.329 228.18 426.9C227.803 426.012 227.169 425.256 226.36 424.73C225.565 424.14 224.726 423.611 223.85 423.15C220.365 421.375 216.731 419.91 212.99 418.77H213.05L194.78 417.5L192.78 417.36L194.78 417.05C196.931 416.715 199.064 416.271 201.17 415.72C203.195 415.21 205.165 414.5 207.05 413.6C207.948 413.175 208.769 412.604 209.48 411.91C209.803 411.566 210.049 411.157 210.2 410.71L210.41 410.02L210.54 409.31C210.703 408.403 210.668 407.471 210.437 406.578C210.206 405.686 209.784 404.854 209.2 404.14H209.41C205.93 405.48 202.6 406.68 199.41 407.67C197.855 408.167 196.272 408.574 194.67 408.89C193.12 409.16 191.67 409.5 190.21 409.89C185.353 411.265 180.584 412.934 175.93 414.89C172.08 416.44 169.15 417.79 167.18 418.73L164.94 419.83L164.11 420.14Z" fill="#FF9A6C"/>
<path d="M195.22 437.84C196.664 438.054 198.121 438.167 199.58 438.18C202.26 438.34 205.97 438.65 210.02 439.27C214.07 439.89 217.71 440.68 220.32 441.32C221.714 441.756 223.138 442.09 224.58 442.32C223.269 441.672 221.89 441.169 220.47 440.82C217.084 439.816 213.632 439.048 210.14 438.52C206.65 437.992 203.129 437.701 199.6 437.65C198.137 437.551 196.668 437.614 195.22 437.84Z" fill="#FF9A6C"/>
<path d="M104.24 363.23C103.7 365.74 103.24 367.83 102.92 369.43C102.731 370.181 102.604 370.947 102.54 371.72C102.835 370.999 103.062 370.252 103.22 369.49C103.62 367.91 104.14 365.84 104.77 363.36C106.06 358.17 107.77 350.99 109.62 343.04C112.62 330.04 115.11 318.97 115.75 315.53V315.26L115.53 315.41C115.141 315.643 114.779 315.918 114.45 316.23C114.871 316.063 115.273 315.852 115.65 315.6L115.48 315.48C114.48 318.84 111.85 329.83 108.81 342.87" fill="#263238"/>
<path d="M211.7 366.179L269.7 392.029C269.7 392.029 292.21 322.559 259.05 311.369L242.42 315.259L211.7 366.179Z" fill="#455A64"/>
<path d="M156.36 447.12C156.36 447.27 138.57 448.04 116.61 448.85C94.65 449.66 76.84 450.2 76.84 450.06C76.84 449.92 94.63 449.14 116.59 448.33C138.55 447.52 156.36 447 156.36 447.12Z" fill="#FF9A6C"/>
<path d="M85.16 407.65C85.16 407.74 84.02 407.85 82.23 408.29C79.9064 408.883 77.6943 409.849 75.68 411.15C73.6516 412.452 71.9095 414.153 70.56 416.15C69.56 417.68 69.17 418.78 69.08 418.75C69.106 418.478 69.1735 418.211 69.28 417.96C69.5422 417.26 69.8774 416.59 70.28 415.96C71.5765 413.864 73.3346 412.093 75.42 410.78C77.4809 409.439 79.7732 408.493 82.18 407.99C82.9068 407.849 83.6415 407.752 84.38 407.7C84.635 407.637 84.8991 407.62 85.16 407.65Z" fill="#FF9A6C"/>
<path d="M221.7 357.93C221.67 358.12 221.613 358.306 221.53 358.48L220.95 360C220.44 361.31 219.66 363.2 218.67 365.53C216.67 370.18 213.79 376.53 210.37 383.44C206.95 390.35 203.68 396.53 201.27 400.97C200.07 403.19 199.08 404.97 198.38 406.21L197.57 407.62C197.484 407.787 197.381 407.945 197.26 408.09C197.312 407.908 197.386 407.734 197.48 407.57L198.2 406.11C198.89 404.79 199.81 402.99 200.95 400.8C203.27 396.31 206.48 390.12 209.95 383.21C213.42 376.3 216.31 369.99 218.38 365.38L220.81 359.92L221.49 358.44C221.543 358.263 221.614 358.092 221.7 357.93Z" fill="#263238"/>
<path d="M373.5 430.48C373.5 430.48 348.72 401.96 339.37 373.48C330.02 345 334.5 348.2 334.5 348.2C334.5 348.2 347.12 375.9 356.71 389.28C366.3 402.66 383.35 422.28 383.35 422.28L373.5 430.48Z" fill="#455A64"/>
<path d="M378.5 352.64C378.335 352.345 378.072 352.118 377.757 351.998C377.442 351.878 377.095 351.872 376.776 351.981C376.457 352.091 376.187 352.309 376.012 352.597C375.837 352.886 375.769 353.226 375.82 353.56C377.33 363.56 380.59 387.09 380.46 402.33C380.3 422.14 380.46 429.79 380.46 429.79H390.77C390.77 429.79 388.94 388.85 386.61 376.37C384.95 367.62 381.5 357.9 378.5 352.64Z" fill="#455A64"/>
<path d="M384.09 426.46C388.413 416.669 391.27 406.294 392.57 395.67C393.42 388.38 391.91 378.53 389.65 365.38C388.779 360.572 388.344 355.696 388.35 350.81C388.356 350.266 388.542 349.739 388.88 349.311C389.218 348.884 389.687 348.581 390.216 348.45C390.744 348.318 391.301 348.366 391.799 348.585C392.298 348.804 392.71 349.182 392.97 349.66C394.21 351.88 397.82 359.46 398.73 364.22C401.23 377.22 404.06 383.69 401.89 396.01C399.72 408.33 391.74 427.3 391.74 427.3L384.09 426.46Z" fill="#455A64"/>
<path d="M393.37 427.3C393.37 427.3 420.58 368.83 422.46 360.16C424.34 351.49 430.76 331.5 431.51 332.63C432.26 333.76 433.4 344.32 428.51 356.39C423.62 368.46 402.67 429.08 402.67 429.08H393.38" fill="#455A64"/>
<path d="M381.11 424.679C380.838 424.53 380.58 424.356 380.34 424.159C379.86 423.789 379.13 423.279 378.24 422.549C376.43 421.119 373.89 418.959 370.93 416.089C363.267 408.549 356.63 400.032 351.19 390.759C345.764 381.493 341.253 371.72 337.72 361.579C336.35 357.699 335.35 354.519 334.72 352.309C334.39 351.209 334.16 350.309 334 349.759C333.907 349.465 333.837 349.164 333.79 348.859C333.922 349.14 334.029 349.431 334.11 349.729C334.32 350.349 334.59 351.189 334.94 352.239C335.65 354.429 336.71 357.579 338.12 361.439C341.765 371.497 346.313 381.203 351.71 390.439C357.134 399.664 363.692 408.174 371.23 415.769C374.15 418.659 376.64 420.869 378.4 422.339C379.27 423.099 379.98 423.639 380.4 424.029C380.655 424.226 380.892 424.443 381.11 424.679Z" fill="#263238"/>
<path d="M384.08 396.63C383.951 396.068 383.871 395.496 383.84 394.92C383.71 393.71 383.54 392.13 383.34 390.23C382.91 386.23 382.23 380.82 381.27 374.83C380.31 368.84 379.27 363.45 378.41 359.56C378 357.69 377.67 356.14 377.41 354.95C377.26 354.39 377.159 353.818 377.11 353.24C377.331 353.777 377.505 354.333 377.63 354.9C377.94 355.97 378.34 357.53 378.81 359.47C379.74 363.34 380.88 368.73 381.81 374.74C382.74 380.75 383.38 386.22 383.71 390.19C383.87 392.19 383.98 393.79 384.02 394.9C384.09 395.474 384.11 396.053 384.08 396.63Z" fill="#263238"/>
<path d="M390.5 349.2C390.621 349.44 390.728 349.687 390.82 349.94C391.02 350.49 391.29 351.21 391.63 352.11C391.97 353.01 392.41 354.21 392.8 355.59C393.19 356.97 393.73 358.51 394.12 360.27C394.34 361.15 394.56 362.07 394.8 363.02C395.04 363.97 395.19 365.02 395.39 366.02C395.84 368.1 396.11 370.35 396.39 372.71C397.625 383.005 397.254 393.429 395.29 403.61C394.79 405.95 394.35 408.17 393.76 410.21C393.48 411.21 393.24 412.21 392.95 413.21L392.08 415.9C391.56 417.63 390.93 419.14 390.42 420.48C389.91 421.82 389.42 422.95 389.01 423.86C388.6 424.77 388.29 425.44 388.01 425.97C387.914 426.223 387.79 426.465 387.64 426.69C387.701 426.424 387.792 426.166 387.91 425.92L388.77 423.78C389.17 422.85 389.63 421.71 390.09 420.36C390.55 419.01 391.17 417.5 391.66 415.78C391.92 414.92 392.2 414.02 392.49 413.08C392.78 412.14 392.99 411.15 393.26 410.13C393.83 408.13 394.26 405.88 394.73 403.55C396.628 393.416 396.999 383.054 395.83 372.81C395.52 370.46 395.26 368.22 394.83 366.15C394.63 365.15 394.48 364.1 394.27 363.15C394.06 362.2 393.84 361.28 393.63 360.4C393.27 358.64 392.77 357.09 392.4 355.72C392.03 354.35 391.65 353.17 391.33 352.21C391.01 351.25 390.8 350.57 390.62 350.01C390.552 349.745 390.512 349.474 390.5 349.2Z" fill="#263238"/>
<path d="M431.2 333.81C431.211 333.896 431.211 333.983 431.2 334.07C431.2 334.28 431.13 334.53 431.08 334.83C430.96 335.5 430.81 336.48 430.54 337.74C430.02 340.26 429.14 343.87 427.78 348.26C426.42 352.65 424.57 357.81 422.36 363.46C420.15 369.11 417.62 375.29 415.2 381.85C412.78 388.41 410.86 394.8 409.09 400.61C407.32 406.42 405.66 411.61 404.09 415.93C402.842 419.34 401.407 422.678 399.79 425.93C399.23 427.09 398.73 427.93 398.41 428.55C398.26 428.82 398.13 429.03 398.03 429.22C397.93 429.41 397.89 429.44 397.88 429.43C397.906 429.347 397.939 429.266 397.98 429.19C398.07 429 398.17 428.77 398.31 428.49C398.6 427.88 399.06 427 399.59 425.83C400.68 423.52 402.16 420.11 403.7 415.83C405.24 411.55 406.88 406.31 408.61 400.49C410.34 394.67 412.24 388.26 414.7 381.69C417.16 375.12 419.7 368.95 421.91 363.31C424.12 357.67 426.03 352.55 427.43 348.18C428.83 343.81 429.77 340.23 430.36 337.73C430.66 336.48 430.85 335.51 431 334.85C431.08 334.55 431.13 334.3 431.18 334.1C431.168 334.003 431.175 333.904 431.2 333.81Z" fill="#263238"/>
<path d="M347.32 320.9C346.946 320.538 346.463 320.312 345.946 320.256C345.429 320.2 344.908 320.317 344.466 320.59C344.023 320.863 343.684 321.276 343.502 321.763C343.32 322.25 343.305 322.784 343.46 323.28C344.389 326.288 345.532 329.225 346.88 332.07C350.62 340.02 361.6 368.54 366.75 384.2C371.9 399.86 379.14 429.08 379.14 429.08L390.14 427.3C390.14 427.3 380.09 379.3 370.27 361.99C362.37 348.09 354.5 328 347.32 320.9Z" fill="#455A64"/>
<path d="M369.75 394C369.986 394.419 370.177 394.861 370.32 395.32C370.64 396.18 371.09 397.44 371.58 399.01C372.58 402.14 373.83 406.51 375.08 411.37C376.33 416.23 377.36 420.66 378.08 423.87L378.91 427.67C379.028 428.136 379.105 428.611 379.14 429.09C378.941 428.654 378.79 428.198 378.69 427.73L377.69 423.96L374.5 411.51C373.25 406.65 372.08 402.27 371.17 399.11L370.08 395.38C369.921 394.933 369.81 394.471 369.75 394Z" fill="#263238"/>
<path d="M384.65 428.19C384.617 428.093 384.597 427.992 384.59 427.89C384.59 427.66 384.52 427.38 384.47 427.03C384.35 426.27 384.25 425.14 384.02 423.7C383.61 420.82 382.89 416.7 381.71 411.59C380.308 405.656 378.593 399.801 376.57 394.05C374.32 387.54 371.5 380.51 368.29 373.24C361.83 358.7 355.38 345.81 351.14 336.24C349 331.49 347.34 327.61 346.24 324.9C345.69 323.55 345.29 322.49 345.01 321.78L344.7 320.96C344.661 320.867 344.634 320.77 344.62 320.67C344.678 320.753 344.725 320.844 344.76 320.94C344.85 321.15 344.97 321.41 345.12 321.73L346.45 324.81C347.61 327.49 349.32 331.34 351.51 336.07C355.85 345.55 362.36 358.41 368.83 372.96C372.03 380.25 374.83 387.3 377.08 393.83C379.076 399.608 380.745 405.494 382.08 411.46C382.995 415.478 383.706 419.54 384.21 423.63C384.41 425.08 384.47 426.21 384.55 426.98C384.55 427.33 384.6 427.62 384.62 427.85C384.646 427.961 384.656 428.076 384.65 428.19Z" fill="#263238"/>
<path d="M390.12 427.299C389.948 426.693 389.825 426.075 389.75 425.449L388.89 420.399C388.13 416.149 386.98 410.289 385.32 403.909C383.66 397.529 381.82 391.849 380.4 387.769L378.68 382.939C378.44 382.358 378.243 381.76 378.09 381.149C378.401 381.698 378.668 382.269 378.89 382.859C379.36 383.979 380.02 385.599 380.78 387.629C382.765 392.912 384.467 398.296 385.88 403.759C387.297 409.225 388.438 414.759 389.3 420.339C389.61 422.479 389.85 424.209 389.97 425.419C390.068 426.041 390.118 426.67 390.12 427.299Z" fill="#263238"/>
<path d="M412.65 425.72H369.79V477.94H412.65V425.72Z" fill="#3DAA3D"/>
<g opacity="0.3">
<path d="M412.65 425.72H369.79V477.94H412.65V425.72Z" fill="black"/>
</g>
<path d="M398.98 425.72H360.95V477.94H398.98V425.72Z" fill="#3DAA3D"/>
</svg>
