<svg xmlns="http://www.w3.org/2000/svg" viewBox="0 0 750 500"><g id="freepik--background-complete--inject-13"><path d="M235.83,131.46c1.46-4.55-8.1-4.9-11.73-8-5.14-4.4-11-8.08-17.56-9.8s-13.8-1.29-19.68,2a4.88,4.88,0,0,1-2.33.89,4.37,4.37,0,0,1-1.89-.6c-4.09-2.07-6-4.92-9.46-7.92-1.23-1.07-2.87-3.31-6.84-2.76-2.15.3-3.35,1.7-5,3.06-1-4.46-5.27-7.33-9.4-9.26a15.69,15.69,0,0,0-7-1.88A16.65,16.65,0,0,0,138.79,99a37.22,37.22,0,0,0-10.65,6.6c-3,2.91-5.25,6.86-5.27,11.06a6.09,6.09,0,0,0-10.33,4.5c-2-3.72-7.16-4.92-11-3.25s-6.41,5.58-7.46,9.66a6.49,6.49,0,0,0-8.18,2.58c-2.84-3.72-8.46-4.48-12.77-2.66s-7.43,5.71-9.57,9.87c15.53,6.36,34.21,6.34,51,6s33.61-1.89,50.3-.12c4.51.47,9.12,1.19,13.53.11,2.22-.54,4.3-1.51,6.47-2.21,7.67-2.46,15.95-1.33,23.95-.54C208.78,140.59,230.56,147.91,235.83,131.46Z" style="fill:#ebebeb"></path><path d="M66.93,335.88c7.28,4.15,13.7,7.2,16.07,14.52.89,2.72,1.3,5.65,2.79,8.09,2.18,3.54,6.43,5.68,7.82,9.6,1.65,4.6-1.28,10,.67,14.48,1.54,3.54,5.66,5.36,7.37,8.82,2.36,4.77-.68,10.44-.16,15.73.38,3.83,2.59,7.18,4,10.74s2.55,8.9,0,11.74H93.42a7,7,0,0,0-.12-6.86c-1.17-1.92-2.79-3.62-3.48-5.77-1.29-4.05,1.06-8.46.41-12.67-.75-4.9-5.33-8.39-6.7-13.15-1.5-5.18,1-11.09-1.24-16-1.65-3.57-5.47-5.72-7.3-9.2-1.69-3.22-1.42-7.07-1.41-10.71C73.6,347.35,71.67,342.73,66.93,335.88Z" style="fill:#ebebeb"></path><path d="M112.75,429.6c5-3.14,8-10.92,6.07-16.49-1.22-3.52-4-7-2.77-10.55.86-2.51,3.54-4.06,4.37-6.58,1.61-4.83-4.27-9.17-4.29-14.26,0-4.66,4.77-8,5.6-12.61.51-2.81-.54-5.63-.89-8.46s.4-6.25,3-7.35c-2.39-1.13-5.36.16-7,2.25s-2.22,4.78-2.78,7.36-1.17,5.27-2.81,7.35c-2.4,3-6.84,4.57-7.84,8.3-1.41,5.27,5.28,10.43,3.4,15.56-1.14,3.14-5,4.52-6.42,7.56-2.24,4.87,3.08,10.32,2.11,15.59-.39,2.11-1.75,3.89-2.63,5.84s-1.21,4.95.29,6.49" style="fill:#ebebeb"></path><path d="M43.9,388c.34,2.61,2.78,4.52,5.32,5.23s5.23.52,7.86.66,5.42.69,7.3,2.53c2.15,2.11,2.77,5.57,5.28,7.24,3.46,2.28,8.79,0,11.87,2.8,2.92,2.64,1.83,8.22,5.14,10.35,1.26.8,2.85.86,4.27,1.32,3.92,1.27,6.69,7.84,5.21,11.68l-12.46-.16c-3-.4-4.64-2.42-5.8-5.16s-2.23-5.83-4.8-7.33c-2.75-1.61-6.41-.88-9.16-2.49-4.54-2.66-4.21-10-8.66-12.83-2.24-1.4-5.12-1.24-7.54-2.28A8.49,8.49,0,0,1,43.9,388Z" style="fill:#ebebeb"></path><path d="M99.33,429.19A3.79,3.79,0,0,1,98.5,428a4.15,4.15,0,0,1,.5-3.75,14.89,14.89,0,0,1,1.72-2.16,13.83,13.83,0,0,0,2-2.58,5.61,5.61,0,0,0,.61-1.71,5.53,5.53,0,0,0-.07-1.9,12.29,12.29,0,0,0-1.65-3.52,19.51,19.51,0,0,1-1.8-3.3,8,8,0,0,1-.43-3.39,9.61,9.61,0,0,1,.72-3,10.77,10.77,0,0,1,1.54-2.27,35.91,35.91,0,0,1,2.72-3c.67-.67,1.08-1,1.06-1a5.68,5.68,0,0,0-1.2.9,27.08,27.08,0,0,0-2.87,2.9,10.35,10.35,0,0,0-1.64,2.32,9.47,9.47,0,0,0-.8,3.18,8.24,8.24,0,0,0,.42,3.61,20,20,0,0,0,1.84,3.4,11.76,11.76,0,0,1,1.59,3.35,4.45,4.45,0,0,1-.46,3.27c-1.07,1.92-2.77,3.22-3.61,4.79a4.31,4.31,0,0,0-.37,4,2.52,2.52,0,0,0,.69.9A.9.9,0,0,0,99.33,429.19Z" style="fill:#e0e0e0"></path><path d="M120.1,354.13a3.39,3.39,0,0,0-.64.58,6,6,0,0,0-1.23,2.14,12.18,12.18,0,0,0-.56,3.87c0,1.54.25,3.26.29,5.15a9.4,9.4,0,0,1-1.4,5.84,8.9,8.9,0,0,1-2.6,2.14,11.91,11.91,0,0,0-3,2.27,5.62,5.62,0,0,0-1.27,3.76,11.07,11.07,0,0,0,.93,4,26.66,26.66,0,0,0,2,3.72,23.34,23.34,0,0,1,1.92,3.8,7.57,7.57,0,0,1,.48,4.1,7.88,7.88,0,0,1-1.89,3.54c-.88,1-1.87,1.95-2.74,3a8.62,8.62,0,0,0-2,3.41,7,7,0,0,0,.07,3.76,29.87,29.87,0,0,0,1.16,3.31,20.06,20.06,0,0,1,1,3.06,15,15,0,0,1,.26,2.93,14.35,14.35,0,0,1-2.88,8.33,20.25,20.25,0,0,1-2.25,2.4,5.11,5.11,0,0,0,.69-.51,12.23,12.23,0,0,0,1.72-1.77,14.29,14.29,0,0,0,3.09-8.44,15.1,15.1,0,0,0-.24-3,19.17,19.17,0,0,0-1-3.14,29.74,29.74,0,0,1-1.12-3.26,6.81,6.81,0,0,1,0-3.53,8.26,8.26,0,0,1,1.91-3.21c.86-1,1.85-1.9,2.76-3a8.46,8.46,0,0,0,2-3.77,8.12,8.12,0,0,0-.5-4.38c-1-2.8-2.91-5-3.93-7.54a10.45,10.45,0,0,1-.9-3.82,5.09,5.09,0,0,1,1.14-3.44c1.58-1.85,4.17-2.51,5.56-4.47a7.25,7.25,0,0,0,1.24-3.07,14.36,14.36,0,0,0,.18-3c-.07-1.93-.36-3.63-.36-5.14a12.1,12.1,0,0,1,.45-3.81A6.94,6.94,0,0,1,120.1,354.13Z" style="fill:#e0e0e0"></path><path d="M73,344.45a8.5,8.5,0,0,1,2.33,2.74,14.43,14.43,0,0,1,1.35,4c.33,1.63.44,3.53.75,5.62a13,13,0,0,0,2.47,6.45c1.58,2,4,3.34,5.71,5.43a10.33,10.33,0,0,1,1.91,3.68,23.17,23.17,0,0,1,.74,4.33c.3,3,.32,6.23,1.67,9.26s3.86,5.12,5.37,7.68a7.75,7.75,0,0,1,1.21,4.09,15.51,15.51,0,0,1-.9,4.09,11.61,11.61,0,0,0-.7,4.06,13.08,13.08,0,0,0,.9,3.78c.42,1.17.87,2.27,1.15,3.37a9.09,9.09,0,0,1,.27,3.21,30.8,30.8,0,0,1-1.21,5.5,19.45,19.45,0,0,0-.79,4.23,7.87,7.87,0,0,0,.36,2.7l.29.65c.06.15.1.22.11.21a.7.7,0,0,0-.06-.23l-.24-.66a8.23,8.23,0,0,1-.26-2.66,19.87,19.87,0,0,1,.87-4.16,30.5,30.5,0,0,0,1.3-5.55,9.81,9.81,0,0,0-.25-3.34c-.28-1.13-.72-2.25-1.13-3.41a12.85,12.85,0,0,1-.85-3.66,11.1,11.1,0,0,1,.7-3.9,15.46,15.46,0,0,0,.93-4.22,8.24,8.24,0,0,0-1.26-4.36c-1.57-2.66-4-4.76-5.34-7.64s-1.33-6.08-1.63-9.09a23.34,23.34,0,0,0-.78-4.43,10.62,10.62,0,0,0-2-3.84c-1.86-2.16-4.22-3.5-5.75-5.4a12.67,12.67,0,0,1-2.44-6.23c-.33-2.06-.46-4-.83-5.62a14.16,14.16,0,0,0-1.45-4.05A8,8,0,0,0,73.77,345,3.69,3.69,0,0,0,73,344.45Z" style="fill:#e0e0e0"></path><path d="M49.09,394.34a1.78,1.78,0,0,0,.12.59,3.54,3.54,0,0,0,1,1.46,6.25,6.25,0,0,0,2.41,1.35,13.25,13.25,0,0,0,3.6.57,13.27,13.27,0,0,1,4.24.73,6.13,6.13,0,0,1,3.23,3.46c.73,1.59,1.09,3.43,1.9,5.23a8.85,8.85,0,0,0,1.64,2.53,4.77,4.77,0,0,0,2.76,1.5c2.16.3,4.1-.6,6-.48a5.26,5.26,0,0,1,4.19,2.9,23.28,23.28,0,0,1,1.8,4.63,11.83,11.83,0,0,0,2,4,9,9,0,0,0,5.49,3.14,7.53,7.53,0,0,0,1.74.09,2.49,2.49,0,0,0,.6-.09,13.39,13.39,0,0,1-2.31-.2,9,9,0,0,1-5.23-3.17,11.71,11.71,0,0,1-1.86-3.87,22.91,22.91,0,0,0-1.8-4.75,7.48,7.48,0,0,0-1.82-2.13,4.78,4.78,0,0,0-2.75-1c-2-.11-4,.77-5.91.48a4.35,4.35,0,0,1-2.47-1.34A8.54,8.54,0,0,1,66,407.52c-.78-1.72-1.15-3.58-1.92-5.22a6.58,6.58,0,0,0-3.51-3.66,13.36,13.36,0,0,0-4.38-.7,13.53,13.53,0,0,1-3.53-.47,6.28,6.28,0,0,1-2.36-1.23A4.06,4.06,0,0,1,49.09,394.34Z" style="fill:#e0e0e0"></path><path d="M91.22,404.92a3.61,3.61,0,0,0-.42,1,23.44,23.44,0,0,0-.79,2.86,30.46,30.46,0,0,0,.65,15.09,13.12,13.12,0,0,0,1.87,4,5.62,5.62,0,0,0,2.29,1.93,3.71,3.71,0,0,0,.78.25c.19,0,.28,0,.29,0s-.37-.13-1-.45a5.91,5.91,0,0,1-2.08-2,13.23,13.23,0,0,1-1.71-3.94,33.22,33.22,0,0,1-.75-14.89C90.8,406.41,91.31,405,91.22,404.92Z" style="fill:#e0e0e0"></path><path d="M378,204.22c1.2-3.75-6.68-4-9.66-6.6a37.26,37.26,0,0,0-14.47-8.06c-5.39-1.41-11.37-1.07-16.21,1.68a4.13,4.13,0,0,1-1.92.73,3.54,3.54,0,0,1-1.56-.5c-3.37-1.71-4.93-4.05-7.79-6.52-1-.88-2.37-2.73-5.64-2.28-1.77.25-2.76,1.4-4.15,2.53-.8-3.68-4.34-6-7.75-7.63A12.7,12.7,0,0,0,303,176a13.54,13.54,0,0,0-5,1.47,30.61,30.61,0,0,0-8.77,5.43,13.11,13.11,0,0,0-4.35,9.11,5,5,0,0,0-8.5,3.71c-1.63-3.06-5.9-4.05-9.09-2.67s-5.28,4.59-6.14,8a5.34,5.34,0,0,0-6.74,2.13c-2.34-3.06-7-3.7-10.52-2.2s-6.12,4.71-7.88,8.13c12.79,5.24,28.18,5.23,42,4.94s27.69-1.56,41.43-.11c3.72.4,7.52,1,11.15.1,1.83-.45,3.55-1.25,5.34-1.82,6.31-2,13.13-1.1,19.73-.45C355.67,211.74,373.61,217.77,378,204.22Z" style="fill:#ebebeb"></path><path d="M715.58,153.05c1.46-4.55-8.1-4.9-11.73-8-5.13-4.4-11-8.08-17.56-9.79s-13.8-1.3-19.68,2a4.94,4.94,0,0,1-2.32.88,4.16,4.16,0,0,1-1.89-.6c-4.1-2.07-6-4.92-9.46-7.92-1.24-1.07-2.87-3.31-6.85-2.76-2.15.3-3.35,1.7-5,3.06-1-4.45-5.27-7.32-9.4-9.26a15.64,15.64,0,0,0-7-1.88,16.47,16.47,0,0,0-6.12,1.79,36.87,36.87,0,0,0-10.64,6.6c-3,2.9-5.26,6.86-5.28,11a6.1,6.1,0,0,0-10.33,4.51c-2-3.72-7.16-4.93-11-3.25s-6.41,5.58-7.46,9.66a6.47,6.47,0,0,0-8.18,2.58c-2.84-3.72-8.45-4.49-12.76-2.67s-7.44,5.71-9.58,9.87c15.53,6.36,34.22,6.34,51,6s33.61-1.9,50.3-.13c4.51.48,9.12,1.19,13.53.12,2.22-.54,4.3-1.52,6.48-2.22,7.66-2.45,15.94-1.33,23.95-.54C688.54,162.17,710.31,169.49,715.58,153.05Z" style="fill:#ebebeb"></path><path d="M495.68,102.92c1.69-5.25-9.36-5.66-13.55-9.25-5.94-5.08-12.74-9.34-20.3-11.32s-15.95-1.5-22.74,2.36a5.83,5.83,0,0,1-2.69,1,5,5,0,0,1-2.19-.7c-4.73-2.4-6.92-5.68-10.93-9.15-1.43-1.24-3.32-3.83-7.91-3.19-2.49.34-3.88,2-5.83,3.54-1.12-5.16-6.08-8.47-10.86-10.71a18.15,18.15,0,0,0-8.09-2.17,19.12,19.12,0,0,0-7.06,2.06c-4.43,2-8.81,4.27-12.31,7.63s-6.07,7.93-6.1,12.78A7,7,0,0,0,353.19,91c-2.28-4.3-8.28-5.69-12.74-3.75s-7.41,6.45-8.62,11.16a7.51,7.51,0,0,0-9.46,3c-3.28-4.3-9.77-5.18-14.75-3.08s-8.6,6.6-11.07,11.41c17.95,7.35,39.55,7.33,58.94,6.92s38.84-2.19,58.13-.15c5.21.55,10.55,1.38,15.64.14,2.56-.63,5-1.76,7.48-2.56,8.86-2.84,18.43-1.54,27.69-.63C464.43,113.47,489.59,121.93,495.68,102.92Z" style="fill:#f5f5f5"></path></g><g id="freepik--Plant--inject-13"><path d="M663.75,338.64c-7.27,4.15-13.7,7.2-16.07,14.52-.88,2.72-1.29,5.65-2.79,8.09-2.17,3.55-6.42,5.68-7.82,9.6-1.64,4.6,1.29,10-.66,14.49-1.54,3.53-5.67,5.35-7.38,8.81-2.36,4.77.69,10.44.16,15.73-.37,3.83-2.59,7.18-4,10.74s-2.56,8.9,0,11.74h12.09a7,7,0,0,1,.11-6.86c1.18-1.92,2.79-3.62,3.48-5.77,1.3-4.05-1.06-8.46-.41-12.66.75-4.9,5.33-8.4,6.71-13.16,1.49-5.18-1-11.09,1.24-16,1.64-3.57,5.47-5.71,7.29-9.2,1.69-3.22,1.42-7.07,1.41-10.71C657.08,350.11,659,345.49,663.75,338.64Z" style="fill:#455a64"></path><path d="M617.93,432.36c-5-3.13-8-10.91-6.07-16.49,1.23-3.52,4-7,2.77-10.55-.86-2.51-3.53-4.06-4.37-6.58-1.61-4.82,4.27-9.17,4.3-14.26,0-4.66-4.77-8-5.6-12.61-.51-2.81.54-5.63.88-8.46s-.4-6.25-3-7.34c2.39-1.14,5.37.15,7,2.24s2.22,4.78,2.78,7.36,1.18,5.28,2.82,7.35c2.4,3,6.83,4.57,7.83,8.3,1.42,5.27-5.27,10.43-3.4,15.56,1.15,3.14,5,4.52,6.43,7.56,2.24,4.87-3.09,10.32-2.11,15.59.39,2.11,1.75,3.89,2.63,5.85s1.2,4.94-.29,6.48" style="fill:#455a64"></path><path d="M686.79,390.71c-.34,2.62-2.78,4.52-5.32,5.23s-5.23.53-7.86.66-5.42.69-7.31,2.53c-2.15,2.11-2.77,5.57-5.28,7.24-3.45,2.28-8.79,0-11.86,2.81-2.92,2.63-1.83,8.21-5.14,10.34-1.26.81-2.85.86-4.28,1.32-3.92,1.27-6.69,7.84-5.2,11.68l12.46-.16c3-.4,4.63-2.42,5.79-5.16s2.23-5.83,4.8-7.33c2.76-1.61,6.42-.88,9.17-2.49,4.53-2.65,4.2-10,8.65-12.83,2.24-1.4,5.12-1.24,7.55-2.28A8.49,8.49,0,0,0,686.79,390.71Z" style="fill:#455a64"></path><path d="M631.35,432a3.7,3.7,0,0,0,.84-1.18,4.21,4.21,0,0,0-.5-3.75,14.89,14.89,0,0,0-1.72-2.16,13.42,13.42,0,0,1-2-2.58,5.13,5.13,0,0,1-.61-1.71,5.29,5.29,0,0,1,.07-1.9,11.85,11.85,0,0,1,1.65-3.51,20.75,20.75,0,0,0,1.8-3.31,7.93,7.93,0,0,0,.42-3.39,9.16,9.16,0,0,0-.72-3,10.37,10.37,0,0,0-1.53-2.27,35.61,35.61,0,0,0-2.72-3,12.71,12.71,0,0,1-1.06-1.05,6.18,6.18,0,0,1,1.2.9,28.17,28.17,0,0,1,2.86,2.9,10.37,10.37,0,0,1,1.65,2.32,9.78,9.78,0,0,1,.8,3.18,8.39,8.39,0,0,1-.42,3.61,20.77,20.77,0,0,1-1.84,3.4,11.5,11.5,0,0,0-1.59,3.35,4.73,4.73,0,0,0-.08,1.71,4.9,4.9,0,0,0,.54,1.56c1.07,1.92,2.77,3.22,3.61,4.79a4.28,4.28,0,0,1,.36,4,2.51,2.51,0,0,1-.68.9A.81.81,0,0,1,631.35,432Z" style="fill:#263238"></path><path d="M610.58,356.89a3.39,3.39,0,0,1,.64.58,6.06,6.06,0,0,1,1.24,2.14,12,12,0,0,1,.55,3.88c0,1.53-.24,3.25-.28,5.14a9.39,9.39,0,0,0,1.39,5.84,9.14,9.14,0,0,0,2.61,2.15,12.1,12.1,0,0,1,3,2.26,5.61,5.61,0,0,1,1.26,3.76,10.85,10.85,0,0,1-.92,4,27.22,27.22,0,0,1-2,3.72,23.84,23.84,0,0,0-1.92,3.81,7.61,7.61,0,0,0-.47,4.09,7.88,7.88,0,0,0,1.89,3.54c.88,1,1.86,1.95,2.74,3a8.81,8.81,0,0,1,2,3.41,7.25,7.25,0,0,1-.07,3.76,31.26,31.26,0,0,1-1.16,3.31,18.35,18.35,0,0,0-1,3.06,14.3,14.3,0,0,0-.27,2.94,14.48,14.48,0,0,0,2.88,8.32A18.77,18.77,0,0,0,625,432a4.43,4.43,0,0,1-.69-.51,12.19,12.19,0,0,1-1.73-1.77,14.36,14.36,0,0,1-3.09-8.44,15.1,15.1,0,0,1,.24-3,21.33,21.33,0,0,1,1-3.14,27.77,27.77,0,0,0,1.12-3.26,6.57,6.57,0,0,0,.05-3.52,8.12,8.12,0,0,0-1.91-3.21c-.85-1-1.84-1.91-2.75-3a8.36,8.36,0,0,1-2-3.77,8.07,8.07,0,0,1,.49-4.37c1-2.81,2.92-5,3.94-7.55a10.65,10.65,0,0,0,.9-3.82,5.14,5.14,0,0,0-1.14-3.44c-1.58-1.85-4.18-2.51-5.56-4.47a7.22,7.22,0,0,1-1.25-3.07,14.34,14.34,0,0,1-.17-3c.07-1.92.36-3.63.36-5.14a12.07,12.07,0,0,0-.46-3.81A6.81,6.81,0,0,0,610.58,356.89Z" style="fill:#263238"></path><path d="M657.7,347.21a8.36,8.36,0,0,0-2.33,2.74,14.11,14.11,0,0,0-1.35,4c-.33,1.63-.44,3.53-.75,5.62A13,13,0,0,1,650.8,366c-1.58,2-3.95,3.35-5.71,5.43a10.17,10.17,0,0,0-1.91,3.68,23.17,23.17,0,0,0-.75,4.33c-.3,3-.31,6.23-1.66,9.26s-3.87,5.12-5.38,7.68a7.77,7.77,0,0,0-1.2,4.09,15.13,15.13,0,0,0,.9,4.09,11.63,11.63,0,0,1,.69,4.06,13.08,13.08,0,0,1-.9,3.78,35.26,35.26,0,0,0-1.14,3.37,9.34,9.34,0,0,0-.28,3.21,32.65,32.65,0,0,0,1.21,5.5,18.41,18.41,0,0,1,.79,4.23,7.92,7.92,0,0,1-.35,2.7l-.29.65-.11.22a.67.67,0,0,1,.06-.24l.24-.66a8.51,8.51,0,0,0,.25-2.65,19.82,19.82,0,0,0-.87-4.17,31.36,31.36,0,0,1-1.3-5.55,9.82,9.82,0,0,1,.26-3.34,34.86,34.86,0,0,1,1.13-3.41,12.85,12.85,0,0,0,.85-3.66,11.33,11.33,0,0,0-.7-3.9,15.47,15.47,0,0,1-.94-4.22,8.24,8.24,0,0,1,1.26-4.36c1.57-2.65,4-4.76,5.34-7.64s1.33-6.08,1.64-9.09a23.33,23.33,0,0,1,.77-4.43,10.88,10.88,0,0,1,2-3.84c1.86-2.16,4.22-3.5,5.75-5.4a12.52,12.52,0,0,0,2.43-6.23c.33-2.06.47-4,.83-5.62a14.26,14.26,0,0,1,1.46-4,7.72,7.72,0,0,1,1.73-2.1A3.56,3.56,0,0,1,657.7,347.21Z" style="fill:#263238"></path><path d="M681.6,397.1a2.2,2.2,0,0,1-.12.59,3.54,3.54,0,0,1-1,1.46,6.47,6.47,0,0,1-2.41,1.36,13.74,13.74,0,0,1-3.61.56,13.21,13.21,0,0,0-4.23.73,6.18,6.18,0,0,0-3.24,3.46c-.73,1.59-1.08,3.43-1.89,5.23A9.27,9.27,0,0,1,663.5,413a4.88,4.88,0,0,1-2.76,1.49c-2.17.3-4.11-.6-6-.48a5.26,5.26,0,0,0-4.19,2.9,22.69,22.69,0,0,0-1.8,4.63,11.66,11.66,0,0,1-2,4,9,9,0,0,1-5.48,3.14,7.53,7.53,0,0,1-1.74.09,2.36,2.36,0,0,1-.6-.09,13.37,13.37,0,0,0,2.3-.2,9,9,0,0,0,5.24-3.17,11.71,11.71,0,0,0,1.86-3.87,22.09,22.09,0,0,1,1.8-4.74,7.2,7.2,0,0,1,1.81-2.14,4.84,4.84,0,0,1,2.76-1c2-.11,4,.77,5.91.48a4.41,4.41,0,0,0,2.47-1.34,8.51,8.51,0,0,0,1.54-2.39c.79-1.72,1.16-3.58,1.93-5.22a6.56,6.56,0,0,1,3.5-3.66,13.67,13.67,0,0,1,4.38-.7,13.61,13.61,0,0,0,3.54-.47,6.36,6.36,0,0,0,2.36-1.23A4.28,4.28,0,0,0,681.6,397.1Z" style="fill:#263238"></path><path d="M639.47,407.68a4.87,4.87,0,0,1,.42,1,24,24,0,0,1,.78,2.87,30.23,30.23,0,0,1,.46,9.78,30.56,30.56,0,0,1-1.11,5.3,12.78,12.78,0,0,1-1.87,4,5.74,5.74,0,0,1-2.29,1.94,4,4,0,0,1-.78.24c-.18,0-.28,0-.28,0s.37-.13,1-.45a5.94,5.94,0,0,0,2.07-2,13.41,13.41,0,0,0,1.71-3.95,32.24,32.24,0,0,0,1.05-5.23,33.59,33.59,0,0,0-.3-9.65C639.89,409.17,639.38,407.71,639.47,407.68Z" style="fill:#263238"></path></g><g id="freepik--speech-bubble--inject-13"><path d="M247.62,164.55l8-14.13a37.85,37.85,0,1,1,9.07,10.09h0Z" style="fill:#fafafa"></path><path d="M247.62,164.55l17.13-3.92a.11.11,0,0,0,.08-.13.08.08,0,0,0,0,0v0l-.16.15a38.72,38.72,0,0,0,7.78,4.69,37.77,37.77,0,0,0,10.37,3,34.49,34.49,0,0,0,6,.3c1-.06,2.08-.08,3.14-.17l3.19-.49a38.1,38.1,0,0,0,23.62-15.16,37.69,37.69,0,0,0,6.39-14.6,38.61,38.61,0,0,0-.45-16.82,37.24,37.24,0,0,0-8.1-15.54l-1.54-1.7c-.51-.57-1.12-1-1.67-1.57s-1.09-1-1.71-1.49l-1.81-1.36A16.49,16.49,0,0,0,308,98.4L306,97.23l-2-1a17.28,17.28,0,0,0-2-.9,38.67,38.67,0,0,0-16.95-2.61,37.36,37.36,0,0,0-15.55,4.6,38.31,38.31,0,0,0-17.94,22.08,40.78,40.78,0,0,0-1.65,12.29,37.62,37.62,0,0,0,1.85,10.62,38.44,38.44,0,0,0,3.79,8.13v-.1c-5.07,9.07-7.56,13.53-7.93,14.18l8.11-14.08a.11.11,0,0,0,0-.11,38.12,38.12,0,0,1-3.72-8.1,37.57,37.57,0,0,1-1.8-10.55,40.72,40.72,0,0,1,1.67-12.18A38,38,0,0,1,269.69,97.7a37.1,37.1,0,0,1,15.39-4.53,38.19,38.19,0,0,1,16.75,2.59,17.07,17.07,0,0,1,2,.89l2,1,1.9,1.16a17.37,17.37,0,0,1,1.85,1.22l1.8,1.35c.61.43,1.12,1,1.69,1.47s1.14,1,1.64,1.55l1.53,1.68a36.84,36.84,0,0,1,8,15.37A38.16,38.16,0,0,1,324.7,138a37.37,37.37,0,0,1-6.31,14.46A37.85,37.85,0,0,1,295,167.55l-3.16.48c-1.05.09-2.09.12-3.11.18a33,33,0,0,1-5.93-.28,37.71,37.71,0,0,1-10.3-2.89,38.63,38.63,0,0,1-7.75-4.62.1.1,0,0,0-.15,0,.09.09,0,0,0,0,.13v0l.06-.17Z" style="fill:#263238"></path><path d="M271.8,128.71A9.69,9.69,0,0,1,274,123.3a9.27,9.27,0,0,1,4.7-3.26,7.53,7.53,0,0,1,8.51,3.42,7.55,7.55,0,0,1,7.94-4,9.4,9.4,0,0,1,5,2.73A9.69,9.69,0,0,1,303,127.3a11.82,11.82,0,0,1-1.07,7.36,16.78,16.78,0,0,1-5.47,5.71C292.79,142.85,288,146,288,146s-4.36-2.91-8.25-5a16.88,16.88,0,0,1-6.06-5.08A11.92,11.92,0,0,1,271.8,128.71Z" style="fill:#0057A0"></path></g><g id="freepik--Sun--inject-13"><path d="M586.34,287.52c-5.85-.58-11.91-1.4-17.52.4-1.59.51-3.11,1.23-4.73,1.62-3.23.79-6.6.26-9.9-.09-12.21-1.29-24.52-.16-36.79.1s-25.95.27-37.31-4.38c1.57-3.05,3.86-5.89,7-7.22s7.26-.77,9.34,1.95a4.75,4.75,0,0,1,6-1.89c.77-3,2.63-5.84,5.46-7.07s6.62-.34,8.06,2.38a4.45,4.45,0,0,1,7.55-3.29,11.67,11.67,0,0,1,3.86-8.09,27.21,27.21,0,0,1,7.79-4.83,12.09,12.09,0,0,1,4.48-1.3,11.44,11.44,0,0,1,5.11,1.37c3,1.42,6.17,3.52,6.88,6.78,1.23-1,2.11-2,3.68-2.24,2.91-.41,4.11,1.23,5,2,2.54,2.19,3.93,4.27,6.92,5.79a3.19,3.19,0,0,0,1.39.44,3.67,3.67,0,0,0,1.7-.65,18.27,18.27,0,0,1,9.88-2.19,109.93,109.93,0,0,0-193.38,27.14,9.32,9.32,0,0,1,1.21-1.44,17.38,17.38,0,0,1,5-3.08,7.65,7.65,0,0,1,2.86-.83,7.28,7.28,0,0,1,3.26.87c1.94.91,3.94,2.25,4.4,4.33a4.76,4.76,0,0,1,2.35-1.43,3.46,3.46,0,0,1,3.2,1.29c1.62,1.4,2.51,2.73,4.42,3.7a2,2,0,0,0,.88.28,2.31,2.31,0,0,0,1.09-.41,12.41,12.41,0,0,1,9.19-1,21.11,21.11,0,0,1,8.21,4.58c1.69,1.45,3.33,3.13,5.48,3.74,3.07.87,6.41-.67,9.5.09-6,4.76-14.47,4.93-22.14,4.17-3.74-.37-7.61-.89-11.19.26-1,.32-2,.78-3,1a18.7,18.7,0,0,1-6.33,0c-7.52-.8-15.1-.16-22.67,0a110.77,110.77,0,0,0-1.86,20.25H600.42a109.47,109.47,0,0,0-8.63-42.76C590,287.84,588.14,287.7,586.34,287.52Z" style="fill:#0057A0"></path><path d="M529.73,216.3a3.83,3.83,0,0,1-.44-.13l-1.25-.41c-1.11-.36-2.72-1-4.84-1.59a127.42,127.42,0,0,0-18.2-4.33c-1.95-.3-4-.63-6.14-.83s-4.38-.4-6.7-.56a119.29,119.29,0,0,0-14.81.18,117.62,117.62,0,0,0-16.17,2.48,95.84,95.84,0,0,0-16.72,5.33c-2.81,1.11-5.44,2.5-8.08,3.79s-5.13,2.76-7.52,4.31a140.28,140.28,0,0,0-13.42,9.37,120.6,120.6,0,0,0-19.62,19.54L394,255.72c-.55.76-1.05,1.53-1.55,2.26-1,1.48-2,2.84-2.72,4.23s-1.53,2.61-2.15,3.8l-1.56,3.33-.66,1.42-.45,1.29-.73,2-.45,1.24c-.11.28-.18.42-.18.42s0-.15.13-.43.23-.73.4-1.26.41-1.25.68-2.05l.44-1.31c.2-.45.41-.93.64-1.43.45-1,1-2.14,1.52-3.36s1.36-2.46,2.12-3.84,1.71-2.77,2.69-4.26c.51-.74,1-1.52,1.55-2.28s1.16-1.52,1.77-2.3a119.28,119.28,0,0,1,19.61-19.68,137.1,137.1,0,0,1,13.46-9.44c2.39-1.55,5-2.89,7.54-4.33s5.3-2.69,8.11-3.81a96.52,96.52,0,0,1,16.81-5.35,117.29,117.29,0,0,1,16.25-2.46,120.11,120.11,0,0,1,14.88-.14c2.32.18,4.57.31,6.71.6s4.2.56,6.16.87a121.87,121.87,0,0,1,18.2,4.5c2.11.65,3.71,1.29,4.81,1.68l1.24.46C529.59,216.23,529.73,216.3,529.73,216.3Z" style="fill:#0057A0"></path><path d="M562.32,227.17a15.47,15.47,0,0,1-2.47-1.16c-1.5-.76-3.58-1.79-5.91-2.87s-4.46-2-6-2.63a16.49,16.49,0,0,1-2.48-1.13,12.62,12.62,0,0,1,2.62.78c1.59.57,3.76,1.43,6.1,2.51s4.4,2.17,5.87,3A12.28,12.28,0,0,1,562.32,227.17Z" style="fill:#0057A0"></path><path d="M611.05,323.3a3.67,3.67,0,0,1-.09-1.05q0-1.19-.06-2.85c0-2.54-.11-5.8-.18-9.41s-.22-6.87-.3-9.41c0-1.12-.06-2.07-.09-2.86a3.79,3.79,0,0,1,0-1.05,4.89,4.89,0,0,1,.17,1c.07.67.16,1.64.25,2.85.18,2.4.35,5.73.45,9.41s.08,7,0,9.43c0,1.21-.07,2.18-.11,2.86A4.66,4.66,0,0,1,611.05,323.3Z" style="fill:#0057A0"></path><path d="M483.29,195.24a.65.65,0,0,1-.23,0l-.66.08-2.57.25-1.85.18-2.2.28c-1.57.22-3.38.41-5.34.79l-3.09.53c-1.08.19-2.18.46-3.33.7-2.31.45-4.74,1.11-7.3,1.76a151,151,0,0,0-16.26,5.56A148.28,148.28,0,0,0,425,213c-2.27,1.35-4.45,2.59-6.41,3.9-1,.65-1.95,1.24-2.84,1.87l-2.57,1.8c-1.66,1.13-3.06,2.27-4.33,3.22l-1.76,1.35-1.43,1.19-2,1.63-.53.42c-.12.09-.18.13-.19.12l.16-.16.49-.46,1.94-1.7c.42-.38.89-.78,1.41-1.23s1.11-.89,1.73-1.39c1.25-1,2.65-2.14,4.29-3.29l2.56-1.84c.89-.63,1.86-1.23,2.84-1.89,1.95-1.33,4.13-2.59,6.41-4A132,132,0,0,1,456.6,199.4c2.57-.65,5-1.29,7.33-1.73,1.15-.23,2.26-.48,3.34-.66l3.11-.51c2-.35,3.79-.51,5.37-.71.79-.08,1.52-.18,2.2-.24l1.86-.13,2.58-.16.67,0A.82.82,0,0,1,483.29,195.24Z" style="fill:#0057A0"></path><path d="M556.21,341.09c0,.14-30,.26-67.05.26s-67.06-.12-67.06-.26,30-.26,67.06-.26S556.21,340.94,556.21,341.09Z" style="fill:#0057A0"></path><path d="M519.57,349.38c0,.15-14.54.26-32.49.26s-32.49-.11-32.49-.26,14.54-.26,32.49-.26S519.57,349.24,519.57,349.38Z" style="fill:#0057A0"></path><path d="M507.82,358.37c0,.14-6.81.26-15.21.26s-15.21-.12-15.21-.26,6.81-.26,15.21-.26S507.82,358.23,507.82,358.37Z" style="fill:#0057A0"></path></g><g id="freepik--Sea--inject-13"><path d="M687.16,331.45c0,.15-139.77.26-312.15.26s-312.17-.11-312.17-.26,139.74-.26,312.17-.26S687.16,331.31,687.16,331.45Z" style="fill:#263238"></path></g><g id="freepik--Character--inject-13"><path d="M334.26,393.3l24.56,45.44,56.69-30.27c-3.23-5.23-38.36-.45-38.36-.45l-14.54-29.76Z" style="fill:#455a64"></path><g style="opacity:0.6000000000000001"><path d="M358.31,414.92a2.62,2.62,0,0,0-.19,3.5,2.52,2.52,0,0,0,3.46.22,2.77,2.77,0,0,0,.19-3.71c-.95-.87-2.92-.9-3.63.17" style="fill:#fff"></path></g><g style="opacity:0.6000000000000001"><path d="M358.82,438.74l-2.3-4.68,55.21-27.27s3.11-.25,3.78,1.68Z" style="fill:#fff"></path></g><path d="M377.92,407.24c.14.28-1.18,1.15-2.07,2.76s-1,3.17-1.3,3.2-.76-1.8.35-3.73S377.84,407,377.92,407.24Z" style="fill:#263238"></path><path d="M385.18,406.53c.2.23-.75,1.34-1.06,3s.07,3.06-.21,3.19-1.29-1.33-.86-3.4S385,406.26,385.18,406.53Z" style="fill:#263238"></path><path d="M392.35,411.84c-.22.19-1.34-1-1.44-2.88s.87-3.19,1.11-3-.12,1.4,0,3S392.61,411.67,392.35,411.84Z" style="fill:#263238"></path><path d="M373.85,400.83c0,.31-1.45.61-3,1.55s-2.47,2.08-2.74,1.92.38-1.77,2.17-2.85S373.87,400.54,373.85,400.83Z" style="fill:#263238"></path><path d="M368.91,394.82c.06.11-.94.87-2.85,1.5a13.79,13.79,0,0,1-3.45.67,14.67,14.67,0,0,1-2.1,0,3.9,3.9,0,0,1-1.21-.21,1.37,1.37,0,0,1-.91-1.41,1.71,1.71,0,0,1,.87-1.28,4.51,4.51,0,0,1,1.15-.42,11.22,11.22,0,0,1,2.08-.33,11,11,0,0,1,3.54.32c2,.51,3,1.31,2.9,1.41s-1.18-.36-3.06-.66a13.06,13.06,0,0,0-3.29-.07,12.46,12.46,0,0,0-1.9.37c-.68.16-1.2.43-1.21.78,0,.13,0,.17.24.28a3.27,3.27,0,0,0,.89.15,16.19,16.19,0,0,0,1.95.06,18.67,18.67,0,0,0,3.31-.41C367.73,395.16,368.84,394.67,368.91,394.82Z" style="fill:#263238"></path><path d="M368.76,395.41c-.07.1-1.15-.6-2.21-2.34a10.37,10.37,0,0,1-1.27-3.32,10.21,10.21,0,0,1-.2-2.11,2.65,2.65,0,0,1,1.05-2.4,1.49,1.49,0,0,1,1.6.16,3.91,3.91,0,0,1,.85.89,6.94,6.94,0,0,1,1,1.91,7.41,7.41,0,0,1,.36,3.58c-.33,2.06-1.31,3-1.38,2.92s.51-1.14.61-3a7.45,7.45,0,0,0-.53-3.15,6.58,6.58,0,0,0-.93-1.61c-.41-.55-.89-.92-1.08-.74a1.85,1.85,0,0,0-.5,1.46,10.88,10.88,0,0,0,.12,1.92,11.59,11.59,0,0,0,1,3.12C368,394.41,368.89,395.29,368.76,395.41Z" style="fill:#263238"></path><path d="M310.13,275.23c-2.86-1.08-15.45-2.2-27.54,7.21-36.17,28.16-93.28,90.75-93.28,90.75v13.13l64.27-1.2,41.56-46.67,43,74.83c-.88-.89,40.32-20.32,40.32-20.32S326.11,281.25,310.13,275.23Z" style="fill:#263238"></path><path d="M268.57,384.75c-2.66-.61-7.36-.94-16-1.4-20.34-1.07-52.47-3.43-52.47-3.43l-61.59.62-3,24.28c0,21.28,13.09,28.51,22.73,30.16,23.93,4.1,76.32,2.71,95.13,2.79,27.37.12,43-11.36,44.06-23.48C299.47,391.31,281.78,387.8,268.57,384.75Z" style="fill:#263238"></path><path d="M285.05,390.2a3.87,3.87,0,0,1-.77-.35c-.5-.23-1.21-.63-2.17-1a48.24,48.24,0,0,0-8.38-2.83,60.94,60.94,0,0,0-13-1.71c-5-.33-10.38-.77-16.08-1.24-11.4-1-21.73-1.69-29.22-1.91-3.74-.12-6.77-.15-8.87-.17h-2.41a5,5,0,0,1-.84,0,5.06,5.06,0,0,1,.84-.07l2.41-.08c2.1-.05,5.13-.07,8.88,0,7.5.11,17.85.79,29.25,1.75l16.06,1.28a59.76,59.76,0,0,1,13.05,1.83,45,45,0,0,1,8.37,3c1,.44,1.66.86,2.14,1.13A5.35,5.35,0,0,1,285.05,390.2Z" style="fill:#455a64"></path><path d="M298.1,303.4a8.07,8.07,0,0,1-.33,1.38c-.25.87-.59,2.14-1,3.72a80.08,80.08,0,0,0-2.07,25.13c.12,1.62.25,2.93.35,3.83a6.76,6.76,0,0,1,.1,1.41,7.67,7.67,0,0,1-.3-1.38c-.17-.9-.35-2.2-.52-3.82a70.14,70.14,0,0,1,2.08-25.26c.43-1.57.82-2.83,1.13-3.69A7.08,7.08,0,0,1,298.1,303.4Z" style="fill:#455a64"></path><path d="M237.93,381.35a9.77,9.77,0,0,1-2.2-2.32,9.92,9.92,0,0,1-1.79-2.63,9.37,9.37,0,0,1,2.2,2.31A9.88,9.88,0,0,1,237.93,381.35Z" style="fill:#455a64"></path><path d="M211.07,213.12s9.56-4.63,25.42,3.06c17.06,8.28,84.67,46.08,84.67,46.08s11.62,22.78,15.46,49.22c1.84,12.75,1.52,17,1.52,17l-19.13.66s-20.17-50.54-26.92-53.95l-63.36-20Z" style="fill:#8d534d"></path><path d="M319,329c0,.32-5.33,13.39-6,15.48s-1.26,17.14-1.26,17.14-.31,3.87-2.3,5.43a2.85,2.85,0,0,0,2.83.74s-.21,5.54,1.3,6.06,2.77,1.57,4.13-1.36,2.72-6.17,2.72-6.17,1.78,1.68,3.66,1.36.31.52,0,.84-4.18,4.18-3.56,6.9,2.1,1.56,2.1,1.56l9.93-7.52s-1.36,4.6,2.5,5.85l7.74-13.9-.52-23-4.28-15Z" style="fill:#8d534d"></path><path d="M313.13,356.84a30.64,30.64,0,0,1-.1,5.71,30.28,30.28,0,0,1-.63,5.67,32.34,32.34,0,0,1,.11-5.71A31.9,31.9,0,0,1,313.13,356.84Z" style="fill:#6f3730"></path><path d="M322.42,358.52a15.29,15.29,0,0,1-.79,4.2,14.63,14.63,0,0,1-1.49,4,22.37,22.37,0,0,1,1-4.15A20.58,20.58,0,0,1,322.42,358.52Z" style="fill:#6f3730"></path><path d="M329.54,357.14a6.08,6.08,0,0,1,0,1.79,11.37,11.37,0,0,1-1,4.26,11.74,11.74,0,0,1-2.68,3.43,5.6,5.6,0,0,1-1.41,1.11,7.28,7.28,0,0,1,1.15-1.37,14.52,14.52,0,0,0,2.47-3.4,13.81,13.81,0,0,0,1.06-4.06A6.74,6.74,0,0,1,329.54,357.14Z" style="fill:#6f3730"></path><path d="M337.9,357.34a5,5,0,0,1,.27,2.06,12.41,12.41,0,0,1-4.06,9,5.12,5.12,0,0,1-1.72,1.17c-.05-.07.59-.53,1.47-1.43a14.81,14.81,0,0,0,2.74-4,14.4,14.4,0,0,0,1.2-4.71C337.89,358.13,337.82,357.35,337.9,357.34Z" style="fill:#6f3730"></path><path d="M228.73,334,232.86,260l-19.12-48.49s-32.63,4.2-46.13,8.2c-4.9,1.44-31.77,17.53-36,35.32s-2.21,43.95-.42,62.45c1.81,18.75-1.44,68.85,5.74,73.93" style="fill:#0057A0"></path><path d="M274.45,232.45l-4.6,38.08-41.31-9.79-18.17-48.81a38.31,38.31,0,0,1,21.6,2.21C243.1,218.83,274.45,232.45,274.45,232.45Z" style="fill:#0057A0"></path><g style="opacity:0.30000000000000004"><path d="M227.32,321.36a16,16,0,0,0-4.38-4.9,129.51,129.51,0,0,0-71.13-29.32l-1.74,2,19.74,20.43c3.25,3.36,7.36,7,11.95,6.09,1.9-.38,3.63-1.55,5.57-1.63,3-.11,5.43,2.38,7.66,4.45a40.78,40.78,0,0,0,33.55,10.26C228.49,326.21,228.43,323.61,227.32,321.36Z"></path></g><path d="M228.81,329.18c.25,12.95,5.33,33.21,4.72,46.15-9.7-1.53-25.21.86-33.22,6.52-4.17,2.95-7.75,6.74-12.22,9.21-7.53,4.16-16.67,4.08-25.2,2.91s-17-3.35-25.59-3l28.06-33.64Z" style="fill:#0057A0"></path><path d="M225.17,349.52a12,12,0,0,1-.18,2.93,18,18,0,0,1-.91,3.33,22.48,22.48,0,0,1-2.13,4.05,32.27,32.27,0,0,1-8.39,8.36c-3.64,2.62-8,4.93-12.3,7.69a56.88,56.88,0,0,0-6,4.39c-1.86,1.55-3.6,3.11-5.34,4.52a39.56,39.56,0,0,1-5.2,3.66,21.14,21.14,0,0,1-5.12,2.13,14.72,14.72,0,0,1-8,.09,8.77,8.77,0,0,1-2.65-1.25,21.16,21.16,0,0,0,2.71,1.05,14.84,14.84,0,0,0,7.8-.24,21.55,21.55,0,0,0,5-2.15,40.79,40.79,0,0,0,5.11-3.67c1.71-1.4,3.45-3,5.32-4.53a56.24,56.24,0,0,1,6.08-4.44c4.35-2.77,8.69-5.06,12.31-7.64a32.3,32.3,0,0,0,8.36-8.18,22.56,22.56,0,0,0,2.17-3.95,18.89,18.89,0,0,0,1-3.26C225.15,350.57,225.1,349.52,225.17,349.52Z" style="fill:#263238"></path><path d="M219.52,330.07a9.49,9.49,0,0,1-.74,1.51c-.51,1-1.29,2.34-2.28,4A138.44,138.44,0,0,1,208,348.17a136,136,0,0,1-9.87,11.57c-1.34,1.4-2.46,2.51-3.25,3.26a9,9,0,0,1-1.27,1.12,12.92,12.92,0,0,1,1.12-1.26c.75-.79,1.82-1.94,3.13-3.37,2.62-2.87,6.14-6.92,9.73-11.63s6.57-9.18,8.63-12.46c1-1.65,1.86-3,2.42-3.92A9.64,9.64,0,0,1,219.52,330.07Z" style="fill:#263238"></path><path d="M232.67,244a7.61,7.61,0,0,1,.16,1.45c.07.94.13,2.31.19,4,.1,3.36.12,8,0,13.15s-.42,9.78-.63,13.14c-.1,1.6-.19,2.94-.26,4a9.6,9.6,0,0,1-.12,1.45,6.76,6.76,0,0,1-.08-1.46c0-.94,0-2.3.09-4,.13-3.45.3-8.05.48-13.13s.2-9.77.19-13.14c0-1.6,0-2.94,0-4A8.81,8.81,0,0,1,232.67,244Z" style="fill:#263238"></path><path d="M230.08,217.31a7.26,7.26,0,0,1,.82,2,31.28,31.28,0,0,1,1.14,5.13,29.56,29.56,0,0,1,.24,5.24,7.65,7.65,0,0,1-.26,2.16c-.16,0,0-3.31-.5-7.33S229.93,217.36,230.08,217.31Z" style="fill:#263238"></path><g style="opacity:0.30000000000000004"><path d="M195.42,361.76c-5,4.37-9.23,8.94-14.34,13.31,8.39-1.11,16.11-5.72,21.78-11.68s9.39-13.22,9.68-21.24Z"></path></g><path d="M165.36,297s65,34.39,74.15,34.4c19.84,0,52.58-56.18,52.58-56.18l-13-13.25s-38.67,34.75-41.65,34.75c-5.88,0-50.11-27.64-50.11-27.64Z" style="fill:#8d534d"></path><path d="M278.42,262.33s3.15-13.58,5.29-15.73c.81-.8,1.94-2,3.05-3.18a7.29,7.29,0,0,1,8.43-1.64l1.75.81s3.68-2,5.06-.77a35.11,35.11,0,0,1,3.67,4.6,10.94,10.94,0,0,1,4.91,1.53,15.16,15.16,0,0,1,2.45,1.92s3.37.84,4.44,3.14l1.08,2.3s3.06,2.14,2.91,4.9-1.07,1.84-1.07,1.84l-2.92.15s-16.85,11.19-20.38,12.11a25.49,25.49,0,0,1-5.82.92Z" style="fill:#8d534d"></path><path d="M321.16,262.26a3.9,3.9,0,0,0-1.08-.1,15.94,15.94,0,0,0-3.13.5l0,0c-2.14,1.49-5.28,3.64-9.27,6.21-2,1.27-4.2,2.67-6.69,4a13.25,13.25,0,0,1-2,.9c-.7.22-1.42.39-2.15.57-1.46.36-3,.68-4.54,1l.16-.1c-4,6.24-8.56,13.36-13.68,20.68-4.53,6.45-9.07,12.43-13.54,17.6-2.21,2.6-4.42,5-6.53,7.16a48.9,48.9,0,0,1-6.49,5.43,41,41,0,0,1-5.91,3.7,18.37,18.37,0,0,1-5,1.64,8.66,8.66,0,0,1-3.33-.05,4,4,0,0,1-.83-.27c-.18-.07-.27-.11-.26-.12a8.42,8.42,0,0,0,4.38.24,18.57,18.57,0,0,0,4.92-1.71,40.2,40.2,0,0,0,5.82-3.73,50.12,50.12,0,0,0,6.4-5.43c2.09-2.19,4.28-4.57,6.48-7.17,4.43-5.17,8.95-11.15,13.47-17.59,5.11-7.31,9.69-14.42,13.72-20.64l.05-.08.11,0c1.55-.27,3.06-.58,4.51-.93.72-.18,1.44-.35,2.12-.56a12.61,12.61,0,0,0,1.92-.85c2.46-1.3,4.68-2.68,6.68-3.93,4-2.52,7.19-4.63,9.36-6.07h0a14.37,14.37,0,0,1,3.18-.41,3.66,3.66,0,0,1,.82.09A.84.84,0,0,1,321.16,262.26Z" style="fill:#6f3730"></path><path d="M305.67,246.42a11.15,11.15,0,0,1-1.51-1.77c-.42-.58-1-1.18-1.61-1.89a2.6,2.6,0,0,0-2.55-.92,15.6,15.6,0,0,0-2.95.66,5.63,5.63,0,0,0-2.13,1.13,12,12,0,0,1-1.3,1.11c-.34.22-.55.31-.57.28s.66-.56,1.62-1.66a5.57,5.57,0,0,1,2.22-1.31,13.63,13.63,0,0,1,3.05-.72,3.05,3.05,0,0,1,3,1.09c.59.76,1.18,1.41,1.56,2A10.2,10.2,0,0,1,305.67,246.42Z" style="fill:#6f3730"></path><path d="M307.72,246.88c0,.16-1.47-.2-3.22.07s-3,1-3.09.86a6,6,0,0,1,6.31-.93Z" style="fill:#6f3730"></path><path d="M316.74,252.13c-.07.05-.38-.45-1.13-.95a5.86,5.86,0,0,0-3.33-.88,13.64,13.64,0,0,0-3.5.68,4.88,4.88,0,0,1-1.48.36,4.57,4.57,0,0,1,1.36-.71,10.23,10.23,0,0,1,3.6-.85,5.46,5.46,0,0,1,3.56,1.11C316.59,251.51,316.79,252.11,316.74,252.13Z" style="fill:#6f3730"></path><path d="M319.12,256c-.08,0-.19-.31-.56-.64a2.64,2.64,0,0,0-1.8-.6,6.38,6.38,0,0,0-2,.53c-.5.2-.82.32-.86.25s.23-.29.7-.58a4.69,4.69,0,0,1,2.1-.72,2.56,2.56,0,0,1,2.08.87C319.21,255.58,319.17,256,319.12,256Z" style="fill:#6f3730"></path><path d="M239.07,310c-.15,0-.27-3-.66-6.66s-.86-6.63-.71-6.66A41.23,41.23,0,0,1,239.07,310Z" style="fill:#6f3730"></path><path d="M288.23,242.21s-.41.25-1,.82a16.5,16.5,0,0,0-2.37,2.69c-1.89,2.42-2.8,6.63-4.32,11-.65,2-1.27,3.89-1.85,5.63l0,.06,0,.05c-2.39,2.16-4.44,4-5.91,5.28L271,269.28a3.08,3.08,0,0,1-.66.49,4.24,4.24,0,0,1,.55-.61l1.63-1.59c1.41-1.35,3.41-3.23,5.78-5.42l-.07.1c.56-1.75,1.18-3.65,1.82-5.64.72-2.22,1.42-4.33,2.05-6.27a16.47,16.47,0,0,1,2.46-4.84C286.39,243,288.19,242.1,288.23,242.21Z" style="fill:#6f3730"></path><path d="M137.26,282l45.59,29.33,28.22-32.06s-43.13-43.63-51.81-41.65S127.9,243.29,137.26,282Z" style="fill:#0057A0"></path><path d="M168.88,246.6a1.46,1.46,0,0,1,.26.06,3,3,0,0,1,.72.27,21.35,21.35,0,0,1,2.58,1.46c2.18,1.4,5.25,3.6,9,6.48C189,260.63,199.38,269,211.23,279l.2.16-.17.19-14.55,16.86-13.15,15.21-.12.14-.18-.08a192.8,192.8,0,0,1-19.16-11.31c-2.81-1.85-5.43-3.65-7.85-5.31s-4.81-3-6.94-4.23-4-2.41-5.61-3.55a29.27,29.27,0,0,1-3.78-3.22c-.47-.48-.88-.92-1.21-1.33a10.17,10.17,0,0,1-.8-1l-.47-.65c-.1-.15-.15-.23-.14-.24a1.32,1.32,0,0,1,.18.21l.5.63c.2.28.49.61.83,1s.75.82,1.23,1.29a30.68,30.68,0,0,0,3.81,3.14c1.58,1.11,3.48,2.25,5.62,3.48s4.54,2.54,7,4.18,5.06,3.44,7.87,5.27a198.76,198.76,0,0,0,19.15,11.22l-.3.06,13.14-15.22,14.57-16.84,0,.35c-11.83-10-22.16-18.48-29.64-24.3-3.74-2.91-6.77-5.15-8.92-6.59a27.75,27.75,0,0,0-2.53-1.53C169.23,246.68,168.87,246.64,168.88,246.6Z" style="fill:#263238"></path><path d="M154.41,243.81a41.06,41.06,0,0,0-4.53,1.07,20.79,20.79,0,0,0-14.06,16,40.13,40.13,0,0,0-.47,4.64,5,5,0,0,1-.13-1.26,18.07,18.07,0,0,1,.24-3.44,20.25,20.25,0,0,1,14.31-16.3,18,18,0,0,1,3.38-.68A5.49,5.49,0,0,1,154.41,243.81Z" style="fill:#263238"></path><path d="M166.65,186.42c-3.08-6.16-6.14-12.38-8.11-19s-2.82-13.67-1.4-20.41c.22-1,2.31-8,3.36-8,.74,0-.24,6.3.23,6.89,4.46,5.56,6.52,12.74,7,19.85a93.71,93.71,0,0,1-1.08,20.69" style="fill:#263238"></path><path d="M210.53,218.48c-.67-4.82-1.18-8.63-1.14-8.63s16.26-4.15,14.9-20.68c-.66-8-3.36-24.3-6-39A30.91,30.91,0,0,0,185,124.74l-1.59.15c-17.09,2.64-24.39,18.63-21.28,35.63l9,59.82,13.67,12.09c10.9,9.64,27.89.45,25.79-14Z" style="fill:#8d534d"></path><path d="M209.39,209.85a40.1,40.1,0,0,1-22.11-4.31S193.67,217.05,210,214Z" style="fill:#6f3730"></path><path d="M215.48,164.08a2.37,2.37,0,0,1-2,2.6,2.26,2.26,0,0,1-2.63-1.9,2.36,2.36,0,0,1,2-2.59A2.26,2.26,0,0,1,215.48,164.08Z" style="fill:#263238"></path><path d="M215.43,157.29c-.26.34-2.17-.81-4.71-.57s-4.27,1.7-4.58,1.41c-.15-.12.1-.7.85-1.37a6.53,6.53,0,0,1,3.63-1.51,6.21,6.21,0,0,1,3.79.84C215.25,156.61,215.57,157.14,215.43,157.29Z" style="fill:#263238"></path><path d="M191.9,166.87a2.35,2.35,0,0,1-2,2.59,2.27,2.27,0,0,1-2.64-1.89,2.38,2.38,0,0,1,2.05-2.6A2.27,2.27,0,0,1,191.9,166.87Z" style="fill:#263238"></path><path d="M190.68,160.69c-.27.33-2.18-.82-4.71-.57s-4.28,1.69-4.58,1.41c-.15-.13.09-.71.85-1.38a6.57,6.57,0,0,1,3.63-1.51,6.25,6.25,0,0,1,3.78.84C190.49,160,190.81,160.54,190.68,160.69Z" style="fill:#263238"></path><path d="M201.64,179.32c0-.15,1.52-.57,4.05-1.14.64-.13,1.24-.32,1.31-.77a3.38,3.38,0,0,0-.62-1.88L204,170.78c-3.33-6.77-5.81-12.36-5.54-12.49s3.2,5.25,6.53,12c.8,1.67,1.57,3.26,2.31,4.79a3.77,3.77,0,0,1,.57,2.51,1.64,1.64,0,0,1-1,1,4.66,4.66,0,0,1-1.09.25C203.25,179.3,201.66,179.46,201.64,179.32Z" style="fill:#263238"></path><path d="M189.56,150.4c-.19.72-2.75.63-5.69,1.27s-5.28,1.69-5.73,1.11c-.21-.28.15-1,1.06-1.73a10.13,10.13,0,0,1,8.7-1.81C189,149.58,189.63,150.07,189.56,150.4Z" style="fill:#263238"></path><path d="M213.58,149c-.39.62-2.19.19-4.3.36s-3.84.75-4.31.19c-.21-.27,0-.88.74-1.5a6,6,0,0,1,3.41-1.27,5.89,5.89,0,0,1,3.53.83C213.45,148.09,213.75,148.66,213.58,149Z" style="fill:#263238"></path><path d="M164.6,172.62c-.3-.1-11.67-2.28-10.23,9s12.44,7.5,12.41,7.17S164.6,172.62,164.6,172.62Z" style="fill:#8d534d"></path><path d="M162.8,184.94c-.05,0-.18.16-.49.35a2,2,0,0,1-1.46.22c-1.24-.29-2.49-2-2.8-4.07a6.48,6.48,0,0,1,.19-2.87,2.32,2.32,0,0,1,1.28-1.7,1,1,0,0,1,1.23.39c.19.3.15.53.21.54s.22-.22.07-.67a1.29,1.29,0,0,0-.54-.65,1.55,1.55,0,0,0-1.12-.15,2.78,2.78,0,0,0-1.82,2,6.73,6.73,0,0,0-.28,3.22c.36,2.26,1.79,4.24,3.48,4.5a2.11,2.11,0,0,0,1.75-.53C162.82,185.21,162.84,185,162.8,184.94Z" style="fill:#6f3730"></path><path d="M208.5,132.48c1.68-1.26-4.59-6.4-9.33-7.82-7.18-2.14-17.75-2.62-23.74,0-7.21,3.15-12.94,7.73-15.77,15.07s-3.16,15.49-1.88,23.25a13.54,13.54,0,0,0,2.52,6.65c1.91,2.27,5.14,3.43,5.47,6.87a4.82,4.82,0,0,0,1.64,3.28c2.36,1.9,4.59-.5,5.47-2.72,1.87-4.74,1.42-10,1-15.1-.33-3.61-.69-7.29-2.17-10.6-.8-1.79-1.93-3.44-2.63-5.28a6.77,6.77,0,0,1,0-5.72,6.33,6.33,0,0,1,.78-1.05,11.84,11.84,0,0,1,11.33-3.81c6.64,1.38,17.9,3.25,20.43.71,3.64-3.64,4.34-5.79,4.34-5.79Z" style="fill:#263238"></path><path d="M205.92,186.79c.09.18-.33.64-1.25,1a6.76,6.76,0,0,1-7.07-1.64c-.66-.73-.84-1.33-.68-1.45.35-.27,1.88,1.25,4.33,1.78S205.72,186.39,205.92,186.79Z" style="fill:#263238"></path></g><g id="freepik--Floor--inject-13"><path d="M54.5,442.22c25.33-18,101.1-14.65,124.55-11.79s47.06,7.31,70.54,4.65c21.78-2.47,43-11,64.86-9.88,19.93,1,39.3,10.1,59.13,7.86,11.55-1.3,22.3-6.37,33.45-9.67,21.11-6.26,64.81,2.13,81.63,12.71" style="fill:#fff"></path><path d="M488.66,436.1l-1-.54c-.67-.35-1.63-.95-2.95-1.59a93.06,93.06,0,0,0-11.95-4.76,161.57,161.57,0,0,0-19.75-5,158.77,158.77,0,0,0-26.8-2.81,82.7,82.7,0,0,0-15.58,1.31c-1.32.32-2.66.6-4,1s-2.66.83-4,1.28c-2.69.9-5.41,1.87-8.19,2.84a109.34,109.34,0,0,1-17.56,5,64.78,64.78,0,0,1-19.33.19c-13.18-1.57-26.47-6.16-40.81-7.38a81.68,81.68,0,0,0-10.85-.14c-3.64.21-7.31.59-11,1.15-7.34,1.11-14.7,2.8-22.15,4.46s-14.85,3.24-22.25,4.14a142.55,142.55,0,0,1-22,.81c-14.42-.51-28.19-2.59-41.3-4.32a339.19,339.19,0,0,0-37.41-3.09c-11.75-.4-22.72-.33-32.71.08s-19,1.22-26.88,2.33a143,143,0,0,0-19.93,4.15,63,63,0,0,0-11.94,4.74,32.54,32.54,0,0,0-2.88,1.69c-.64.41-1,.6-1,.6l1-.64a27.74,27.74,0,0,1,2.86-1.74A60.83,60.83,0,0,1,70.25,435a140.09,140.09,0,0,1,19.94-4.25c7.87-1.13,16.9-2,26.91-2.41s21-.52,32.74-.14a337,337,0,0,1,37.45,3.05c13.12,1.71,26.88,3.78,41.26,4.28a142.75,142.75,0,0,0,21.89-.82c7.37-.89,14.75-2.46,22.2-4.13s14.81-3.35,22.18-4.46q5.52-.84,11-1.16a82.62,82.62,0,0,1,10.91.16c14.43,1.23,27.71,5.83,40.83,7.4a64.51,64.51,0,0,0,19.19-.16,110,110,0,0,0,17.5-4.93c2.78-1,5.5-1.93,8.2-2.83,1.35-.44,2.69-.87,4-1.27s2.7-.66,4-1a82.87,82.87,0,0,1,15.67-1.27A157.91,157.91,0,0,1,453.06,424,159.87,159.87,0,0,1,472.81,429a91.46,91.46,0,0,1,11.94,4.85C487.35,435.27,488.66,436.1,488.66,436.1Z" style="fill:#263238"></path><path d="M579,432.88c6.73-6.73,17.29-7.88,26.73-6.72s18.67,4.21,28.19,4.38c9.37.16,18.52-2.47,27.76-4.05s21-.54,27.52,6.39" style="fill:#fff"></path><path d="M689.23,432.88l-.23-.19-.64-.58-.47-.43-.62-.46-.71-.54c-.26-.19-.56-.36-.86-.56a27.6,27.6,0,0,0-11.49-3.79,43.24,43.24,0,0,0-8.42-.13,82.33,82.33,0,0,0-9.57,1.57c-6.7,1.33-14.11,3.1-22.09,3s-15.33-2.14-22-3.38a76.66,76.66,0,0,0-9.6-1.34,43.63,43.63,0,0,0-8.42.22,27.59,27.59,0,0,0-11.48,3.87l-.86.54-.71.54a11.35,11.35,0,0,0-1.1.88l-.66.57-.23.18s.06-.08.2-.22l.62-.61a10.24,10.24,0,0,1,1.07-.92l.71-.56.85-.58A27.3,27.3,0,0,1,594,425.94a43.32,43.32,0,0,1,8.49-.29,78.33,78.33,0,0,1,9.67,1.29c6.73,1.22,14.07,3.2,22,3.34s15.28-1.68,22-3a79.62,79.62,0,0,1,9.62-1.53,43,43,0,0,1,8.5.2,27,27,0,0,1,11.56,4c.3.21.6.39.85.58l.71.57.6.49.46.45.61.62C689.17,432.8,689.24,432.87,689.23,432.88Z" style="fill:#263238"></path></g></svg>