<svg width="24" height="24" viewBox="0 0 24 24" fill="none" xmlns="http://www.w3.org/2000/svg">
<path d="M23.9921 12.0004C23.9921 18.0612 19.5008 23.0717 13.6663 23.8848C13.1208 23.9605 12.5626 24 11.996 24C11.3421 24 10.6999 23.9479 10.0745 23.847C4.36266 22.9271 0 17.9729 0 12.0004C0 5.37294 5.37136 0 11.9969 0C18.6224 0 23.9938 5.37294 23.9938 12.0004H23.9921Z" fill="white"/>
<path d="M13.6663 9.636V12.2502H16.8992L16.3873 15.7716H13.6663V23.8848C13.1208 23.9605 12.5626 24 11.9961 24C11.3421 24 10.6999 23.9479 10.0745 23.847V15.7716H7.0929V12.2502H10.0745V9.05163C10.0745 7.06725 11.6825 5.45789 13.6671 5.45789V5.45957C13.673 5.45957 13.6781 5.45789 13.684 5.45789H16.9V8.5034H14.7986C14.174 8.5034 13.6671 9.01042 13.6671 9.63517L13.6663 9.636Z" fill="#05192E"/>
</svg>
