<svg width="24" height="24" viewBox="0 0 24 24" fill="none" xmlns="http://www.w3.org/2000/svg">
<path d="M12.0176 0H11.9629C5.35255 0 -0.00622559 5.36035 -0.00622559 11.9727V12.0273C-0.00622559 18.6397 5.35255 24 11.9629 24H12.0176C18.6279 24 23.9867 18.6397 23.9867 12.0273V11.9727C23.9867 5.36035 18.6279 0 12.0176 0Z" fill="white"/>
<path d="M15.7028 4.88269H8.27869C6.22765 4.88269 4.55908 6.55175 4.55908 8.60339V15.3974C4.55908 17.449 6.22765 19.1181 8.27869 19.1181H15.7028C17.7538 19.1181 19.4224 17.449 19.4224 15.3974V8.60339C19.4224 6.55175 17.7538 4.88269 15.7028 4.88269ZM5.87124 8.60339C5.87124 7.27571 6.9514 6.19524 8.27869 6.19524H15.7028C17.0301 6.19524 18.1102 7.27571 18.1102 8.60339V15.3974C18.1102 16.725 17.0301 17.8055 15.7028 17.8055H8.27869C6.9514 17.8055 5.87124 16.725 5.87124 15.3974V8.60339Z" fill="#05192E"/>
<path d="M11.9908 15.4603C13.898 15.4603 15.4506 13.9082 15.4506 11.9995C15.4506 10.0908 13.8989 8.53857 11.9908 8.53857C10.0826 8.53857 8.53088 10.0908 8.53088 11.9995C8.53088 13.9082 10.0826 15.4603 11.9908 15.4603ZM11.9908 9.85196C13.1751 9.85196 14.1385 10.8156 14.1385 12.0003C14.1385 13.185 13.1751 14.1486 11.9908 14.1486C10.8064 14.1486 9.84304 13.185 9.84304 12.0003C9.84304 10.8156 10.8064 9.85196 11.9908 9.85196Z" fill="#05192E"/>
<path d="M15.7708 9.09777C16.2844 9.09777 16.703 8.67987 16.703 8.16528C16.703 7.65069 16.2853 7.23279 15.7708 7.23279C15.2564 7.23279 14.8386 7.65069 14.8386 8.16528C14.8386 8.67987 15.2564 9.09777 15.7708 9.09777Z" fill="#05192E"/>
</svg>
