<svg width="25" height="24" viewBox="0 0 25 24" fill="none" xmlns="http://www.w3.org/2000/svg">
<path d="M24.9788 12.0004C24.9788 18.0612 20.4875 23.0717 14.653 23.8848C14.1074 23.9605 13.5493 24 12.9827 24C12.3288 24 11.6866 23.9479 11.0612 23.847C5.34935 22.9271 0.986694 17.9729 0.986694 12.0004C0.986694 5.37294 6.35806 0 12.9836 0C19.6091 0 24.9805 5.37294 24.9805 12.0004H24.9788Z" fill="white"/>
<path d="M5.85197 5.29309L11.3847 12.6925L5.8175 18.7086H7.07083L11.9454 13.4416L15.8836 18.7086H20.1479L14.3041 10.8931L19.4863 5.29309H18.233L13.7443 10.1439L10.1171 5.29309H5.8528H5.85197ZM7.69454 6.21633H9.65311L18.3036 17.7854H16.345L7.69454 6.21633Z" fill="#05192E"/>
</svg>
